<svg width="20" height="21" viewBox="0 0 20 21" fill="none" xmlns="http://www.w3.org/2000/svg">
<path d="M13.9324 9.59375C12.6434 9.59375 12.4644 10.8803 12.4644 10.8803H15.2048C15.2048 10.8803 15.2222 9.59375 13.9324 9.59375Z" fill="#1B6EEC"/>
<path d="M7.71547 10.8809H5.28613V13.1112H7.43688C7.47343 13.1112 7.52825 13.112 7.59242 13.1112C7.93842 13.1031 8.59429 13.0024 8.59429 12.0269C8.59429 10.8691 7.71547 10.8809 7.71547 10.8809Z" fill="#1B6EEC"/>
<path d="M10.0004 0.595703C4.47734 0.595703 0 5.07223 0 10.5953C0 16.1184 4.47734 20.5957 10.0004 20.5957C15.5227 20.5957 20 16.1184 20 10.5953C20 5.07264 15.5223 0.595703 10.0004 0.595703ZM12.1053 6.74012H15.5478V7.76757H12.1053V6.74012ZM10.3651 12.13C10.3651 14.6767 7.71524 14.5926 7.71524 14.5926H5.2859H5.21483H3.37313V6.24872H5.21483H5.2859H7.71524C9.03428 6.24872 10.0755 6.97728 10.0755 8.47013C10.0755 9.96299 8.80239 10.058 8.80239 10.058C10.4808 10.058 10.3651 12.13 10.3651 12.13ZM16.8051 11.9935H12.4813C12.4813 13.5432 13.9494 13.4458 13.9494 13.4458C15.3358 13.4458 15.2875 12.5479 15.2875 12.5479H16.7564C16.7564 14.9305 13.9003 14.7672 13.9003 14.7672C10.4743 14.7672 10.6949 11.5773 10.6949 11.5773C10.6949 11.5773 10.6916 8.37186 13.9003 8.37186C17.2779 8.37186 16.8051 11.9935 16.8051 11.9935Z" fill="#1B6EEC"/>
<path d="M8.30506 8.60027C8.30506 7.73242 7.71498 7.73242 7.71498 7.73242H7.40228H5.28564V9.59402H7.56432C7.95743 9.59402 8.30506 9.46772 8.30506 8.60027Z" fill="#1B6EEC"/>
</svg>
