<svg width="21" height="21" viewBox="0 0 21 21" fill="none" xmlns="http://www.w3.org/2000/svg">
<path d="M10.9226 19.7894C16 19.7894 20.1161 15.6733 20.1161 10.5959C20.1161 5.51844 16 1.40234 10.9226 1.40234C5.8451 1.40234 1.729 5.51844 1.729 10.5959C1.729 15.6733 5.8451 19.7894 10.9226 19.7894Z" fill="#F478C4"/>
<path d="M10.9229 20.5957C5.40995 20.5957 0.922852 16.1086 0.922852 10.5957C0.922852 5.0828 5.40995 0.595703 10.9229 0.595703C16.4358 0.595703 20.9229 5.0828 20.9229 10.5957C20.9229 16.1086 16.4358 20.5957 10.9229 20.5957ZM10.9229 2.20861C6.29704 2.20861 2.53575 5.9699 2.53575 10.5957C2.53575 15.2215 6.29704 18.9828 10.9229 18.9828C15.5487 18.9828 19.3099 15.2215 19.3099 10.5957C19.3099 5.9699 15.5487 2.20861 10.9229 2.20861Z" fill="#E50695"/>
<path d="M8.01937 9.61181C6.12905 9.61181 4.08389 9.33116 1.90325 8.76342C1.47099 8.65052 1.21292 8.21181 1.32583 7.77955C1.43873 7.34729 1.87744 7.08923 2.3097 7.20213C8.91615 8.91826 14.0871 7.83116 17.2613 4.06342C17.5484 3.72471 18.0581 3.67955 18.3968 3.96664C18.7387 4.25374 18.7807 4.76342 18.4936 5.10213C15.9742 8.09245 12.4129 9.61181 8.01937 9.61181Z" fill="#E50695"/>
<path d="M3.98753 17.4379C3.80043 17.4379 3.61656 17.3734 3.46495 17.2443C3.12624 16.954 3.08753 16.4443 3.37462 16.1056C8.09075 10.5927 14.194 9.28303 20.1198 12.5185C20.5101 12.7314 20.6553 13.2217 20.4424 13.6121C20.2295 14.0024 19.7391 14.1475 19.3488 13.9346C12.2327 10.054 7.05527 14.2863 4.60043 17.1572C4.44237 17.3411 4.21656 17.4379 3.98753 17.4379Z" fill="#E50695"/>
<path d="M13.5647 20.2117C13.5357 20.2117 13.5066 20.2117 13.4776 20.2084C13.0357 20.16 12.7163 19.7633 12.7647 19.3181C13.3937 13.5504 11.9099 7.73424 8.35824 2.02456C8.12276 1.64714 8.23889 1.15037 8.61631 0.914882C8.99373 0.679398 9.4905 0.795527 9.72598 1.17295C13.4744 7.19553 15.0357 13.36 14.3679 19.4955C14.3195 19.9084 13.9711 20.2117 13.5647 20.2117Z" fill="#E50695"/>
<path d="M2.14221 14.1381C1.79704 14.1381 1.48092 13.9155 1.37124 13.5704C1.07446 12.6091 0.922852 11.6091 0.922852 10.5962C0.922852 5.39295 4.98414 1.01231 10.168 0.62521C10.6099 0.592952 11.0003 0.92521 11.0325 1.37037C11.0648 1.81553 10.7325 2.20263 10.2874 2.23489C5.94221 2.55747 2.53575 6.23166 2.53575 10.5962C2.53575 11.4478 2.66156 12.2865 2.91317 13.0897C3.04543 13.5155 2.80672 13.9671 2.38092 14.0994C2.3035 14.1252 2.22285 14.1381 2.14221 14.1381Z" fill="#ED40A9"/>
</svg>
