<svg width="21" height="21" viewBox="0 0 21 21" fill="none" xmlns="http://www.w3.org/2000/svg">
<path d="M10.8462 20.5957C16.369 20.5957 20.8462 16.1186 20.8462 10.5957C20.8462 5.07286 16.369 0.595703 10.8462 0.595703C5.32334 0.595703 0.846191 5.07286 0.846191 10.5957C0.846191 16.1186 5.32334 20.5957 10.8462 20.5957Z" fill="#4D76A1"/>
<path fill-rule="evenodd" clip-rule="evenodd" d="M10.4674 14.9824H11.2525C11.2525 14.9824 11.4908 14.9551 11.6119 14.8262C11.7252 14.7051 11.7213 14.4824 11.7213 14.4824C11.7213 14.4824 11.7056 13.4278 12.1939 13.2754C12.6744 13.1231 13.2955 14.291 13.9517 14.7442C14.4478 15.084 14.8228 15.0098 14.8228 15.0098L16.5767 14.9863C16.5767 14.9863 17.4947 14.9317 17.0572 14.209C17.022 14.1504 16.8033 13.6738 15.7525 12.7012C14.6549 11.6817 14.7994 11.8457 16.1236 10.0801C16.9322 9.00588 17.2525 8.34963 17.1509 8.06838C17.0533 7.79885 16.4634 7.87307 16.4634 7.87307L14.4869 7.88479C14.4869 7.88479 14.3424 7.86525 14.233 7.92775C14.1275 7.99025 14.0572 8.13869 14.0572 8.13869C14.0572 8.13869 13.7447 8.97072 13.3267 9.67775C12.4478 11.1699 12.0963 11.2481 11.9517 11.1582C11.6158 10.9395 11.7017 10.291 11.7017 9.82619C11.7017 8.38088 11.9205 7.77541 11.2759 7.61916C11.0611 7.56838 10.9049 7.53322 10.3541 7.52932C9.65095 7.5215 9.05329 7.52932 8.71345 7.69729C8.49079 7.80666 8.31501 8.05275 8.42048 8.06447C8.54939 8.0801 8.84626 8.1465 9.00251 8.35744C9.20564 8.63088 9.19782 9.25197 9.19782 9.25197C9.19782 9.25197 9.31501 10.9551 8.92439 11.166C8.65876 11.3106 8.29157 11.0137 7.51032 9.66213C7.10798 8.96682 6.8072 8.20119 6.8072 8.20119C6.8072 8.20119 6.7486 8.05666 6.64314 7.98244C6.51423 7.88869 6.33845 7.86135 6.33845 7.86135L4.46345 7.87307C4.46345 7.87307 4.1822 7.88088 4.07673 8.00197C3.98689 8.11135 4.06892 8.33791 4.06892 8.33791C4.06892 8.33791 5.53767 11.7754 7.20173 13.5059C8.73689 15.0879 10.4674 14.9824 10.4674 14.9824Z" fill="white"/>
</svg>
