<svg width="85" height="84" viewBox="0 0 85 84" fill="none" xmlns="http://www.w3.org/2000/svg">
<circle opacity="0.2" cx="42.1958" cy="42.0083" r="41.939" fill="#33A1FB"/>
<path d="M59.6257 37.3661C58.0158 29.2219 50.8303 23.0781 42.2126 23.0781C35.3704 23.0781 29.4398 26.9609 26.4685 32.6311C19.3541 33.4005 13.8022 39.4259 13.8022 46.7534C13.8022 54.6017 20.1591 60.9585 28.0074 60.9585H58.7852C65.3196 60.9585 70.6229 55.6553 70.6229 49.1209C70.6229 42.8706 65.7576 37.8041 59.6257 37.3661Z" fill="white"/>
<path d="M59.6257 37.3661C58.0158 29.2219 50.8303 23.0781 42.2126 23.0781C35.3704 23.0781 29.4398 26.9609 26.4685 32.6311C19.3541 33.4005 13.8022 39.4259 13.8022 46.7534C13.8022 54.6017 20.1591 60.9585 28.0074 60.9585H58.7852C65.3196 60.9585 70.6229 55.6553 70.6229 49.1209C70.6229 42.8706 65.7576 37.8041 59.6257 37.3661ZM54.0502 44.3858L42.2126 56.2235L30.3749 44.3858H37.4775V34.9157H46.9476V44.3858H54.0502Z" fill="#33A1FB"/>
</svg>
