<svg width="97" height="97" viewBox="0 0 97 97" fill="none" xmlns="http://www.w3.org/2000/svg">
<circle cx="48.5087" cy="48.6923" r="47.8105" fill="#33A1FB"/>
<path d="M48.3839 66.5786H26.1248C25.7386 66.5786 25.5631 66.368 25.5631 65.9467V30.0653C25.528 29.8195 25.7035 29.6089 25.9493 29.5738H32.9711C33.1466 29.5387 33.3573 29.6791 33.3573 29.8546V59.4515H49.5776C49.9287 59.4515 50.034 59.6271 49.9638 59.943L48.9456 66.052C48.9456 66.2275 48.8403 66.368 48.735 66.4733C48.6297 66.5435 48.5243 66.5786 48.3839 66.5786Z" fill="#F8F9FC"/>
<path d="M54.0047 38.494H60.1488C60.4999 38.494 60.7808 38.7397 60.8861 39.0557C61.0265 39.3015 61.1319 39.5823 61.167 39.8632C61.2372 40.2143 61.3074 40.6005 61.3425 40.9516C61.3776 41.3378 61.4127 41.7591 61.4127 42.2155C62.466 40.9867 63.7299 39.9685 65.1694 39.1961C66.7844 38.3184 68.575 37.8971 70.4006 37.9322C70.6464 37.8971 70.8571 38.0726 70.8922 38.3184V45.3051C70.8922 45.586 70.7166 45.6913 70.3304 45.6913C68.0483 45.5509 65.7663 45.9722 63.6948 46.885C62.9926 47.201 62.3256 47.6223 61.7989 48.184V66.0896C61.7989 66.4407 61.6585 66.5811 61.3425 66.5811H54.4963C54.2154 66.6162 53.9696 66.4407 53.9345 66.1598V46.569C53.9345 45.7264 53.9345 44.8487 53.8994 43.9358C53.8643 43.023 53.8643 42.1102 53.8292 41.1973C53.7941 40.4249 53.7239 39.6525 53.6185 38.8801C53.5834 38.7046 53.6888 38.5291 53.8643 38.494C53.8994 38.4588 53.9345 38.4588 54.0047 38.494Z" fill="#F8F9FC"/>
</svg>
