<svg width="120" height="120" viewBox="0 0 120 120" fill="none" xmlns="http://www.w3.org/2000/svg">
<circle opacity="0.2" cx="59.5534" cy="59.6295" r="59.5534" fill="#285395"/>
<path d="M92.804 85.4527H61.6502C60.4221 85.4527 59.4253 84.4377 59.4253 83.1771V37.6587C59.4253 36.4026 60.4221 35.3828 61.6502 35.3828H92.804C94.0327 35.3828 95.0295 36.4024 95.0295 37.6587V83.1771C95.0296 84.4377 94.0328 85.4527 92.804 85.4527Z" fill="#F1F5F7"/>
<path d="M83.903 49.0344H61.6502C60.4221 49.0344 59.4253 48.0189 59.4253 46.7583C59.4253 45.4969 60.4221 44.4824 61.6502 44.4824H83.903C85.1309 44.4824 86.1279 45.5019 86.1279 46.7583C86.1279 48.0148 85.1309 49.0344 83.903 49.0344Z" fill="#285395"/>
<path d="M83.903 58.134H61.6502C60.4221 58.134 59.4253 57.1175 59.4253 55.857C59.4253 54.5964 60.4221 53.5811 61.6502 53.5811H83.903C85.1309 53.5811 86.1279 54.6014 86.1279 55.857C86.1279 57.1143 85.1309 58.134 83.903 58.134Z" fill="#285395"/>
<path d="M83.903 67.2317H61.6502C60.4221 67.2317 59.4253 66.2169 59.4253 64.9558C59.4253 63.6949 60.4221 62.6797 61.6502 62.6797H83.903C85.1309 62.6797 86.1279 63.699 86.1279 64.9558C86.1279 66.2119 85.1309 67.2317 83.903 67.2317Z" fill="#285395"/>
<path d="M83.903 76.3421H61.6502C60.4221 76.3421 59.4253 75.3277 59.4253 74.0665C59.4253 72.8056 60.4221 71.791 61.6502 71.791H83.903C85.1309 71.791 86.1279 72.8106 86.1279 74.0665C86.1279 75.3226 85.1309 76.3421 83.903 76.3421Z" fill="#285395"/>
<path d="M63.0724 26.8001C62.5644 26.3635 61.8835 26.1817 61.2429 26.3137L25.6386 33.1414C24.588 33.3413 23.8228 34.2836 23.8228 35.376V85.4457C23.8228 86.5381 24.5839 87.4807 25.6386 87.6807L61.2429 94.5089C61.3811 94.5362 61.5142 94.5496 61.6524 94.5496C62.1685 94.5496 62.6713 94.3671 63.0724 94.0261C63.5845 93.5936 63.8771 92.9516 63.8771 92.274V28.5484C63.877 27.8695 63.5844 27.2324 63.0724 26.8001Z" fill="#285395"/>
<path d="M52.7429 72.0372C52.6269 73.0788 51.8258 73.9123 50.8067 74.0399C50.7129 74.0534 50.6239 74.0578 50.531 74.0578C49.614 74.0578 48.7767 73.4755 48.448 72.5831L43.8544 60.0566L39.2617 72.5831C38.9058 73.5575 37.9706 74.1533 36.9391 74.0446C35.9283 73.935 35.1183 73.1339 34.9762 72.1003L32.7506 56.1692C32.5771 54.9307 33.4228 53.7756 34.6376 53.5971C35.8568 53.4161 36.9831 54.285 37.1565 55.5278L38.1491 62.6469L41.768 52.7738C42.4173 50.9983 45.2838 50.9983 45.9377 52.7738L49.3459 62.068L50.5434 51.0435C50.6812 49.7964 51.8123 48.9003 53.0009 49.0324C54.224 49.177 55.1013 50.3017 54.9682 51.5495L52.7429 72.0372Z" fill="#FCFCFC"/>
</svg>
