<svg width="428" height="136" viewBox="0 0 428 136" fill="none" xmlns="http://www.w3.org/2000/svg">
<path d="M113.805 39.0292H121.459C132.216 39.0292 140.904 30.4218 140.904 19.7651C140.904 9.10834 132.216 0.500977 121.459 0.500977H115.046C79.8798 0.705914 51.7466 28.5774 51.7466 63.2118V117.11C51.7466 127.357 60.0211 135.555 70.3642 135.555C80.7073 135.555 88.9818 127.357 88.9818 117.11V63.6216C88.9818 50.0958 100.152 39.0292 113.805 39.0292Z" fill="#33A1FB"/>
<path d="M19.2418 38.6193H32.481C43.2378 38.6193 51.7192 30.0119 51.7192 19.5601C51.7192 8.9034 43.0309 0.500977 32.481 0.500977H19.2418C8.48497 0.500977 0.00361887 9.10834 0.00361887 19.5601C-0.203243 30.2169 8.48497 38.6193 19.2418 38.6193Z" fill="#33A1FB"/>
<path d="M254.717 85.4668C247.059 85.4668 240.837 87.8599 236.051 92.646C231.265 97.4322 228.872 103.415 228.872 110.116C228.872 117.055 231.265 123.038 236.051 127.824C240.837 132.611 247.059 135.004 254.717 135.004C262.135 135.004 268.357 132.611 273.144 127.824C277.93 123.038 280.323 117.055 280.323 110.116C280.323 103.176 277.93 97.4322 273.144 92.646C268.357 87.8599 262.135 85.4668 254.717 85.4668ZM265.725 121.363C262.614 124.474 259.024 125.91 254.717 125.91C250.409 125.91 246.58 124.474 243.469 121.363C240.598 118.491 239.162 114.662 239.162 110.116C239.162 105.569 240.598 101.979 243.469 98.8681C246.58 95.757 250.17 94.3212 254.717 94.3212C259.024 94.3212 262.853 95.757 265.725 98.8681C268.597 101.74 270.033 105.569 270.033 110.116C270.272 114.662 268.836 118.491 265.725 121.363Z" fill="#33A1FB"/>
<path d="M314.544 85.4668C306.887 85.4668 300.904 87.8599 295.878 92.646C291.092 97.4322 288.699 103.415 288.699 110.116C288.699 117.055 291.092 123.038 295.878 127.824C300.665 132.611 306.887 135.004 314.544 135.004C321.963 135.004 328.185 132.611 332.971 127.824C337.757 123.038 340.151 117.055 340.151 110.116C340.151 103.176 337.757 97.4322 332.971 92.646C328.185 87.8599 321.963 85.4668 314.544 85.4668ZM325.553 121.363C322.442 124.474 318.852 125.91 314.544 125.91C310.237 125.91 306.408 124.474 303.297 121.363C300.425 118.491 298.989 114.662 298.989 110.116C298.989 105.569 300.425 101.979 303.297 98.8681C306.408 95.757 309.998 94.3212 314.544 94.3212C318.852 94.3212 322.681 95.757 325.553 98.8681C328.424 101.74 329.86 105.569 329.86 110.116C330.1 114.662 328.664 118.491 325.553 121.363Z" fill="#33A1FB"/>
<path d="M422.234 90.253C419.362 86.9026 415.294 85.4668 410.029 85.4668C406.439 85.4668 403.089 86.1847 399.978 87.8599C396.867 89.2957 394.474 91.4495 392.799 94.0819C391.841 91.4495 389.927 89.535 387.295 87.8599C384.662 86.424 381.551 85.4668 377.962 85.4668C371.261 85.4668 365.996 87.8599 362.407 92.8853V91.9281C362.407 89.0564 360.013 86.6633 357.142 86.6633C354.27 86.6633 351.877 89.0564 351.877 91.9281V128.782C351.877 131.653 354.27 134.046 357.142 134.046C360.013 134.046 362.407 131.653 362.407 128.782V102.936C363.603 100.783 365.278 98.8681 367.432 97.4322C369.586 95.9964 371.979 95.2784 374.372 95.2784C380.833 95.2784 384.184 99.1074 384.184 107.005V128.782C384.184 131.653 386.577 134.046 389.448 134.046C392.32 134.046 394.713 131.653 394.713 128.782V103.176C395.67 101.022 397.346 99.1074 399.739 97.6715C401.892 96.2357 404.285 95.5177 406.918 95.5177C413.379 95.5177 416.49 99.3467 416.49 107.244V129.021C416.49 131.893 418.883 134.286 421.755 134.286C424.627 134.286 427.02 131.893 427.02 129.021V104.611C426.541 98.1501 425.105 93.6033 422.234 90.253Z" fill="#33A1FB"/>
<path d="M142.482 89.2957C139.132 86.6633 135.064 85.4668 130.038 85.4668C122.859 85.4668 117.116 87.8599 112.569 92.646C108.022 97.4322 105.868 103.176 105.868 110.355C105.868 117.773 108.261 123.756 113.287 128.303C116.158 130.935 119.509 132.85 123.338 134.046C125.97 134.764 128.842 135.243 131.953 135.243C137.935 135.243 143.2 134.046 147.268 131.893C148.465 131.175 149.183 129.978 149.422 128.542V128.303C149.422 125.431 146.551 123.517 143.918 124.474C140.807 125.671 137.696 126.149 134.346 126.149C129.56 126.149 125.491 124.953 122.38 122.799C119.269 120.645 117.355 117.534 116.637 113.466H149.183C151.097 113.466 152.533 112.03 152.773 110.116C152.294 100.783 148.944 93.8426 142.482 89.2957ZM116.398 105.329C116.637 102.218 118.073 99.3467 120.466 97.1929C122.859 95.0391 125.97 94.0819 129.56 94.0819C133.389 94.0819 136.5 95.2784 138.653 97.4322C140.807 99.586 142.004 102.218 142.004 105.329H116.398Z" fill="#33A1FB"/>
<path d="M202.309 104.134C210.924 101.023 216.668 92.4083 215.71 82.3573C214.514 71.8278 204.942 64.1699 194.412 64.1699H172.156C169.524 64.1699 167.37 66.3237 167.37 68.9561C167.37 71.5885 169.524 73.7423 172.156 73.7423H193.455C199.438 73.7423 204.702 78.2891 204.942 84.2718C205.181 90.4938 200.395 95.5193 194.173 95.5193H177.421H170.96C168.806 95.5193 166.892 97.1945 166.892 99.5875V105.092V128.544C166.892 131.416 169.045 133.569 171.917 133.569C174.789 133.569 176.943 131.416 176.943 128.544V105.331H191.78L203.506 130.698C204.463 132.612 206.377 133.809 208.292 133.809C212.36 133.809 214.993 129.501 213.078 126.151C209.728 118.732 205.66 110.835 202.309 104.134C202.549 104.134 202.309 104.134 202.309 104.134Z" fill="#33A1FB"/>
</svg>
