<svg width="30" height="30" viewBox="0 0 30 30" fill="none" xmlns="http://www.w3.org/2000/svg">
<path d="M15 30C6.69231 30 0 23.3077 0 15C0 6.69231 6.69231 0 15 0C23.3077 0 30 6.69231 30 15C30 23.3077 23.3077 30 15 30ZM15 2.30769C7.96154 2.30769 2.30769 7.96154 2.30769 15C2.30769 22.0385 7.96154 27.6923 15 27.6923C22.0385 27.6923 27.6923 22.0385 27.6923 15C27.6923 7.96154 22.0385 2.30769 15 2.30769Z" fill="#1E3147"/>
<path d="M15.0015 23.1538C14.3092 23.1538 13.8477 22.6923 13.8477 22V8.15385C13.8477 7.46154 14.3092 7 15.0015 7C15.6938 7 16.1553 7.46154 16.1553 8.15385V22C16.1553 22.6923 15.6938 23.1538 15.0015 23.1538Z" fill="#1E3147"/>
<path d="M21.9219 16.2296H8.07572C7.38341 16.2296 6.92188 15.768 6.92188 15.0757C6.92188 14.3834 7.38341 13.9219 8.07572 13.9219H21.9219C22.6142 13.9219 23.0757 14.3834 23.0757 15.0757C23.0757 15.768 22.6142 16.2296 21.9219 16.2296Z" fill="#1E3147"/>
</svg>
