<svg width="30" height="30" viewBox="0 0 30 30" fill="none" xmlns="http://www.w3.org/2000/svg">
<path d="M9.57812 17.8867V21.1175H12.8089L21.8089 12.1175L18.4627 8.88672L9.57812 17.8867Z" stroke="#1E3147" stroke-width="2" stroke-linecap="round" stroke-linejoin="round"/>
<path d="M17 12.0039L19 14.0039" stroke="#1E3147" stroke-width="2" stroke-linecap="round" stroke-linejoin="round"/>
<path d="M9.57812 17.8867L12.8089 21.1175" stroke="#1E3147" stroke-width="2" stroke-linecap="round" stroke-linejoin="round"/>
<path d="M15 30C6.69231 30 0 23.3077 0 15C0 6.69231 6.69231 0 15 0C23.3077 0 30 6.69231 30 15C30 23.3077 23.3077 30 15 30ZM15 2.30769C7.96154 2.30769 2.30769 7.96154 2.30769 15C2.30769 22.0385 7.96154 27.6923 15 27.6923C22.0385 27.6923 27.6923 22.0385 27.6923 15C27.6923 7.96154 22.0385 2.30769 15 2.30769Z" fill="#1E3147"/>
</svg>
