<svg width="741" height="416" viewBox="0 0 741 416" fill="none" xmlns="http://www.w3.org/2000/svg">
<g filter="url(#filter0_d_532_72090)">
<path d="M695.41 32.3477H45.5899C42.5027 32.3477 40 34.4865 40 37.1248V362.57C40 365.209 42.5027 367.348 45.5899 367.348H695.41C698.497 367.348 701 365.209 701 362.57V37.1248C701 34.4865 698.497 32.3477 695.41 32.3477Z" fill="white"/>
<g filter="url(#filter1_d_532_72090)">
<path d="M673.314 65.2031H589.714C588.715 65.2031 587.904 66.0157 587.904 67.018V83.8056C587.904 84.808 588.715 85.6205 589.714 85.6205H673.314C674.313 85.6205 675.123 84.808 675.123 83.8056V67.018C675.123 66.0157 674.313 65.2031 673.314 65.2031Z" fill="#1E3147"/>
<path fill-rule="evenodd" clip-rule="evenodd" d="M597.586 76.0926V78.8149H598.491V76.0926H601.206V75.1852H598.491V72.4629H597.586V75.1852H594.872V76.0926H597.586Z" fill="#19DAC6"/>
<path d="M608.191 78.4907H607.213V76.5161H607.715C607.942 76.1676 608.109 75.7321 608.222 75.2094C608.326 74.7062 608.381 74.0283 608.381 73.1767V72.3709H611.941V76.5161H612.638V78.4907H611.661V77.4525H608.191V78.4907ZM608.865 76.5161H610.9V73.3074H609.417C609.417 74.0093 609.376 74.6118 609.294 75.115C609.217 75.6182 609.072 76.0855 608.865 76.5161ZM614.108 75.6377C614.108 75.9281 614.199 76.1699 614.388 76.3636C614.578 76.5574 614.814 76.654 615.103 76.654C615.393 76.654 615.632 76.5574 615.823 76.3636C616.008 76.1654 616.103 75.9231 616.103 75.6377C616.103 75.3473 616.008 75.1077 615.823 74.919C615.632 74.7253 615.393 74.6286 615.103 74.6286C614.814 74.6286 614.578 74.7253 614.388 74.919C614.199 75.1077 614.108 75.3473 614.108 75.6377ZM613.099 75.6377C613.099 75.1005 613.289 74.6504 613.665 74.2874C614.036 73.9195 614.515 73.7357 615.103 73.7357C615.692 73.7357 616.175 73.9195 616.547 74.2874C616.922 74.6554 617.112 75.1055 617.112 75.6377C617.112 76.1799 616.922 76.6345 616.547 77.0025C616.171 77.3654 615.688 77.5469 615.103 77.5469C614.519 77.5469 614.04 77.3654 613.665 77.0025C613.289 76.6345 613.099 76.1799 613.099 75.6377ZM619.916 74.0624C620.392 74.0624 620.777 74.2098 621.07 74.5052C621.37 74.8051 621.518 75.1971 621.518 75.6812C621.518 76.228 621.337 76.6758 620.976 77.0243C620.623 77.3727 620.175 77.5469 619.627 77.5469C618.985 77.5469 618.496 77.3341 618.162 76.9081C617.818 76.4775 617.646 75.904 617.646 75.1876C617.646 74.6989 617.714 74.2897 617.849 73.9607C617.985 73.6268 618.203 73.3509 618.501 73.1332C618.809 72.9058 619.162 72.7266 619.555 72.596C619.949 72.4603 620.46 72.3419 621.098 72.2402V73.1912L620.713 73.2566L620.338 73.3219C620.238 73.3414 620.125 73.3655 619.998 73.3945C619.809 73.4331 619.605 73.4939 619.383 73.576C619.229 73.6341 619.071 73.7357 618.912 73.8809C618.714 74.0551 618.601 74.3215 618.573 74.6794C618.894 74.2679 619.342 74.0624 619.916 74.0624ZM619.623 76.6831C619.881 76.6831 620.094 76.5959 620.261 76.4217C620.428 76.2475 620.514 76.0247 620.514 75.7538C620.514 75.4975 620.433 75.2942 620.274 75.144C620.116 74.9893 619.909 74.9117 619.659 74.9117C619.46 74.9117 619.266 74.9648 619.081 75.0714C618.89 75.1731 618.746 75.3038 618.646 75.4635C618.651 75.8555 618.736 76.1581 618.903 76.3709C619.081 76.5792 619.32 76.6831 619.623 76.6831ZM625.713 76.6613C625.798 76.6613 625.871 76.6468 625.921 76.6177V77.3654C625.794 77.4671 625.608 77.5179 625.373 77.5179C624.961 77.5179 624.691 77.3632 624.554 77.0533C624.237 77.3823 623.822 77.5469 623.309 77.5469C622.913 77.5469 622.591 77.4358 622.346 77.213C622.102 76.9902 621.976 76.6976 621.976 76.3346C621.976 75.9476 622.116 75.6522 622.396 75.4489C622.677 75.2457 623.011 75.144 623.405 75.144C623.813 75.144 624.161 75.2189 624.446 75.3691V75.2602C624.446 74.8051 624.129 74.5778 623.491 74.5778C623.098 74.5778 622.735 74.6794 622.396 74.8827V74.0261C622.763 73.8323 623.211 73.7357 623.735 73.7357C624.256 73.7357 624.672 73.8614 624.98 74.1132C625.3 74.365 625.459 74.7135 625.459 75.1586V76.3854C625.459 76.5692 625.545 76.6613 625.713 76.6613ZM624.446 76.3854V76.0224C624.233 75.8822 623.984 75.8119 623.695 75.8119C623.478 75.8119 623.302 75.8532 623.17 75.9353C623.048 76.0175 622.985 76.1336 622.985 76.2838C622.985 76.4385 623.043 76.5574 623.156 76.6395C623.274 76.7171 623.428 76.7557 623.628 76.7557C623.984 76.7557 624.256 76.6322 624.446 76.3854ZM628.758 77.4525H626.626V73.8301H628.671C629.038 73.8301 629.323 73.9172 629.521 74.0914C629.725 74.2607 629.829 74.4834 629.829 74.7593C629.829 75.1223 629.68 75.3786 629.386 75.5288C629.843 75.6885 630.073 75.9984 630.073 76.458C630.073 76.7679 629.956 77.012 629.725 77.1912C629.495 77.3654 629.173 77.4525 628.758 77.4525ZM627.636 75.9208V76.7339H628.504C628.856 76.7339 629.034 76.5982 629.034 76.3274C629.034 76.0565 628.856 75.9208 628.504 75.9208H627.636ZM627.636 74.5342V75.2747H628.345C628.667 75.2747 628.83 75.1513 628.83 74.9045C628.83 74.6577 628.667 74.5342 628.345 74.5342H627.636ZM631.82 77.4525H630.86V73.8301H631.87V75.9644L633.503 73.8301H634.462V77.4525H633.453V75.3183L631.82 77.4525ZM637.217 77.4525H636.194V74.6867H635.068V73.8301H638.361V74.6867H637.217V77.4525ZM640.904 77.4525H638.963V73.8301H639.986V74.89H640.854C641.308 74.89 641.669 75.0061 641.941 75.2384C642.208 75.4707 642.343 75.7806 642.343 76.1676C642.343 76.5356 642.217 76.8428 641.967 77.0896C641.71 77.3315 641.356 77.4525 640.904 77.4525ZM639.986 75.6522V76.6613H640.691C640.891 76.6613 641.045 76.6177 641.158 76.5306C641.267 76.4435 641.325 76.3201 641.325 76.1604C641.325 76.0007 641.267 75.8773 641.158 75.7901C641.045 75.698 640.891 75.6522 640.691 75.6522H639.986ZM645.962 77.4525H644.945V73.8301H648.424V77.4525H647.405V74.6867H645.962V77.4525ZM651.631 73.7357C652.124 73.7357 652.531 73.9195 652.848 74.2874C653.174 74.6454 653.332 75.0982 653.332 75.645C653.332 76.1822 653.174 76.6345 652.848 77.0025C652.531 77.3654 652.124 77.5469 651.631 77.5469C651.124 77.5469 650.731 77.3678 650.446 77.0097V78.9045H649.424V73.8301H650.446V74.2729C650.717 73.9149 651.111 73.7357 651.631 73.7357ZM651.342 74.6286C651.152 74.6286 650.976 74.6794 650.817 74.7811C650.654 74.8827 650.531 75.0134 650.446 75.1731V76.1168C650.531 76.2765 650.654 76.4072 650.817 76.5088C650.976 76.6055 651.152 76.654 651.342 76.654C651.631 76.654 651.867 76.5574 652.048 76.3636C652.228 76.1654 652.319 75.9258 652.319 75.645C652.319 75.3596 652.228 75.1173 652.048 74.919C651.867 74.7253 651.631 74.6286 651.342 74.6286ZM654.852 75.6377C654.852 75.9281 654.947 76.1699 655.133 76.3636C655.323 76.5574 655.563 76.654 655.852 76.654C656.141 76.654 656.377 76.5574 656.567 76.3636C656.756 76.1654 656.847 75.9231 656.847 75.6377C656.847 75.3473 656.756 75.1077 656.567 74.919C656.377 74.7253 656.141 74.6286 655.852 74.6286C655.563 74.6286 655.323 74.7253 655.133 74.919C654.947 75.1077 654.852 75.3473 654.852 75.6377ZM653.843 75.6377C653.843 75.1005 654.033 74.6504 654.409 74.2874C654.78 73.9195 655.26 73.7357 655.852 73.7357C656.44 73.7357 656.919 73.9195 657.291 74.2874C657.666 74.6554 657.856 75.1055 657.856 75.6377C657.856 76.1799 657.666 76.6345 657.291 77.0025C656.915 77.3654 656.436 77.5469 655.852 77.5469C655.269 77.5469 654.784 77.3654 654.409 77.0025C654.033 76.6345 653.843 76.1799 653.843 75.6377ZM660.377 77.5469C659.81 77.5469 659.336 77.3727 658.947 77.0243C658.562 76.6758 658.367 76.2135 658.367 75.6377C658.367 75.1005 658.544 74.6504 658.892 74.2874C659.236 73.9195 659.693 73.7357 660.249 73.7357C660.775 73.7357 661.19 73.9222 661.503 74.2947C661.82 74.6672 661.973 75.12 661.973 75.6522V75.9208H659.381C659.436 76.1626 659.566 76.3491 659.779 76.4798C659.996 76.6105 660.268 76.6758 660.594 76.6758C660.992 76.6758 661.375 76.5692 661.751 76.3564V77.1767C661.425 77.4236 660.969 77.5469 660.377 77.5469ZM659.381 75.2675H660.969C660.96 75.0592 660.883 74.8877 660.742 74.752C660.607 74.6118 660.431 74.5415 660.209 74.5415C659.983 74.5415 659.793 74.6091 659.643 74.7448C659.494 74.8754 659.408 75.0497 659.381 75.2675ZM663.779 77.4525H662.755V73.8301H663.779V75.1513L665.022 73.8301H666.276L664.705 75.4635L666.52 77.4525H665.203L663.779 75.8918V77.4525ZM668.85 77.4525H667.828V74.6867H666.702V73.8301H669.995V74.6867H668.85V77.4525Z" fill="white"/>
<path d="M81.9409 80.1749H79.335V67.4707H89.9395V80.1749H87.3517V69.8119H81.9409V80.1749ZM98.1227 70.8827C99.3533 70.8827 100.367 71.3423 101.163 72.262C101.971 73.1572 102.375 74.2887 102.375 75.6558C102.375 76.9988 101.971 78.1299 101.163 79.0497C100.367 79.957 99.3533 80.4108 98.1227 80.4108C96.856 80.4108 95.867 79.963 95.1549 79.0678V83.8046H92.6032V71.1186H95.1549V72.2257C95.8308 71.3305 96.8197 70.8827 98.1227 70.8827ZM97.3988 73.115C96.9166 73.115 96.4759 73.242 96.0778 73.4961C95.6797 73.7502 95.3721 74.0769 95.1549 74.4761V76.8355C95.3721 77.2347 95.6797 77.5614 96.0778 77.8155C96.4759 78.0574 96.9166 78.1785 97.3988 78.1785C98.1227 78.1785 98.7081 77.9367 99.1542 77.4525C99.613 76.9566 99.8419 76.3577 99.8419 75.6558C99.8419 74.9421 99.613 74.3368 99.1542 73.8409C98.7081 73.3568 98.1227 73.115 97.3988 73.115ZM106.168 75.6376C106.168 76.3636 106.403 76.9684 106.874 77.4525C107.344 77.9367 107.941 78.1785 108.665 78.1785C109.389 78.1785 109.986 77.9367 110.457 77.4525C110.927 76.9566 111.163 76.3513 111.163 75.6376C111.163 74.9117 110.927 74.3128 110.457 73.8409C109.986 73.3568 109.389 73.115 108.665 73.115C107.941 73.115 107.344 73.3568 106.874 73.8409C106.403 74.3128 106.168 74.9117 106.168 75.6376ZM103.653 75.6376C103.653 74.2946 104.123 73.1694 105.064 72.262C105.993 71.3423 107.193 70.8827 108.665 70.8827C110.137 70.8827 111.337 71.3423 112.266 72.262C113.208 73.1817 113.678 74.3069 113.678 75.6376C113.678 76.9929 113.208 78.1299 112.266 79.0497C111.325 79.957 110.125 80.4108 108.665 80.4108C107.205 80.4108 106.005 79.957 105.064 79.0497C104.123 78.1299 103.653 76.9929 103.653 75.6376ZM119.976 80.4108C118.564 80.4108 117.375 79.9752 116.411 79.104C115.445 78.2329 114.963 77.0773 114.963 75.6376C114.963 74.2946 115.397 73.1694 116.266 72.262C117.134 71.3423 118.268 70.8827 119.668 70.8827C120.971 70.8827 122.014 71.3486 122.799 72.2801C123.583 73.2116 123.975 74.3432 123.975 75.674V76.3455H117.496C117.629 76.9503 117.961 77.4162 118.492 77.7429C119.035 78.0696 119.71 78.2329 120.518 78.2329C121.52 78.2329 122.485 77.9666 123.414 77.4344V79.4851C122.605 80.1022 121.46 80.4108 119.976 80.4108ZM117.496 74.7121H121.46C121.435 74.1916 121.248 73.7624 120.899 73.4235C120.561 73.0728 120.114 72.8972 119.559 72.8972C118.992 72.8972 118.522 73.0664 118.148 73.4053C117.774 73.732 117.556 74.1676 117.496 74.7121ZM128.485 80.1749H125.933V71.1186H128.485V74.4217L131.598 71.1186H134.728L130.801 75.2021L135.344 80.1749H132.05L128.485 76.2729V80.1749ZM141.164 80.1749H138.613V73.2602H135.79V71.1186H144.024V73.2602H141.164V80.1749ZM157.259 80.1749H154.743V71.1186H157.259V80.1749ZM150.056 80.1749H145.532V71.1186H148.084V73.7683H149.93C151.063 73.7683 151.968 74.0587 152.644 74.6395C153.32 75.2202 153.658 75.9947 153.658 76.9625C153.658 77.8822 153.344 78.6504 152.717 79.2675C152.077 79.8722 151.19 80.1749 150.056 80.1749ZM148.084 75.674V78.1966H149.532C150.026 78.1966 150.412 78.0878 150.69 77.87C150.967 77.6522 151.106 77.3436 151.106 76.9444C151.106 76.5451 150.967 76.2366 150.69 76.0188C150.412 75.7887 150.026 75.674 149.532 75.674H148.084Z" fill="#1E3147"/>
<path d="M518.59 132.126H234.476C232.103 132.126 230.179 134.056 230.179 136.436V283.442C230.179 285.822 232.103 287.751 234.476 287.751H518.59C520.965 287.751 522.889 285.822 522.889 283.442V136.436C522.889 134.056 520.965 132.126 518.59 132.126Z" stroke="#99A3C5" stroke-dasharray="7 7"/>
<path d="M412.726 256.218H340.793C339.793 256.218 338.983 257.03 338.983 258.033V268.923C338.983 269.924 339.793 270.737 340.793 270.737H412.726C413.725 270.737 414.536 269.924 414.536 268.923V258.033C414.536 257.03 413.725 256.218 412.726 256.218Z" fill="#5AC169"/>
<path d="M354.388 265.609C353.7 265.609 353.126 265.393 352.669 264.961C352.217 264.521 351.985 263.966 351.985 263.297C351.985 262.619 352.211 262.065 352.665 261.632C353.121 261.2 353.695 260.984 354.388 260.984C354.817 260.984 355.206 261.078 355.56 261.265V262.185C355.215 261.957 354.826 261.842 354.393 261.842C353.976 261.842 353.623 261.979 353.334 262.254C353.058 262.525 352.917 262.873 352.917 263.297C352.917 263.72 353.063 264.069 353.347 264.344C353.632 264.615 353.995 264.751 354.434 264.751C354.917 264.751 355.325 264.622 355.645 264.364V265.285C355.288 265.501 354.867 265.609 354.388 265.609ZM357.043 263.932C357.043 264.186 357.129 264.398 357.292 264.567C357.455 264.736 357.668 264.821 357.921 264.821C358.175 264.821 358.382 264.736 358.545 264.567C358.712 264.393 358.794 264.182 358.794 263.932C358.794 263.678 358.712 263.468 358.545 263.303C358.382 263.133 358.175 263.049 357.921 263.049C357.668 263.049 357.455 263.133 357.292 263.303C357.129 263.468 357.043 263.678 357.043 263.932ZM356.166 263.932C356.166 263.462 356.329 263.068 356.658 262.75C356.984 262.429 357.405 262.267 357.921 262.267C358.436 262.267 358.853 262.429 359.179 262.75C359.509 263.072 359.672 263.466 359.672 263.932C359.672 264.406 359.509 264.805 359.179 265.126C358.849 265.444 358.432 265.602 357.921 265.602C357.41 265.602 356.99 265.444 356.658 265.126C356.329 264.805 356.166 264.406 356.166 263.932ZM361.301 265.602C360.807 265.602 360.401 265.522 360.07 265.361V264.638C360.396 264.806 360.762 264.892 361.174 264.892C361.414 264.892 361.599 264.859 361.731 264.796C361.866 264.732 361.935 264.642 361.935 264.523C361.935 264.315 361.748 264.211 361.373 264.211H360.753V263.564H361.373C361.681 263.564 361.829 263.47 361.829 263.283C361.829 263.081 361.618 262.979 361.183 262.979C360.794 262.979 360.45 263.052 360.16 263.195V262.496C360.482 262.344 360.894 262.267 361.383 262.267C361.766 262.267 362.088 262.35 362.35 262.515C362.613 262.681 362.744 262.887 362.744 263.137C362.744 263.49 362.59 263.716 362.287 263.818C362.459 263.873 362.599 263.966 362.703 264.097C362.816 264.224 362.87 264.382 362.87 264.573C362.87 264.875 362.726 265.122 362.431 265.317C362.151 265.508 361.772 265.602 361.301 265.602ZM364.105 266.326H363.25V264.771H363.657C363.898 264.393 364.024 263.793 364.038 262.966L364.052 262.35H366.711V264.771H367.228V266.326H366.385V265.519H364.105V266.326ZM364.567 264.771H365.834V263.099H364.848C364.848 263.756 364.752 264.313 364.567 264.771ZM370.851 264.827C370.928 264.827 370.987 264.815 371.032 264.789V265.443C370.919 265.533 370.76 265.577 370.552 265.577C370.195 265.577 369.956 265.442 369.838 265.171C369.558 265.459 369.195 265.602 368.747 265.602C368.399 265.602 368.119 265.505 367.906 265.31C367.689 265.115 367.58 264.859 367.58 264.542C367.58 264.203 367.702 263.944 367.951 263.766C368.195 263.589 368.489 263.501 368.828 263.501C369.191 263.501 369.493 263.566 369.743 263.697V263.602C369.743 263.203 369.462 263.004 368.906 263.004C368.562 263.004 368.245 263.094 367.951 263.272V262.521C368.272 262.353 368.661 262.267 369.123 262.267C369.575 262.267 369.941 262.378 370.208 262.598C370.489 262.818 370.63 263.123 370.63 263.512V264.586C370.63 264.747 370.702 264.827 370.851 264.827ZM369.743 264.586V264.269C369.558 264.145 369.336 264.085 369.082 264.085C368.893 264.085 368.743 264.12 368.625 264.193C368.517 264.264 368.462 264.367 368.462 264.497C368.462 264.632 368.512 264.736 368.617 264.809C368.715 264.876 368.852 264.91 369.028 264.91C369.34 264.91 369.575 264.802 369.743 264.586ZM373.055 265.519H372.164V263.099H371.173V262.35H374.055V263.099H373.055V265.519ZM376.279 265.519H374.583V262.35H375.475V263.278H376.235C376.633 263.278 376.95 263.38 377.185 263.582C377.424 263.786 377.542 264.057 377.542 264.395C377.542 264.718 377.433 264.986 377.212 265.202C376.99 265.414 376.678 265.519 376.279 265.519ZM375.475 263.944V264.827H376.099C376.272 264.827 376.407 264.789 376.501 264.713C376.601 264.636 376.646 264.528 376.646 264.389C376.646 264.249 376.601 264.142 376.501 264.065C376.407 263.985 376.272 263.944 376.099 263.944H375.475ZM380.709 265.519H379.818V262.35H382.863V265.519H381.971V263.099H380.709V265.519ZM385.667 262.267C386.102 262.267 386.455 262.429 386.736 262.75C387.016 263.064 387.156 263.46 387.156 263.939C387.156 264.409 387.016 264.805 386.736 265.126C386.455 265.444 386.102 265.602 385.667 265.602C385.225 265.602 384.88 265.446 384.632 265.132V266.791H383.736V262.35H384.632V262.737C384.867 262.424 385.215 262.267 385.667 262.267ZM385.414 263.049C385.247 263.049 385.093 263.094 384.953 263.182C384.812 263.272 384.708 263.386 384.632 263.526V264.351C384.708 264.49 384.812 264.605 384.953 264.694C385.093 264.778 385.247 264.821 385.414 264.821C385.667 264.821 385.875 264.736 386.03 264.567C386.192 264.393 386.269 264.184 386.269 263.939C386.269 263.689 386.192 263.477 386.03 263.303C385.875 263.133 385.667 263.049 385.414 263.049ZM388.486 263.932C388.486 264.186 388.568 264.398 388.731 264.567C388.898 264.736 389.106 264.821 389.359 264.821C389.612 264.821 389.821 264.736 389.988 264.567C390.151 264.393 390.233 264.182 390.233 263.932C390.233 263.678 390.151 263.468 389.988 263.303C389.821 263.133 389.612 263.049 389.359 263.049C389.106 263.049 388.898 263.133 388.731 263.303C388.568 263.468 388.486 263.678 388.486 263.932ZM387.604 263.932C387.604 263.462 387.771 263.068 388.097 262.75C388.423 262.429 388.844 262.267 389.359 262.267C389.875 262.267 390.296 262.429 390.622 262.75C390.948 263.072 391.114 263.466 391.114 263.932C391.114 264.406 390.948 264.805 390.622 265.126C390.292 265.444 389.87 265.602 389.359 265.602C388.848 265.602 388.427 265.444 388.097 265.126C387.771 264.805 387.604 264.406 387.604 263.932ZM393.318 265.602C392.824 265.602 392.409 265.45 392.07 265.146C391.735 264.84 391.563 264.436 391.563 263.932C391.563 263.462 391.716 263.068 392.02 262.75C392.322 262.429 392.72 262.267 393.209 262.267C393.666 262.267 394.033 262.431 394.304 262.757C394.58 263.083 394.715 263.478 394.715 263.944V264.18H392.45C392.5 264.392 392.613 264.555 392.798 264.669C392.987 264.784 393.228 264.84 393.507 264.84C393.861 264.84 394.196 264.747 394.521 264.561V265.279C394.241 265.494 393.839 265.602 393.318 265.602ZM392.45 263.609H393.839C393.829 263.426 393.766 263.276 393.639 263.157C393.522 263.033 393.368 262.973 393.174 262.973C392.974 262.973 392.811 263.032 392.68 263.151C392.548 263.265 392.472 263.418 392.45 263.609ZM396.295 265.519H395.404V262.35H396.295V263.506L397.385 262.35H398.48L397.109 263.78L398.697 265.519H397.543L396.295 264.155V265.519ZM400.732 265.519H399.841V263.099H398.856V262.35H401.738V263.099H400.732V265.519Z" fill="white"/>
<g filter="url(#filter2_dd_532_72090)">
<path d="M194.664 187.707H120.468C118.969 187.707 117.754 188.926 117.754 190.429V219.467C117.754 220.971 118.969 222.19 120.468 222.19H194.664C196.163 222.19 197.378 220.971 197.378 219.467V190.429C197.378 188.926 196.163 187.707 194.664 187.707Z" fill="white"/>
<path d="M134.74 202.68H134.271V198.233H134.74V200.081H137.375V198.233H137.843V202.68H137.375V200.507H134.74V202.68ZM140.033 202.343C140.244 202.343 140.445 202.294 140.635 202.197C140.825 202.099 140.979 201.977 141.097 201.828V201.402C140.785 201.199 140.453 201.098 140.103 201.098C139.824 201.098 139.602 201.152 139.438 201.262C139.277 201.373 139.197 201.523 139.197 201.714C139.197 201.912 139.275 202.068 139.431 202.177C139.588 202.287 139.788 202.343 140.033 202.343ZM139.906 202.756C139.581 202.756 139.305 202.666 139.077 202.489C138.853 202.302 138.741 202.053 138.741 201.739C138.741 201.429 138.859 201.182 139.095 200.996C139.332 200.814 139.632 200.723 139.995 200.723C140.392 200.723 140.76 200.821 141.097 201.021V200.716C141.097 200.204 140.761 199.948 140.09 199.948C139.731 199.948 139.398 200.052 139.089 200.259V199.815C139.389 199.628 139.754 199.534 140.185 199.534C140.603 199.534 140.935 199.634 141.179 199.833C141.429 200.028 141.553 200.308 141.553 200.671V201.936C141.553 202.055 141.578 202.148 141.629 202.215C141.684 202.284 141.756 202.318 141.844 202.318C141.912 202.318 141.971 202.305 142.022 202.28V202.635C141.954 202.681 141.853 202.705 141.718 202.705C141.566 202.705 141.437 202.664 141.331 202.584C141.23 202.499 141.167 202.377 141.141 202.215C140.833 202.576 140.422 202.756 139.906 202.756ZM145.201 202.68H144.745V201.453C144.449 201.581 144.135 201.644 143.801 201.644C143.375 201.644 143.06 201.547 142.858 201.352C142.659 201.152 142.56 200.828 142.56 200.379V199.611H143.016V200.341C143.016 200.671 143.081 200.903 143.212 201.033C143.347 201.165 143.573 201.231 143.89 201.231C144.198 201.231 144.483 201.164 144.745 201.028V199.611H145.201V202.68ZM146.737 202.68H146.281V199.611H146.737V200.9H148.618V199.611H149.074V202.68H148.618V201.314H146.737V202.68ZM150.577 202.68H150.153V199.611H150.609V202.006L152.566 199.611H152.99V202.68H152.534V200.291L150.577 202.68ZM155.259 202.68H154.803V200.011H153.694V199.611H156.367V200.011H155.259V202.68ZM158.451 202.756C157.974 202.756 157.572 202.605 157.247 202.305C156.926 202.008 156.766 201.623 156.766 201.148C156.766 200.691 156.91 200.308 157.196 199.999C157.488 199.69 157.862 199.534 158.318 199.534C158.563 199.534 158.78 199.586 158.97 199.687C159.16 199.784 159.31 199.913 159.42 200.075C159.53 200.236 159.612 200.407 159.667 200.59C159.722 200.767 159.749 200.948 159.749 201.129V201.256H157.234C157.26 201.586 157.391 201.851 157.627 202.051C157.868 202.245 158.172 202.343 158.539 202.343C158.894 202.343 159.222 202.247 159.521 202.057V202.464C159.272 202.657 158.915 202.756 158.451 202.756ZM157.241 200.882H159.287C159.274 200.644 159.185 200.431 159.021 200.24C158.864 200.045 158.624 199.948 158.299 199.948C157.995 199.948 157.746 200.041 157.551 200.228C157.361 200.417 157.258 200.636 157.241 200.882ZM162.732 202.19V203.95H162.276V199.611H162.732V200.1C163.019 199.723 163.414 199.534 163.917 199.534C164.368 199.534 164.738 199.691 165.025 200.006C165.312 200.319 165.456 200.698 165.456 201.143C165.456 201.591 165.312 201.972 165.025 202.285C164.738 202.599 164.368 202.756 163.917 202.756C163.414 202.756 163.019 202.566 162.732 202.19ZM162.732 200.64V201.651C162.821 201.853 162.964 202.02 163.163 202.152C163.361 202.28 163.576 202.343 163.809 202.343C164.151 202.343 164.431 202.228 164.651 201.999C164.875 201.762 164.987 201.477 164.987 201.143C164.987 200.807 164.875 200.524 164.651 200.291C164.431 200.062 164.151 199.948 163.809 199.948C163.581 199.948 163.367 200.013 163.169 200.145C162.971 200.271 162.825 200.437 162.732 200.64ZM167.335 202.343C167.546 202.343 167.747 202.294 167.937 202.197C168.127 202.099 168.281 201.977 168.399 201.828V201.402C168.086 201.199 167.755 201.098 167.405 201.098C167.126 201.098 166.904 201.152 166.74 201.262C166.579 201.373 166.499 201.523 166.499 201.714C166.499 201.912 166.577 202.068 166.733 202.177C166.889 202.287 167.09 202.343 167.335 202.343ZM167.208 202.756C166.883 202.756 166.607 202.666 166.379 202.489C166.155 202.302 166.043 202.053 166.043 201.739C166.043 201.429 166.161 201.182 166.398 200.996C166.634 200.814 166.934 200.723 167.297 200.723C167.694 200.723 168.061 200.821 168.399 201.021V200.716C168.399 200.204 168.063 199.948 167.392 199.948C167.033 199.948 166.699 200.052 166.391 200.259V199.815C166.691 199.628 167.056 199.534 167.487 199.534C167.905 199.534 168.237 199.634 168.481 199.833C168.731 200.028 168.855 200.308 168.855 200.671V201.936C168.855 202.055 168.88 202.148 168.931 202.215C168.986 202.284 169.058 202.318 169.147 202.318C169.214 202.318 169.273 202.305 169.324 202.28V202.635C169.256 202.681 169.155 202.705 169.02 202.705C168.868 202.705 168.739 202.664 168.633 202.584C168.532 202.499 168.469 202.377 168.443 202.215C168.135 202.576 167.724 202.756 167.208 202.756ZM171.558 202.756C171.034 202.756 170.627 202.573 170.336 202.209C170.044 201.845 169.899 201.349 169.899 200.723C169.899 199.919 170.103 199.328 170.513 198.95C170.653 198.811 170.895 198.671 171.242 198.532C171.394 198.476 171.546 198.43 171.698 198.392C171.854 198.35 172.021 198.309 172.198 198.271C172.253 198.258 172.345 198.239 172.477 198.213C172.611 198.188 172.706 198.171 172.762 198.163V198.588C172.326 198.674 171.991 198.743 171.755 198.797C171.286 198.908 170.938 199.084 170.71 199.325C170.473 199.575 170.346 199.954 170.329 200.462C170.456 200.242 170.638 200.069 170.874 199.941C171.115 199.815 171.385 199.75 171.685 199.75C172.086 199.75 172.421 199.887 172.692 200.157C172.962 200.424 173.097 200.767 173.097 201.186C173.097 201.648 172.949 202.024 172.654 202.318C172.358 202.61 171.993 202.756 171.558 202.756ZM171.558 202.343C171.858 202.343 172.111 202.239 172.318 202.031C172.529 201.819 172.635 201.548 172.635 201.218C172.635 200.9 172.534 200.646 172.331 200.456C172.132 200.261 171.883 200.163 171.584 200.163C171.309 200.163 171.062 200.246 170.843 200.411C170.623 200.567 170.464 200.758 170.368 200.983C170.388 201.415 170.501 201.749 170.703 201.987C170.91 202.224 171.195 202.343 171.558 202.343ZM174.189 200.011C174.497 199.694 174.893 199.534 175.379 199.534C175.865 199.534 176.262 199.694 176.57 200.011C176.878 200.32 177.033 200.699 177.033 201.148C177.033 201.597 176.878 201.977 176.57 202.285C176.257 202.599 175.861 202.756 175.379 202.756C174.898 202.756 174.501 202.599 174.189 202.285C173.88 201.977 173.726 201.597 173.726 201.148C173.726 200.699 173.88 200.32 174.189 200.011ZM176.564 201.148C176.564 200.81 176.452 200.524 176.228 200.291C176.004 200.062 175.721 199.948 175.379 199.948C175.037 199.948 174.754 200.062 174.531 200.291C174.307 200.524 174.195 200.81 174.195 201.148C174.195 201.482 174.307 201.766 174.531 201.999C174.754 202.228 175.037 202.343 175.379 202.343C175.721 202.343 176.004 202.228 176.228 201.999C176.452 201.766 176.564 201.482 176.564 201.148ZM178.967 202.68H178.511V200.011H177.403V199.611H180.075V200.011H178.967V202.68ZM180.947 203.975C180.728 203.975 180.565 203.946 180.459 203.886V203.46C180.591 203.528 180.73 203.563 180.878 203.563C181.063 203.563 181.224 203.484 181.359 203.327C181.494 203.174 181.636 202.92 181.783 202.565L180.422 199.611H180.928L182.011 202.024L183.063 199.611H183.557L182.043 203.022C181.769 203.657 181.403 203.975 180.947 203.975ZM129.734 210.922C129.265 210.922 128.877 210.771 128.569 210.465C128.26 210.156 128.106 209.77 128.106 209.308C128.106 208.852 128.263 208.47 128.575 208.166C128.883 207.857 129.272 207.702 129.741 207.702C130.095 207.702 130.403 207.775 130.665 207.924V208.35C130.391 208.194 130.103 208.115 129.804 208.115C129.449 208.115 129.156 208.229 128.923 208.458C128.691 208.678 128.575 208.964 128.575 209.315C128.575 209.658 128.691 209.944 128.923 210.173C129.16 210.397 129.453 210.51 129.804 210.51C130.141 210.51 130.448 210.42 130.722 210.243V210.661C130.435 210.835 130.106 210.922 129.734 210.922ZM134.726 210.922C134.257 210.922 133.868 210.771 133.56 210.465C133.252 210.156 133.098 209.77 133.098 209.308C133.098 208.852 133.254 208.47 133.567 208.166C133.875 207.857 134.263 207.702 134.732 207.702C135.087 207.702 135.395 207.775 135.657 207.924V208.35C135.382 208.194 135.095 208.115 134.795 208.115C134.441 208.115 134.147 208.229 133.915 208.458C133.683 208.678 133.567 208.964 133.567 209.315C133.567 209.658 133.683 209.944 133.915 210.173C134.152 210.397 134.445 210.51 134.795 210.51C135.133 210.51 135.439 210.42 135.714 210.243V210.661C135.426 210.835 135.097 210.922 134.726 210.922ZM136.82 208.178C137.128 207.861 137.525 207.702 138.011 207.702C138.496 207.702 138.893 207.861 139.201 208.178C139.509 208.487 139.664 208.866 139.664 209.315C139.664 209.764 139.509 210.143 139.201 210.452C138.889 210.765 138.492 210.922 138.011 210.922C137.529 210.922 137.132 210.765 136.82 210.452C136.512 210.143 136.358 209.764 136.358 209.315C136.358 208.866 136.512 208.487 136.82 208.178ZM139.195 209.315C139.195 208.977 139.083 208.69 138.859 208.458C138.635 208.229 138.353 208.115 138.011 208.115C137.669 208.115 137.386 208.229 137.162 208.458C136.938 208.69 136.826 208.977 136.826 209.315C136.826 209.649 136.938 209.934 137.162 210.166C137.386 210.395 137.669 210.51 138.011 210.51C138.353 210.51 138.635 210.395 138.859 210.166C139.083 209.934 139.195 209.649 139.195 209.315ZM141.315 210.922C140.872 210.922 140.496 210.852 140.188 210.713V210.268C140.53 210.43 140.887 210.51 141.258 210.51C141.571 210.51 141.815 210.461 141.993 210.364C142.175 210.261 142.265 210.122 142.265 209.944C142.265 209.784 142.191 209.658 142.043 209.569C141.896 209.481 141.693 209.436 141.435 209.436H140.903V209.036H141.435C141.672 209.036 141.849 208.995 141.967 208.915C142.09 208.835 142.151 208.727 142.151 208.591C142.151 208.274 141.864 208.115 141.29 208.115C140.948 208.115 140.612 208.185 140.283 208.324V207.899C140.574 207.767 140.94 207.702 141.378 207.702C141.729 207.702 142.023 207.775 142.259 207.924C142.495 208.073 142.613 208.267 142.613 208.508C142.601 208.708 142.552 208.858 142.468 208.96C142.384 209.057 142.267 209.137 142.119 209.201C142.533 209.336 142.74 209.595 142.74 209.976C142.74 210.26 142.609 210.488 142.347 210.661C142.09 210.835 141.746 210.922 141.315 210.922ZM143.699 211.755H143.262V210.445H143.649C143.987 209.997 144.16 209.252 144.168 208.21L144.174 207.778H146.448V210.445H147.018V211.755H146.575V210.846H143.699V211.755ZM144.155 210.445H145.992V208.178H144.599V208.362C144.599 209.277 144.451 209.972 144.155 210.445ZM148.801 210.51C149.012 210.51 149.212 210.461 149.402 210.364C149.592 210.265 149.747 210.143 149.865 209.995V209.569C149.553 209.366 149.221 209.265 148.87 209.265C148.592 209.265 148.37 209.319 148.205 209.43C148.045 209.54 147.965 209.69 147.965 209.881C147.965 210.08 148.043 210.234 148.199 210.344C148.356 210.455 148.556 210.51 148.801 210.51ZM148.674 210.922C148.349 210.922 148.072 210.834 147.844 210.656C147.621 210.469 147.509 210.219 147.509 209.906C147.509 209.597 147.627 209.349 147.863 209.162C148.1 208.981 148.4 208.89 148.763 208.89C149.16 208.89 149.527 208.989 149.865 209.189V208.883C149.865 208.371 149.529 208.115 148.858 208.115C148.499 208.115 148.165 208.219 147.857 208.425V207.982C148.157 207.795 148.522 207.702 148.953 207.702C149.371 207.702 149.702 207.802 149.947 208C150.196 208.195 150.321 208.474 150.321 208.839V210.103C150.321 210.222 150.346 210.315 150.397 210.382C150.452 210.449 150.523 210.484 150.612 210.484C150.68 210.484 150.739 210.472 150.79 210.445V210.802C150.722 210.848 150.621 210.872 150.485 210.872C150.333 210.872 150.205 210.831 150.099 210.751C149.998 210.667 149.934 210.543 149.909 210.382C149.601 210.742 149.189 210.922 148.674 210.922ZM151.985 210.846H151.529V207.778H151.985V209.068H153.866V207.778H154.322V210.846H153.866V209.481H151.985V210.846ZM155.825 210.846H155.401V207.778H155.857V210.173L157.814 207.778H158.238V210.846H157.782V208.458L155.825 210.846ZM159.595 210.846H159.076L159.988 209.62C159.739 209.578 159.546 209.478 159.412 209.322C159.28 209.161 159.215 208.957 159.215 208.712C159.215 208.428 159.31 208.202 159.5 208.032C159.694 207.863 159.964 207.778 160.311 207.778H161.888V210.846H161.432V209.703H160.45L159.595 210.846ZM160.381 209.303H161.432V208.178H160.381C160.157 208.178 159.983 208.227 159.861 208.324C159.743 208.421 159.684 208.562 159.684 208.744C159.684 208.925 159.743 209.065 159.861 209.162C159.983 209.256 160.157 209.303 160.381 209.303ZM165.092 210.846H164.636V207.778H167.385V210.846H166.929V208.178H165.092V210.846ZM168.914 210.357V212.117H168.458V207.778H168.914V208.267C169.201 207.89 169.596 207.702 170.099 207.702C170.55 207.702 170.92 207.858 171.207 208.171C171.494 208.486 171.638 208.864 171.638 209.308C171.638 209.757 171.494 210.139 171.207 210.452C170.92 210.765 170.55 210.922 170.099 210.922C169.596 210.922 169.201 210.734 168.914 210.357ZM168.914 208.807V209.816C169.003 210.02 169.147 210.188 169.345 210.319C169.543 210.445 169.759 210.51 169.991 210.51C170.333 210.51 170.614 210.395 170.834 210.166C171.057 209.93 171.169 209.643 171.169 209.308C171.169 208.974 171.057 208.69 170.834 208.458C170.614 208.229 170.333 208.115 169.991 208.115C169.763 208.115 169.55 208.181 169.351 208.312C169.153 208.439 169.007 208.604 168.914 208.807ZM172.726 208.178C173.034 207.861 173.431 207.702 173.916 207.702C174.402 207.702 174.799 207.861 175.107 208.178C175.415 208.487 175.569 208.866 175.569 209.315C175.569 209.764 175.415 210.143 175.107 210.452C174.794 210.765 174.398 210.922 173.916 210.922C173.435 210.922 173.038 210.765 172.726 210.452C172.417 210.143 172.263 209.764 172.263 209.315C172.263 208.866 172.417 208.487 172.726 208.178ZM175.101 209.315C175.101 208.977 174.989 208.69 174.765 208.458C174.541 208.229 174.258 208.115 173.916 208.115C173.574 208.115 173.292 208.229 173.068 208.458C172.844 208.69 172.732 208.977 172.732 209.315C172.732 209.649 172.844 209.934 173.068 210.166C173.292 210.395 173.574 210.51 173.916 210.51C174.258 210.51 174.541 210.395 174.765 210.166C174.989 209.934 175.101 209.649 175.101 209.315ZM177.882 210.922C177.405 210.922 177.003 210.772 176.678 210.472C176.357 210.176 176.197 209.789 176.197 209.315C176.197 208.858 176.341 208.474 176.628 208.166C176.919 207.857 177.293 207.702 177.749 207.702C177.994 207.702 178.211 207.753 178.401 207.854C178.591 207.952 178.741 208.081 178.851 208.241C178.961 208.403 179.043 208.574 179.098 208.756C179.153 208.935 179.18 209.114 179.18 209.297V209.423H176.666C176.691 209.753 176.822 210.018 177.058 210.218C177.299 210.411 177.603 210.51 177.97 210.51C178.325 210.51 178.653 210.414 178.952 210.223V210.63C178.703 210.824 178.346 210.922 177.882 210.922ZM176.672 209.048H178.718C178.705 208.811 178.616 208.598 178.452 208.407C178.296 208.212 178.055 208.115 177.73 208.115C177.426 208.115 177.177 208.208 176.982 208.394C176.792 208.585 176.689 208.803 176.672 209.048ZM180.037 207.778H180.493V209.043L181.95 207.778H182.571L180.956 209.162L182.799 210.846H182.147L180.493 209.335V210.846H180.037V207.778ZM184.574 210.846H184.118V208.178H183.01V207.778H185.683V208.178H184.574V210.846ZM187.416 210.51C187.627 210.51 187.827 210.461 188.017 210.364C188.208 210.265 188.362 210.143 188.48 209.995V209.569C188.167 209.366 187.836 209.265 187.485 209.265C187.207 209.265 186.985 209.319 186.82 209.43C186.66 209.54 186.58 209.69 186.58 209.881C186.58 210.08 186.658 210.234 186.814 210.344C186.97 210.455 187.171 210.51 187.416 210.51ZM187.289 210.922C186.964 210.922 186.687 210.834 186.459 210.656C186.235 210.469 186.124 210.219 186.124 209.906C186.124 209.597 186.242 209.349 186.478 209.162C186.715 208.981 187.014 208.89 187.378 208.89C187.775 208.89 188.142 208.989 188.48 209.189V208.883C188.48 208.371 188.144 208.115 187.473 208.115C187.114 208.115 186.78 208.219 186.472 208.425V207.982C186.772 207.795 187.137 207.702 187.568 207.702C187.986 207.702 188.317 207.802 188.562 208C188.811 208.195 188.936 208.474 188.936 208.839V210.103C188.936 210.222 188.961 210.315 189.012 210.382C189.067 210.449 189.139 210.484 189.227 210.484C189.295 210.484 189.354 210.472 189.405 210.445V210.802C189.337 210.848 189.236 210.872 189.101 210.872C188.949 210.872 188.82 210.831 188.714 210.751C188.613 210.667 188.55 210.543 188.524 210.382C188.216 210.742 187.804 210.922 187.289 210.922Z" fill="#788CA1"/>
<path fill-rule="evenodd" clip-rule="evenodd" d="M204.616 204.933C200.573 204.684 197.378 201.645 197.378 197.932V211.967C197.378 208.254 200.573 205.214 204.616 204.966V204.933ZM197.382 212.209C197.379 212.129 197.378 212.049 197.378 211.967V212.209H197.382ZM197.382 197.689C197.379 197.77 197.378 197.851 197.378 197.932V197.689H197.382Z" fill="white"/>
</g>
<g opacity="0.56">
<g style="mix-blend-mode:multiply" opacity="0.27">
<path d="M334.964 212.479C333.335 211.416 331.544 210.629 329.66 210.152C331.589 209.91 333.465 209.349 335.213 208.494C333.334 208.011 331.388 207.843 329.453 207.995C331.189 207.148 332.773 206.019 334.14 204.653C332.229 204.796 330.355 205.251 328.591 206C329.904 204.667 330.994 203.127 331.816 201.443C330.033 202.206 328.388 203.262 326.95 204.566C327.8 202.835 328.354 200.973 328.586 199.057C327.155 200.347 325.947 201.867 325.013 203.554C325.248 201.648 325.162 199.715 324.755 197.838C323.847 199.471 323.213 201.241 322.875 203.08C322.466 201.223 321.754 199.448 320.766 197.825C320.436 199.718 320.425 201.653 320.737 203.55C320.04 202.407 319.215 201.349 318.276 200.397V200.376C318.243 200.129 318.226 199.882 318.224 199.635C318.223 199.131 318.28 198.627 318.391 198.136C318.431 197.971 318.482 197.808 318.529 197.645L319.306 197.52C319.165 197.476 318.919 197.416 318.619 197.347C318.866 196.635 319.197 195.955 319.607 195.323C320.192 194.462 320.891 193.686 321.686 193.014C321.849 192.868 322.021 192.73 322.188 192.583C321.21 194.347 320.88 196.399 321.256 198.38L322.034 196.37C322.11 196.12 322.18 195.869 322.239 195.616C322.462 197.503 323.477 198.687 323.528 198.954L323.481 196.637C323.477 196.318 323.457 196.001 323.42 195.685C323.619 196.054 323.841 196.409 324.087 196.749L325.804 198.803C325.658 198.2 324.725 195.727 324.447 195.146C325.204 195.86 326.075 196.443 327.024 196.87C326.547 195.855 325.892 194.936 325.091 194.156L324.945 194.014L325.125 194.095C326.152 194.538 327.251 194.792 328.368 194.845C327.61 194.131 326.74 193.548 325.791 193.122C326.83 193.176 327.87 193.055 328.87 192.764C327.929 192.329 326.921 192.054 325.89 191.95C326.886 191.663 327.828 191.212 328.677 190.615C327.658 190.513 326.629 190.578 325.632 190.809C326.457 190.222 327.183 189.505 327.779 188.685C326.766 188.924 325.799 189.33 324.918 189.887C325.533 189.045 326.003 188.106 326.306 187.109C325.441 187.647 324.67 188.324 324.021 189.112C324.335 188.119 324.479 187.081 324.451 186.041C323.808 186.833 323.297 187.725 322.939 188.681C322.904 187.65 322.699 186.631 322.334 185.666C321.977 186.647 321.788 187.681 321.771 188.724C321.404 187.752 320.879 186.848 320.217 186.049C320.198 187.088 320.352 188.123 320.673 189.112C319.789 188.168 318.826 187.304 317.795 186.528L318.709 188.083C319.025 188.779 319.423 189.434 319.895 190.033C319.938 190.085 319.921 190.107 319.968 190.154L319.851 190.085C319.423 189.818 316.94 188.698 316.467 188.517L318.138 190.24C318.383 190.43 318.787 190.818 319.054 190.985C318.77 190.923 318.483 190.884 318.194 190.869C317.533 190.869 315.553 190.994 315.553 190.994C316.596 191.484 317.687 191.863 318.808 192.127C318.516 192.17 317.781 192.364 317.52 192.433L317.013 192.7C315.879 193.01 314.802 193.508 313.831 194.173C314.49 193.198 314.982 192.119 315.287 190.981C314.317 191.639 313.463 192.454 312.762 193.393C313.068 192.259 313.185 191.081 313.105 189.909C312.403 190.839 311.859 191.88 311.495 192.988C311.407 191.85 311.137 190.733 310.696 189.681C310.332 190.802 310.158 191.977 310.181 193.157C309.727 192.069 309.096 191.067 308.313 190.189C308.332 191.364 308.545 192.529 308.944 193.634C308.167 192.748 307.249 191.998 306.225 191.416C306.611 192.491 307.169 193.496 307.874 194.392C306.864 193.828 305.766 193.433 304.628 193.225C305.36 194.147 306.242 194.941 307.234 195.573C306.082 195.36 304.902 195.341 303.743 195.517C304.74 196.143 305.832 196.599 306.977 196.864C305.547 197.172 304.146 197.604 302.79 198.157H304.826C305.681 198.262 306.547 198.262 307.403 198.157C307.479 198.157 307.488 198.157 307.562 198.157L307.429 198.23C306.908 198.511 304.388 200.245 303.936 200.595L306.573 199.979C306.899 199.854 307.51 199.686 307.823 199.548C307.604 199.782 307.403 200.032 307.223 200.298C306.818 200.891 305.797 202.896 305.797 202.896C306.881 202.176 307.889 201.347 308.802 200.418C308.673 200.724 308.429 201.551 308.334 201.861L308.24 203.398C309.007 202.617 309.633 201.707 310.091 200.711C310.601 199.562 310.903 198.332 310.984 197.076C311.018 197.446 311.048 197.812 311.095 198.183C311.223 199.382 311.512 200.558 311.955 201.681C312.415 202.811 313.066 203.854 313.882 204.761C314.302 205.217 314.772 205.624 315.282 205.974H315.312C313.595 205.519 311.478 205.005 310.902 204.893L314.553 207.478C315.064 207.74 315.931 208.314 316.48 208.53C315.948 208.511 315.416 208.534 314.888 208.598C314.308 208.689 313.17 208.939 312.169 209.18L312.144 209.123C312.144 209.123 312.144 209.167 312.144 209.188C311.04 209.447 310.074 209.688 310.074 209.688C310.698 209.878 311.333 210.034 311.976 210.152C311.847 211.127 311.839 212.114 311.951 213.09C311.323 211.914 310.504 210.851 309.528 209.946C309.676 211.268 310.041 212.557 310.61 213.758C309.639 212.851 308.525 212.116 307.312 211.579C307.873 212.766 308.623 213.853 309.537 214.795C308.347 214.287 307.085 213.975 305.797 213.874C306.726 214.828 307.806 215.62 308.995 216.218C307.671 216.101 306.334 216.207 305.045 216.532C306.228 217.131 307.502 217.529 308.815 217.707C307.529 218.027 306.303 218.56 305.191 219.284C306.467 219.46 307.764 219.429 309.029 219.189C307.939 219.912 306.972 220.811 306.17 221.846C307.471 221.591 308.721 221.119 309.868 220.451C309.048 221.498 308.408 222.674 307.973 223.931C309.124 223.262 310.156 222.407 311.027 221.399C310.574 222.993 310.261 224.622 310.091 226.271L311.182 224.238C311.733 223.433 312.185 222.566 312.53 221.653C312.56 221.571 312.589 221.575 312.616 221.494V221.666C312.616 222.333 313.045 225.78 313.14 226.404L313.913 223.432C313.96 223.04 314.115 222.339 314.119 221.937C314.236 222.281 314.379 222.615 314.549 222.936C314.977 223.673 316.429 225.758 316.429 225.758C316.278 224.294 315.977 222.852 315.532 221.45C315.772 221.738 316.467 222.42 316.725 222.682L318.215 223.587C317.839 222.393 317.258 221.273 316.498 220.279C315.618 219.16 314.546 218.208 313.333 217.467C313.526 217.467 313.706 217.467 313.89 217.467L314.282 217.509C315.066 217.634 315.831 217.858 316.558 218.177C317.285 218.493 317.977 218.884 318.624 219.345C319.252 219.801 319.761 220.404 320.105 221.101C320.77 222.528 321.138 224.076 321.188 225.65C321.213 226.08 321.226 226.512 321.226 226.942H315.823V231.249C315.823 234.333 317.645 236.849 319.891 236.849H323.833C326.079 236.849 327.899 234.346 327.899 231.249L328.105 226.942H322.82C322.79 226.296 322.733 225.65 322.652 225.017C322.481 223.845 322.205 222.693 321.828 221.571C321.466 220.465 321.054 219.417 320.805 218.306C320.548 217.217 320.496 216.089 320.655 214.981C320.655 214.882 320.694 214.778 320.711 214.679L320.758 214.649H320.715C320.792 214.202 320.893 213.759 321.019 213.323C321.101 213.051 321.182 212.78 321.281 212.521C321.383 212.262 321.502 212.008 321.638 211.763C322.017 211.096 322.465 210.469 322.974 209.894C320.527 216.07 322.939 220.744 322.974 221.274L323.746 217.368C323.809 216.893 323.853 216.414 323.876 215.928C324.911 219.284 327.166 221.098 327.367 221.571L326.507 217.372C326.394 216.79 326.251 216.215 326.079 215.649C326.565 216.257 327.089 216.832 327.65 217.372L331.515 220.542C331.042 219.495 328.51 215.304 327.813 214.34C329.453 215.383 331.254 216.149 333.143 216.605C331.928 214.914 330.419 213.455 328.69 212.297L328.372 212.091L328.737 212.176C330.778 212.646 332.886 212.747 334.964 212.479ZM310.43 197.196L310.461 197.167L310.43 197.196ZM310.537 197.132C310.537 197.125 310.537 197.117 310.537 197.11L310.576 197.089L310.537 197.132ZM317.868 197.994C317.725 198.494 317.636 199.008 317.601 199.527L315.858 198.519C315.549 198.334 315.231 198.166 314.905 198.015C315.375 198.046 315.847 198.046 316.318 198.015L317.963 197.726C317.933 197.821 317.898 197.908 317.872 197.997L317.868 197.994ZM322.106 191.963H322.14H322.089H322.106ZM322.025 191.929L321.987 191.899L322.025 191.929ZM314.384 195.4C315.254 194.773 316.023 194.016 316.666 193.157C317.5 193.314 318.353 193.35 319.199 193.264C320.302 193.125 321.37 192.789 322.355 192.273C322.093 192.467 321.828 192.661 321.574 192.863C320.724 193.505 319.966 194.26 319.319 195.108C318.838 195.763 318.44 196.476 318.134 197.23C317.009 196.999 315.494 196.731 314.999 196.684C316.131 196.362 317.201 195.852 318.164 195.176C316.908 195.047 315.638 195.143 314.415 195.46L314.197 195.521L314.384 195.4ZM314.333 204.325C313.511 203.508 312.834 202.554 312.337 201.503C311.848 200.44 311.505 199.314 311.319 198.157C311.271 197.916 311.241 197.67 311.203 197.425C313.066 200.768 315.992 201.526 316.236 201.732L314.754 199.803C314.561 199.582 314.36 199.371 314.149 199.161C315.082 199.575 316.088 199.799 317.107 199.819C317.448 201.497 318.035 203.114 318.851 204.618C316.912 203.181 314.851 201.918 312.693 200.84L314.892 203.364C315.546 204.297 316.29 205.162 317.111 205.949C316.875 205.892 316.643 205.815 316.42 205.716C316.164 205.605 315.914 205.478 315.674 205.333C315.189 205.049 314.738 204.71 314.329 204.325H314.333ZM313.526 213.448C313.526 213.391 313.526 213.34 313.526 213.284V213.448ZM315.128 213.146H315.187L315.111 213.258C315.098 213.232 315.102 213.18 315.107 213.142L315.128 213.146ZM317.189 206.034C317.37 206.207 317.55 206.379 317.738 206.548C317.833 206.629 317.812 206.663 317.91 206.746L317.679 206.66C317.554 206.612 317.352 206.552 317.103 206.479L317.189 206.034ZM316.429 210.713C316.189 210.794 315.776 210.967 315.356 211.143C315.356 210.971 315.356 210.798 315.356 210.626C315.871 210.673 316.261 210.704 316.408 210.708L316.429 210.713ZM314.553 210.548C314.352 210.95 314.174 211.36 314.02 211.78L313.333 212.31C313.17 211.618 312.948 210.943 312.667 210.29C313.337 210.398 313.956 210.48 314.532 210.544L314.553 210.548ZM313.307 217.539V217.496V217.539ZM320.178 218.418C320.393 219.581 320.771 220.683 321.076 221.782C321.261 222.44 321.416 223.101 321.54 223.764C321.494 223.56 321.445 223.356 321.394 223.152C321.192 222.354 320.885 221.586 320.483 220.869C320.079 220.141 319.507 219.522 318.812 219.064C318.136 218.622 317.417 218.251 316.666 217.958C315.955 217.68 315.214 217.489 314.458 217.389C316.53 217.217 318.506 216.426 320.127 215.119C319.948 216.218 319.964 217.339 320.173 218.431L320.178 218.418ZM321.337 211.579C321.177 211.83 321.034 212.092 320.908 212.362C320.788 212.634 320.694 212.909 320.599 213.186C320.423 213.69 320.28 214.204 320.169 214.727L318.022 215.102C317.701 215.179 317.381 215.27 317.06 215.373C318.972 213.878 319.594 211.988 319.847 211.742L317.348 213.326C317.002 213.542 316.668 213.775 316.348 214.025C316.59 213.63 316.809 213.221 317.005 212.801C317.198 212.754 317.37 212.707 317.499 212.668C319.202 212.141 320.814 211.356 322.282 210.342C321.937 210.733 321.621 211.148 321.337 211.587V211.579ZM323.055 209.796H323.09L323.15 209.834L323.055 209.796Z" fill="#B9B9BA"/>
</g>
<g style="mix-blend-mode:multiply" opacity="0.27">
<path d="M445.245 236.781L445.191 221.922C445.145 220.756 444.658 219.653 443.83 218.837L427.574 201.858C426.982 201.858 404.782 201.655 404.673 202.216C404.542 201.647 405.279 204.257 404.673 204.257H375.962C375.673 204.26 375.397 204.358 375.171 204.536C374.949 204.715 374.786 204.964 374.719 205.244C374.669 204.966 374.519 204.715 374.303 204.535C374.08 204.356 373.81 204.257 373.529 204.257H348.216C347.89 204.258 347.579 204.386 347.343 204.612C347.108 204.84 346.968 205.149 346.958 205.476L346.778 210.602H345.456C345.136 210.603 344.828 210.732 344.602 210.96C344.371 211.189 344.245 211.498 344.245 211.82V218.536H339.902C339.365 218.536 336.29 218.966 336.29 219.514L336.243 237.104L445.245 236.781Z" fill="#B9B9BA"/>
</g>
<g style="mix-blend-mode:multiply" opacity="0.27">
<g style="mix-blend-mode:multiply" opacity="0.27">
<path d="M366.571 166.999C366.522 166.999 366.481 166.98 366.445 166.947C366.413 166.914 366.395 166.869 366.395 166.822V162.515C366.395 162.223 366.287 161.94 366.092 161.723C365.947 161.593 365.78 161.493 365.598 161.43C365.418 161.367 365.224 161.342 365.033 161.356C363.431 161.356 362.455 161.356 362.455 160.064V158.131C362.477 157.605 362.314 157.088 361.998 156.67C361.87 156.545 361.726 156.448 361.559 156.384C361.396 156.32 361.22 156.291 361.042 156.3C360.998 156.3 360.953 156.281 360.921 156.248C360.885 156.215 360.866 156.17 360.866 156.123C360.866 156.076 360.885 156.032 360.921 155.998C360.953 155.965 360.998 155.947 361.042 155.947C361.27 155.937 361.49 155.975 361.699 156.058C361.907 156.141 362.098 156.268 362.255 156.429C362.644 156.916 362.839 157.529 362.807 158.152V160.052C362.807 160.952 363.341 160.995 365.024 160.995C365.265 160.979 365.504 161.013 365.73 161.095C365.956 161.176 366.165 161.303 366.341 161.468C366.598 161.753 366.743 162.125 366.743 162.511V166.818C366.743 166.842 366.739 166.865 366.73 166.886C366.721 166.908 366.711 166.928 366.693 166.944C366.68 166.961 366.658 166.974 366.639 166.984C366.617 166.994 366.594 166.999 366.571 166.999Z" fill="#56617C"/>
</g>
<g style="mix-blend-mode:multiply" opacity="0.27">
<path d="M366.083 163.959C365.468 163.987 364.861 163.805 364.363 163.442C364.169 163.276 364.015 163.068 363.911 162.834C363.807 162.6 363.762 162.345 363.772 162.089V158.644C363.772 158.596 363.789 158.552 363.82 158.518C363.857 158.485 363.902 158.467 363.948 158.467C363.992 158.467 364.038 158.485 364.07 158.518C364.105 158.552 364.124 158.596 364.124 158.644V162.089C364.111 162.29 364.142 162.492 364.215 162.679C364.291 162.866 364.404 163.034 364.554 163.171C365.25 163.769 366.554 163.571 366.567 163.566C366.589 163.562 366.613 163.563 366.635 163.568C366.657 163.573 366.68 163.583 366.698 163.596C366.717 163.61 366.734 163.627 366.743 163.648C366.757 163.668 366.767 163.69 366.767 163.713C366.77 163.736 366.77 163.759 366.767 163.782C366.761 163.805 366.752 163.826 366.739 163.845C366.726 163.863 366.707 163.88 366.685 163.891C366.667 163.904 366.644 163.912 366.621 163.915C366.445 163.942 366.263 163.957 366.083 163.959Z" fill="#56617C"/>
</g>
<g style="mix-blend-mode:multiply" opacity="0.27">
<path d="M366.476 174.752H367.793C368.426 174.091 368.987 173.37 369.476 172.598C370.173 171.444 370.941 169.419 370.054 168.48C369.163 167.542 367.865 167.619 367.674 167.326C367.48 167.033 368.276 166.12 368.276 166.12H364.67C364.67 166.12 365.463 167.012 365.272 167.326C365.083 167.641 363.785 167.542 362.892 168.48C362.007 169.419 362.775 171.444 363.468 172.598C363.956 173.37 364.517 174.091 365.15 174.752H366.476Z" fill="#56617C"/>
</g>
<g style="mix-blend-mode:multiply" opacity="0.27">
<g style="mix-blend-mode:multiply" opacity="0.27">
<path d="M370.054 168.468C369.163 167.529 367.865 167.607 367.675 167.313C367.48 167.021 368.276 166.107 368.276 166.107H366.594C366.594 166.107 365.798 166.999 365.993 167.313C366.182 167.628 367.48 167.529 368.372 168.468C369.258 169.407 368.489 171.431 367.793 172.586C367.309 173.357 366.743 174.079 366.115 174.739H367.793C368.426 174.079 368.987 173.358 369.476 172.586C370.173 171.427 370.941 169.407 370.054 168.468Z" fill="#56617C"/>
</g>
</g>
<g style="mix-blend-mode:multiply" opacity="0.27">
<path d="M366.463 162.149C366.435 162.149 366.404 162.142 366.381 162.129C366.354 162.115 366.331 162.096 366.318 162.071C366.278 162.016 365.368 160.706 365.77 159.888C365.956 159.513 366.363 159.311 366.987 159.289C367.115 159.299 367.245 159.28 367.367 159.233C367.485 159.186 367.593 159.112 367.684 159.017C367.724 158.928 367.743 158.831 367.743 158.733C367.743 158.635 367.724 158.538 367.684 158.449C367.661 158.406 367.661 158.357 367.675 158.313C367.693 158.268 367.724 158.232 367.77 158.212C367.811 158.192 367.861 158.19 367.906 158.206C367.947 158.222 367.983 158.256 368.006 158.298C368.073 158.439 368.106 158.594 368.106 158.751C368.106 158.907 368.073 159.062 368.006 159.203C367.887 159.351 367.739 159.469 367.567 159.544C367.395 159.619 367.209 159.65 367.019 159.634C366.535 159.634 366.232 159.789 366.105 160.038C365.848 160.56 366.395 161.533 366.626 161.86C366.652 161.898 366.661 161.946 366.657 161.992C366.648 162.038 366.621 162.079 366.585 162.106C366.548 162.135 366.508 162.151 366.463 162.149Z" fill="#56617C"/>
</g>
</g>
<g style="mix-blend-mode:multiply" opacity="0.27">
<path d="M381.184 165.785C380.687 164.875 380.324 163.894 380.12 162.877C380.098 162.757 380.076 162.64 380.057 162.528C380.044 162.417 380.03 162.317 380.022 162.214C380.013 162.111 380.022 162.016 379.994 161.917C379.931 161.149 380.022 160.375 380.266 159.645C380.515 158.914 380.904 158.242 381.419 157.67C381.446 157.644 381.465 157.611 381.469 157.575C381.478 157.539 381.474 157.502 381.46 157.469C381.442 157.435 381.419 157.406 381.387 157.386C381.361 157.366 381.324 157.355 381.289 157.355H375.949C375.914 157.355 375.877 157.366 375.846 157.386C375.818 157.406 375.792 157.435 375.777 157.469C375.764 157.502 375.76 157.539 375.768 157.575C375.773 157.611 375.792 157.644 375.814 157.67C376.329 158.24 376.718 158.909 376.963 159.637C377.212 160.364 377.303 161.135 377.239 161.9C377.239 161.999 377.239 162.098 377.212 162.201C377.185 162.305 377.185 162.412 377.172 162.52C377.162 162.628 377.14 162.748 377.116 162.865C376.909 163.883 376.551 164.865 376.053 165.776C373.236 171.087 375.52 173.999 376.153 174.645C376.225 174.71 376.316 174.746 376.411 174.744H380.818C380.913 174.746 381.007 174.71 381.076 174.645C381.722 174.012 384.008 171.1 381.184 165.785Z" fill="#56617C"/>
</g>
<g style="mix-blend-mode:multiply" opacity="0.27">
<path d="M422.661 195.479H356.278L353.619 193.342L354.202 174.752H419.748L420.444 174.614L422.661 176.751V195.479Z" fill="#B9B9BA"/>
</g>
<path opacity="0.3" d="M341.409 174.809C341.409 174.622 341.336 174.444 341.204 174.312C341.073 174.18 340.896 174.106 340.71 174.106H336.978C336.794 174.109 336.618 174.184 336.489 174.315C336.359 174.447 336.287 174.624 336.287 174.809L333.736 186.193C333.736 186.379 333.81 186.557 333.941 186.689C334.071 186.821 334.25 186.895 334.435 186.895H337.97V188.661H336.715C336.53 188.661 336.353 188.735 336.221 188.866C336.09 188.998 336.016 189.177 336.016 189.363V194.135C336.018 194.321 336.091 194.498 336.223 194.629C336.354 194.76 336.531 194.833 336.715 194.833H341.011C341.102 194.834 341.194 194.816 341.279 194.781C341.365 194.746 341.442 194.694 341.507 194.629C341.571 194.563 341.624 194.486 341.659 194.4C341.693 194.315 341.71 194.223 341.71 194.131V189.363C341.71 189.271 341.693 189.179 341.659 189.095C341.624 189.009 341.572 188.932 341.508 188.866C341.444 188.801 341.366 188.749 341.282 188.714C341.198 188.679 341.107 188.661 341.015 188.661H339.722V186.895H343.258C343.444 186.895 343.625 186.821 343.756 186.689C343.888 186.557 343.96 186.379 343.96 186.193L341.409 174.809Z" fill="#56617C" stroke="#56617C" stroke-miterlimit="10"/>
<path opacity="0.3" d="M310.327 197.198L310.357 197.167L310.327 197.198ZM310.434 197.133C310.433 197.125 310.433 197.119 310.434 197.111L310.473 197.09L310.434 197.133ZM317.765 197.994C317.621 198.494 317.532 199.009 317.499 199.527L315.75 198.515C315.446 198.333 315.135 198.166 314.814 198.016C315.285 198.047 315.757 198.047 316.227 198.016L317.859 197.727C317.821 197.821 317.791 197.907 317.765 197.998V197.994ZM322.003 191.964H322.038H321.985H322.003ZM321.926 191.929L321.887 191.899L321.926 191.929ZM314.273 195.401C315.134 194.773 315.896 194.018 316.532 193.161C317.368 193.319 318.221 193.355 319.066 193.269C320.167 193.129 321.234 192.794 322.218 192.278C321.957 192.472 321.69 192.666 321.432 192.873C320.582 193.515 319.824 194.269 319.177 195.117C318.696 195.772 318.297 196.486 317.992 197.24C316.867 197.007 315.352 196.741 314.858 196.694C315.989 196.371 317.059 195.862 318.022 195.186C316.766 195.056 315.496 195.152 314.273 195.47L314.055 195.53L314.273 195.401ZM314.226 204.325C313.406 203.508 312.733 202.554 312.237 201.504C311.747 200.44 311.404 199.315 311.216 198.157C311.169 197.912 311.139 197.666 311.099 197.425C312.964 200.768 315.888 201.526 316.132 201.733L314.651 199.803C314.458 199.584 314.256 199.372 314.046 199.161C314.979 199.576 315.984 199.799 317.005 199.821C317.344 201.498 317.931 203.116 318.747 204.619C316.809 203.182 314.749 201.918 312.59 200.84L314.788 203.365C315.442 204.296 316.186 205.162 317.009 205.949C316.772 205.893 316.54 205.815 316.318 205.718C316.06 205.606 315.81 205.478 315.57 205.333C315.086 205.049 314.634 204.711 314.226 204.325ZM313.402 213.448V213.289H313.458L313.402 213.448ZM315.004 213.147H315.064L314.986 213.258C314.994 213.233 314.994 213.177 315.004 213.143V213.147ZM317.064 206.036C317.245 206.208 317.425 206.381 317.615 206.548C317.709 206.63 317.687 206.664 317.782 206.747L317.55 206.66C317.426 206.612 317.223 206.552 316.975 206.48L317.064 206.036ZM316.305 210.713C316.064 210.795 315.651 210.967 315.231 211.144C315.231 210.971 315.231 210.8 315.231 210.622C315.763 210.675 316.159 210.705 316.305 210.709V210.713ZM314.428 210.55C314.228 210.95 314.05 211.361 313.896 211.782L313.209 212.311C313.06 211.623 312.852 210.947 312.586 210.296C313.233 210.399 313.866 210.48 314.424 210.545L314.428 210.55ZM313.199 217.541V217.497V217.541ZM320.071 218.418C320.285 219.582 320.663 220.685 320.968 221.782C321.155 222.435 321.309 223.089 321.432 223.747C321.389 223.548 321.342 223.351 321.29 223.152C321.089 222.355 320.783 221.586 320.38 220.87C319.978 220.142 319.406 219.523 318.713 219.065C318.038 218.622 317.319 218.251 316.566 217.958C315.856 217.682 315.115 217.492 314.36 217.395C316.433 217.222 318.41 216.431 320.033 215.124C319.853 216.221 319.866 217.339 320.071 218.432V218.418ZM321.23 211.579C321.077 211.833 320.943 212.099 320.826 212.371C320.706 212.642 320.612 212.919 320.512 213.194C320.338 213.698 320.193 214.214 320.084 214.736L317.937 215.111C317.616 215.189 317.295 215.278 316.975 215.382C318.885 213.887 319.508 211.998 319.762 211.752L317.263 213.336C316.917 213.552 316.583 213.785 316.261 214.035C316.496 213.636 316.709 213.224 316.897 212.802C317.09 212.754 317.263 212.707 317.391 212.669C319.094 212.141 320.708 211.357 322.175 210.342C321.829 210.733 321.514 211.149 321.23 211.588V211.579ZM322.974 209.787H323.008L323.064 209.826L322.974 209.787Z" fill="#56617C"/>
<path d="M339.146 188.661H334.869C334.483 188.661 334.168 188.976 334.168 189.363V194.131C334.168 194.519 334.483 194.833 334.869 194.833H339.146C339.533 194.833 339.847 194.519 339.847 194.131V189.363C339.847 188.976 339.533 188.661 339.146 188.661Z" fill="#A3ACC6" stroke="#56617C" stroke-width="1.5" stroke-miterlimit="10"/>
<path d="M337.883 184.159H336.136V192.683H337.883V184.159Z" fill="#A3ACC6" stroke="#56617C" stroke-width="1.5" stroke-miterlimit="10"/>
<path d="M342.117 186.193C342.117 186.375 342.046 186.551 341.92 186.682C341.794 186.813 341.621 186.889 341.439 186.895H332.602C332.416 186.895 332.238 186.821 332.106 186.689C331.975 186.557 331.901 186.379 331.901 186.193L334.444 174.809C334.444 174.622 334.518 174.444 334.649 174.312C334.779 174.18 334.958 174.106 335.143 174.106H338.862C339.049 174.106 339.226 174.18 339.358 174.312C339.489 174.444 339.563 174.622 339.563 174.809L342.117 186.193Z" fill="#F7FCFC" stroke="#56617C" stroke-width="1.5" stroke-miterlimit="10"/>
<g style="mix-blend-mode:multiply" opacity="0.27">
<path d="M339.572 174.809C339.572 174.716 339.553 174.624 339.517 174.538C339.482 174.452 339.429 174.375 339.364 174.309C339.298 174.244 339.219 174.192 339.134 174.157C339.048 174.123 338.956 174.106 338.863 174.106H336.918C337.103 174.106 337.282 174.18 337.413 174.312C337.545 174.444 337.618 174.622 337.618 174.809L338.528 186.193C338.528 186.379 338.454 186.557 338.323 186.689C338.193 186.821 338.014 186.894 337.829 186.894H341.44C341.625 186.894 341.804 186.821 341.935 186.689C342.067 186.557 342.14 186.379 342.14 186.193L339.572 174.809Z" fill="#56617C"/>
</g>
<path d="M430.836 222.793H338.592V209.488C338.592 209.328 338.623 209.17 338.684 209.021C338.744 208.872 338.834 208.737 338.947 208.624C339.06 208.51 339.194 208.42 339.341 208.359C339.489 208.297 339.647 208.266 339.807 208.266H429.619C429.945 208.267 430.253 208.396 430.479 208.625C430.71 208.854 430.836 209.164 430.836 209.488V222.793Z" fill="white" stroke="#56617C" stroke-width="1.5" stroke-miterlimit="10"/>
<path d="M430.307 221.571H338.185V224.014H430.307V221.571Z" fill="#ECF0F1" stroke="#56617C" stroke-width="1.5" stroke-miterlimit="10"/>
<path d="M337.395 232.275H334.899C334.697 232.275 334.534 232.439 334.534 232.641V236.647C334.534 236.849 334.697 237.013 334.899 237.013H337.395C337.596 237.013 337.759 236.849 337.759 236.647V232.641C337.759 232.439 337.596 232.275 337.395 232.275Z" fill="white" stroke="#56617C" stroke-width="1.5" stroke-miterlimit="10"/>
<path d="M434.949 236.647C434.949 236.743 434.913 236.837 434.844 236.905C434.772 236.974 434.681 237.013 434.587 237.013H432.09C431.994 237.013 431.899 236.974 431.831 236.905C431.764 236.837 431.723 236.743 431.723 236.647V232.641C431.723 232.544 431.764 232.45 431.831 232.382C431.899 232.314 431.994 232.275 432.09 232.275H434.587C434.681 232.275 434.772 232.314 434.844 232.382C434.913 232.45 434.949 232.544 434.949 232.641V236.647Z" fill="white" stroke="#56617C" stroke-width="1.5" stroke-miterlimit="10"/>
<path d="M385.971 222.063H338.592V209.977C338.592 209.52 338.773 209.082 339.095 208.758C339.417 208.436 339.855 208.254 340.309 208.254H384.269C384.721 208.254 385.16 208.436 385.482 208.758C385.803 209.082 385.984 209.52 385.984 209.977L385.971 222.063Z" fill="white" stroke="#56617C" stroke-width="1.5" stroke-miterlimit="10"/>
<path d="M384.721 231.297C384.721 231.621 384.595 231.931 384.364 232.159C384.138 232.388 383.83 232.516 383.509 232.516H341.057C340.735 232.516 340.425 232.388 340.196 232.159C339.967 231.931 339.839 231.621 339.837 231.297V224.001C339.837 223.84 339.869 223.682 339.931 223.534C339.991 223.385 340.082 223.251 340.195 223.138C340.308 223.024 340.443 222.935 340.59 222.873C340.739 222.813 340.897 222.781 341.057 222.782H383.523C383.848 222.782 384.156 222.91 384.382 223.139C384.613 223.368 384.739 223.677 384.739 224.001L384.721 231.297Z" fill="#ACB5CC" stroke="#56617C" stroke-width="3" stroke-miterlimit="10"/>
<path opacity="0.27" d="M383.523 222.795H380.682C381.004 222.795 381.315 222.923 381.541 223.152C381.768 223.381 381.899 223.69 381.899 224.014V231.298C381.899 231.62 381.768 231.931 381.541 232.158C381.315 232.387 381.004 232.516 380.682 232.516H383.523C383.849 232.516 384.156 232.387 384.382 232.158C384.613 231.931 384.74 231.62 384.74 231.298V224C384.736 223.679 384.61 223.373 384.378 223.148C384.152 222.921 383.845 222.795 383.523 222.795Z" fill="#B9B9BA"/>
<path d="M429.606 231.297C429.606 231.621 429.479 231.931 429.249 232.159C429.023 232.388 428.71 232.516 428.389 232.516H385.943C385.618 232.516 385.31 232.388 385.079 232.159C384.853 231.931 384.723 231.621 384.723 231.297V224.001C384.723 223.84 384.754 223.682 384.817 223.534C384.876 223.385 384.966 223.251 385.079 223.138C385.193 223.024 385.328 222.935 385.477 222.873C385.623 222.813 385.781 222.781 385.943 222.782H428.393C428.551 222.781 428.71 222.813 428.86 222.873C429.008 222.935 429.14 223.024 429.253 223.138C429.366 223.251 429.456 223.385 429.52 223.534C429.579 223.682 429.61 223.84 429.61 224.001L429.606 231.297Z" fill="#ACB5CC" stroke="#56617C" stroke-width="3" stroke-miterlimit="10"/>
<g style="mix-blend-mode:multiply" opacity="0.27">
<path d="M428.393 222.795H425.778C425.937 222.794 426.095 222.825 426.245 222.886C426.393 222.946 426.525 223.037 426.638 223.15C426.751 223.263 426.841 223.398 426.905 223.546C426.964 223.694 426.995 223.853 426.995 224.014V231.296C426.995 231.62 426.869 231.931 426.638 232.16C426.408 232.387 426.1 232.516 425.778 232.516H428.393C428.715 232.516 429.027 232.387 429.253 232.16C429.484 231.931 429.61 231.62 429.61 231.296V224C429.61 223.679 429.479 223.371 429.249 223.145C429.023 222.919 428.715 222.794 428.393 222.795Z" fill="#B9B9BA"/>
</g>
<path d="M369.095 222.796H340.62L341.307 203.143C341.319 202.815 341.457 202.506 341.691 202.279C341.926 202.052 342.239 201.924 342.565 201.923H367.874C368.2 201.923 368.508 202.052 368.734 202.281C368.965 202.508 369.091 202.819 369.091 203.143L369.095 222.796Z" fill="#58C763" stroke="#56617C" stroke-width="1.5" stroke-miterlimit="10"/>
<path d="M369.095 222.796H340.62L341.307 203.143C341.319 202.815 341.457 202.506 341.691 202.279C341.926 202.052 342.239 201.924 342.565 201.923H367.874C368.2 201.923 368.508 202.052 368.734 202.281C368.965 202.508 369.091 202.819 369.091 203.143L369.095 222.796Z" fill="#A3ACC6" stroke="#56617C" stroke-width="1.5" stroke-miterlimit="10"/>
<path opacity="0.3" d="M367.878 201.923H365.382C365.702 201.923 366.01 202.052 366.241 202.281C366.467 202.508 366.594 202.819 366.594 203.143L365.417 222.628L340.62 222.783H369.095V203.143C369.095 202.982 369.064 202.823 369.001 202.676C368.941 202.528 368.852 202.393 368.738 202.281C368.625 202.166 368.495 202.077 368.345 202.016C368.2 201.954 368.041 201.923 367.878 201.923Z" fill="#56617C"/>
<path d="M428.728 222.796H400.253V203.143C400.253 202.982 400.281 202.823 400.344 202.676C400.403 202.528 400.493 202.393 400.606 202.281C400.719 202.166 400.855 202.077 400.999 202.016C401.149 201.954 401.307 201.923 401.466 201.923H426.778C427.104 201.924 427.416 202.052 427.651 202.279C427.886 202.506 428.023 202.815 428.036 203.143L428.728 222.796Z" fill="#A3ACC6" stroke="#56617C" stroke-width="1.5" stroke-miterlimit="10"/>
<path opacity="0.3" d="M428.04 203.143C428.027 202.815 427.891 202.506 427.656 202.279C427.421 202.052 427.108 201.924 426.782 201.923H424.959C425.285 201.924 425.602 202.052 425.832 202.279C426.067 202.506 426.208 202.815 426.217 203.143L426.895 222.796H428.719L428.04 203.143Z" fill="#56617C"/>
<path d="M401.226 222.796H368.123L369.042 203.143C369.06 202.812 369.205 202.502 369.44 202.276C369.679 202.049 370.001 201.923 370.327 201.923H399.051C399.381 201.923 399.697 202.049 399.936 202.276C400.177 202.502 400.316 202.812 400.34 203.143L401.226 222.796Z" fill="#99A3C5" stroke="#56617C" stroke-width="1.5" stroke-miterlimit="10"/>
<path opacity="0.3" d="M400.308 203.143C400.289 202.812 400.145 202.502 399.904 202.276C399.665 202.049 399.348 201.923 399.017 201.923H396.289C396.62 201.923 396.937 202.049 397.176 202.276C397.417 202.502 397.561 202.812 397.58 203.143L398.493 222.796H401.225L400.308 203.143Z" fill="#56617C"/>
<path d="M429.632 231.297C429.632 231.621 429.76 231.932 429.99 232.159C430.216 232.388 430.529 232.517 430.849 232.517H435.229C435.487 232.517 435.736 232.413 435.916 232.23C436.102 232.047 436.202 231.799 436.202 231.539V217.179C436.202 216.92 436.102 216.671 435.916 216.487C435.736 216.304 435.487 216.201 435.229 216.201H420.992C420.734 216.201 420.485 216.304 420.305 216.487C420.123 216.671 420.02 216.92 420.02 217.179V221.818C420.02 222.077 420.123 222.326 420.305 222.509C420.485 222.692 420.734 222.796 420.992 222.796H428.99C429.158 222.796 429.325 222.863 429.443 222.984C429.565 223.106 429.632 223.27 429.632 223.442V231.297Z" fill="#808DAF" stroke="#56617C" stroke-width="3" stroke-miterlimit="10"/>
<path opacity="0.3" d="M435.233 216.201H432.655C432.918 216.201 433.162 216.304 433.347 216.487C433.529 216.671 433.632 216.92 433.632 217.179V231.539C433.632 231.799 433.529 232.047 433.347 232.23C433.162 232.413 432.918 232.517 432.655 232.517H435.233C435.492 232.517 435.74 232.413 435.922 232.23C436.107 232.047 436.207 231.799 436.207 231.539V217.179C436.207 216.92 436.107 216.671 435.922 216.487C435.74 216.304 435.492 216.201 435.233 216.201Z" fill="#56617C"/>
<path opacity="0.3" d="M349.497 215.947L357.871 222.76H347.606L349.497 215.947Z" fill="#56617C"/>
<path d="M339.851 231.297C339.851 231.621 339.723 231.932 339.495 232.159C339.267 232.388 338.959 232.517 338.635 232.517H334.251C333.993 232.516 333.745 232.412 333.564 232.229C333.383 232.046 333.28 231.797 333.28 231.539V217.179C333.28 216.92 333.383 216.671 333.565 216.487C333.749 216.304 333.996 216.201 334.255 216.201H348.498C348.755 216.201 349 216.304 349.185 216.487C349.366 216.671 349.47 216.92 349.47 217.179V221.818C349.47 222.077 349.366 222.326 349.185 222.509C349 222.692 348.755 222.796 348.498 222.796H340.495C340.324 222.796 340.161 222.863 340.04 222.984C339.919 223.106 339.851 223.27 339.851 223.442V231.297Z" fill="#808DAF" stroke="#56617C" stroke-width="3" stroke-miterlimit="10"/>
<g style="mix-blend-mode:multiply" opacity="0.27">
<g style="mix-blend-mode:multiply" opacity="0.3">
<path d="M337.87 231.22C337.87 231.934 337.531 232.512 337.115 232.512H339.091C339.52 232.512 339.847 231.93 339.847 231.22V222.175H339.16C338.818 222.175 338.489 222.31 338.249 222.553C338.007 222.796 337.87 223.124 337.87 223.467V231.22Z" fill="#56617C"/>
</g>
<g style="mix-blend-mode:multiply" opacity="0.3">
<path d="M348.809 216.201H346.661C347.022 216.201 347.312 216.632 347.312 217.179V221.818C347.312 222.356 347.022 222.796 346.661 222.796H348.809C349.172 222.796 349.461 222.365 349.461 221.818V217.179C349.461 216.641 349.172 216.201 348.809 216.201Z" fill="#56617C"/>
</g>
</g>
<path d="M419.801 175.238H354.265V192.691H419.801V175.238Z" fill="#EDEFEF" stroke="#56617C" stroke-width="3" stroke-miterlimit="10"/>
<path d="M417.364 177.466H356.708V190.469H417.364V177.466Z" fill="#A3ACC6" stroke="#56617C" stroke-width="1.5" stroke-miterlimit="10"/>
<path opacity="0.3" d="M362.925 181.993H417.364V177.466H356.708V190.469H362.925V181.993Z" fill="#56617C"/>
<path opacity="0.3" d="M415.65 179.792L415.151 180.094V189.854L415.65 190.147V179.792Z" fill="#56617C"/>
<path opacity="0.3" d="M410.591 180.929L410.146 181.196V189.884L410.591 190.146V180.929Z" fill="#56617C"/>
<path opacity="0.3" d="M403.888 182.065L403.384 182.367V189.853L403.888 190.146V182.065Z" fill="#56617C"/>
<path d="M392.205 181.852L388.025 189.529L389.251 190.2L393.431 182.523L392.205 181.852Z" fill="#56617C"/>
<g style="mix-blend-mode:multiply" opacity="0.27">
<path d="M393.422 182.519L392.761 182.472L388.87 189.613L389.246 190.199L393.422 182.519Z" fill="#56617C"/>
</g>
<path opacity="0.3" d="M398.824 180.929L398.385 181.196V189.884L398.824 190.146V180.929Z" fill="#56617C"/>
<path d="M417.057 178.129H415.74V190.176H417.057V178.129Z" fill="#808DAF"/>
<path opacity="0.3" d="M417.056 178.129L416.699 178.482V189.836L417.056 190.176V178.129Z" fill="#56617C"/>
<path d="M415.739 179.796H413.906V190.176H415.739V179.796Z" fill="#56617C"/>
<path d="M413.902 180.938H412.269V190.177H413.902V180.938Z" fill="white"/>
<path opacity="0.3" d="M413.902 180.938L413.458 181.205V189.915L413.902 190.177V180.938Z" fill="#56617C"/>
<path d="M412.283 180.938H410.654V190.177H412.283V180.938Z" fill="#808DAF"/>
<path opacity="0.3" d="M412.284 180.938L411.839 181.205V189.915L412.284 190.177V180.938Z" fill="#56617C"/>
<path d="M407.392 180.938H405.238V190.177H407.392V180.938Z" fill="#808DAF"/>
<path opacity="0.3" d="M407.394 180.938L406.804 181.205V189.859L407.394 190.177V180.938Z" fill="#56617C"/>
<path d="M410.663 180.938H409.035V190.177H410.663V180.938Z" fill="#56617C"/>
<path d="M409.03 180.938H407.396V190.177H409.03V180.938Z" fill="white"/>
<path opacity="0.3" d="M409.031 180.938L408.582 181.205V189.915L409.031 190.177V180.938Z" fill="#56617C"/>
<path d="M405.243 182.686H403.927V190.176H405.243V182.686Z" fill="white"/>
<path opacity="0.3" d="M405.238 182.686L404.881 183.038V189.835L405.238 190.176V182.686Z" fill="#56617C"/>
<path d="M403.927 182.074H402.094V190.176H403.927V182.074Z" fill="#56617C"/>
<path d="M402.089 180.938H400.456V190.177H402.089V180.938Z" fill="white"/>
<path opacity="0.3" d="M402.091 180.938L401.642 181.205V189.915L402.091 190.177V180.938Z" fill="#56617C"/>
<path d="M400.466 179.796H398.833V190.176H400.466V179.796Z" fill="#808DAF"/>
<path opacity="0.3" d="M400.467 179.796L400.022 180.067V189.913L400.467 190.176V179.796Z" fill="#56617C"/>
<path d="M395.576 181.605H393.417V190.177H395.576V181.605Z" fill="#808DAF"/>
<path opacity="0.3" d="M395.581 181.605L394.987 181.877V189.854L395.581 190.177V181.605Z" fill="#56617C"/>
<path d="M398.845 180.938H397.213V190.177H398.845V180.938Z" fill="#56617C"/>
<path d="M397.208 180.847H395.58V190.181H397.208V180.847Z" fill="white"/>
<path opacity="0.3" d="M397.209 180.847L396.769 181.118V189.913L397.209 190.176V180.847Z" fill="#56617C"/>
<path d="M385.147 188.35H372.547V190.029H385.147V188.35Z" fill="#F5F5F5"/>
<path d="M385.097 188.454C385.152 188.454 385.206 188.431 385.247 188.391C385.288 188.351 385.31 188.296 385.31 188.239C385.31 188.181 385.288 188.127 385.247 188.086C385.206 188.046 385.152 188.023 385.097 188.023H372.688C372.57 188.023 372.462 188.069 372.381 188.15C372.303 188.23 372.258 188.34 372.258 188.454V189.841C372.258 189.955 372.303 190.065 372.381 190.146C372.462 190.226 372.57 190.272 372.688 190.272H385.088C385.138 190.262 385.184 190.235 385.215 190.195C385.247 190.156 385.265 190.107 385.265 190.056C385.265 190.005 385.247 189.956 385.215 189.917C385.184 189.878 385.138 189.851 385.088 189.841H373.109C372.992 189.841 372.883 189.796 372.801 189.715C372.724 189.634 372.679 189.524 372.679 189.41V188.881C372.679 188.766 372.724 188.656 372.801 188.576C372.883 188.495 372.992 188.45 373.109 188.45L385.097 188.454Z" fill="#56617C"/>
<path d="M384.08 186.145H371.484V187.824H384.08V186.145Z" fill="#F5F5F5"/>
<path d="M384.03 186.252C384.08 186.242 384.124 186.215 384.156 186.176C384.187 186.137 384.206 186.087 384.206 186.036C384.206 185.986 384.187 185.937 384.156 185.897C384.124 185.858 384.08 185.831 384.03 185.821H371.619C371.506 185.821 371.398 185.867 371.317 185.947C371.235 186.028 371.189 186.138 371.189 186.252V187.639C371.189 187.753 371.235 187.863 371.317 187.943C371.398 188.024 371.506 188.069 371.619 188.069H384.024C384.056 188.069 384.084 188.063 384.111 188.051C384.134 188.04 384.156 188.024 384.178 188.003C384.197 187.983 384.211 187.959 384.224 187.932C384.233 187.906 384.237 187.878 384.237 187.85C384.237 187.822 384.233 187.794 384.224 187.767C384.211 187.74 384.197 187.716 384.178 187.696C384.156 187.676 384.134 187.659 384.111 187.648C384.084 187.637 384.056 187.631 384.024 187.63H372.045C371.932 187.63 371.823 187.585 371.741 187.504C371.66 187.423 371.615 187.314 371.615 187.199V186.674C371.615 186.559 371.66 186.45 371.741 186.369C371.823 186.289 371.932 186.243 372.045 186.243L384.03 186.252Z" fill="#99A3C5"/>
<path d="M308.136 237.187H449.846" stroke="#56617C" stroke-width="2" stroke-linecap="round" stroke-linejoin="round"/>
</g>
</g>
</g>
<defs>
<filter id="filter0_d_532_72090" x="0" y="0.347656" width="741" height="415" filterUnits="userSpaceOnUse" color-interpolation-filters="sRGB">
<feFlood flood-opacity="0" result="BackgroundImageFix"/>
<feColorMatrix in="SourceAlpha" type="matrix" values="0 0 0 0 0 0 0 0 0 0 0 0 0 0 0 0 0 0 127 0" result="hardAlpha"/>
<feOffset dy="8"/>
<feGaussianBlur stdDeviation="20"/>
<feComposite in2="hardAlpha" operator="out"/>
<feColorMatrix type="matrix" values="0 0 0 0 0 0 0 0 0 0 0 0 0 0 0 0 0 0 0.15 0"/>
<feBlend mode="normal" in2="BackgroundImageFix" result="effect1_dropShadow_532_72090"/>
<feBlend mode="normal" in="SourceGraphic" in2="effect1_dropShadow_532_72090" result="shape"/>
</filter>
<filter id="filter1_d_532_72090" x="0" y="0.514648" width="741" height="414.833" filterUnits="userSpaceOnUse" color-interpolation-filters="sRGB">
<feFlood flood-opacity="0" result="BackgroundImageFix"/>
<feColorMatrix in="SourceAlpha" type="matrix" values="0 0 0 0 0 0 0 0 0 0 0 0 0 0 0 0 0 0 127 0" result="hardAlpha"/>
<feOffset dy="8"/>
<feGaussianBlur stdDeviation="20"/>
<feComposite in2="hardAlpha" operator="out"/>
<feColorMatrix type="matrix" values="0 0 0 0 0 0 0 0 0 0 0 0 0 0 0 0 0 0 0.15 0"/>
<feBlend mode="normal" in2="BackgroundImageFix" result="effect1_dropShadow_532_72090"/>
<feBlend mode="normal" in="SourceGraphic" in2="effect1_dropShadow_532_72090" result="shape"/>
</filter>
<filter id="filter2_dd_532_72090" x="107.754" y="156.707" width="151.863" height="98.4834" filterUnits="userSpaceOnUse" color-interpolation-filters="sRGB">
<feFlood flood-opacity="0" result="BackgroundImageFix"/>
<feColorMatrix in="SourceAlpha" type="matrix" values="0 0 0 0 0 0 0 0 0 0 0 0 0 0 0 0 0 0 127 0" result="hardAlpha"/>
<feOffset dx="23" dy="1"/>
<feGaussianBlur stdDeviation="16"/>
<feColorMatrix type="matrix" values="0 0 0 0 0 0 0 0 0 0 0 0 0 0 0 0 0 0 0.04 0"/>
<feBlend mode="normal" in2="BackgroundImageFix" result="effect1_dropShadow_532_72090"/>
<feColorMatrix in="SourceAlpha" type="matrix" values="0 0 0 0 0 0 0 0 0 0 0 0 0 0 0 0 0 0 127 0" result="hardAlpha"/>
<feOffset/>
<feGaussianBlur stdDeviation="5"/>
<feColorMatrix type="matrix" values="0 0 0 0 0 0 0 0 0 0 0 0 0 0 0 0 0 0 0.08 0"/>
<feBlend mode="normal" in2="effect1_dropShadow_532_72090" result="effect2_dropShadow_532_72090"/>
<feBlend mode="normal" in="SourceGraphic" in2="effect2_dropShadow_532_72090" result="shape"/>
</filter>
</defs>
</svg>
