<svg width="30" height="30" viewBox="0 0 30 30" fill="none" xmlns="http://www.w3.org/2000/svg">
<path d="M13.8474 20.7713C13.5012 20.7713 13.2704 20.656 13.0397 20.4252L8.42428 15.8098C7.96274 15.3483 7.96274 14.6559 8.42428 14.1944C8.88582 13.7329 9.57812 13.7329 10.0397 14.1944L13.8474 18.0021L21.1166 10.7329C21.5781 10.2713 22.2704 10.2713 22.732 10.7329C23.1935 11.1944 23.1935 11.8867 22.732 12.3483L14.655 20.4252C14.4243 20.656 14.1935 20.7713 13.8474 20.7713Z" fill="#1E3147"/>
<path d="M15 30C6.69231 30 0 23.3077 0 15C0 6.69231 6.69231 0 15 0C23.3077 0 30 6.69231 30 15C30 23.3077 23.3077 30 15 30ZM15 2.30769C7.96154 2.30769 2.30769 7.96154 2.30769 15C2.30769 22.0385 7.96154 27.6923 15 27.6923C22.0385 27.6923 27.6923 22.0385 27.6923 15C27.6923 7.96154 22.0385 2.30769 15 2.30769Z" fill="#1E3147"/>
</svg>
