<svg width="219" height="306" viewBox="0 0 219 306" fill="none" xmlns="http://www.w3.org/2000/svg">
<path d="M77.732 228.409L106.312 222.24L116.819 270.921L88.2393 277.09L77.732 228.409Z" fill="#FDDCC4"/>
<path d="M82.3835 250.001L77.7314 228.38L106.307 222.214L110.013 239.482L82.3835 250.001Z" fill="#020202"/>
<path d="M119.948 296.016H40.167L39.8989 288.462C39.8961 286.273 40.6845 284.155 42.1189 282.501C43.5533 280.846 45.5371 279.766 47.7051 279.458L60.195 277.691C62.1816 277.419 64.0654 276.643 65.6672 275.436L72.401 271.336C74.9998 269.748 77.2338 267.63 78.9569 265.118C80.6799 262.607 81.8529 259.76 82.3992 256.764L82.7146 254.982H116.794L119.948 296.016Z" fill="#8C7BFF"/>
<path d="M47.7208 279.457L60.0215 277.738V296.016H40.23L39.962 288.462C39.9576 286.279 40.7393 284.168 42.1641 282.514C43.5889 280.861 45.5614 279.776 47.7208 279.457Z" fill="white"/>
<path d="M104.525 294.296C105.368 290.608 107.075 287.173 109.504 284.273C111.933 281.373 115.015 279.09 118.497 277.611L119.948 293.933L104.525 294.296Z" fill="#020202"/>
<path d="M71.0604 290.229C71.1499 290.225 71.2368 290.198 71.3127 290.15C71.4173 290.08 71.4905 289.971 71.517 289.848C71.5434 289.724 71.5211 289.595 71.4546 289.488L63.4119 277.25C63.3798 277.197 63.3373 277.152 63.2869 277.116C63.2366 277.08 63.1794 277.054 63.119 277.041C63.0585 277.028 62.996 277.027 62.9352 277.038C62.8745 277.05 62.8167 277.074 62.7653 277.108C62.6607 277.179 62.5875 277.288 62.5611 277.411C62.5346 277.534 62.5569 277.663 62.6234 277.771L70.6504 290.008C70.695 290.076 70.7558 290.132 70.8274 290.171C70.899 290.209 70.9791 290.229 71.0604 290.229Z" fill="black"/>
<path d="M76.58 279.711C76.6619 279.714 76.7431 279.695 76.8153 279.656C76.8874 279.618 76.9478 279.56 76.9901 279.49C77.0237 279.435 77.0459 279.375 77.0553 279.311C77.0648 279.248 77.0613 279.184 77.0451 279.122C77.0289 279.06 77.0003 279.002 76.961 278.951C76.9217 278.901 76.8726 278.859 76.8166 278.828L68.6162 274.097C68.5623 274.065 68.5029 274.045 68.4412 274.037C68.3796 274.029 68.317 274.033 68.2569 274.049C68.1969 274.065 68.1406 274.093 68.0913 274.131C68.042 274.169 68.0006 274.216 67.9696 274.27C67.9385 274.324 67.9184 274.383 67.9103 274.445C67.9022 274.507 67.9063 274.569 67.9224 274.629C67.9385 274.689 67.9663 274.746 68.0042 274.795C68.042 274.844 68.0892 274.886 68.143 274.917L76.3435 279.648C76.4148 279.691 76.4968 279.712 76.58 279.711Z" fill="black"/>
<path d="M40.1827 296.537H119.948C120.08 296.532 120.204 296.476 120.295 296.38C120.378 296.277 120.422 296.149 120.421 296.017L117.267 255.015C117.255 254.896 117.201 254.786 117.114 254.705C117.027 254.623 116.913 254.577 116.794 254.573H82.7304C82.6183 254.575 82.5101 254.615 82.424 254.687C82.3378 254.758 82.279 254.857 82.2573 254.967L81.9419 256.734C81.4038 259.655 80.2546 262.429 78.5696 264.875C76.8846 267.321 74.7019 269.383 72.1644 270.927L65.4464 275.043C63.891 276.205 62.0693 276.958 60.1477 277.235L47.642 279.001C45.3694 279.337 43.2924 280.476 41.7878 282.212C40.2833 283.948 39.4508 286.166 39.4416 288.463L39.7096 296.033C39.7053 296.097 39.7143 296.162 39.7362 296.223C39.758 296.285 39.7922 296.341 39.8365 296.388C39.8809 296.435 39.9346 296.473 39.9941 296.499C40.0537 296.524 40.1179 296.538 40.1827 296.537ZM119.443 295.575H40.5928L40.3405 288.495C40.3491 286.425 41.1003 284.427 42.4577 282.864C43.815 281.301 45.6883 280.277 47.7366 279.979L60.2423 278.213C62.303 277.922 64.2563 277.114 65.9195 275.863L72.6376 271.747C75.2956 270.124 77.5803 267.957 79.3415 265.389C81.1027 262.82 82.3006 259.908 82.8566 256.844L83.1089 255.456H116.226L119.443 295.575Z" fill="black"/>
<path d="M123.528 293.904L123.559 306H99.7463V301.71H82.0523V306H34.7421V293.904H123.528Z" fill="black"/>
<path d="M166.564 243.865L185.598 223.191L152.166 192.25L133.131 212.909L166.564 243.865Z" fill="#FDDCC4"/>
<path d="M148.254 226.913L133.131 212.909L152.165 192.25L164.435 203.62L148.254 226.913Z" fill="#020202"/>
<path d="M151.677 262.349C153.734 262.077 155.634 261.102 157.054 259.589L160.949 252.934C161.334 252.278 161.55 251.537 161.578 250.777C161.605 250.018 161.443 249.263 161.107 248.581L155.793 238.015L178.88 212.468L207.739 239.103L175.143 275.217C173.691 276.826 171.918 278.113 169.937 278.993C167.957 279.873 165.813 280.327 163.646 280.326L136.963 282.203V280.973C136.947 266.133 146.646 262.979 151.677 262.349Z" fill="#8C7BFF"/>
<path d="M151.677 262.349H151.834L163.63 280.327L136.947 282.014V280.973C136.947 266.133 146.646 262.979 151.677 262.349Z" fill="white"/>
<path d="M196.069 252.035C193.982 247.938 192.901 243.403 192.915 238.804C192.902 235.018 193.892 231.296 195.786 228.018L207.787 239.057L196.069 252.035Z" fill="#020202"/>
<path d="M163.631 280.326C165.801 280.329 167.947 279.876 169.93 278.996C171.914 278.116 173.69 276.828 175.143 275.216L210.484 236.075L218.7 243.708L202.141 261.638L198.435 258.201L183.769 274.46L187.302 277.724L180.993 284.505C178.899 286.772 176.357 288.582 173.529 289.819C170.701 291.057 167.648 291.696 164.561 291.696H131.696V280.358L163.631 280.326Z" fill="#020202"/>
<path d="M136.948 280.769C137.011 280.771 137.073 280.761 137.132 280.738C137.19 280.715 137.243 280.68 137.287 280.635C137.332 280.591 137.366 280.538 137.389 280.48C137.412 280.421 137.423 280.359 137.421 280.296C137.421 270.314 142.436 264.416 151.898 263.217C152.614 263.129 153.318 262.96 153.995 262.712C154.111 262.663 154.203 262.573 154.256 262.46C154.308 262.346 154.317 262.217 154.279 262.097C154.258 262.038 154.225 261.983 154.183 261.937C154.14 261.89 154.089 261.852 154.032 261.826C153.974 261.799 153.912 261.785 153.849 261.782C153.786 261.78 153.723 261.791 153.664 261.813C153.06 262.042 152.429 262.196 151.788 262.271C144.801 263.154 136.475 267.002 136.475 280.296C136.475 280.421 136.525 280.542 136.613 280.631C136.702 280.719 136.822 280.769 136.948 280.769Z" fill="black"/>
<path d="M166.927 272.884C167 272.884 167.073 272.867 167.139 272.834C167.204 272.801 167.261 272.754 167.305 272.695C167.345 272.646 167.374 272.59 167.39 272.529C167.407 272.469 167.411 272.405 167.402 272.343C167.393 272.281 167.372 272.221 167.339 272.168C167.306 272.115 167.262 272.068 167.211 272.033L154.169 262.003C154.071 261.926 153.946 261.891 153.822 261.906C153.697 261.92 153.584 261.984 153.507 262.082C153.419 262.173 153.37 262.294 153.37 262.421C153.37 262.547 153.419 262.669 153.507 262.76L166.564 272.774C166.611 272.82 166.669 272.854 166.732 272.873C166.795 272.893 166.862 272.896 166.927 272.884Z" fill="black"/>
<path d="M170.333 264.194C170.427 264.198 170.52 264.173 170.599 264.122C170.678 264.071 170.739 263.997 170.775 263.911C170.822 263.795 170.822 263.666 170.775 263.551C170.727 263.436 170.637 263.344 170.522 263.295L158.758 258.328C158.638 258.281 158.506 258.283 158.388 258.333C158.27 258.383 158.176 258.478 158.127 258.596C158.084 258.711 158.086 258.839 158.133 258.953C158.179 259.067 158.267 259.159 158.379 259.211L170.144 264.163C170.203 264.189 170.268 264.2 170.333 264.194Z" fill="black"/>
<path d="M104.445 102.204H140.449V167.224L165.681 192.756L138.872 222.561L116.383 198.622C108.763 190.505 104.512 179.794 104.493 168.659L104.445 102.204Z" fill="#FED101"/>
<path d="M104.445 168.58V163.849C110.039 166.954 114.221 172.095 116.124 178.203C118.027 184.311 117.504 190.917 114.664 196.65C108.08 188.776 104.464 178.844 104.445 168.58Z" fill="#FCB503"/>
<path d="M82.0991 116.222V94.3809H118.985V113.415C118.993 120.613 117.1 127.685 113.497 133.916L94.4629 166.876L112.362 229.625L76.4377 237.132L59.3745 176.369C58.1393 171.979 57.7946 167.386 58.3606 162.861C58.9266 158.335 60.392 153.969 62.6704 150.018L82.0991 116.222Z" fill="#FED101"/>
<path d="M82.0991 116.222V94.3809H118.985V113.415C118.993 120.613 117.1 127.685 113.497 133.916L94.4629 166.876L112.362 229.625L76.4377 237.132L59.3745 176.369C58.1393 171.979 57.7946 167.386 58.3606 162.861C58.9266 158.335 60.392 153.969 62.6704 150.018L82.0991 116.222Z" fill="#FED101"/>
<path d="M64.2949 147.163C68.1974 152.218 70.0071 158.58 69.3496 164.932C68.6921 171.285 65.6176 177.141 60.7624 181.29L59.3746 176.338C58.1394 171.947 57.7947 167.354 58.3607 162.829C58.9268 158.303 60.3921 153.937 62.6705 149.986L64.2949 147.163Z" fill="#FCB503"/>
<path d="M76.4377 237.574H76.5324L112.457 230.083C112.522 230.07 112.583 230.044 112.638 230.006C112.692 229.968 112.738 229.919 112.772 229.862C112.819 229.74 112.819 229.605 112.772 229.483L94.936 166.924L113.907 134.106C117.549 127.814 119.464 120.671 119.458 113.4V94.3813C119.458 94.2558 119.409 94.1355 119.32 94.0468C119.231 93.958 119.111 93.9082 118.985 93.9082H82.0992C81.975 93.9121 81.8569 93.9633 81.769 94.0511C81.6811 94.139 81.63 94.2571 81.6261 94.3813V116.097L62.2604 149.75C59.962 153.76 58.4829 158.186 57.909 162.772C57.3351 167.358 57.6778 172.012 58.9172 176.465L75.9804 237.227C76.0103 237.325 76.0706 237.412 76.1528 237.474C76.2349 237.537 76.3347 237.571 76.4377 237.574ZM111.763 229.231L76.7689 236.612L59.8319 176.26C58.6252 171.931 58.2909 167.406 58.8486 162.947C59.4063 158.488 60.8448 154.184 63.0805 150.286L82.525 116.459C82.5431 116.382 82.5431 116.301 82.525 116.223V94.8702H118.512V113.416C118.51 120.519 116.64 127.497 113.087 133.649L94.0529 166.608C94.0064 166.725 94.0064 166.854 94.0529 166.971L111.763 229.231Z" fill="black"/>
<path d="M82.0995 76.4512H140.449V113.322C132.737 114.899 128.684 115.403 121.935 114.457C112 113.069 107.19 108.606 101.891 106.288C88.8491 100.611 88.8648 106.872 82.0206 110.798L82.0995 76.4512Z" fill="black"/>
<path d="M110.58 23.9688H119.584V37.1052H110.58V23.9688Z" fill="#FDDCC4"/>
<path d="M102.064 0.660156V11.0999C102.072 12.9155 102.795 14.6549 104.076 15.9416C105.357 17.2284 107.093 17.9591 108.908 17.9757H112.062L121.682 19.8523V16.6983C121.69 15.0182 121.238 13.3679 120.377 11.9256C119.515 10.4832 118.276 9.30343 116.793 8.51365L102.064 0.660156Z" fill="black"/>
<path d="M113.164 29.789C109.216 29.1595 106.582 25.1002 107.28 20.7224C107.978 16.3445 111.744 13.3059 115.692 13.9354C119.64 14.5649 122.274 18.6242 121.576 23.002C120.878 27.3799 117.112 30.4185 113.164 29.789Z" fill="#FDDCC4"/>
<path d="M114.191 30.3233C115.293 30.304 116.377 30.0475 117.37 29.5712C118.364 29.095 119.243 28.4102 119.947 27.5636C120.035 27.4725 120.084 27.351 120.084 27.2245C120.084 27.0981 120.035 26.9766 119.947 26.8855C119.905 26.8406 119.853 26.8049 119.796 26.7805C119.739 26.7561 119.678 26.7435 119.616 26.7435C119.554 26.7435 119.493 26.7561 119.436 26.7805C119.379 26.8049 119.328 26.8406 119.285 26.8855C118.563 27.7654 117.627 28.4441 116.566 28.8558C115.505 29.2675 114.356 29.3982 113.229 29.2352C111.375 28.8237 109.76 27.6957 108.735 26.0974C107.709 24.499 107.358 22.5601 107.757 20.7036C108.058 18.7543 109.069 16.9851 110.596 15.736C111.29 15.1548 112.102 14.7301 112.976 14.4906C113.849 14.2511 114.764 14.2026 115.658 14.3483C115.781 14.3664 115.907 14.3352 116.007 14.2613C116.107 14.1875 116.175 14.0771 116.194 13.954C116.205 13.8918 116.204 13.8279 116.19 13.7662C116.176 13.7045 116.15 13.6462 116.113 13.5948C116.077 13.5433 116.03 13.4997 115.976 13.4666C115.922 13.4335 115.862 13.4116 115.8 13.4021C114.776 13.2418 113.73 13.2995 112.73 13.5712C111.73 13.8429 110.798 14.3227 109.996 14.9791C108.301 16.3811 107.179 18.3562 106.842 20.5301C106.404 22.6441 106.822 24.8458 108.004 26.6521C109.187 28.4585 111.037 29.7221 113.15 30.1656C113.493 30.2447 113.841 30.2974 114.191 30.3233Z" fill="black"/>
<path d="M121.84 23.9214C121.509 25.9415 120.39 27.7476 118.728 28.9425C117.066 30.1373 114.997 30.6229 112.977 30.2925C110.957 29.9621 109.151 28.8427 107.956 27.1806C106.761 25.5185 106.276 23.4498 106.606 21.4297L121.84 23.9214Z" fill="black"/>
<path d="M110.58 25.5934C110.881 26.0236 111.284 26.372 111.753 26.6069C112.223 26.8418 112.744 26.9558 113.268 26.9386C113.793 26.9214 114.305 26.7735 114.758 26.5083C115.211 26.2431 115.591 25.869 115.863 25.4199L110.58 25.5934Z" fill="white"/>
<path d="M114.586 12.3457C116.572 12.4517 118.435 13.3416 119.765 14.82C121.096 16.2984 121.785 18.2444 121.682 20.2307C121.714 20.6138 121.714 20.9989 121.682 21.382L117.093 17.9756H107.994C108.316 16.4407 109.137 15.0557 110.33 14.0372C111.523 13.0186 113.019 12.4238 114.586 12.3457Z" fill="black"/>
<path d="M146.962 93.0093C139.489 93.0093 133.431 86.9373 133.431 79.447C133.431 71.9568 139.489 65.8848 146.962 65.8848C154.435 65.8848 160.493 71.9568 160.493 79.447C160.493 86.9373 154.435 93.0093 146.962 93.0093Z" fill="#FDDCC4"/>
<path d="M146.962 93.4671C149.74 93.4765 152.459 92.6609 154.774 91.1237C157.089 89.5865 158.895 87.3968 159.964 84.8321C161.033 82.2674 161.317 79.4431 160.779 76.7169C160.242 73.9908 158.907 71.4855 156.945 69.5185C154.982 67.5515 152.48 66.2113 149.755 65.6677C147.03 65.1241 144.205 65.4015 141.638 66.4648C139.071 67.5282 136.877 69.3295 135.335 71.6407C133.792 73.9519 132.971 76.6689 132.974 79.4475C132.974 83.1603 134.446 86.7215 137.069 89.3498C139.691 91.978 143.249 93.4588 146.962 93.4671ZM146.962 66.3584C149.553 66.349 152.088 67.1087 154.247 68.5413C156.405 69.9738 158.09 72.0148 159.088 74.4057C160.086 76.7966 160.352 79.4298 159.852 81.972C159.353 84.5141 158.11 86.8508 156.281 88.6861C154.453 90.5214 152.12 91.7727 149.58 92.2816C147.04 92.7905 144.406 92.5341 142.011 91.5448C139.617 90.5555 137.57 88.8779 136.129 86.7244C134.689 84.5709 133.92 82.0383 133.92 79.4475C133.91 77.7267 134.239 76.0208 134.889 74.4276C135.54 72.8345 136.498 71.3853 137.71 70.1634C138.922 68.9415 140.363 67.9708 141.95 67.307C143.538 66.6432 145.241 66.2994 146.962 66.2953V66.3584Z" fill="black"/>
<path d="M61.267 54.2305L80.0176 71.2937L106.606 34.9121H98.1374C92.0755 34.9075 86.0792 36.1673 80.5316 38.6112C74.9841 41.055 70.0073 44.6291 65.9192 49.1052L61.267 54.2305Z" fill="#8C7BFF"/>
<path d="M155.257 55.9336L136.506 72.9968L108.735 34.9121H117.156C123.444 34.9098 129.659 36.2655 135.374 38.8866C141.09 41.5076 146.172 45.3322 150.274 50.0987L155.257 55.9336Z" fill="#8C7BFF"/>
<path d="M78.8667 102.566H86.4048L96.0876 89.8077L105.975 102.566H145.274L141.553 57.5737C141.054 51.4031 138.251 45.6462 133.701 41.4475C129.152 37.2488 123.189 34.9157 116.999 34.9121H104.666C101.274 34.9162 97.9161 35.5885 94.7837 36.8905C91.6512 38.1924 88.8059 40.0986 86.4102 42.5002C84.0145 44.9018 82.1152 47.7518 80.8209 50.8874C79.5266 54.023 78.8625 57.3828 78.8667 60.775V102.566Z" fill="#8C7BFF"/>
<path d="M83.0299 66.027L94.2266 56.833L142.53 69.3387L143.745 83.9575C136.79 84.4779 128.952 84.5095 121.462 77.3499C114.302 70.5057 98.5949 63.8192 83.0299 66.027Z" fill="black"/>
<path d="M65.9034 49.1357L95.1411 56.4531L87.9026 63.7231L64.2002 53.094L65.9034 49.1357Z" fill="black"/>
<path d="M188.058 96.3692L197.915 69.8124L28.7963 6.76367L18.94 33.3205L188.058 96.3692Z" fill="#4ADA85"/>
<path d="M188.074 96.842C188.136 96.8562 188.201 96.8562 188.263 96.842C188.323 96.8191 188.376 96.7831 188.42 96.7367C188.464 96.6903 188.496 96.6347 188.516 96.5739L198.372 69.9698C198.395 69.9109 198.405 69.848 198.403 69.7849C198.401 69.7218 198.386 69.6598 198.36 69.6025C198.333 69.5452 198.296 69.4937 198.249 69.4512C198.202 69.4087 198.148 69.3759 198.088 69.3548L28.97 6.36915C28.9125 6.34529 28.8509 6.33301 28.7887 6.33301C28.7264 6.33301 28.6648 6.34529 28.6073 6.36915C28.4933 6.42478 28.4036 6.52012 28.355 6.63724L18.4987 33.1783C18.4761 33.2372 18.4656 33.3001 18.4677 33.3632C18.4698 33.4263 18.4845 33.4883 18.511 33.5456C18.5374 33.6029 18.5751 33.6544 18.6217 33.6969C18.6684 33.7394 18.723 33.7722 18.7825 33.7933L187.901 96.8736L188.074 96.842ZM197.315 70.0329L187.853 95.7066L19.5553 33.0363L29.0173 7.37843L197.315 70.0329Z" fill="black"/>
<path d="M197.931 70.2853C198.027 70.2822 198.12 70.2506 198.199 70.1945C198.278 70.1383 198.338 70.0602 198.372 69.9699C198.395 69.9109 198.405 69.848 198.403 69.785C198.401 69.7219 198.386 69.6598 198.36 69.6025C198.333 69.5452 198.296 69.4938 198.249 69.4512C198.202 69.4087 198.148 69.3759 198.088 69.3548L28.97 6.36918C28.912 6.34622 28.8501 6.33495 28.7878 6.33601C28.7254 6.33706 28.6639 6.35043 28.6067 6.37535C28.5496 6.40026 28.4979 6.43623 28.4547 6.48118C28.4115 6.52613 28.3776 6.57918 28.355 6.63727C28.3324 6.69623 28.3219 6.7591 28.324 6.82219C28.3261 6.88528 28.3408 6.94731 28.3673 7.00462C28.3937 7.06193 28.4314 7.11338 28.478 7.15591C28.5246 7.19845 28.5793 7.23123 28.6388 7.25231L197.757 70.3326L197.931 70.2853Z" fill="black"/>
<path d="M195.455 76.9245C195.554 76.9246 195.651 76.8944 195.733 76.8381C195.814 76.7817 195.877 76.7019 195.912 76.6091C195.949 76.4896 195.941 76.3605 195.889 76.2469C195.836 76.1332 195.743 76.0431 195.628 75.9941L26.4942 12.9138C26.379 12.8723 26.2522 12.877 26.1405 12.927C26.0287 12.977 25.9407 13.0684 25.8949 13.1819C25.8719 13.2399 25.8607 13.3018 25.8617 13.3641C25.8628 13.4265 25.8761 13.488 25.9011 13.5451C25.926 13.6023 25.9619 13.654 26.0069 13.6972C26.0518 13.7404 26.1049 13.7743 26.163 13.7969L195.297 76.8772L195.455 76.9245Z" fill="black"/>
<path d="M192.994 83.6419C193.092 83.641 193.186 83.6103 193.265 83.5538C193.344 83.4974 193.404 83.4181 193.436 83.3265C193.478 83.2092 193.474 83.0801 193.424 82.9658C193.374 82.8514 193.283 82.7605 193.168 82.7115L24.0339 19.6312C23.9771 19.6085 23.9162 19.5975 23.855 19.5987C23.7938 19.6 23.7335 19.6135 23.6776 19.6385C23.6217 19.6635 23.5714 19.6995 23.5297 19.7443C23.4879 19.7891 23.4556 19.8418 23.4347 19.8993C23.4046 19.9628 23.389 20.0322 23.389 20.1024C23.3891 20.1727 23.4048 20.242 23.435 20.3054C23.4652 20.3689 23.5091 20.4248 23.5636 20.4691C23.6181 20.5134 23.6818 20.545 23.7501 20.5617L192.884 83.6419H192.994Z" fill="black"/>
<path d="M190.534 90.2031C190.653 90.2145 190.772 90.1804 190.867 90.1077C190.962 90.035 191.026 89.9291 191.046 89.8112C191.066 89.6934 191.04 89.5724 190.975 89.4725C190.909 89.3725 190.808 89.3012 190.692 89.2727L21.5737 26.1924C21.5157 26.1695 21.4538 26.1582 21.3914 26.1592C21.3291 26.1603 21.2675 26.1737 21.2104 26.1986C21.1532 26.2235 21.1016 26.2595 21.0584 26.3044C21.0152 26.3494 20.9813 26.4024 20.9586 26.4605C20.9174 26.5798 20.9239 26.7105 20.9768 26.8252C21.0297 26.9398 21.1249 27.0295 21.2425 27.0755L190.361 90.1558L190.534 90.2031Z" fill="black"/>
<path d="M28.7964 6.76367L18.9401 33.3205L0.394501 11.2897L28.7964 6.76367Z" fill="white"/>
<path d="M8.86328 9.93359L5.93005 17.8659L0.394762 11.2898L8.86328 9.93359Z" fill="#4ADA85"/>
<path d="M192.995 97.2508C185.191 97.2508 178.865 90.9105 178.865 83.0893C178.865 75.2681 185.191 68.9277 192.995 68.9277C200.798 68.9277 207.125 75.2681 207.125 83.0893C207.125 90.9105 200.798 97.2508 192.995 97.2508Z" fill="white"/>
<path d="M193.01 97.7403C196.67 97.7473 200.2 96.3843 202.905 93.9195C205.611 91.4546 207.296 88.0664 207.628 84.4217C207.961 80.777 206.917 77.1397 204.703 74.2258C202.489 71.3118 199.264 69.3322 195.663 68.6765C192.063 68.0208 188.347 68.7366 185.247 70.6829C182.148 72.6292 179.889 75.6652 178.916 79.1932C177.942 82.7212 178.325 86.4858 179.988 89.7461C181.65 93.0064 184.473 95.5263 187.901 96.8098C189.534 97.4231 191.265 97.7382 193.01 97.7403ZM193.01 69.3541C194.627 69.3567 196.229 69.6505 197.741 70.2215C201.135 71.497 203.886 74.0641 205.394 77.3619C206.901 80.6597 207.041 84.4199 205.784 87.8209C205.164 89.5053 204.217 91.0509 202.999 92.3694C201.781 93.6878 200.315 94.7532 198.685 95.5045C197.055 96.2559 195.293 96.6785 193.499 96.7483C191.705 96.818 189.915 96.5335 188.232 95.9109C185.714 94.9532 183.533 93.2745 181.964 91.0846C180.395 88.8946 179.505 86.2906 179.408 83.5982C179.31 80.9057 180.009 78.2442 181.415 75.9463C182.822 73.6485 184.875 71.8163 187.317 70.6788C189.098 69.8621 191.035 69.4424 192.994 69.4488L193.01 69.3541Z" fill="black"/>
<path d="M190.724 89.1929C191.93 89.6411 193.243 89.7215 194.496 89.4241C195.748 89.1266 196.885 88.4647 197.761 87.5218C198.638 86.5789 199.215 85.3973 199.42 84.1264C199.626 82.8555 199.45 81.5523 198.915 80.3812C198.38 79.2102 197.51 78.224 196.415 77.5471C195.32 76.8702 194.049 76.5331 192.762 76.5782C191.476 76.6234 190.231 77.0488 189.187 77.8008C188.142 78.5528 187.343 79.5976 186.891 80.8032C186.589 81.6055 186.448 82.4596 186.477 83.3165C186.506 84.1734 186.704 85.0161 187.061 85.796C187.417 86.5759 187.924 87.2776 188.553 87.8606C189.181 88.4436 189.919 88.8964 190.724 89.1929Z" fill="#4ADA85"/>
<path d="M18.9401 33.7932H19.0189C19.1021 33.7778 19.1795 33.7405 19.2433 33.685C19.3071 33.6295 19.3549 33.558 19.3816 33.4778L29.2379 6.92102C29.2797 6.85206 29.3018 6.77297 29.3018 6.69236C29.3018 6.61174 29.2797 6.53266 29.2379 6.46369C29.1899 6.39423 29.1222 6.34065 29.0436 6.30976C28.9649 6.27887 28.8789 6.27207 28.7964 6.29022L0.410259 10.8162C0.324898 10.8306 0.244884 10.8674 0.178387 10.9228C0.111889 10.9782 0.0613098 11.0503 0.0317936 11.1316C0.00119591 11.2077 -0.00763893 11.2907 0.00628662 11.3715C0.0202122 11.4523 0.0563316 11.5276 0.110624 11.589L18.6562 33.6671C18.7346 33.7389 18.8343 33.7831 18.9401 33.7932ZM28.071 7.36258L18.7824 32.3897L1.30916 11.6205L28.071 7.36258Z" fill="black"/>
<path d="M47.0583 33.7138L43.0212 12.0615L66.0297 20.6404L66.3451 22.2174C66.8654 24.8996 66.8654 27.6568 66.3451 30.339L62.5603 49.5154L45.2132 43.0655L47.0583 33.7138Z" fill="black"/>
<path d="M68.4897 13.4184L63.3014 14.4119L61.819 6.6688L60.3997 6.95266L60.0212 4.79216C59.9384 4.3583 59.9418 3.91237 60.0313 3.47983C60.1208 3.04729 60.2946 2.63661 60.5428 2.27125C60.7911 1.90588 61.1088 1.59298 61.4779 1.35042C61.8471 1.10785 62.2604 0.940371 62.6943 0.857533C63.1281 0.774694 63.5741 0.778123 64.0066 0.867623C64.4391 0.957124 64.8498 1.13094 65.2152 1.37916C65.5805 1.62737 65.8934 1.94512 66.136 2.31425C66.3786 2.68339 66.5461 3.09669 66.6289 3.53056L68.4897 13.4184Z" fill="#FDDCC4"/>
<path d="M63.0967 13.2611L57.9083 14.2546L56.4102 6.5115L54.9909 6.79536L54.5493 4.46139C54.4668 4.04196 54.4679 3.61038 54.5526 3.19139C54.6372 2.77239 54.8037 2.37421 55.0425 2.01968C55.2813 1.66514 55.5877 1.36122 55.9442 1.12533C56.3006 0.889443 56.7002 0.726223 57.1198 0.64503H57.3564C58.2011 0.483084 59.0756 0.662746 59.7881 1.14462C60.5005 1.62649 60.9928 2.37124 61.157 3.21555L63.0967 13.2611Z" fill="#FDDCC4"/>
<path d="M58.1919 15.7206L53.0036 16.7141L51.5212 8.97103L50.1019 9.23912L49.6445 6.90515C49.4827 6.05624 49.664 5.17779 50.1488 4.46239C50.6337 3.74698 51.3824 3.25302 52.2308 3.08879H52.4516C52.871 3.00879 53.302 3.01224 53.7201 3.09895C54.1381 3.18566 54.535 3.35392 54.888 3.59412C55.241 3.83432 55.5431 4.14175 55.7772 4.49882C56.0113 4.85589 56.1727 5.2556 56.2522 5.67509L58.1919 15.7206Z" fill="#FDDCC4"/>
<path d="M53.2402 17.8809L48.0519 18.8744L46.948 13.3075L42.9739 11.8409L42.627 10.0274C42.5308 9.53854 42.532 9.03553 42.6306 8.54719C42.7293 8.05885 42.9233 7.59478 43.2017 7.18161C43.4801 6.76844 43.8373 6.41429 44.2528 6.13949C44.6684 5.86468 45.1341 5.67462 45.6233 5.58021L46.9638 5.31211C47.9528 5.12252 48.9767 5.33324 49.8106 5.898C50.6444 6.46276 51.22 7.33537 51.4109 8.3242L53.2402 17.8809Z" fill="#FDDCC4"/>
<path d="M70.3351 29.5192L65.273 22.738C65.273 22.738 67.2127 14.3484 67.6385 12.2982C67.9375 10.3613 68.7549 8.54131 70.004 7.03104C70.551 6.24042 71.3169 5.62674 72.2078 5.26535C73.0986 4.90395 74.0757 4.81059 75.0189 4.99671H75.0977C75.4089 5.06715 75.6971 5.2151 75.9358 5.42682C76.1744 5.63854 76.3556 5.90715 76.4626 6.20769C76.5696 6.50823 76.5989 6.83094 76.5478 7.14583C76.4966 7.46072 76.3667 7.75757 76.1701 8.00879C75.0774 9.10615 74.3034 10.4798 73.9307 11.9828L70.3351 29.5192Z" fill="#FDDCC4"/>
<path d="M70.1932 22.2652C70.7135 24.9474 70.7135 27.7046 70.1932 30.3868L65.2571 55.2562L79.4502 69.7804L68.6319 78.4067C66.7753 79.8819 64.5786 80.8684 62.2426 81.2761C59.9065 81.6839 57.5055 81.4997 55.2589 80.7406L54.36 80.441C51.1064 79.3335 48.3652 77.083 46.6454 74.1073C44.9255 71.1316 44.3439 67.633 45.0084 64.2609L50.9694 33.73L47.1846 13.9859L67.8907 9.99609L70.1932 22.2652Z" fill="#FDDCC4"/>
<path d="M63.0178 13.3864H63.1755C63.2366 13.375 63.2948 13.3517 63.3469 13.3178C63.399 13.2839 63.4439 13.2401 63.4791 13.1888C63.5142 13.1376 63.5389 13.0799 63.5518 13.0191C63.5646 12.9583 63.5654 12.8955 63.554 12.8344L61.5985 3.08853C61.5148 2.60387 61.3359 2.1406 61.0721 1.72551C60.8083 1.31041 60.4648 0.95172 60.0616 0.670167C59.6583 0.388613 59.2032 0.189782 58.7226 0.0851674C58.2421 -0.0194478 57.7455 -0.0277721 57.2617 0.0606755H57.0409C56.2758 0.210104 55.5762 0.594085 55.0392 1.1593C54.5023 1.72451 54.1546 2.44289 54.0446 3.21469C54.0258 3.34016 54.0576 3.46798 54.133 3.57001C54.2084 3.67204 54.3213 3.73994 54.4467 3.75876C54.5722 3.77758 54.7 3.74578 54.8021 3.67037C54.9041 3.59495 54.972 3.48209 54.9908 3.35662C55.0768 2.78627 55.3363 2.25624 55.7342 1.83863C56.132 1.42102 56.6489 1.13611 57.2144 1.02265H57.4352C58.1561 0.888023 58.901 1.0425 59.5089 1.45269C60.1168 1.86287 60.5388 2.49582 60.6838 3.21469L62.5605 12.9606C62.5719 13.075 62.6247 13.1814 62.7088 13.2597C62.793 13.3381 62.9028 13.3831 63.0178 13.3864Z" fill="black"/>
<path d="M58.1132 15.8313H58.1921C58.2532 15.8199 58.3114 15.7966 58.3635 15.7627C58.4156 15.7288 58.4605 15.685 58.4957 15.6337C58.5308 15.5825 58.5555 15.5248 58.5684 15.464C58.5812 15.4032 58.582 15.3404 58.5706 15.2793L56.7255 5.61228C56.5348 4.63725 55.9684 3.7763 55.1485 3.21523C54.7437 2.94117 54.2886 2.74991 53.8096 2.65248C53.3305 2.55504 52.8369 2.55335 52.3572 2.6475H52.1364C51.3721 2.79548 50.6735 3.17937 50.1389 3.74515C49.6042 4.31094 49.2604 5.03013 49.1558 5.80152C49.1377 5.9248 49.1689 6.05026 49.2428 6.15065C49.3166 6.25105 49.427 6.31826 49.5501 6.3377C49.6123 6.34656 49.6756 6.34294 49.7364 6.32704C49.7972 6.31115 49.8542 6.28331 49.9042 6.24514C49.9541 6.20697 49.9959 6.15923 50.0272 6.10473C50.0584 6.05022 50.0785 5.99004 50.0863 5.92768C50.1678 5.35558 50.4259 4.82319 50.8245 4.40479C51.2231 3.98639 51.7424 3.70285 52.3099 3.59371H52.5464C52.9018 3.5249 53.2673 3.5271 53.6219 3.60017C53.9765 3.67325 54.3131 3.81576 54.6123 4.0195C55.225 4.43537 55.6498 5.07537 55.7951 5.80152L57.6402 15.4686C57.668 15.5727 57.7295 15.6648 57.815 15.7304C57.9006 15.796 58.0054 15.8315 58.1132 15.8313Z" fill="black"/>
<path d="M69.9091 21.2721C70.0338 21.2454 70.1431 21.1712 70.2138 21.0651C70.2845 20.9591 70.311 20.8296 70.2876 20.7043L66.9601 3.35726C66.8186 2.65021 66.4804 1.99744 65.9845 1.47396C65.4886 0.950491 64.8551 0.577557 64.1567 0.398023C63.4583 0.218488 62.7234 0.239638 62.0365 0.459041C61.3497 0.678444 60.7386 1.0872 60.2736 1.63833C60.1957 1.73931 60.1604 1.86674 60.1751 1.99343C60.1898 2.12012 60.2535 2.23603 60.3525 2.31644C60.4409 2.40312 60.5598 2.45168 60.6836 2.45168C60.8075 2.45168 60.9264 2.40312 61.0148 2.31644C61.4463 1.77958 62.0563 1.41576 62.7338 1.29139C63.1049 1.21347 63.4882 1.21245 63.8597 1.28839C64.2313 1.36434 64.5834 1.51564 64.8942 1.73295C65.2109 1.94239 65.4818 2.2139 65.6905 2.53104C65.8992 2.84818 66.0414 3.20436 66.1085 3.57804L69.436 20.9251C69.4667 21.0264 69.5294 21.1149 69.6148 21.1774C69.7001 21.24 69.8034 21.2732 69.9091 21.2721Z" fill="black"/>
<path d="M64.1689 61.2325C64.2769 61.2311 64.3811 61.1927 64.4643 61.1239C64.5475 61.055 64.6046 60.9598 64.6262 60.854L66.3294 52.1016C66.3408 52.0405 66.34 51.9778 66.3272 51.917C66.3143 51.8562 66.2896 51.7985 66.2545 51.7472C66.2193 51.696 66.1744 51.6521 66.1224 51.6182C66.0703 51.5843 66.012 51.561 65.9509 51.5497C65.8907 51.5359 65.8284 51.5344 65.7677 51.5453C65.707 51.5562 65.6491 51.5793 65.5975 51.6132C65.5459 51.6471 65.5018 51.6911 65.4676 51.7425C65.4335 51.7939 65.4101 51.8517 65.3989 51.9124L63.6642 60.6648C63.6528 60.7259 63.6536 60.7886 63.6664 60.8494C63.6793 60.9102 63.704 60.9679 63.7391 61.0191C63.7743 61.0704 63.8192 61.1142 63.8713 61.1481C63.9234 61.182 63.9816 61.2053 64.0427 61.2167L64.1689 61.2325Z" fill="black"/>
<path d="M59.7377 81.9539C63.0525 81.9777 66.2752 80.8645 68.8686 78.7999L79.6396 70.1579C79.6873 70.1136 79.7254 70.0599 79.7515 70.0002C79.7776 69.9405 79.791 69.8761 79.791 69.811C79.791 69.7458 79.7776 69.6814 79.7515 69.6217C79.7254 69.562 79.6873 69.5083 79.6396 69.464L65.7146 55.1606L70.5875 30.5435L72.3223 22.1381L74.4039 12.1714C74.6887 10.8859 75.3279 9.70588 76.249 8.76503L76.5329 8.40232C76.7839 8.08969 76.9508 7.71801 77.0176 7.32266C77.0845 6.9273 77.049 6.52142 76.9147 6.14364C76.7803 5.76586 76.5515 5.42874 76.2501 5.16437C75.9486 4.9 75.5845 4.71717 75.1924 4.63327H75.1136C74.0963 4.4216 73.0394 4.51183 72.0728 4.89288C71.1062 5.27392 70.272 5.92915 69.6729 6.778C68.7311 7.93869 68.0144 9.2651 67.5597 10.689C67.541 10.749 67.5344 10.8122 67.5402 10.8748C67.546 10.9374 67.564 10.9983 67.5933 11.0539C67.6226 11.1096 67.6625 11.1589 67.7109 11.1991C67.7592 11.2393 67.815 11.2696 67.8751 11.2882C67.9351 11.3069 67.9983 11.3135 68.0609 11.3077C68.1235 11.302 68.1844 11.2839 68.24 11.2547C68.2957 11.2254 68.345 11.1854 68.3852 11.1371C68.4254 11.0887 68.4557 11.0329 68.4743 10.9728C68.8847 9.66437 69.5374 8.44467 70.3983 7.37727C70.8877 6.67361 71.5732 6.12947 72.3696 5.8126C73.166 5.49573 74.038 5.42015 74.877 5.59525H74.9716C75.2052 5.64406 75.4223 5.75231 75.6019 5.90953C75.7815 6.06675 75.9175 6.26764 75.9968 6.49277C76.0761 6.7179 76.0959 6.95967 76.0545 7.19473C76.013 7.42978 75.9116 7.65017 75.7601 7.8346L75.4763 8.19731C74.4663 9.26265 73.7634 10.5813 73.4419 12.0137L71.3603 21.9803L69.6729 30.4016L64.7526 55.1448C64.7372 55.2207 64.7406 55.2992 64.7626 55.3734C64.7846 55.4477 64.8245 55.5154 64.8788 55.5706L78.6145 69.669L68.2378 77.9799C66.4507 79.4276 64.3247 80.397 62.0598 80.797C59.7949 81.197 57.4655 81.0145 55.2906 80.2665L54.4232 79.9669C51.283 78.8871 48.6381 76.71 46.975 73.8358C45.312 70.9616 44.7424 67.5836 45.3712 64.323L51.3638 33.8079C51.3798 33.7458 51.3798 33.6807 51.3638 33.6187L47.4055 13.2122C47.3862 13.1326 47.3473 13.0591 47.2921 12.9984C47.237 12.9378 47.1676 12.892 47.0901 12.8652L43.3684 11.4775L43.0688 9.90048C42.9065 9.03525 43.092 8.14095 43.5851 7.41168C44.0782 6.68241 44.839 6.17705 45.7024 6.00527L47.0428 5.75295C47.4707 5.66845 47.9111 5.66972 48.3385 5.75667C48.7659 5.84362 49.1717 6.01453 49.5326 6.2595C49.8934 6.50447 50.2021 6.81861 50.4406 7.18374C50.6792 7.54886 50.8429 7.95769 50.9223 8.38655L52.6885 17.5647C52.6999 17.6258 52.7232 17.6841 52.7571 17.7362C52.791 17.7882 52.8348 17.8331 52.8861 17.8683C52.9374 17.9034 52.995 17.9281 53.0558 17.941C53.1166 17.9538 53.1794 17.9546 53.2405 17.9432C53.3015 17.9318 53.3598 17.9085 53.4119 17.8746C53.464 17.8407 53.5089 17.7969 53.544 17.7456C53.5792 17.6944 53.6039 17.6367 53.6167 17.5759C53.6296 17.5151 53.6303 17.4524 53.6189 17.3913L51.8527 8.21308C51.7541 7.6608 51.5469 7.13356 51.2432 6.66188C50.9394 6.19021 50.5452 5.78346 50.0832 5.4652C49.6212 5.14693 49.1006 4.92347 48.5517 4.80773C48.0027 4.692 47.4363 4.68631 46.8851 4.79097L45.5447 5.0433C44.4345 5.26103 43.4553 5.90855 42.8202 6.84485C42.1852 7.78115 41.9458 8.93041 42.1541 10.0424L42.501 11.856C42.5178 11.9362 42.5538 12.0112 42.606 12.0744C42.6582 12.1376 42.725 12.1871 42.8007 12.2187L46.5382 13.6064L50.4176 33.6502L44.4723 64.0864C43.8004 67.5698 44.4083 71.1787 46.1843 74.2497C47.9603 77.3208 50.7851 79.6477 54.1394 80.8027L55.0225 81.1023C56.5375 81.6406 58.1302 81.9282 59.7377 81.9539Z" fill="black"/>
<path d="M79.3555 70.1745C79.4625 70.1727 79.5665 70.1398 79.6551 70.0799L88.4075 62.9992C88.4684 62.9661 88.5213 62.92 88.5624 62.8643C88.6036 62.8085 88.6319 62.7444 88.6456 62.6765C88.6592 62.6085 88.6577 62.5384 88.6413 62.4711C88.6248 62.4038 88.5938 62.3409 88.5503 62.2869C88.5069 62.2329 88.4521 62.1891 88.3899 62.1586C88.3277 62.1281 88.2596 62.1117 88.1903 62.1104C88.121 62.1092 88.0523 62.1231 87.989 62.1514C87.9257 62.1796 87.8694 62.2214 87.824 62.2737L79.0086 69.3387C78.9219 69.4272 78.8733 69.5461 78.8733 69.6699C78.8733 69.7937 78.9219 69.9126 79.0086 70.0011C79.0502 70.0536 79.1028 70.0964 79.1628 70.1264C79.2227 70.1564 79.2885 70.1728 79.3555 70.1745Z" fill="black"/>
</svg>
