<svg width="274" height="278" viewBox="0 0 274 278" fill="none" xmlns="http://www.w3.org/2000/svg">
<path d="M102.511 277.587L97.4813 267.237L97.3017 266.864L60.2007 190.465L88.3615 177.808L110.208 167.997L147.875 245.529C154.508 258.145 157.382 277.587 157.382 277.587H102.511Z" fill="#FED101"/>
<path d="M49.6161 277.71C49.6161 277.71 34.2506 179.161 33.2281 167.996C31.5838 150.033 45.222 131.282 63.738 127.827L84.7412 123.917C84.7412 123.917 86.123 148.444 88.3615 177.807C89.3011 190.588 90.3789 204.282 91.5396 217.271C92.4101 226.943 93.3083 236.27 94.3032 244.506C95.3257 253.543 96.362 261.294 97.3846 266.863C97.4675 267.347 97.5642 267.816 97.6471 268.245L97.8129 269.019V269.309C98.2447 271.341 98.5401 273.4 98.6973 275.472C98.6973 276.163 98.8493 277.641 98.8493 277.641L49.6161 277.71Z" fill="#FED101"/>
<path d="M98.8355 277.945C98.7937 277.946 98.752 277.94 98.7128 277.926C98.6735 277.911 98.6374 277.89 98.6066 277.861C98.5758 277.833 98.5509 277.799 98.5332 277.761C98.5156 277.723 98.5056 277.682 98.5038 277.641V277.392C98.5038 276.798 98.5038 276.245 98.3657 275.637C98.2275 274.338 98.034 272.984 97.7991 271.63L97.4813 269.502L97.1912 267.443L90.8626 223.378C90.7134 221.371 90.8389 219.353 91.2356 217.381C92.5207 211.259 96.7628 207.515 100.521 204.475L102.801 202.665C102.871 202.61 102.959 202.585 103.048 202.595C103.136 202.605 103.216 202.65 103.271 202.72C103.326 202.79 103.351 202.878 103.341 202.966C103.33 203.054 103.285 203.135 103.216 203.19L100.936 205C97.205 207.957 93.1287 211.605 91.8713 217.519C91.4876 219.423 91.3667 221.371 91.512 223.309L97.8406 267.374L98.1308 269.433L98.4348 271.547C98.6697 272.929 98.8631 274.31 99.0013 275.596C99.0013 276.204 99.098 276.77 99.1395 277.364V277.613C99.1433 277.657 99.1379 277.701 99.1237 277.743C99.1095 277.785 99.0867 277.823 99.0568 277.856C99.0268 277.888 98.9905 277.914 98.95 277.932C98.9095 277.95 98.8658 277.959 98.8217 277.958L98.8355 277.945Z" fill="black"/>
<path d="M49.6022 277.946C49.5246 277.946 49.4495 277.919 49.3909 277.868C49.3324 277.817 49.2945 277.746 49.2844 277.669C49.1462 276.826 36.1712 193.56 33.228 171.562C30.4644 150.835 43.9645 131.075 63.351 127.344L80.7892 124.028C80.8752 124.012 80.9643 124.03 81.0367 124.08C81.1092 124.129 81.1593 124.205 81.1761 124.291C81.1861 124.334 81.1871 124.378 81.1791 124.421C81.1712 124.464 81.1543 124.505 81.1296 124.542C81.1049 124.578 81.073 124.609 81.0358 124.632C80.9986 124.656 80.957 124.671 80.9135 124.678L63.4753 127.994C44.4757 131.711 31.1553 151.194 33.8774 171.548C36.8206 193.518 49.7956 276.785 50.0029 277.614C50.0151 277.702 49.9933 277.791 49.9419 277.863C49.8905 277.935 49.8134 277.984 49.7265 278.001L49.6022 277.946Z" fill="black"/>
<path d="M135.149 86.9671H161.555C164.12 86.9671 166.58 87.9862 168.394 89.8001C170.208 91.6141 171.227 94.0743 171.227 96.6396V149.562C171.227 149.609 171.239 149.655 171.26 149.697C171.281 149.739 171.311 149.775 171.349 149.803C171.386 149.831 171.429 149.85 171.476 149.859C171.522 149.867 171.569 149.865 171.614 149.852L224.398 133.658C224.475 133.636 224.557 133.646 224.627 133.685C224.697 133.724 224.749 133.788 224.771 133.865L235.356 168.258C235.369 168.295 235.374 168.334 235.371 168.373C235.368 168.413 235.357 168.451 235.339 168.486C235.321 168.521 235.296 168.551 235.266 168.576C235.235 168.601 235.2 168.62 235.162 168.631L164.995 190.145C161.511 191.22 157.823 191.461 154.228 190.851C150.633 190.241 147.231 188.796 144.296 186.633C141.361 184.469 138.974 181.647 137.328 178.393C135.681 175.139 134.821 171.545 134.817 167.898V87.2573C134.819 87.2161 134.829 87.1757 134.846 87.1385C134.864 87.1013 134.889 87.0682 134.92 87.041C134.951 87.0139 134.988 86.9933 135.027 86.9806C135.066 86.9679 135.107 86.9633 135.149 86.9671Z" fill="#8C7BFF"/>
<path d="M165.728 189.939L165.023 190.16C161.538 191.234 157.85 191.476 154.255 190.866C150.66 190.256 147.259 188.811 144.323 186.647C141.388 184.483 139.002 181.661 137.356 178.408C135.709 175.154 134.849 171.559 134.845 167.913V167.098C141.407 168.261 147.61 170.928 152.969 174.891C158.327 178.854 162.694 184.005 165.728 189.939Z" fill="#7462E8"/>
<path d="M44.9038 130.673L95.4496 43.3027L162.591 82.2415C164.785 83.5083 166.675 85.2416 168.125 87.319C169.576 89.3964 170.553 91.7671 170.986 94.2635C171.42 96.76 171.3 99.3212 170.635 101.766C169.97 104.211 168.776 106.48 167.137 108.413L147.363 131.792L118.056 182.435L44.9038 130.673Z" fill="#8C7BFF"/>
<path d="M118.678 170.233C118.623 170.246 118.566 170.246 118.512 170.233C118.474 170.213 118.44 170.186 118.414 170.152C118.387 170.119 118.367 170.08 118.355 170.039C118.344 169.998 118.34 169.954 118.346 169.912C118.351 169.869 118.366 169.828 118.387 169.791L133.836 142.155C134.986 140.011 136.605 138.152 138.571 136.717C140.537 135.282 142.8 134.307 145.194 133.865C147.809 133.425 150.284 132.38 152.423 130.813C154.562 129.247 156.305 127.202 157.513 124.842C158.721 122.482 159.361 119.873 159.381 117.221C159.402 114.57 158.802 111.951 157.63 109.573C156.351 107.086 155.646 104.344 155.567 101.548C155.488 98.7526 156.037 95.9749 157.174 93.4198C157.213 93.3412 157.28 93.2803 157.363 93.2495C157.445 93.2187 157.535 93.2203 157.616 93.254C157.695 93.2927 157.755 93.3609 157.784 93.4437C157.812 93.5266 157.807 93.6173 157.768 93.6962C156.651 96.1706 156.109 98.8661 156.183 101.58C156.257 104.294 156.946 106.956 158.197 109.366C159.399 111.828 160.011 114.537 159.987 117.277C159.962 120.018 159.3 122.715 158.054 125.155C156.807 127.596 155.01 129.713 152.805 131.34C150.599 132.966 148.046 134.058 145.346 134.528C143.039 134.95 140.857 135.89 138.964 137.275C137.071 138.661 135.516 140.457 134.416 142.529L118.968 170.164C118.928 170.197 118.881 170.22 118.831 170.232C118.78 170.244 118.728 170.244 118.678 170.233Z" fill="black"/>
<path d="M101.709 111.977C101.666 111.979 101.624 111.972 101.584 111.957C101.543 111.942 101.507 111.919 101.476 111.889C101.445 111.86 101.42 111.824 101.403 111.785C101.386 111.745 101.378 111.703 101.378 111.66C101.376 111.616 101.383 111.573 101.398 111.532C101.413 111.491 101.435 111.453 101.465 111.421C101.495 111.389 101.53 111.363 101.57 111.345C101.609 111.326 101.652 111.316 101.696 111.314C105.329 111.197 108.828 109.919 111.682 107.667C114.536 105.416 116.593 102.309 117.553 98.8035C118.512 95.2975 118.324 91.5764 117.014 88.1855C115.705 84.7947 113.343 81.9124 110.276 79.9614C110.204 79.9134 110.153 79.8386 110.134 79.7533C110.116 79.6679 110.133 79.5788 110.18 79.5054C110.202 79.4678 110.232 79.4353 110.268 79.4099C110.303 79.3844 110.344 79.3666 110.387 79.3575C110.429 79.3484 110.474 79.3483 110.517 79.3571C110.559 79.3659 110.6 79.3835 110.636 79.4087C113.819 81.4368 116.27 84.4308 117.628 87.9524C118.987 91.474 119.183 95.338 118.186 98.9788C117.19 102.619 115.054 105.846 112.092 108.185C109.129 110.524 105.496 111.853 101.723 111.977H101.709Z" fill="black"/>
<path d="M81.8666 157.149C81.8037 157.169 81.7361 157.169 81.6732 157.149L44.7103 130.936C44.6447 130.889 44.5987 130.819 44.5809 130.74C44.5631 130.661 44.5747 130.579 44.6136 130.508L81.5764 66.6138C81.6224 66.539 81.6951 66.4845 81.7798 66.4614C81.8645 66.4383 81.9549 66.4483 82.0324 66.4894C82.0696 66.5121 82.102 66.5418 82.1277 66.577C82.1534 66.6122 82.1719 66.6521 82.1822 66.6945C82.1925 66.7368 82.1943 66.7808 82.1876 66.8238C82.1808 66.8669 82.1657 66.9082 82.143 66.9454L45.3321 130.577L82.0601 156.554C82.1184 156.616 82.1509 156.698 82.1509 156.782C82.1509 156.867 82.1184 156.949 82.0601 157.01C82.0388 157.045 82.0107 157.075 81.9774 157.099C81.9442 157.123 81.9065 157.14 81.8666 157.149Z" fill="black"/>
<path d="M40.3306 104.407C40.3306 104.407 63.0472 132.042 72.4019 138.233C75.1655 140.057 79.6148 141.328 83.3733 137.279C84.6031 135.898 86.7587 131.213 89.1492 129.168C91.8323 126.795 94.8147 124.784 98.0203 123.185L102.055 120.422C103.907 119.523 103.713 116.953 102.912 115.06C102.11 113.167 99.7475 113.374 97.8544 114.148L87.8088 118.902L88.1543 113.582C87.947 110.238 88.7484 109.713 90.3237 106.756L96.4726 94.7203C96.9704 93.758 97.1046 92.6487 96.8509 91.5955C96.5971 90.5423 95.9722 89.6158 95.0909 88.9859L94.773 88.7648L98.7111 82.6434C99.2525 81.7654 99.4344 80.7124 99.219 79.7037C99.0036 78.6949 98.4075 77.808 97.5548 77.2277C96.702 76.6473 95.6583 76.4181 94.6409 76.5878C93.6234 76.7575 92.7106 77.3131 92.0924 78.1388L72.4572 103.343L58.8189 85.6557L40.3306 104.407Z" fill="#FDDCC4"/>
<path d="M245.278 244.285H88.6933C83.6912 244.285 79.3524 241.894 79.6287 235.22V104.531C79.6287 102.125 80.5833 99.8181 82.2828 98.116C83.9824 96.4139 86.2879 95.4558 88.6933 95.4521H245.25C247.658 95.4521 249.967 96.4086 251.669 98.1111C253.372 99.8137 254.328 102.123 254.328 104.531V235.22C254.325 237.621 253.37 239.922 251.674 241.621C249.978 243.32 247.678 244.277 245.278 244.285Z" fill="white"/>
<path d="M97.4261 95.4523H236.6C241.313 95.4523 248.668 94.6685 252 98.001C255.333 101.333 254.37 108.509 254.37 113.222V113.678H79.6562V113.222C79.6563 108.509 81.5284 103.989 84.8609 100.657C88.1934 97.3245 92.7132 95.4523 97.4261 95.4523Z" fill="#FED101"/>
<path d="M247.046 244.616H86.966C84.9405 244.612 82.9991 243.806 81.5668 242.374C80.1346 240.942 79.3284 239 79.3247 236.975V102.761C79.3284 100.736 80.1346 98.7945 81.5668 97.3622C82.9991 95.93 84.9405 95.1238 86.966 95.1201H247.046C249.072 95.1238 251.013 95.93 252.445 97.3622C253.878 98.7945 254.684 100.736 254.688 102.761V236.975C254.684 239 253.878 240.942 252.445 242.374C251.013 243.806 249.072 244.612 247.046 244.616ZM86.966 95.7834C85.1403 95.8049 83.3955 96.5397 82.1044 97.8308C80.8134 99.1218 80.0786 100.867 80.0571 102.692V236.905C80.0479 237.819 80.2199 238.724 80.563 239.571C80.9061 240.417 81.4136 241.187 82.056 241.836C82.6985 242.484 83.4632 243 84.306 243.351C85.1488 243.703 86.0529 243.884 86.966 243.884H247.046C247.965 243.893 248.877 243.719 249.728 243.371C250.578 243.024 251.351 242.51 252.001 241.86C252.651 241.21 253.165 240.438 253.512 239.587C253.859 238.736 254.034 237.824 254.024 236.905V102.761C254.002 100.924 253.258 99.1687 251.952 97.8758C250.646 96.5828 248.884 95.856 247.046 95.8525L86.966 95.7834Z" fill="black"/>
<path d="M254.356 114.01H79.6563C79.5684 114.01 79.484 113.975 79.4218 113.913C79.3596 113.851 79.3247 113.766 79.3247 113.678C79.3247 113.59 79.3596 113.506 79.4218 113.444C79.484 113.382 79.5684 113.347 79.6563 113.347H254.356C254.444 113.347 254.528 113.382 254.59 113.444C254.653 113.506 254.688 113.59 254.688 113.678C254.688 113.766 254.653 113.851 254.59 113.913C254.528 113.975 254.444 114.01 254.356 114.01Z" fill="black"/>
<path d="M234.196 114.009C234.108 114.009 234.024 113.974 233.961 113.912C233.899 113.85 233.864 113.765 233.864 113.678V95.4517C233.864 95.3638 233.899 95.2794 233.961 95.2172C234.024 95.1551 234.108 95.1201 234.196 95.1201C234.284 95.1201 234.368 95.1551 234.43 95.2172C234.493 95.2794 234.528 95.3638 234.528 95.4517V113.678C234.528 113.765 234.493 113.85 234.43 113.912C234.368 113.974 234.284 114.009 234.196 114.009Z" fill="black"/>
<path d="M214.118 114.009C214.03 114.009 213.946 113.974 213.884 113.912C213.822 113.85 213.787 113.765 213.787 113.678V95.4517C213.787 95.3638 213.822 95.2794 213.884 95.2172C213.946 95.1551 214.03 95.1201 214.118 95.1201C214.162 95.1201 214.205 95.1287 214.245 95.1454C214.285 95.162 214.322 95.1864 214.353 95.2172C214.384 95.248 214.408 95.2846 214.425 95.3248C214.441 95.3651 214.45 95.4082 214.45 95.4517V113.678C214.45 113.721 214.441 113.764 214.425 113.804C214.408 113.845 214.384 113.881 214.353 113.912C214.322 113.943 214.285 113.967 214.245 113.984C214.205 114.001 214.162 114.009 214.118 114.009Z" fill="black"/>
<path d="M208.232 109.035H200.162C200.114 109.045 200.064 109.044 200.016 109.033C199.968 109.021 199.924 108.999 199.885 108.968C199.847 108.937 199.816 108.897 199.795 108.853C199.774 108.808 199.763 108.76 199.763 108.711C199.763 108.661 199.774 108.613 199.795 108.568C199.816 108.524 199.847 108.484 199.885 108.453C199.924 108.422 199.968 108.4 200.016 108.388C200.064 108.377 200.114 108.376 200.162 108.386H208.232C208.275 108.386 208.317 108.394 208.357 108.411C208.396 108.428 208.432 108.453 208.462 108.484C208.491 108.515 208.514 108.551 208.529 108.592C208.545 108.632 208.551 108.675 208.55 108.717C208.55 108.802 208.516 108.883 208.457 108.942C208.397 109.002 208.316 109.035 208.232 109.035Z" fill="white"/>
<path d="M247.848 109.034C247.804 109.035 247.76 109.027 247.72 109.01C247.68 108.994 247.643 108.969 247.613 108.937L239.64 100.978C239.577 100.916 239.542 100.831 239.542 100.743C239.542 100.655 239.577 100.571 239.64 100.508C239.702 100.446 239.787 100.411 239.875 100.411C239.963 100.411 240.047 100.446 240.11 100.508L248.083 108.481C248.125 108.528 248.152 108.586 248.163 108.648C248.173 108.711 248.165 108.774 248.141 108.832C248.116 108.89 248.075 108.94 248.024 108.976C247.972 109.012 247.911 109.032 247.848 109.034Z" fill="white"/>
<path d="M239.875 109.034C239.812 109.032 239.751 109.012 239.699 108.976C239.647 108.94 239.606 108.89 239.582 108.832C239.557 108.774 239.549 108.711 239.56 108.648C239.57 108.586 239.598 108.528 239.64 108.481L247.599 100.508C247.661 100.446 247.746 100.411 247.834 100.411C247.922 100.411 248.006 100.446 248.069 100.508C248.131 100.571 248.166 100.655 248.166 100.743C248.166 100.831 248.131 100.916 248.069 100.978L240.096 108.937C240.038 108.997 239.958 109.032 239.875 109.034Z" fill="white"/>
<path d="M228.088 109.035H219.797C219.755 109.037 219.712 109.03 219.672 109.015C219.631 109 219.595 108.977 219.564 108.947C219.533 108.917 219.508 108.881 219.491 108.842C219.474 108.803 219.466 108.76 219.466 108.717V100.426C219.466 100.338 219.501 100.254 219.563 100.192C219.625 100.13 219.71 100.095 219.797 100.095H228.088C228.176 100.095 228.26 100.13 228.323 100.192C228.385 100.254 228.42 100.338 228.42 100.426V108.717C228.42 108.76 228.411 108.803 228.394 108.842C228.378 108.881 228.353 108.917 228.322 108.947C228.291 108.977 228.254 109 228.214 109.015C228.174 109.03 228.131 109.037 228.088 109.035ZM220.129 108.385H227.757V100.758H220.129V108.385Z" fill="white"/>
<path d="M241.311 182.866H166.792V231.892H241.311V182.866Z" fill="#4ADA85"/>
<path d="M241.311 122.605H166.792V171.631H241.311V122.605Z" fill="#8C7BFF"/>
<path d="M154.065 124.967C154.022 124.969 153.98 124.962 153.939 124.947C153.899 124.932 153.863 124.909 153.832 124.879C153.801 124.85 153.776 124.814 153.759 124.774C153.742 124.735 153.734 124.692 153.734 124.649V122.991H152.089C152.041 123.001 151.991 123 151.943 122.989C151.896 122.977 151.851 122.955 151.813 122.924C151.775 122.893 151.744 122.853 151.723 122.809C151.701 122.764 151.69 122.716 151.69 122.667C151.69 122.617 151.701 122.569 151.723 122.524C151.744 122.48 151.775 122.44 151.813 122.409C151.851 122.378 151.896 122.356 151.943 122.344C151.991 122.333 152.041 122.332 152.089 122.342H154.065C154.109 122.342 154.152 122.35 154.192 122.367C154.233 122.383 154.269 122.408 154.3 122.439C154.332 122.469 154.356 122.506 154.373 122.546C154.39 122.586 154.398 122.63 154.397 122.673V124.663C154.395 124.705 154.385 124.746 154.368 124.784C154.35 124.822 154.325 124.856 154.294 124.884C154.263 124.912 154.227 124.934 154.188 124.948C154.149 124.963 154.107 124.969 154.065 124.967Z" fill="black"/>
<path d="M154.066 226.349C153.978 226.349 153.893 226.314 153.831 226.251C153.769 226.189 153.734 226.105 153.734 226.017V222.12C153.734 222.032 153.769 221.948 153.831 221.886C153.893 221.824 153.978 221.789 154.066 221.789C154.153 221.789 154.238 221.824 154.3 221.886C154.362 221.948 154.397 222.032 154.397 222.12V226.017C154.397 226.105 154.362 226.189 154.3 226.251C154.238 226.314 154.153 226.349 154.066 226.349ZM154.066 218.555C153.978 218.555 153.893 218.52 153.831 218.458C153.769 218.396 153.734 218.312 153.734 218.224V214.382C153.734 214.294 153.769 214.21 153.831 214.148C153.893 214.086 153.978 214.051 154.066 214.051C154.153 214.051 154.238 214.086 154.3 214.148C154.362 214.21 154.397 214.294 154.397 214.382V218.279C154.378 218.352 154.335 218.416 154.275 218.461C154.215 218.507 154.141 218.53 154.066 218.528V218.555ZM154.066 210.748C154.023 210.75 153.98 210.743 153.94 210.728C153.899 210.713 153.863 210.69 153.832 210.66C153.801 210.63 153.776 210.595 153.759 210.555C153.742 210.516 153.734 210.473 153.734 210.43V206.52C153.734 206.477 153.742 206.434 153.759 206.395C153.776 206.355 153.801 206.32 153.832 206.29C153.863 206.26 153.899 206.237 153.94 206.222C153.98 206.207 154.023 206.2 154.066 206.202C154.108 206.2 154.151 206.207 154.191 206.222C154.232 206.237 154.268 206.26 154.299 206.29C154.33 206.32 154.355 206.355 154.372 206.395C154.389 206.434 154.397 206.477 154.397 206.52V210.43C154.397 210.473 154.389 210.516 154.372 210.555C154.355 210.595 154.33 210.63 154.299 210.66C154.268 210.69 154.232 210.713 154.191 210.728C154.151 210.743 154.108 210.75 154.066 210.748ZM154.066 202.955C153.978 202.955 153.893 202.92 153.831 202.858C153.769 202.795 153.734 202.711 153.734 202.623V198.727C153.734 198.639 153.769 198.554 153.831 198.492C153.893 198.43 153.978 198.395 154.066 198.395C154.153 198.395 154.238 198.43 154.3 198.492C154.362 198.554 154.397 198.639 154.397 198.727V202.623C154.397 202.711 154.362 202.795 154.3 202.858C154.238 202.92 154.153 202.955 154.066 202.955ZM154.066 195.162C153.978 195.162 153.893 195.127 153.831 195.064C153.769 195.002 153.734 194.918 153.734 194.83V190.892C153.734 190.804 153.769 190.72 153.831 190.657C153.893 190.595 153.978 190.56 154.066 190.56C154.11 190.558 154.154 190.565 154.195 190.581C154.236 190.597 154.273 190.622 154.304 190.653C154.336 190.684 154.36 190.722 154.376 190.763C154.392 190.804 154.399 190.848 154.397 190.892V194.788C154.403 194.835 154.399 194.883 154.385 194.928C154.371 194.973 154.347 195.015 154.316 195.05C154.285 195.086 154.246 195.114 154.203 195.133C154.16 195.152 154.113 195.162 154.066 195.162ZM154.066 187.354C153.978 187.354 153.893 187.319 153.831 187.257C153.769 187.195 153.734 187.111 153.734 187.023V183.126C153.734 183.038 153.769 182.954 153.831 182.892C153.893 182.829 153.978 182.795 154.066 182.795C154.153 182.795 154.238 182.829 154.3 182.892C154.362 182.954 154.397 183.038 154.397 183.126V187.023C154.399 187.067 154.392 187.111 154.376 187.152C154.36 187.193 154.336 187.23 154.304 187.262C154.273 187.293 154.236 187.317 154.195 187.333C154.154 187.349 154.11 187.356 154.066 187.354ZM154.066 179.561C153.978 179.561 153.893 179.526 153.831 179.464C153.769 179.402 153.734 179.317 153.734 179.23V175.333C153.734 175.245 153.769 175.161 153.831 175.098C153.893 175.036 153.978 175.001 154.066 175.001C154.153 175.001 154.238 175.036 154.3 175.098C154.362 175.161 154.397 175.245 154.397 175.333V179.23C154.397 179.317 154.362 179.402 154.3 179.464C154.238 179.526 154.153 179.561 154.066 179.561ZM154.066 171.768C153.978 171.768 153.893 171.733 153.831 171.671C153.769 171.609 153.734 171.524 153.734 171.436V167.54C153.734 167.452 153.769 167.367 153.831 167.305C153.893 167.243 153.978 167.208 154.066 167.208C154.11 167.206 154.154 167.213 154.195 167.229C154.236 167.245 154.273 167.27 154.304 167.301C154.336 167.332 154.36 167.369 154.376 167.41C154.392 167.452 154.399 167.496 154.397 167.54V171.436C154.397 171.524 154.362 171.609 154.3 171.671C154.238 171.733 154.153 171.768 154.066 171.768ZM154.066 163.961C153.978 163.961 153.893 163.926 153.831 163.864C153.769 163.801 153.734 163.717 153.734 163.629V159.732C153.734 159.645 153.769 159.56 153.831 159.498C153.893 159.436 153.978 159.401 154.066 159.401C154.153 159.401 154.238 159.436 154.3 159.498C154.362 159.56 154.397 159.645 154.397 159.732V163.629C154.399 163.673 154.392 163.717 154.376 163.758C154.36 163.799 154.336 163.837 154.304 163.868C154.273 163.899 154.236 163.924 154.195 163.939C154.154 163.955 154.11 163.963 154.066 163.961ZM154.066 156.167C153.978 156.167 153.893 156.133 153.831 156.07C153.769 156.008 153.734 155.924 153.734 155.836V151.939C153.734 151.851 153.769 151.767 153.831 151.705C153.893 151.642 153.978 151.608 154.066 151.608C154.153 151.608 154.238 151.642 154.3 151.705C154.362 151.767 154.397 151.851 154.397 151.939V155.836C154.397 155.924 154.362 156.008 154.3 156.07C154.238 156.133 154.153 156.167 154.066 156.167ZM154.066 148.36C154.023 148.362 153.98 148.355 153.94 148.34C153.899 148.325 153.863 148.302 153.832 148.272C153.801 148.243 153.776 148.207 153.759 148.167C153.742 148.128 153.734 148.085 153.734 148.043V144.132C153.734 144.089 153.742 144.047 153.759 144.007C153.776 143.968 153.801 143.932 153.832 143.902C153.863 143.873 153.899 143.85 153.94 143.834C153.98 143.819 154.023 143.812 154.066 143.814C154.108 143.812 154.151 143.819 154.191 143.834C154.232 143.85 154.268 143.873 154.299 143.902C154.33 143.932 154.355 143.968 154.372 144.007C154.389 144.047 154.397 144.089 154.397 144.132V148.056C154.395 148.098 154.385 148.139 154.368 148.177C154.35 148.215 154.325 148.249 154.294 148.277C154.264 148.305 154.228 148.327 154.188 148.342C154.149 148.356 154.107 148.362 154.066 148.36ZM154.066 140.567C153.978 140.567 153.893 140.532 153.831 140.47C153.769 140.408 153.734 140.323 153.734 140.235V136.339C153.734 136.251 153.769 136.166 153.831 136.104C153.893 136.042 153.978 136.007 154.066 136.007C154.153 136.007 154.238 136.042 154.3 136.104C154.362 136.166 154.397 136.251 154.397 136.339V140.235C154.397 140.323 154.362 140.408 154.3 140.47C154.238 140.532 154.153 140.567 154.066 140.567ZM154.066 132.774C153.978 132.774 153.893 132.739 153.831 132.677C153.769 132.614 153.734 132.53 153.734 132.442V128.545C153.734 128.458 153.769 128.373 153.831 128.311C153.893 128.249 153.978 128.214 154.066 128.214C154.153 128.214 154.238 128.249 154.3 128.311C154.362 128.373 154.397 128.458 154.397 128.545V132.442C154.397 132.53 154.362 132.614 154.3 132.677C154.238 132.739 154.153 132.774 154.066 132.774Z" fill="black"/>
<path d="M154.065 232.236H152.089C152.001 232.236 151.917 232.201 151.855 232.139C151.793 232.077 151.758 231.993 151.758 231.905C151.758 231.817 151.793 231.732 151.855 231.67C151.917 231.608 152.001 231.573 152.089 231.573H153.734V229.915C153.734 229.872 153.742 229.829 153.759 229.79C153.776 229.75 153.801 229.715 153.832 229.685C153.863 229.655 153.899 229.632 153.94 229.617C153.98 229.602 154.023 229.595 154.065 229.597C154.108 229.595 154.151 229.602 154.191 229.617C154.231 229.632 154.268 229.655 154.299 229.685C154.33 229.715 154.355 229.75 154.372 229.79C154.388 229.829 154.397 229.872 154.397 229.915V231.905C154.397 231.993 154.362 232.077 154.3 232.139C154.238 232.201 154.153 232.236 154.065 232.236Z" fill="black"/>
<path d="M147.931 232.236H143.785C143.697 232.236 143.613 232.201 143.551 232.139C143.489 232.077 143.454 231.992 143.454 231.904C143.454 231.816 143.489 231.732 143.551 231.67C143.613 231.608 143.697 231.573 143.785 231.573H147.931C148.019 231.573 148.103 231.608 148.165 231.67C148.227 231.732 148.262 231.816 148.262 231.904C148.262 231.992 148.227 232.077 148.165 232.139C148.103 232.201 148.019 232.236 147.931 232.236ZM139.64 232.236H135.495C135.407 232.236 135.322 232.201 135.26 232.139C135.198 232.077 135.163 231.992 135.163 231.904C135.161 231.86 135.168 231.816 135.184 231.775C135.2 231.734 135.225 231.697 135.256 231.665C135.287 231.634 135.324 231.61 135.365 231.594C135.406 231.578 135.45 231.571 135.495 231.573H139.64C139.728 231.573 139.812 231.608 139.874 231.67C139.937 231.732 139.972 231.816 139.972 231.904C139.972 231.951 139.962 231.998 139.943 232.041C139.924 232.085 139.896 232.123 139.86 232.155C139.825 232.186 139.783 232.21 139.738 232.224C139.693 232.238 139.645 232.242 139.598 232.236H139.64ZM131.349 232.236H127.204C127.116 232.236 127.032 232.201 126.969 232.139C126.907 232.077 126.872 231.992 126.872 231.904C126.872 231.816 126.907 231.732 126.969 231.67C127.032 231.608 127.116 231.573 127.204 231.573H131.349C131.437 231.573 131.522 231.608 131.584 231.67C131.646 231.732 131.681 231.816 131.681 231.904C131.682 231.956 131.672 232.007 131.651 232.054C131.629 232.1 131.597 232.142 131.557 232.174C131.516 232.206 131.469 232.228 131.419 232.239C131.368 232.25 131.316 232.249 131.266 232.236H131.349ZM123.058 232.236H118.913C118.825 232.236 118.741 232.201 118.679 232.139C118.616 232.077 118.581 231.992 118.581 231.904C118.581 231.816 118.616 231.732 118.679 231.67C118.741 231.608 118.825 231.573 118.913 231.573H123.058C123.146 231.573 123.231 231.608 123.293 231.67C123.355 231.732 123.39 231.816 123.39 231.904C123.394 231.961 123.384 232.017 123.36 232.068C123.337 232.119 123.3 232.164 123.254 232.197C123.209 232.23 123.155 232.251 123.099 232.258C123.043 232.265 122.986 232.257 122.934 232.236H123.058ZM114.768 232.236H110.622C110.534 232.236 110.45 232.201 110.388 232.139C110.326 232.077 110.291 231.992 110.291 231.904C110.291 231.816 110.326 231.732 110.388 231.67C110.45 231.608 110.534 231.573 110.622 231.573H114.768C114.812 231.571 114.856 231.578 114.897 231.594C114.938 231.61 114.975 231.634 115.007 231.665C115.038 231.697 115.062 231.734 115.078 231.775C115.094 231.816 115.101 231.86 115.099 231.904C115.108 231.966 115.099 232.029 115.074 232.086C115.048 232.143 115.007 232.192 114.955 232.226C114.903 232.261 114.842 232.28 114.78 232.282C114.717 232.284 114.656 232.268 114.602 232.236H114.768ZM106.477 232.236H102.332C102.244 232.236 102.159 232.201 102.097 232.139C102.035 232.077 102 231.992 102 231.904C102 231.816 102.035 231.732 102.097 231.67C102.159 231.608 102.244 231.573 102.332 231.573H106.477C106.565 231.573 106.649 231.608 106.711 231.67C106.774 231.732 106.809 231.816 106.809 231.904C106.822 231.97 106.816 232.039 106.789 232.101C106.763 232.163 106.718 232.216 106.661 232.252C106.604 232.288 106.537 232.306 106.47 232.303C106.402 232.3 106.337 232.277 106.284 232.236H106.477Z" fill="black"/>
<path d="M97.9511 232.236H95.9752C95.8872 232.236 95.8029 232.201 95.7407 232.139C95.6785 232.077 95.6436 231.992 95.6436 231.904V229.915C95.6436 229.827 95.6785 229.742 95.7407 229.68C95.8029 229.618 95.8872 229.583 95.9752 229.583C96.0631 229.583 96.1475 229.618 96.2097 229.68C96.2719 229.742 96.3068 229.827 96.3068 229.915V231.573H97.9511C98.0391 231.573 98.1234 231.608 98.1856 231.67C98.2478 231.732 98.2828 231.816 98.2828 231.904C98.2828 231.992 98.2478 232.077 98.1856 232.139C98.1234 232.201 98.0391 232.236 97.9511 232.236Z" fill="black"/>
<path d="M95.9751 226.349C95.8871 226.349 95.8028 226.314 95.7406 226.252C95.6784 226.19 95.6434 226.105 95.6434 226.017V222.121C95.6434 222.033 95.6784 221.948 95.7406 221.886C95.8028 221.824 95.8871 221.789 95.9751 221.789C96.063 221.789 96.1474 221.824 96.2096 221.886C96.2718 221.948 96.3067 222.033 96.3067 222.121V226.017C96.3067 226.061 96.2981 226.104 96.2815 226.144C96.2648 226.184 96.2404 226.221 96.2096 226.252C96.1788 226.283 96.1422 226.307 96.102 226.324C96.0617 226.34 96.0186 226.349 95.9751 226.349ZM95.9751 218.556C95.8871 218.556 95.8028 218.521 95.7406 218.458C95.6784 218.396 95.6434 218.312 95.6434 218.224V214.383C95.6434 214.295 95.6784 214.21 95.7406 214.148C95.8028 214.086 95.8871 214.051 95.9751 214.051C96.063 214.051 96.1474 214.086 96.2096 214.148C96.2718 214.21 96.3067 214.295 96.3067 214.383V218.279C96.2879 218.352 96.2448 218.417 96.1845 218.462C96.1243 218.507 96.0504 218.53 95.9751 218.528V218.556ZM95.9751 210.762C95.8871 210.762 95.8028 210.727 95.7406 210.665C95.6784 210.603 95.6434 210.519 95.6434 210.431V206.534C95.6434 206.446 95.6784 206.362 95.7406 206.3C95.8028 206.237 95.8871 206.202 95.9751 206.202C96.063 206.202 96.1474 206.237 96.2096 206.3C96.2718 206.362 96.3067 206.446 96.3067 206.534V210.431C96.3067 210.474 96.2981 210.517 96.2815 210.558C96.2648 210.598 96.2404 210.634 96.2096 210.665C96.1788 210.696 96.1422 210.72 96.102 210.737C96.0617 210.754 96.0186 210.762 95.9751 210.762ZM95.9751 202.969C95.8871 202.969 95.8028 202.934 95.7406 202.872C95.6784 202.81 95.6434 202.725 95.6434 202.637V198.741C95.6434 198.653 95.6784 198.568 95.7406 198.506C95.8028 198.444 95.8871 198.409 95.9751 198.409C96.063 198.409 96.1474 198.444 96.2096 198.506C96.2718 198.568 96.3067 198.653 96.3067 198.741V202.637C96.3067 202.681 96.2981 202.724 96.2815 202.764C96.2648 202.805 96.2404 202.841 96.2096 202.872C96.1788 202.903 96.1422 202.927 96.102 202.944C96.0617 202.96 96.0186 202.969 95.9751 202.969ZM95.9751 195.176C95.8871 195.176 95.8028 195.141 95.7406 195.079C95.6784 195.016 95.6434 194.932 95.6434 194.844V190.892C95.6434 190.804 95.6784 190.72 95.7406 190.658C95.8028 190.596 95.8871 190.561 95.9751 190.561C96.063 190.561 96.1474 190.596 96.2096 190.658C96.2718 190.72 96.3067 190.804 96.3067 190.892V194.789C96.3148 194.837 96.3123 194.886 96.2993 194.933C96.2863 194.98 96.2631 195.023 96.2315 195.06C96.1999 195.097 96.1605 195.126 96.1162 195.146C96.0719 195.166 96.0237 195.176 95.9751 195.176ZM95.9751 187.382C95.8871 187.382 95.8028 187.348 95.7406 187.285C95.6784 187.223 95.6434 187.139 95.6434 187.051V183.154C95.6434 183.066 95.6784 182.982 95.7406 182.92C95.8028 182.858 95.8871 182.823 95.9751 182.823C96.063 182.823 96.1474 182.858 96.2096 182.92C96.2718 182.982 96.3067 183.066 96.3067 183.154V187.051C96.3067 187.094 96.2981 187.138 96.2815 187.178C96.2648 187.218 96.2404 187.255 96.2096 187.285C96.1788 187.316 96.1422 187.341 96.102 187.357C96.0617 187.374 96.0186 187.382 95.9751 187.382ZM95.9751 179.589C95.8871 179.589 95.8028 179.554 95.7406 179.492C95.6784 179.43 95.6434 179.345 95.6434 179.258V175.361C95.6434 175.273 95.6784 175.189 95.7406 175.126C95.8028 175.064 95.8871 175.029 95.9751 175.029C96.063 175.029 96.1474 175.064 96.2096 175.126C96.2718 175.189 96.3067 175.273 96.3067 175.361V179.258C96.3067 179.345 96.2718 179.43 96.2096 179.492C96.1474 179.554 96.063 179.589 95.9751 179.589ZM95.9751 171.796C95.8871 171.796 95.8028 171.761 95.7406 171.699C95.6784 171.637 95.6434 171.552 95.6434 171.464V167.568C95.6434 167.48 95.6784 167.395 95.7406 167.333C95.8028 167.271 95.8871 167.236 95.9751 167.236C96.063 167.236 96.1474 167.271 96.2096 167.333C96.2718 167.395 96.3067 167.48 96.3067 167.568V171.464C96.3067 171.552 96.2718 171.637 96.2096 171.699C96.1474 171.761 96.063 171.796 95.9751 171.796ZM95.9751 164.003C95.8871 164.003 95.8028 163.968 95.7406 163.905C95.6784 163.843 95.6434 163.759 95.6434 163.671V159.774C95.6434 159.686 95.6784 159.602 95.7406 159.54C95.8028 159.478 95.8871 159.443 95.9751 159.443C96.063 159.443 96.1474 159.478 96.2096 159.54C96.2718 159.602 96.3067 159.686 96.3067 159.774V163.671C96.3067 163.759 96.2718 163.843 96.2096 163.905C96.1474 163.968 96.063 164.003 95.9751 164.003ZM95.9751 156.209C95.8871 156.209 95.8028 156.174 95.7406 156.112C95.6784 156.05 95.6434 155.966 95.6434 155.878V151.981C95.6434 151.893 95.6784 151.809 95.7406 151.747C95.8028 151.684 95.8871 151.649 95.9751 151.649C96.063 151.649 96.1474 151.684 96.2096 151.747C96.2718 151.809 96.3067 151.893 96.3067 151.981V155.878C96.3067 155.966 96.2718 156.05 96.2096 156.112C96.1474 156.174 96.063 156.209 95.9751 156.209ZM95.9751 148.416C95.9257 148.422 95.8756 148.418 95.8284 148.402C95.7811 148.387 95.738 148.361 95.7022 148.326C95.6664 148.292 95.6387 148.249 95.6214 148.203C95.6041 148.156 95.5974 148.106 95.602 148.057V144.188C95.602 144.1 95.6369 144.015 95.6991 143.953C95.7613 143.891 95.8457 143.856 95.9336 143.856C96.0216 143.856 96.1059 143.891 96.1681 143.953C96.2303 144.015 96.2652 144.1 96.2652 144.188V148.057C96.2731 148.143 96.2471 148.228 96.193 148.295C96.1388 148.362 96.0606 148.406 95.9751 148.416ZM95.9751 140.623C95.8871 140.623 95.8028 140.588 95.7406 140.526C95.6784 140.463 95.6434 140.379 95.6434 140.291V136.394C95.6434 136.306 95.6784 136.222 95.7406 136.16C95.8028 136.098 95.8871 136.063 95.9751 136.063C96.063 136.063 96.1474 136.098 96.2096 136.16C96.2718 136.222 96.3067 136.306 96.3067 136.394V140.291C96.3067 140.335 96.2981 140.378 96.2815 140.418C96.2648 140.458 96.2404 140.495 96.2096 140.526C96.1788 140.556 96.1422 140.581 96.102 140.597C96.0617 140.614 96.0186 140.623 95.9751 140.623ZM95.9751 132.829C95.8871 132.829 95.8028 132.794 95.7406 132.732C95.6784 132.67 95.6434 132.586 95.6434 132.498V128.601C95.6434 128.513 95.6784 128.429 95.7406 128.367C95.8028 128.304 95.8871 128.27 95.9751 128.27C96.063 128.27 96.1474 128.304 96.2096 128.367C96.2718 128.429 96.3067 128.513 96.3067 128.601V132.498C96.3105 132.544 96.3048 132.59 96.2899 132.633C96.2749 132.677 96.2511 132.717 96.2199 132.75C96.1887 132.784 96.1508 132.811 96.1087 132.829C96.0665 132.848 96.021 132.857 95.9751 132.857V132.829Z" fill="black"/>
<path d="M95.9751 125.037C95.9282 125.043 95.8806 125.038 95.8355 125.024C95.7903 125.01 95.7487 124.987 95.7134 124.956C95.678 124.924 95.6498 124.886 95.6306 124.842C95.6114 124.799 95.6017 124.752 95.6021 124.705V122.729C95.6021 122.641 95.637 122.557 95.6992 122.495C95.7614 122.432 95.8457 122.397 95.9337 122.397H97.9511C98.0391 122.397 98.1234 122.432 98.1856 122.495C98.2478 122.557 98.2827 122.641 98.2827 122.729C98.2827 122.817 98.2478 122.901 98.1856 122.964C98.1234 123.026 98.0391 123.061 97.9511 123.061H96.3068V124.705C96.3068 124.749 96.2982 124.792 96.2815 124.832C96.2649 124.872 96.2404 124.909 96.2096 124.94C96.1788 124.97 96.1423 124.995 96.1021 125.011C96.0618 125.028 96.0187 125.037 95.9751 125.037Z" fill="black"/>
<path d="M102.11 123.047C102.062 123.057 102.012 123.056 101.964 123.045C101.917 123.033 101.872 123.011 101.834 122.98C101.796 122.949 101.765 122.909 101.744 122.865C101.722 122.82 101.711 122.772 101.711 122.722C101.711 122.673 101.722 122.624 101.744 122.58C101.765 122.536 101.796 122.496 101.834 122.465C101.872 122.434 101.917 122.412 101.964 122.4C102.012 122.389 102.062 122.388 102.11 122.398H106.256C106.344 122.398 106.428 122.433 106.49 122.495C106.552 122.557 106.587 122.641 106.587 122.729C106.587 122.817 106.552 122.902 106.49 122.964C106.428 123.026 106.344 123.061 106.256 123.061L102.11 123.047ZM110.401 123.047C110.313 123.047 110.229 123.012 110.167 122.95C110.104 122.888 110.07 122.803 110.07 122.715C110.07 122.628 110.104 122.543 110.167 122.481C110.229 122.419 110.313 122.384 110.401 122.384H114.546C114.631 122.384 114.712 122.417 114.771 122.477C114.831 122.537 114.864 122.617 114.864 122.702C114.866 122.745 114.859 122.787 114.844 122.828C114.829 122.868 114.806 122.904 114.776 122.935C114.747 122.966 114.711 122.991 114.671 123.008C114.632 123.025 114.589 123.033 114.546 123.033L110.401 123.047ZM118.692 123.047C118.604 123.047 118.52 123.012 118.457 122.95C118.395 122.888 118.36 122.803 118.36 122.715C118.36 122.628 118.395 122.543 118.457 122.481C118.52 122.419 118.604 122.384 118.692 122.384H122.837C122.925 122.384 123.01 122.419 123.072 122.481C123.134 122.543 123.169 122.628 123.169 122.715C123.169 122.803 123.134 122.888 123.072 122.95C123.01 123.012 122.925 123.047 122.837 123.047H118.692ZM126.983 123.047C126.934 123.057 126.884 123.056 126.837 123.045C126.789 123.033 126.744 123.011 126.706 122.98C126.668 122.949 126.637 122.909 126.616 122.865C126.595 122.82 126.584 122.772 126.584 122.722C126.584 122.673 126.595 122.624 126.616 122.58C126.637 122.536 126.668 122.496 126.706 122.465C126.744 122.434 126.789 122.412 126.837 122.4C126.884 122.389 126.934 122.388 126.983 122.398H131.128C131.216 122.398 131.3 122.433 131.362 122.495C131.425 122.557 131.46 122.641 131.46 122.729C131.46 122.817 131.425 122.902 131.362 122.964C131.3 123.026 131.216 123.061 131.128 123.061L126.983 123.047ZM135.273 123.047C135.185 123.047 135.101 123.012 135.039 122.95C134.977 122.888 134.942 122.803 134.942 122.715C134.942 122.628 134.977 122.543 135.039 122.481C135.101 122.419 135.185 122.384 135.273 122.384H139.419C139.467 122.374 139.517 122.375 139.565 122.386C139.613 122.398 139.657 122.42 139.695 122.451C139.734 122.482 139.764 122.522 139.786 122.566C139.807 122.611 139.818 122.659 139.818 122.709C139.818 122.758 139.807 122.806 139.786 122.851C139.764 122.895 139.734 122.935 139.695 122.966C139.657 122.997 139.613 123.019 139.565 123.031C139.517 123.042 139.467 123.043 139.419 123.033L135.273 123.047ZM143.564 123.047C143.476 123.047 143.392 123.012 143.33 122.95C143.267 122.888 143.232 122.803 143.232 122.715C143.232 122.628 143.267 122.543 143.33 122.481C143.392 122.419 143.476 122.384 143.564 122.384H147.709C147.797 122.384 147.882 122.419 147.944 122.481C148.006 122.543 148.041 122.628 148.041 122.715C148.041 122.803 148.006 122.888 147.944 122.95C147.882 123.012 147.797 123.047 147.709 123.047H143.564Z" fill="black"/>
<path d="M118.47 150.253H106.946L104.556 155.683H101.364L111.188 133.989H114.256L124.108 155.683H120.861L118.47 150.253ZM117.393 147.78L112.708 137.154L108.038 147.78H117.393Z" fill="#1E1E1E"/>
<path d="M127.383 133.99H136.516C138.633 133.959 140.727 134.433 142.624 135.371C144.341 136.228 145.779 137.555 146.769 139.199C147.73 140.93 148.234 142.878 148.234 144.857C148.234 146.837 147.73 148.785 146.769 150.516C145.787 152.166 144.347 153.496 142.624 154.343C140.729 155.288 138.634 155.762 136.516 155.725H127.383V133.99ZM136.337 152.989C137.939 153.022 139.526 152.672 140.966 151.967C142.25 151.329 143.321 150.33 144.047 149.093C144.763 147.786 145.139 146.32 145.139 144.83C145.139 143.34 144.763 141.874 144.047 140.567C143.324 139.331 142.252 138.336 140.966 137.707C139.526 137.002 137.939 136.651 136.337 136.684H130.437V152.989H136.337Z" fill="#1E1E1E"/>
<path d="M69.5417 99.5975L51.9101 75.8584L28.3506 90.2014L48.5109 114.051L69.5417 99.5975Z" fill="#020202"/>
<path d="M70.5088 104.972L89.232 80.8877C89.8019 80.043 90.684 79.4592 91.6843 79.2649C92.6845 79.0705 93.721 79.2815 94.5657 79.8514C95.4105 80.4212 95.9942 81.3033 96.1886 82.3036C96.3829 83.3038 96.1719 84.3403 95.6021 85.1851L91.8298 91.0439L78.4955 109.726L70.5088 104.972Z" fill="#FDDCC4"/>
<path d="M77.8879 140.415C75.1723 140.223 72.5947 139.146 70.5506 137.347C63.8213 132.11 40.3309 104.889 40.0684 104.613C40.015 104.554 39.9854 104.478 39.9854 104.399C39.9854 104.319 40.015 104.243 40.0684 104.185L57.6033 83.817C57.631 83.7771 57.6683 83.7448 57.7118 83.7231C57.7552 83.7013 57.8034 83.6908 57.852 83.6926C57.9035 83.6937 57.954 83.7067 57.9996 83.7307C58.0451 83.7547 58.0845 83.7889 58.1145 83.8308L72.4575 102.803L91.8025 77.9305C92.4792 77.0567 93.4637 76.474 94.5553 76.3013C95.6469 76.1287 96.7633 76.3791 97.6765 77.0014C98.5898 77.6238 99.2311 78.5712 99.4697 79.6503C99.7083 80.7294 99.526 81.8589 98.9602 82.8083L95.1879 88.6394C96.1408 89.3081 96.8206 90.2981 97.1023 91.4277C97.3841 92.5572 97.2489 93.7504 96.7217 94.7884L90.628 106.907C88.9484 110.53 88.0447 114.465 87.975 118.458L98.366 113.512C99.3779 113.094 100.514 113.093 101.526 113.51C102.538 113.927 103.344 114.727 103.769 115.736C104.667 117.823 104.114 119.398 101.986 120.835C101.765 120.987 101.13 121.388 100.245 121.927C96.4893 124.126 92.8502 126.52 89.343 129.098C88.6565 129.94 88.0849 130.869 87.6434 131.862C85.999 134.86 83.498 139.42 79.3526 140.291C78.8699 140.382 78.3791 140.424 77.8879 140.415ZM40.7593 104.406C42.9839 106.99 64.5675 131.876 70.9513 136.822C74.0051 139.185 76.7825 140.125 79.2421 139.586C83.0973 138.771 85.391 134.57 87.063 131.489C87.5314 130.482 88.1409 129.546 88.8731 128.711C92.4226 126.097 96.1129 123.68 99.9275 121.471C100.798 120.932 101.447 120.545 101.641 120.407C103.506 119.149 103.962 117.906 103.188 116.109C102.825 115.269 102.149 114.602 101.303 114.251C100.457 113.9 99.5077 113.893 98.6562 114.23L87.8644 119.343C87.8174 119.367 87.7653 119.38 87.7124 119.38C87.6596 119.38 87.6074 119.367 87.5604 119.343C87.493 119.323 87.4331 119.284 87.3887 119.23C87.3442 119.175 87.3174 119.109 87.3117 119.039C87.3095 114.741 88.253 110.495 90.0753 106.603L96.2243 94.5673C96.6795 93.6663 96.7903 92.6301 96.5359 91.6532C96.2815 90.6762 95.6794 89.8257 94.8425 89.2612L94.5247 89.0401C94.4568 88.9879 94.4107 88.9124 94.3954 88.8281C94.3801 88.7438 94.3966 88.6569 94.4418 88.5841L98.366 82.4628C98.9157 81.6566 99.1227 80.665 98.9413 79.7062C98.7599 78.7474 98.205 77.8999 97.3988 77.3502C96.5925 76.8005 95.6009 76.5936 94.6421 76.775C93.6833 76.9564 92.8359 77.5112 92.2862 78.3174L72.72 103.549C72.6879 103.587 72.6478 103.619 72.6025 103.64C72.5571 103.662 72.5077 103.673 72.4575 103.673C72.4068 103.676 72.3563 103.666 72.3104 103.644C72.2645 103.623 72.2249 103.59 72.195 103.549L57.8243 84.494L40.7593 104.406Z" fill="black"/>
<path d="M85.4185 120.42C85.3436 120.426 85.2691 120.405 85.2082 120.361C85.1473 120.317 85.1039 120.253 85.0857 120.181C85.0674 120.108 85.0756 120.031 85.1087 119.963C85.1418 119.896 85.1977 119.842 85.2665 119.812L87.505 118.624C87.5435 118.595 87.5877 118.576 87.6346 118.566C87.6815 118.556 87.7299 118.556 87.7767 118.567C87.8234 118.578 87.8672 118.598 87.9052 118.628C87.9432 118.657 87.9743 118.694 87.9966 118.736C88.0188 118.779 88.0316 118.826 88.034 118.873C88.0364 118.921 88.0285 118.969 88.0106 119.014C87.9928 119.058 87.9655 119.098 87.9307 119.131C87.8959 119.164 87.8544 119.189 87.809 119.204L85.5705 120.42C85.5208 120.435 85.4682 120.435 85.4185 120.42Z" fill="black"/>
<path d="M85.211 107.252L87.3113 103.922C88.6076 101.807 90.489 100.113 92.7279 99.0444L104.984 93.1995C105.808 92.8001 106.447 92.1002 106.771 91.2438C107.094 90.3874 107.077 89.4396 106.723 88.5954C106.369 87.7512 105.705 87.0747 104.868 86.7051C104.03 86.3354 103.083 86.3008 102.221 86.6083L87.8502 91.8039C86.6952 92.2219 85.6374 92.8707 84.7412 93.7107L79.8911 98.2154L85.211 107.252Z" fill="#FDDCC4"/>
<path d="M95.4775 97.9805C95.4156 97.98 95.3551 97.9615 95.3035 97.9271C95.252 97.8927 95.2116 97.8441 95.1873 97.787C95.1491 97.7082 95.1437 97.6174 95.1722 97.5346C95.2006 97.4518 95.2607 97.3835 95.3393 97.3449L104.777 92.8955C105.54 92.5419 106.136 91.9061 106.44 91.1219C106.743 90.3377 106.731 89.4663 106.405 88.691C106.079 87.9158 105.465 87.2972 104.693 86.9654C103.92 86.6337 103.049 86.6146 102.262 86.9123L87.9744 92.1079C86.8575 92.5129 85.8332 93.1378 84.9621 93.9456C84.9322 93.983 84.8945 94.0135 84.8517 94.0349C84.8089 94.0564 84.7619 94.0683 84.7141 94.0699C84.6662 94.0714 84.6186 94.0626 84.5745 94.044C84.5303 94.0255 84.4908 93.9975 84.4585 93.9622C84.4261 93.9269 84.4019 93.8849 84.3873 93.8393C84.3727 93.7937 84.3682 93.7455 84.3741 93.698C84.3799 93.6504 84.396 93.6047 84.4211 93.564C84.4463 93.5233 84.48 93.4885 84.5199 93.462C85.4511 92.5958 86.5456 91.9241 87.7395 91.4861L102.041 86.2905C102.98 85.9686 104.006 86.0157 104.911 86.4223C105.817 86.8289 106.534 87.5645 106.917 88.4801C107.3 89.3957 107.321 90.4227 106.975 91.353C106.629 92.2832 105.942 93.0471 105.053 93.4897L95.6019 97.9528L95.4775 97.9805Z" fill="black"/>
<path d="M78.1779 114.894L80.7342 111.937C82.3512 110.051 84.4834 108.678 86.8694 107.985L99.9273 104.227C100.741 103.92 101.416 103.328 101.825 102.56C102.234 101.792 102.349 100.902 102.149 100.056C101.949 99.2091 101.448 98.4643 100.739 97.9605C100.03 97.4566 99.1619 97.2282 98.2967 97.3179L83.3458 100.082C82.1317 100.31 80.9758 100.78 79.9466 101.463L74.4194 105.097L78.1779 114.894Z" fill="#FDDCC4"/>
<path d="M75.9529 118.639C75.8899 118.658 75.8225 118.658 75.7595 118.639C75.729 118.609 75.7047 118.574 75.6882 118.534C75.6716 118.495 75.6631 118.453 75.6631 118.411C75.6631 118.368 75.6716 118.326 75.6882 118.287C75.7047 118.248 75.729 118.212 75.7595 118.183L80.5405 111.757C82.2022 109.82 84.399 108.416 86.8553 107.722L99.9132 103.978C100.76 103.773 101.49 103.239 101.944 102.496C102.397 101.752 102.537 100.859 102.331 100.012C102.126 99.1655 101.593 98.4351 100.849 97.9817C100.106 97.5282 99.2121 97.3887 98.3656 97.5939L85.2524 99.6942C82.4293 100.134 79.7364 101.186 77.3624 102.776C77.2868 102.823 77.1956 102.84 77.1079 102.822C77.0203 102.804 76.9431 102.753 76.8926 102.679C76.8454 102.605 76.8292 102.516 76.8473 102.431C76.8654 102.346 76.9164 102.271 76.9893 102.223C79.4432 100.583 82.2255 99.4985 85.1418 99.0448L98.255 96.9307C99.2628 96.6961 100.323 96.8715 101.201 97.4183C102.079 97.9651 102.705 98.8384 102.939 99.8462C103.174 100.854 102.998 101.914 102.452 102.792C101.905 103.671 101.032 104.296 100.024 104.531L86.9658 108.275C84.6401 108.954 82.5615 110.293 80.9826 112.13L76.2569 118.5C76.2212 118.546 76.1749 118.583 76.122 118.607C76.069 118.631 76.011 118.642 75.9529 118.639Z" fill="black"/>
<path d="M0.686803 32.9825C-0.0900854 28.598 0.420508 24.0823 2.15678 19.9819C3.89306 15.8816 6.78058 12.3724 10.4699 9.87901C14.1222 7.32213 18.4309 5.86559 22.8855 5.68192C27.3402 5.49824 31.7541 6.59514 35.6046 8.84267L100.77 46.3582L81.0655 80.4193L52.7664 64.1004L68.7261 93.9609L37.4562 114.757C37.4562 114.757 5.7856 61.3645 0.686803 32.9825Z" fill="#8C7BFF"/>
<path d="M10.4698 9.8789C13.5945 7.68824 17.2092 6.29818 20.9965 5.83079C24.7839 5.36339 28.6281 5.83295 32.1916 7.19823C30.1566 14.2888 26.137 20.6498 20.6065 25.5315C15.076 30.4131 8.26526 33.612 0.976947 34.7511L0.686772 32.9686C-0.0662139 28.5871 0.455534 24.0815 2.18992 19.9881C3.9243 15.8946 6.79829 12.3857 10.4698 9.8789Z" fill="#7462E8"/>
<path d="M37.4562 115.088H37.3871C37.3027 115.063 37.2295 115.009 37.1798 114.936C36.8482 114.383 4.88739 60.0929 0.355124 33.0513C-0.428437 28.5962 0.0909562 24.0097 1.85091 19.8427C3.61085 15.6757 6.5365 12.1054 10.2764 9.56087C13.9796 6.96526 18.3493 5.48552 22.8676 5.29695C27.386 5.10838 31.8637 6.21888 35.7704 8.49689L128.35 61.9168C128.389 61.9384 128.422 61.9673 128.449 62.002C128.476 62.0367 128.496 62.0764 128.508 62.1188C128.519 62.1612 128.522 62.2056 128.517 62.2492C128.511 62.2928 128.497 62.3348 128.475 62.3728C128.452 62.4101 128.422 62.4424 128.387 62.4681C128.352 62.4938 128.312 62.5123 128.27 62.5226C128.227 62.5329 128.183 62.5347 128.14 62.528C128.097 62.5212 128.056 62.5061 128.019 62.4834L35.4387 9.07724C31.6411 6.86099 27.2878 5.77944 22.8945 5.96066C18.5011 6.14187 14.2517 7.57827 10.6495 10.0998C7.02191 12.5736 4.18167 16.0378 2.46685 20.0799C0.752031 24.1219 0.234868 28.5717 0.976929 32.8993C5.34338 58.8078 35.0104 109.906 37.5667 114.287L68.4359 94.306L52.4209 64.2521C52.3772 64.1944 52.3536 64.1241 52.3536 64.0517C52.3536 63.9794 52.3772 63.909 52.4209 63.8514C52.4773 63.8109 52.545 63.7891 52.6144 63.7891C52.6838 63.7891 52.7514 63.8109 52.8078 63.8514L75.7179 77.0889C75.7573 77.1075 75.7923 77.1343 75.8204 77.1675C75.8485 77.2008 75.8692 77.2397 75.881 77.2816C75.8928 77.3235 75.8954 77.3675 75.8887 77.4105C75.8821 77.4536 75.8662 77.4947 75.8423 77.5311C75.8207 77.5694 75.7918 77.6031 75.7571 77.6302C75.7224 77.6572 75.6827 77.6772 75.6403 77.6887C75.5979 77.7003 75.5536 77.7033 75.5099 77.6976C75.4663 77.6919 75.4243 77.6775 75.3863 77.6554L53.554 64.9568L69.1682 94.2645C69.2066 94.3391 69.2165 94.4251 69.1962 94.5064C69.1759 94.5878 69.1266 94.659 69.0577 94.7067L37.6358 115.033C37.5814 115.066 37.5197 115.085 37.4562 115.088Z" fill="black"/>
<path d="M271.268 136.257L254.314 131.946L251.094 110.915C251.019 109.683 251.421 108.47 252.216 107.526C253.01 106.582 254.138 105.98 255.364 105.844H255.613C256.798 105.687 257.997 106.006 258.948 106.731C259.898 107.456 260.522 108.528 260.684 109.713L261.43 115.24C261.95 119.108 263.247 122.831 265.244 126.184L271.268 136.257Z" fill="#FDDCC4"/>
<path d="M266.723 129.638C266.666 129.639 266.609 129.624 266.561 129.595C266.512 129.565 266.472 129.523 266.446 129.472L264.553 126.308C262.53 122.923 261.219 119.162 260.698 115.254L259.966 109.726C259.893 109.182 259.712 108.657 259.435 108.182C259.157 107.708 258.788 107.293 258.349 106.963C257.914 106.63 257.419 106.387 256.89 106.247C256.361 106.107 255.81 106.073 255.268 106.148H255.005C254.459 106.215 253.931 106.392 253.454 106.665C252.976 106.939 252.558 107.306 252.223 107.743C251.889 108.18 251.645 108.68 251.506 109.213C251.366 109.745 251.335 110.301 251.412 110.846L253.913 126.377C253.928 126.465 253.907 126.555 253.855 126.628C253.803 126.7 253.725 126.749 253.637 126.764C253.549 126.778 253.459 126.758 253.386 126.706C253.314 126.654 253.265 126.575 253.25 126.487L250.763 110.942C250.667 110.307 250.699 109.658 250.856 109.035C251.014 108.412 251.293 107.826 251.679 107.311C252.065 106.797 252.549 106.365 253.103 106.039C253.658 105.714 254.271 105.501 254.908 105.415H255.171C255.8 105.33 256.441 105.369 257.055 105.531C257.67 105.693 258.246 105.975 258.752 106.36C259.258 106.745 259.682 107.225 260.002 107.775C260.322 108.324 260.53 108.931 260.615 109.561L261.361 115.088C261.861 118.926 263.14 122.622 265.12 125.949L267.013 129.127C267.035 129.164 267.049 129.205 267.054 129.247C267.06 129.29 267.057 129.333 267.045 129.374C267.033 129.416 267.014 129.454 266.987 129.488C266.96 129.521 266.926 129.549 266.888 129.569C266.843 129.611 266.784 129.635 266.723 129.638Z" fill="black"/>
<path d="M257.437 126.612L242.527 126.169C239.405 126.077 236.319 126.857 233.615 128.422L228.088 131.614C227.656 131.863 227.278 132.194 226.975 132.59C226.672 132.985 226.45 133.436 226.321 133.918C226.193 134.399 226.161 134.901 226.227 135.395C226.293 135.889 226.456 136.365 226.706 136.795L227.107 137.5C227.612 138.369 228.441 139.002 229.412 139.261C230.383 139.52 231.417 139.384 232.288 138.882L239.888 135.345L257.119 135.856L257.437 126.612Z" fill="#FDDCC4"/>
<path d="M262.95 135.123L243.204 134.543C240.958 134.468 238.735 135.028 236.793 136.159L230.257 139.959C229.814 140.22 229.426 140.566 229.117 140.977C228.808 141.388 228.582 141.855 228.454 142.353C228.325 142.851 228.297 143.37 228.369 143.879C228.441 144.388 228.613 144.878 228.875 145.321L229.151 145.791C229.412 146.234 229.758 146.621 230.169 146.93C230.58 147.24 231.047 147.465 231.545 147.594C232.043 147.722 232.562 147.751 233.071 147.678C233.58 147.606 234.07 147.434 234.513 147.172L241.974 142.847L262.701 143.469L262.95 135.123Z" fill="#FDDCC4"/>
<path d="M264.995 142.999L244.835 142.405C242.837 142.326 240.856 142.805 239.114 143.787L232.122 147.849C231.254 148.352 230.621 149.178 230.362 150.147C230.103 151.116 230.239 152.148 230.74 153.017L231.155 153.749C231.658 154.617 232.484 155.25 233.453 155.509C234.422 155.768 235.454 155.632 236.323 155.131L243.909 150.737L264.636 151.359L264.995 142.999Z" fill="#FDDCC4"/>
<path d="M267.192 150.903L246.921 150.309C245.018 150.255 243.137 150.733 241.491 151.691L237.346 154.053C236.434 154.606 235.77 155.489 235.492 156.518C235.214 157.547 235.343 158.644 235.853 159.581L235.964 159.774C236.517 160.704 237.412 161.381 238.458 161.66C239.504 161.939 240.617 161.797 241.56 161.266L246.092 158.641L266.819 159.263L267.192 150.903Z" fill="#FDDCC4"/>
<path d="M252.407 126.459L258.1 126.625C260.181 126.687 262.228 127.159 264.126 128.013C266.025 128.867 267.736 130.087 269.163 131.602C270.59 133.117 271.704 134.899 272.442 136.845C273.181 138.791 273.528 140.863 273.466 142.944L272.982 159.525L256.787 159.042L252.407 126.459Z" fill="#FDDCC4"/>
<path d="M272.996 160.922L273.424 144.34L254.079 143.18V176.246H256.718C260.906 176.361 264.969 174.814 268.019 171.943C271.069 169.071 272.859 165.109 272.996 160.922Z" fill="#FDDCC4"/>
<path d="M254.107 158.683L254.121 176.287L256.746 176.356L260.284 159.083L254.107 158.683Z" fill="black"/>
<path d="M230.906 139.767C230.826 139.764 230.749 139.734 230.688 139.681C230.628 139.628 230.588 139.556 230.575 139.476C230.567 139.389 230.592 139.302 230.646 139.232C230.7 139.163 230.778 139.117 230.865 139.103C231.091 139.079 231.314 139.028 231.528 138.951C231.611 138.925 231.7 138.932 231.778 138.971C231.855 139.009 231.914 139.077 231.943 139.159C231.97 139.243 231.963 139.334 231.925 139.414C231.886 139.494 231.818 139.556 231.735 139.587C231.5 139.663 231.26 139.723 231.017 139.767H230.906Z" fill="black"/>
<path d="M232.495 148.056C231.748 148.055 231.014 147.859 230.366 147.485C229.719 147.112 229.181 146.575 228.806 145.928L228.53 145.458C227.968 144.479 227.817 143.318 228.11 142.228C228.402 141.137 229.115 140.208 230.091 139.641L236.627 135.841C238.623 134.69 240.901 134.116 243.204 134.183L251.937 134.446C252.025 134.446 252.11 134.481 252.172 134.543C252.234 134.605 252.269 134.689 252.269 134.777C252.265 134.863 252.229 134.944 252.167 135.003C252.105 135.062 252.023 135.095 251.937 135.095L243.204 134.833C241.02 134.772 238.861 135.322 236.972 136.422L230.437 140.208C230.027 140.444 229.667 140.758 229.379 141.134C229.091 141.509 228.88 141.938 228.758 142.395C228.636 142.852 228.606 143.328 228.669 143.797C228.731 144.266 228.886 144.718 229.124 145.127L229.386 145.597C229.706 146.142 230.162 146.594 230.71 146.909C231.257 147.224 231.877 147.391 232.509 147.393C232.597 147.393 232.682 147.428 232.744 147.49C232.806 147.552 232.841 147.637 232.841 147.725C232.841 147.813 232.806 147.897 232.744 147.959C232.682 148.021 232.597 148.056 232.509 148.056H232.495Z" fill="black"/>
<path d="M234.485 156.016C233.766 156.011 233.06 155.818 232.437 155.457C231.814 155.096 231.297 154.579 230.934 153.957L230.506 153.225C229.971 152.28 229.827 151.164 230.106 150.115C230.385 149.066 231.065 148.168 231.998 147.615L238.99 143.566C240.778 142.526 242.823 142.009 244.89 142.074L254.438 142.35C254.526 142.35 254.611 142.385 254.673 142.447C254.735 142.509 254.77 142.594 254.77 142.682C254.77 142.77 254.735 142.854 254.673 142.916C254.611 142.978 254.526 143.013 254.438 143.013L244.89 142.723C242.955 142.661 241.041 143.14 239.363 144.105L232.399 148.195C231.611 148.657 231.038 149.411 230.802 150.293C230.567 151.175 230.689 152.114 231.142 152.907L231.57 153.639C232.002 154.369 232.687 154.913 233.496 155.168C234.304 155.423 235.178 155.371 235.95 155.021C235.99 155.003 236.033 154.992 236.077 154.991C236.121 154.989 236.165 154.996 236.206 155.012C236.247 155.027 236.285 155.05 236.317 155.081C236.349 155.111 236.374 155.147 236.392 155.187C236.411 155.226 236.421 155.268 236.422 155.311C236.424 155.354 236.416 155.396 236.401 155.437C236.385 155.477 236.362 155.513 236.332 155.544C236.302 155.574 236.266 155.599 236.227 155.615C235.683 155.877 235.088 156.014 234.485 156.016Z" fill="black"/>
<path d="M257.16 176.687H256.746H254.107C254.064 176.687 254.021 176.679 253.982 176.662C253.942 176.645 253.907 176.62 253.877 176.589C253.847 176.558 253.824 176.522 253.809 176.482C253.794 176.441 253.787 176.399 253.789 176.356C253.787 176.312 253.794 176.268 253.81 176.227C253.826 176.185 253.85 176.148 253.882 176.117C253.913 176.086 253.95 176.061 253.991 176.045C254.032 176.029 254.076 176.022 254.121 176.024H256.76C258.797 176.077 260.825 175.728 262.727 174.997C264.629 174.266 266.369 173.167 267.846 171.763C269.323 170.359 270.509 168.678 271.336 166.815C272.163 164.952 272.614 162.945 272.664 160.907L273.189 142.308C273.294 138.359 271.83 134.529 269.12 131.655C266.409 128.781 262.671 127.097 258.722 126.971L242.527 126.501C239.462 126.4 236.43 127.166 233.781 128.712L228.253 131.904C227.462 132.365 226.886 133.122 226.65 134.007C226.415 134.893 226.539 135.835 226.996 136.629L227.411 137.334C227.749 137.925 228.256 138.401 228.866 138.704C229.476 139.006 230.162 139.121 230.837 139.034C230.885 139.022 230.935 139.02 230.984 139.027C231.033 139.035 231.08 139.052 231.123 139.077C231.165 139.103 231.202 139.137 231.231 139.177C231.26 139.217 231.282 139.262 231.293 139.31C231.305 139.358 231.307 139.408 231.3 139.457C231.292 139.506 231.275 139.553 231.25 139.595C231.224 139.637 231.19 139.674 231.15 139.704C231.11 139.733 231.065 139.754 231.017 139.766C230.195 139.87 229.361 139.726 228.622 139.351C227.884 138.977 227.274 138.39 226.872 137.666L226.457 136.961C225.913 136.014 225.765 134.891 226.044 133.835C226.324 132.78 227.008 131.877 227.949 131.323L233.477 128.131C236.236 126.538 239.384 125.744 242.569 125.837L258.763 126.321C262.883 126.458 266.781 128.219 269.608 131.219C272.435 134.219 273.961 138.215 273.852 142.336L273.327 160.935C273.216 165.149 271.464 169.154 268.444 172.096C265.425 175.038 261.376 176.685 257.16 176.687Z" fill="black"/>
<path d="M239.584 162.192C239.197 162.19 238.812 162.139 238.437 162.04C237.877 161.89 237.352 161.631 236.892 161.278C236.432 160.925 236.046 160.484 235.757 159.981L235.646 159.788C235.063 158.774 234.904 157.57 235.204 156.439C235.504 155.308 236.239 154.341 237.249 153.75L241.394 151.387C243.076 150.43 244.988 149.952 246.922 150.005L257.078 150.295C257.164 150.302 257.245 150.342 257.304 150.406C257.363 150.47 257.396 150.554 257.396 150.641C257.386 150.726 257.345 150.805 257.282 150.864C257.218 150.922 257.136 150.956 257.05 150.958L246.908 150.668C245.063 150.628 243.243 151.107 241.657 152.05L237.581 154.399C236.72 154.902 236.093 155.723 235.834 156.685C235.575 157.648 235.706 158.673 236.199 159.539L236.309 159.733C236.556 160.162 236.884 160.537 237.276 160.839C237.668 161.141 238.115 161.362 238.593 161.49C239.07 161.619 239.568 161.652 240.059 161.587C240.549 161.523 241.022 161.362 241.45 161.115L246.065 158.434H246.217L262.481 158.918C262.525 158.917 262.57 158.926 262.611 158.944C262.652 158.962 262.689 158.987 262.72 159.019C262.751 159.052 262.775 159.09 262.791 159.132C262.807 159.174 262.814 159.218 262.812 159.263C262.805 159.35 262.766 159.431 262.702 159.49C262.638 159.548 262.554 159.581 262.467 159.581L246.217 159.014L241.768 161.598C241.102 161.979 240.351 162.184 239.584 162.192Z" fill="black"/>
<path d="M182.421 60.2638C185.538 55.1836 183.935 48.5321 178.842 45.4073C173.749 42.2825 167.093 43.8677 163.977 48.9479C160.86 54.0281 162.462 60.6796 167.555 63.8044C172.648 66.9292 179.304 65.3441 182.421 60.2638Z" fill="black"/>
<path d="M215.597 78.9268C218.697 73.8607 217.092 67.2349 212.013 64.1277C206.934 61.0205 200.304 62.6085 197.204 67.6747C194.105 72.7408 195.71 79.3665 200.789 82.4737C205.868 85.581 212.498 83.9929 215.597 78.9268Z" fill="black"/>
<path d="M199.434 69.4855C202.551 64.4053 200.949 57.7538 195.856 54.629C190.763 51.5042 184.107 53.0894 180.99 58.1696C177.873 63.2498 179.476 69.9013 184.569 73.0261C189.662 76.1509 196.318 74.5657 199.434 69.4855Z" fill="black"/>
<path d="M110.426 21.8126C113.925 16.7818 112.673 9.8599 107.63 6.35208C102.586 2.84426 95.6614 4.07889 92.1623 9.10968C88.6632 14.1405 89.9151 21.0624 94.9584 24.5702C100.002 28.078 106.927 26.8434 110.426 21.8126Z" fill="black"/>
<path d="M144.823 41.7622C148.323 36.732 147.073 29.8099 142.03 26.3012C136.987 22.7925 130.062 24.0259 126.562 29.0561C123.062 34.0863 124.313 41.0084 129.355 44.5171C134.398 48.0258 141.323 46.7924 144.823 41.7622Z" fill="black"/>
<path d="M127.611 31.7864C131.113 26.7575 129.864 19.8349 124.823 16.3244C119.782 12.814 112.856 14.045 109.354 19.0739C105.852 24.1029 107.101 31.0255 112.142 34.5359C117.184 38.0464 124.109 36.8154 127.611 31.7864Z" fill="black"/>
<path d="M138.714 79.4093L123.611 71.3811L142.21 36.5186L157.313 44.5467L138.714 79.4093Z" fill="#FDDCC4"/>
<path d="M168.631 50.6689C172.968 42.7164 170.592 33.0556 163.323 29.0907C156.054 25.1258 146.645 28.3584 142.307 36.3108C137.969 44.2632 140.346 53.9241 147.615 57.889C154.884 61.8539 164.293 58.6213 168.631 50.6689Z" fill="#FDDCC4"/>
<path d="M148.221 50.1982C148.62 51.3377 149.308 52.3542 150.217 53.1489C151.127 53.9435 152.226 54.4892 153.409 54.7327C154.591 54.9761 155.817 54.9092 156.966 54.5383C158.115 54.1675 159.149 53.5053 159.966 52.6164L148.221 50.1982Z" fill="white"/>
<path d="M154.48 60.0647C152.59 60.0742 150.719 59.6937 148.984 58.9472C147.248 58.2006 145.685 57.104 144.393 55.7259C144.362 55.6951 144.337 55.6585 144.321 55.6181C144.304 55.5778 144.295 55.5346 144.295 55.491C144.295 55.4473 144.304 55.4041 144.321 55.3638C144.337 55.3235 144.362 55.2869 144.393 55.2561C144.457 55.1968 144.541 55.1639 144.628 55.1639C144.715 55.1639 144.799 55.1968 144.863 55.2561C145.844 56.3081 146.992 57.1905 148.262 57.8676C155.171 61.5432 164.152 58.3651 168.201 50.7653C170.288 46.9658 170.785 42.4941 169.583 38.3292C169.081 36.6133 168.244 35.0142 167.119 33.6242C165.995 32.2343 164.606 31.0812 163.033 30.2319C156.539 26.7912 148.331 29.2508 143.909 35.9525C143.888 35.9941 143.859 36.0309 143.823 36.0604C143.786 36.0899 143.745 36.1114 143.699 36.1236C143.654 36.1358 143.607 36.1383 143.561 36.1311C143.515 36.1238 143.471 36.107 143.432 36.0815C143.393 36.0561 143.36 36.0228 143.334 35.9836C143.309 35.9444 143.292 35.9004 143.285 35.8543C143.278 35.8082 143.281 35.7611 143.293 35.7162C143.305 35.6712 143.327 35.6293 143.356 35.5932C147.958 28.6014 156.553 26.045 163.337 29.6515C164.994 30.5369 166.458 31.743 167.644 33.1995C168.83 34.6561 169.715 36.334 170.246 38.1357C171.5 42.4383 171.003 47.0619 168.864 51.0002C167.515 53.6745 165.464 55.9311 162.93 57.528C160.396 59.1249 157.474 60.0018 154.48 60.0647Z" fill="black"/>
<path d="M158.957 38.619L168.187 51.4144C168.408 51.0551 168.629 50.7097 168.823 50.3366C173.037 42.4466 170.592 32.9537 163.379 29.1261C156.166 25.2986 146.286 28.6425 142.072 36.5325C141.795 37.0576 141.546 37.6103 141.312 38.1492L158.957 38.619Z" fill="black"/>
<path d="M111.921 52.7949L153.195 76.5617C149.136 79.144 144.458 80.5894 139.65 80.7471C134.842 80.9047 130.079 79.7687 125.859 77.4578C121.64 75.1469 118.118 71.7457 115.661 67.6092C113.205 63.4728 111.904 58.7527 111.894 53.9418C111.894 53.5549 111.907 53.1818 111.921 52.7949Z" fill="#FDDCC4"/>
</svg>
