<svg width="11" height="8" viewBox="0 0 11 8" fill="none" xmlns="http://www.w3.org/2000/svg">
<path d="M10.6913 7.26788C10.4958 7.4766 10.2314 7.59375 9.95568 7.59375C9.68001 7.59375 9.41553 7.4766 9.22002 7.26788L5.47391 3.30092L1.77998 7.26788C1.58447 7.4766 1.31999 7.59375 1.04432 7.59375C0.768644 7.59375 0.504171 7.4766 0.308661 7.26788C0.210857 7.16371 0.133227 7.03977 0.080251 6.90321C0.0272746 6.76665 0 6.62018 0 6.47225C0 6.32432 0.0272746 6.17785 0.080251 6.04129C0.133227 5.90473 0.210857 5.78079 0.308661 5.67662L4.73304 0.925225C4.83004 0.820192 4.94545 0.736825 5.07261 0.679933C5.19977 0.623041 5.33616 0.59375 5.47391 0.59375C5.61166 0.59375 5.74805 0.623041 5.87521 0.679933C6.00237 0.736825 6.11778 0.820192 6.21479 0.925225L10.6913 5.67662C10.7891 5.78079 10.8668 5.90473 10.9197 6.04129C10.9727 6.17785 11 6.32432 11 6.47225C11 6.62018 10.9727 6.76665 10.9197 6.90321C10.8668 7.03977 10.7891 7.16371 10.6913 7.26788Z" fill="#788CA1"/>
</svg>
