<svg width="1920" height="1336" viewBox="0 0 1920 1336" fill="none" xmlns="http://www.w3.org/2000/svg">
<mask id="path-1-outside-1_701_94365" maskUnits="userSpaceOnUse" x="401.245" y="613.836" width="87.7762" height="87.7762" fill="black">
<rect fill="white" x="401.245" y="613.836" width="87.7762" height="87.7762"/>
<path fill-rule="evenodd" clip-rule="evenodd" d="M444.019 656.737L417.225 666.963L417.938 668.831L444.732 658.606L454.961 685.407L456.829 684.694L446.601 657.892L473.404 647.663L472.691 645.795L445.888 656.024L435.661 629.228L433.793 629.941L444.019 656.737Z"/>
</mask>
<path fill-rule="evenodd" clip-rule="evenodd" d="M444.019 656.737L417.225 666.963L417.938 668.831L444.732 658.606L454.961 685.407L456.829 684.694L446.601 657.892L473.404 647.663L472.691 645.795L445.888 656.024L435.661 629.228L433.793 629.941L444.019 656.737Z" fill="#33A1FB"/>
<path d="M417.225 666.963L415.798 663.225L412.061 664.652L413.488 668.389L417.225 666.963ZM444.019 656.737L445.445 660.474L449.182 659.048L447.756 655.311L444.019 656.737ZM417.938 668.831L414.201 670.257L415.627 673.994L419.364 672.568L417.938 668.831ZM444.732 658.606L448.469 657.179L447.043 653.442L443.306 654.868L444.732 658.606ZM454.961 685.407L451.224 686.834L452.65 690.571L456.387 689.145L454.961 685.407ZM456.829 684.694L458.255 688.431L461.993 687.005L460.566 683.268L456.829 684.694ZM446.601 657.892L445.175 654.155L441.437 655.581L442.864 659.319L446.601 657.892ZM473.404 647.663L474.83 651.4L478.567 649.974L477.141 646.237L473.404 647.663ZM472.691 645.795L476.428 644.369L475.002 640.632L471.265 642.058L472.691 645.795ZM445.888 656.024L442.151 657.45L443.577 661.187L447.314 659.761L445.888 656.024ZM435.661 629.228L439.399 627.802L437.972 624.065L434.235 625.491L435.661 629.228ZM433.793 629.941L432.367 626.204L428.63 627.63L430.056 631.367L433.793 629.941ZM418.651 670.7L445.445 660.474L442.593 653L415.798 663.225L418.651 670.7ZM421.675 667.405L420.962 665.536L413.488 668.389L414.201 670.257L421.675 667.405ZM443.306 654.868L416.512 665.094L419.364 672.568L446.158 662.343L443.306 654.868ZM458.698 683.981L448.469 657.179L440.995 660.032L451.224 686.834L458.698 683.981ZM455.403 680.957L453.534 681.67L456.387 689.145L458.255 688.431L455.403 680.957ZM442.864 659.319L453.092 686.121L460.566 683.268L450.338 656.466L442.864 659.319ZM471.978 643.926L445.175 654.155L448.027 661.63L474.83 651.4L471.978 643.926ZM468.954 647.221L469.667 649.09L477.141 646.237L476.428 644.369L468.954 647.221ZM447.314 659.761L474.117 649.532L471.265 642.058L444.461 652.287L447.314 659.761ZM431.924 630.654L442.151 657.45L449.625 654.598L439.399 627.802L431.924 630.654ZM435.219 633.678L437.088 632.965L434.235 625.491L432.367 626.204L435.219 633.678ZM447.756 655.311L437.53 628.515L430.056 631.367L440.282 658.163L447.756 655.311Z" fill="#33A1FB" mask="url(#path-1-outside-1_701_94365)"/>
<path fill-rule="evenodd" clip-rule="evenodd" d="M80 181.724L0 150.999V896.475V1249L80 1234.47C160 1219.18 320 1190.12 480 1175.59C640 1161.06 800 1161.06 960 1182.47C1007.84 1189.1 1055.67 1197.71 1103.51 1206.32C1215.67 1226.52 1327.84 1246.71 1440 1241.35C1600 1234.47 1760 1175.59 1840 1145.77L1920 1116.71V896.475V430.755L1840 369.305C1760 306.239 1600 181.724 1440 167.17C1327.84 155.834 1215.67 198.537 1103.51 241.241C1055.67 259.453 1007.84 277.665 960 291.685C800 336.964 640 336.964 480 306.239C320 275.514 160 214.065 80 181.724Z" fill="#F8F9FC"/>
<mask id="path-4-outside-2_701_94365" maskUnits="userSpaceOnUse" x="1437.08" y="1098.03" width="68.8862" height="68.8862" fill="black">
<rect fill="white" x="1437.08" y="1098.03" width="68.8862" height="68.8862"/>
<path fill-rule="evenodd" clip-rule="evenodd" d="M1472.85 1131.85L1474.9 1106.21L1472.9 1106.05L1470.86 1131.69L1445.21 1129.65L1445.05 1131.64L1470.7 1133.69L1468.65 1159.33L1470.65 1159.49L1472.69 1133.84L1498.33 1135.89L1498.49 1133.9L1472.85 1131.85Z"/>
</mask>
<path fill-rule="evenodd" clip-rule="evenodd" d="M1472.85 1131.85L1474.9 1106.21L1472.9 1106.05L1470.86 1131.69L1445.21 1129.65L1445.05 1131.64L1470.7 1133.69L1468.65 1159.33L1470.65 1159.49L1472.69 1133.84L1498.33 1135.89L1498.49 1133.9L1472.85 1131.85Z" fill="#1E3147"/>
<path d="M1474.9 1106.21L1479.88 1106.6L1480.28 1101.62L1475.29 1101.22L1474.9 1106.21ZM1472.85 1131.85L1467.87 1131.45L1467.47 1136.44L1472.45 1136.84L1472.85 1131.85ZM1472.9 1106.05L1473.3 1101.06L1468.32 1100.66L1467.92 1105.65L1472.9 1106.05ZM1470.86 1131.69L1470.46 1136.68L1475.44 1137.07L1475.84 1132.09L1470.86 1131.69ZM1445.21 1129.65L1445.6 1124.66L1440.62 1124.26L1440.22 1129.25L1445.21 1129.65ZM1445.05 1131.64L1440.06 1131.24L1439.67 1136.23L1444.65 1136.62L1445.05 1131.64ZM1470.7 1133.69L1475.68 1134.08L1476.08 1129.1L1471.1 1128.7L1470.7 1133.69ZM1468.65 1159.33L1463.67 1158.94L1463.27 1163.92L1468.25 1164.32L1468.65 1159.33ZM1470.65 1159.49L1470.25 1164.48L1475.23 1164.87L1475.63 1159.89L1470.65 1159.49ZM1472.69 1133.84L1473.09 1128.86L1468.1 1128.46L1467.71 1133.45L1472.69 1133.84ZM1498.33 1135.89L1497.94 1140.87L1502.92 1141.27L1503.32 1136.29L1498.33 1135.89ZM1498.49 1133.9L1503.48 1134.29L1503.88 1129.31L1498.89 1128.91L1498.49 1133.9ZM1469.91 1105.81L1467.87 1131.45L1477.83 1132.25L1479.88 1106.6L1469.91 1105.81ZM1472.5 1111.03L1474.5 1111.19L1475.29 1101.22L1473.3 1101.06L1472.5 1111.03ZM1475.84 1132.09L1477.89 1106.44L1467.92 1105.65L1465.87 1131.29L1475.84 1132.09ZM1444.81 1134.63L1470.46 1136.68L1471.25 1126.71L1445.6 1124.66L1444.81 1134.63ZM1450.03 1132.04L1450.19 1130.04L1440.22 1129.25L1440.06 1131.24L1450.03 1132.04ZM1471.1 1128.7L1445.45 1126.66L1444.65 1136.62L1470.3 1138.67L1471.1 1128.7ZM1473.64 1159.73L1475.68 1134.08L1465.71 1133.29L1463.67 1158.94L1473.64 1159.73ZM1471.04 1154.51L1469.05 1154.35L1468.25 1164.32L1470.25 1164.48L1471.04 1154.51ZM1467.71 1133.45L1465.66 1159.1L1475.63 1159.89L1477.68 1134.24L1467.71 1133.45ZM1498.73 1130.91L1473.09 1128.86L1472.29 1138.83L1497.94 1140.87L1498.73 1130.91ZM1493.51 1133.5L1493.35 1135.49L1503.32 1136.29L1503.48 1134.29L1493.51 1133.5ZM1472.45 1136.84L1498.1 1138.88L1498.89 1128.91L1473.25 1126.87L1472.45 1136.84Z" fill="#1E3147" mask="url(#path-4-outside-2_701_94365)"/>
<circle cx="1796.5" cy="1184.5" r="44" stroke="#1E3147" stroke-dasharray="2 2"/>
<circle cx="165.5" cy="674.499" r="84" stroke="#1E3147" stroke-dasharray="2 2"/>
<path fill-rule="evenodd" clip-rule="evenodd" d="M-36.2555 37.3834L-126.824 -0.000976562V907.062V1336L-36.2555 1318.32C54.3131 1299.71 235.451 1264.35 416.588 1246.68C597.725 1229 778.863 1229 960 1255.05C1014.15 1263.12 1068.31 1273.6 1122.46 1284.07C1249.45 1308.65 1376.43 1333.22 1503.41 1326.69C1684.55 1318.32 1865.69 1246.68 1956.26 1210.39L2046.82 1175.03V907.062V340.394L1956.26 265.625C1865.69 188.889 1684.55 37.3834 1503.41 19.675C1376.43 5.88154 1249.45 57.8417 1122.46 109.802C1068.31 131.961 1014.15 154.121 960 171.18C778.863 226.273 597.725 226.273 416.588 188.889C235.451 151.504 54.3131 76.7354 -36.2555 37.3834Z" fill="#F8F9FC"/>
<line x1="1692.65" y1="375.391" x2="1877.27" y2="195.641" stroke="#1E3147" stroke-dasharray="2 2"/>
<line x1="1658.65" y1="432.591" x2="1888.52" y2="204.253" stroke="#1E3147" stroke-dasharray="2 2"/>
<line x1="188.667" y1="1275.94" x2="301.193" y2="1175.63" stroke="#1E3147" stroke-dasharray="2 2"/>
<line x1="142.561" y1="1284.73" x2="225.326" y2="1210.31" stroke="#1E3147" stroke-dasharray="2 2"/>
<circle cx="1756.86" cy="311.701" r="9" transform="rotate(-9.98947 1756.86 311.701)" fill="#33A1FB"/>
<path d="M1775 892.499C1775 900.507 1768.51 906.999 1760.5 906.999C1752.49 906.999 1746 900.507 1746 892.499C1746 884.491 1752.49 877.999 1760.5 877.999C1768.51 877.999 1775 884.491 1775 892.499ZM1748.63 892.499C1748.63 899.052 1753.95 904.365 1760.5 904.365C1767.05 904.365 1772.37 899.052 1772.37 892.499C1772.37 885.946 1767.05 880.633 1760.5 880.633C1753.95 880.633 1748.63 885.946 1748.63 892.499Z" fill="#33A1FB"/>
<circle cx="259.5" cy="657.499" r="9.5" fill="#33A1FB"/>
<path d="M146 1043C146 1061.22 131.225 1076 113 1076C94.7746 1076 80 1061.22 80 1043C80 1024.77 94.7746 1010 113 1010C131.225 1010 146 1024.77 146 1043ZM96.7184 1043C96.7184 1051.99 104.008 1059.28 113 1059.28C121.992 1059.28 129.282 1051.99 129.282 1043C129.282 1034.01 121.992 1026.72 113 1026.72C104.008 1026.72 96.7184 1034.01 96.7184 1043Z" fill="#33A1FB"/>
</svg>
