<svg width="62" height="62" viewBox="0 0 62 62" fill="none" xmlns="http://www.w3.org/2000/svg">
<path d="M31 61.001C47.5685 61.001 61 47.5695 61 31.001C61 14.4324 47.5685 1.00098 31 1.00098C14.4315 1.00098 1 14.4324 1 31.001C1 47.5695 14.4315 61.001 31 61.001Z" fill="white" stroke="black" stroke-miterlimit="10"/>
<path d="M42.1404 52.2491L42.1403 52.2492C42.2615 52.375 42.3617 52.4239 42.4385 52.4415C42.5131 52.4585 42.6131 52.4569 42.7556 52.3996C43.0226 52.2901 43.1648 52.1179 43.2166 51.8216L43.4499 49.2188C43.4486 49.0109 43.4306 48.9023 43.4183 48.8606L37.0437 30.5499C36.5985 30.9159 36.1287 31.2383 35.6344 31.5165L42.1404 52.2491ZM42.1404 52.2491L42.1342 52.2429M42.1404 52.2491L42.1342 52.2429M42.1342 52.2429L40.2697 50.3684L40.0429 50.0388L33.8474 32.2979M42.1342 52.2429L33.8474 32.2979M33.8474 32.2979C34.4726 32.096 35.0684 31.8356 35.6342 31.5166L33.8474 32.2979ZM26.3682 31.5166C26.9327 31.8356 27.5278 32.096 28.1526 32.2979L21.9328 50.1085L21.9326 50.1085L21.9285 50.1212C21.9285 50.1212 21.9216 50.1398 21.8951 50.1782C21.8674 50.2185 21.8247 50.2712 21.762 50.3366L19.8658 52.2429L19.8657 52.2429L19.8597 52.2492C19.7383 52.3752 19.6382 52.424 19.5619 52.4415C19.4878 52.4585 19.3886 52.4569 19.247 52.3997C18.9775 52.2899 18.8351 52.1173 18.7834 51.8216L18.5526 49.2474L18.5995 48.8094L24.9564 30.5497C25.4021 30.9158 25.8727 31.2383 26.3682 31.5166ZM32.297 11.0899C32.6457 11.4534 32.8244 11.8993 32.8244 12.4651V15.4221V15.8102L33.1901 15.9403C34.4638 16.3935 35.5117 17.1936 36.3407 18.3578C37.1612 19.5141 37.5733 20.8292 37.5733 22.3217C37.5733 24.2374 36.9328 25.8447 35.6496 27.1764C34.3672 28.5073 32.8278 29.1642 31 29.1642C29.1722 29.1642 27.6328 28.5073 26.3504 27.1764C25.0672 25.8447 24.4267 24.2374 24.4267 22.3217C24.4267 20.8292 24.8389 19.514 25.6594 18.3578C26.4883 17.1936 27.5362 16.3935 28.8099 15.9403L29.1756 15.8102V15.4221V12.4651C29.1756 11.8995 29.355 11.4536 29.7055 11.0898C30.0529 10.7292 30.472 10.551 31 10.551C31.5277 10.551 31.9478 10.7291 32.297 11.0899ZM33.0897 20.1839L33.0884 20.1825C32.5259 19.6008 31.8175 19.3076 31 19.3076C30.1825 19.3076 29.4745 19.6008 28.9134 20.1832C28.3521 20.7656 28.0756 21.4911 28.0756 22.3217C28.0756 23.1521 28.3519 23.8768 28.9134 24.4578C29.4742 25.0416 30.1822 25.3359 31 25.3359C31.8181 25.3359 32.5267 25.0414 33.089 24.4578C33.6491 23.8766 33.9244 23.1518 33.9244 22.3217C33.9244 21.4916 33.6491 20.7664 33.0897 20.1839Z" fill="#4ADA85" stroke="black" stroke-width="1.1"/>
</svg>
