<svg width="62" height="62" viewBox="0 0 62 62" fill="none" xmlns="http://www.w3.org/2000/svg">
<path d="M31 61.001C47.5685 61.001 61 47.5695 61 31.001C61 14.4324 47.5685 1.00098 31 1.00098C14.4315 1.00098 1 14.4324 1 31.001C1 47.5695 14.4315 61.001 31 61.001Z" fill="white" stroke="black" stroke-miterlimit="10"/>
<path d="M39.0561 20.4168C39.0561 24.8661 35.4491 28.473 30.9998 28.473C26.5505 28.473 22.9436 24.8661 22.9436 20.4168C22.9436 15.9675 26.5505 12.3605 30.9998 12.3605C35.4491 12.3605 39.0561 15.9675 39.0561 20.4168Z" fill="#4ADA85" stroke="black" stroke-width="1.1"/>
<path d="M31.0514 33.7912L31.0527 33.7912C38.8222 33.7804 46.3386 36.5272 52.2672 41.5348C50.3391 45.4237 47.3797 48.7119 43.7087 51.0383C39.9196 53.4395 35.5274 54.7176 31.0414 54.7243C26.5554 54.731 22.1594 53.4661 18.3631 51.0762C14.6851 48.7608 11.7159 45.4815 9.77614 41.5983C15.7113 36.5536 23.2528 33.7829 31.0514 33.7912Z" fill="#4ADA85" stroke="black" stroke-width="1.1"/>
</svg>
