<svg width="62" height="62" viewBox="0 0 62 62" fill="none" xmlns="http://www.w3.org/2000/svg">
<path d="M31 61.001C47.5685 61.001 61 47.5695 61 31.001C61 14.4324 47.5685 1.00098 31 1.00098C14.4315 1.00098 1 14.4324 1 31.001C1 47.5695 14.4315 61.001 31 61.001Z" fill="white" stroke="black" stroke-miterlimit="10"/>
<rect x="29" y="13.001" width="4" height="3" fill="#F9D208"/>
<rect x="15" y="27.001" width="4" height="4" fill="#F9D208"/>
<rect x="43" y="27.001" width="4" height="4" fill="#F9D208"/>
<path d="M35 48.001V28.001H26.5V48.001H35Z" fill="#4ADA85"/>
<path d="M28.5 24.001L31 19.501L33 24.001L32.5 24.501H30L28.5 24.001Z" fill="#4ADA85"/>
<path d="M31.5413 19.201C31.4109 19.0054 31.2153 18.875 30.9545 18.875C30.6936 18.875 30.498 19.0054 30.3676 19.201C25.6073 28.5912 25.9985 27.8739 25.9985 28.0043V52.7188C25.9985 53.9578 27.0419 55.0011 28.2809 55.0011H33.628C34.867 55.0011 35.9104 53.9578 35.9104 52.7188C35.9104 26.3089 35.9756 27.8739 35.78 27.6131L31.5413 19.201ZM30.9545 20.9617L32.3891 23.7657C31.4761 24.0918 30.4328 24.0918 29.5198 23.7657L30.9545 20.9617ZM28.933 24.9395C30.2371 25.396 31.6718 25.396 32.9759 24.9395L34.2149 27.3522H27.694L28.933 24.9395ZM27.3027 28.6564H30.3024V47.502H27.3027V28.6564ZM34.6062 52.7188C34.6062 53.2405 34.1497 53.6969 33.628 53.6969H28.2809C27.7592 53.6969 27.3027 53.2405 27.3027 52.7188V48.8062H34.6062V52.7188ZM34.6062 47.502H31.6065V28.6564H34.6062V47.502Z" fill="black"/>
<path d="M45.2354 17.3101C46.7352 17.3101 47.909 16.1363 47.909 14.6365C47.909 13.1367 46.7352 11.9629 45.2354 11.9629C43.9964 11.9629 43.0183 12.8106 42.6922 13.9844H33.6281V12.615C33.6281 12.2237 33.3673 11.9629 32.976 11.9629H28.9982C28.607 11.9629 28.3461 12.2237 28.3461 12.615V13.9844H19.2168C18.8907 12.8106 17.9126 11.9629 16.6084 11.9629C15.1738 11.9629 14 13.1367 14 14.6365C14 16.0711 15.1738 17.3101 16.6084 17.3101C17.8474 17.3101 18.8907 16.4624 19.1516 15.2886H24.8248C20.3905 17.2449 17.0649 21.3531 16.1519 26.309H14.6521C14.2608 26.309 14 26.5698 14 26.9611V30.9389C14 31.3301 14.2608 31.591 14.6521 31.591H18.6951C19.0863 31.591 19.3472 31.3301 19.3472 30.9389V26.9611C19.3472 26.5698 19.0863 26.309 18.6951 26.309H17.5865C18.6299 20.8966 22.9337 16.658 28.3461 15.5494V16.658C28.3461 17.0492 28.607 17.3101 28.9982 17.3101H32.976C33.3673 17.3101 33.6281 17.0492 33.6281 16.658V15.5494C39.0405 16.5928 43.2791 20.8966 44.3877 26.309H43.2791C42.8879 26.309 42.627 26.5698 42.627 26.9611V30.9389C42.627 31.3301 42.8879 31.591 43.2791 31.591H47.2569C47.6482 31.591 47.909 31.3301 47.909 30.9389V26.9611C47.909 26.5698 47.6482 26.309 47.2569 26.309H45.6267C44.7137 21.3531 41.4532 17.3101 36.9538 15.2886H42.6922C43.0183 16.3971 43.9964 17.3101 45.2354 17.3101ZM45.3006 13.2671C46.0179 13.2671 46.6048 13.854 46.6048 14.6365C46.6048 15.3538 46.0179 16.0059 45.2354 16.0059C44.5181 16.0059 43.866 15.419 43.866 14.6365C43.9312 13.854 44.5181 13.2671 45.3006 13.2671ZM16.6736 16.0059C15.8911 16.0059 15.3042 15.419 15.3042 14.6365C15.3042 13.854 15.8911 13.2671 16.6736 13.2671C17.3909 13.2671 18.043 13.854 18.043 14.6365C17.9778 15.3538 17.3909 16.0059 16.6736 16.0059ZM17.9778 27.6132V30.2868H15.3042V27.6132H17.9778ZM32.3239 16.0059H29.6503V13.2671H32.3239V16.0059ZM46.6048 27.6132V30.2868H43.866V27.6132H46.6048Z" fill="black"/>
</svg>
