<svg width="59" height="46" viewBox="0 0 59 46" fill="none" xmlns="http://www.w3.org/2000/svg">
<path opacity="0.3" d="M27.7142 36.7305H18.9922V38.7973H27.7142V36.7305Z" fill="white"/>
<path d="M37.5906 36.7835H6.00192C3.25091 36.7835 1 34.5448 1 31.8087V7.50898C1 4.77288 3.25091 2.53418 6.00192 2.53418H40.7982C43.5492 2.53418 45.8001 4.77288 45.8001 7.50898V16.8191" stroke="#1E3147" stroke-miterlimit="10" stroke-linecap="round" stroke-linejoin="round"/>
<path d="M37.5906 29.6596H6.03471C4.55681 29.6596 3.34766 28.457 3.34766 26.9871V7.6514C3.34766 6.18152 4.55681 4.97852 6.03512 4.97852H40.7657C42.2436 4.97852 43.4528 6.18111 43.4528 7.65099V16.6054" stroke="#1E3147" stroke-miterlimit="10" stroke-linecap="round" stroke-linejoin="round"/>
<path opacity="0.3" d="M3.34766 8.49913V7.6514C3.34766 6.18152 4.55681 4.97852 6.03512 4.97852H40.7657C42.2436 4.97852 43.4528 6.18111 43.4528 7.65099V8.49913H3.34766Z" fill="white"/>
<path d="M3.34766 8.49913V7.6514C3.34766 6.18152 4.55681 4.97852 6.03512 4.97852H40.7657C42.2436 4.97852 43.4528 6.18111 43.4528 7.65099V8.49913H3.34766Z" stroke="#1E3147" stroke-miterlimit="10" stroke-linecap="round" stroke-linejoin="round"/>
<path opacity="0.3" d="M23.3998 34.8145C24.2268 34.8145 24.8972 34.1478 24.8972 33.3252C24.8972 32.5027 24.2268 31.8359 23.3998 31.8359C22.5728 31.8359 21.9023 32.5027 21.9023 33.3252C21.9023 34.1478 22.5728 34.8145 23.3998 34.8145Z" fill="white"/>
<path d="M23.3998 34.8145C24.2268 34.8145 24.8972 34.1478 24.8972 33.3252C24.8972 32.5027 24.2268 31.8359 23.3998 31.8359C22.5728 31.8359 21.9023 32.5027 21.9023 33.3252C21.9023 34.1478 22.5728 34.8145 23.3998 34.8145Z" stroke="#1E3147" stroke-miterlimit="10" stroke-linecap="round" stroke-linejoin="round"/>
<path d="M27.7785 36.8906C27.7785 36.8906 26.9877 41.9753 30.8805 41.9753C26.1366 41.9753 23.0952 41.9753 23.0952 41.9753H23.5816C23.5816 41.9753 20.6624 41.9753 15.918 41.9753C19.8104 41.9753 18.9589 36.9435 18.9589 36.9435" stroke="#1E3147" stroke-miterlimit="10" stroke-linecap="round" stroke-linejoin="round"/>
<path d="M21.2941 11.1436H6.35938V16.6934H21.2941V11.1436Z" stroke="#1E3147" stroke-miterlimit="10" stroke-linecap="round" stroke-linejoin="round"/>
<path d="M23.7266 11.8154H36.1878" stroke="#5AC169" stroke-miterlimit="10" stroke-linecap="round" stroke-linejoin="round"/>
<path d="M23.7266 14.2939H38.2646" stroke="#5AC169" stroke-miterlimit="10" stroke-linecap="round" stroke-linejoin="round"/>
<path d="M23.7266 15.9453H36.1878" stroke="#5AC169" stroke-miterlimit="10" stroke-linecap="round" stroke-linejoin="round"/>
<path opacity="0.3" d="M13.827 19.7568H6.35938V27.1839H13.827V19.7568Z" fill="white"/>
<path d="M13.827 19.7568H6.35938V27.1839H13.827V19.7568Z" stroke="#5AC169" stroke-miterlimit="10" stroke-linecap="round" stroke-linejoin="round"/>
<path d="M23.9988 19.7568H16.5312V27.1839H23.9988V19.7568Z" stroke="#1E3147" stroke-miterlimit="10" stroke-linecap="round" stroke-linejoin="round"/>
<path d="M34.1746 19.7568H26.707V27.1839H34.1746V19.7568Z" stroke="#1E3147" stroke-miterlimit="10" stroke-linecap="round" stroke-linejoin="round"/>
<path d="M55.4509 45.0003H39.6123C38.5107 45.0003 37.6094 44.1038 37.6094 43.0082V18.8085C37.6094 17.7129 38.5107 16.8164 39.6123 16.8164H55.4509C56.5525 16.8164 57.4538 17.7129 57.4538 18.8085V43.0082C57.4538 44.1038 56.5525 45.0003 55.4509 45.0003Z" stroke="#1E3147" stroke-miterlimit="10" stroke-linecap="round" stroke-linejoin="round"/>
<path d="M54.7761 40.4664H40.2879C39.5747 40.4664 38.9961 39.8914 38.9961 39.1816V19.7096C38.9961 19.0003 39.5743 18.4248 40.2879 18.4248H54.7761C55.4893 18.4248 56.0679 18.9999 56.0679 19.7096V39.1816C56.0675 39.8914 55.4893 40.4664 54.7761 40.4664Z" stroke="#1E3147" stroke-miterlimit="10" stroke-linecap="round" stroke-linejoin="round"/>
<path opacity="0.3" d="M48.2757 43.5844C48.7818 43.5844 49.192 43.1764 49.192 42.6731C49.192 42.1697 48.7818 41.7617 48.2757 41.7617C47.7696 41.7617 47.3594 42.1697 47.3594 42.6731C47.3594 43.1764 47.7696 43.5844 48.2757 43.5844Z" fill="#528AC8"/>
<path d="M48.2757 43.5844C48.7818 43.5844 49.192 43.1764 49.192 42.6731C49.192 42.1697 48.7818 41.7617 48.2757 41.7617C47.7696 41.7617 47.3594 42.1697 47.3594 42.6731C47.3594 43.1764 47.7696 43.5844 48.2757 43.5844Z" stroke="#1E3147" stroke-miterlimit="10" stroke-linecap="round" stroke-linejoin="round"/>
<path opacity="0.3" d="M54.1345 20.5303H41.4258V31.1264H54.1345V20.5303Z" fill="white"/>
<path d="M54.1317 20.5303H41.1562V31.1264H54.1317V20.5303Z" stroke="#5AC169" stroke-miterlimit="10" stroke-linecap="round" stroke-linejoin="round"/>
<path d="M41.5898 34.1279H51.5588" stroke="#1E3147" stroke-miterlimit="10" stroke-linecap="round" stroke-linejoin="round"/>
<path d="M41.5898 35.7793H49.8973" stroke="#1E3147" stroke-miterlimit="10" stroke-linecap="round" stroke-linejoin="round"/>
<path d="M51.6289 10.1494V12.7236" stroke="#5AC169" stroke-miterlimit="10" stroke-linecap="round" stroke-linejoin="round"/>
<path d="M52.9241 11.4355H50.3359" stroke="#5AC169" stroke-miterlimit="10" stroke-linecap="round" stroke-linejoin="round"/>
<path d="M55.8359 1V5.29976" stroke="#5AC169" stroke-miterlimit="10" stroke-linecap="round" stroke-linejoin="round"/>
<path d="M57.9986 3.14844H53.6758" stroke="#5AC169" stroke-miterlimit="10" stroke-linecap="round" stroke-linejoin="round"/>
</svg>
