<svg width="45" height="45" viewBox="0 0 45 45" fill="none" xmlns="http://www.w3.org/2000/svg">
<path d="M32.6612 15.2433H27.8193L31.8526 10.633C32.3737 10.0378 32.6612 9.27356 32.6612 8.48243V8.34816C32.6612 6.54743 31.1958 5.08203 29.395 5.08203C27.5943 5.08203 26.1289 6.54743 26.1289 8.34816V9.43687H27.5805V8.34816C27.5805 7.34727 28.3941 6.53364 29.395 6.53364C30.3959 6.53364 31.2096 7.34727 31.2096 8.34816V8.48243C31.2096 8.92227 31.0499 9.34614 30.7603 9.67711L26.1289 14.9704V16.6949H32.6612V15.2433Z" fill="#5AC169"/>
<path d="M38.4681 16.6949H39.9197V14.5175H41.3713V13.0659H39.9197V5.08203H38.0196L34.1133 12.8946V14.5175H38.4681V16.6949ZM35.6505 13.0659L38.4681 7.43074V13.0659H35.6505Z" fill="#5AC169"/>
<path d="M35.8585 22.9551C41.0777 21.8185 45 17.1675 45 11.6129C45 5.20984 39.7902 0 33.3871 0C27.8325 0 23.1815 3.92226 22.0449 9.14153C20.7639 8.85992 19.4567 8.70968 18.1452 8.70968C8.13992 8.70968 0 16.8496 0 26.8548C0 36.8601 8.13992 45 18.1452 45C28.1504 45 36.2903 36.8601 36.2903 26.8548C36.2903 25.5433 36.1401 24.2361 35.8585 22.9551ZM33.3871 1.45161C38.9903 1.45161 43.5484 6.00968 43.5484 11.6129C43.5484 17.2161 38.9903 21.7742 33.3871 21.7742C27.7839 21.7742 23.2258 17.2161 23.2258 11.6129C23.2258 6.00968 27.7839 1.45161 33.3871 1.45161ZM31.9072 26.129H30.4839V27.5806H31.8985C31.7279 30.8352 30.4294 33.7885 28.3805 36.0639L27.3825 35.0659L26.3562 36.0922L27.3542 37.0902C25.0788 39.1398 22.1255 40.4376 18.871 40.6081V39.1936H17.4194V40.6081C14.1648 40.4376 11.2115 39.1391 8.93613 37.0902L9.93411 36.0922L8.90782 35.0659L7.90984 36.0639C5.86016 33.7885 4.56242 30.8352 4.39186 27.5806H5.80645V26.129H4.39186C4.56242 22.8745 5.86089 19.9212 7.90984 17.6458L8.90782 18.6438L9.93411 17.6175L8.93613 16.6195C11.2115 14.5698 14.1648 13.2721 17.4194 13.1015V14.5161H18.871V13.0928C19.9147 13.148 20.9482 13.3236 21.9593 13.6154C22.7983 18.4137 26.5856 22.201 31.3846 23.0407C31.6756 24.0518 31.8513 25.0853 31.9072 26.129ZM18.1452 43.5484C8.93976 43.5484 1.45161 36.0602 1.45161 26.8548C1.45161 17.6494 8.93976 10.1613 18.1452 10.1613C19.3834 10.1613 20.618 10.3072 21.8265 10.5801C21.796 10.9212 21.7742 11.2645 21.7742 11.6129C21.7742 11.7646 21.7909 11.9127 21.7967 12.0636C20.5991 11.7668 19.3754 11.6129 18.1452 11.6129C9.74105 11.6129 2.90323 18.4507 2.90323 26.8548C2.90323 35.259 9.74105 42.0968 18.1452 42.0968C26.5493 42.0968 33.3871 35.259 33.3871 26.8548C33.3871 25.6246 33.2332 24.4009 32.9364 23.2033C33.0873 23.2091 33.2354 23.2258 33.3871 23.2258C33.7355 23.2258 34.0788 23.204 34.4199 23.1735C34.6928 24.382 34.8387 25.6166 34.8387 26.8548C34.8387 36.0602 27.3506 43.5484 18.1452 43.5484Z" fill="#1E3147"/>
<path d="M20.3236 26.8558C20.3236 25.9108 19.7146 25.1125 18.872 24.812V15.9688H17.4204V24.812C16.5777 25.1125 15.9688 25.9108 15.9688 26.8558C15.9688 28.0563 16.9457 29.0333 18.1462 29.0333C18.4815 29.0333 18.795 28.9513 19.0788 28.8148L24.1653 33.9013L25.1916 32.875L20.1051 27.7885C20.2416 27.5047 20.3236 27.1912 20.3236 26.8558ZM17.4204 26.8558C17.4204 26.4552 17.7455 26.13 18.1462 26.13C18.5468 26.13 18.872 26.4552 18.872 26.8558C18.872 27.2565 18.5468 27.5817 18.1462 27.5817C17.7455 27.5817 17.4204 27.2565 17.4204 26.8558Z" fill="#1E3147"/>
<path d="M39.9185 24.6758C38.718 24.6758 37.7411 25.6527 37.7411 26.8532C37.7411 27.7612 38.3007 28.54 39.0926 28.8659C38.6375 33.6446 36.553 38.1424 33.1758 41.5871L34.2122 42.6032C37.8405 38.903 40.0724 34.0655 40.5449 28.9276C41.4391 28.6568 42.0959 27.8352 42.0959 26.8532C42.0959 25.6527 41.119 24.6758 39.9185 24.6758ZM39.9185 27.579C39.5179 27.579 39.1927 27.2538 39.1927 26.8532C39.1927 26.4526 39.5179 26.1274 39.9185 26.1274C40.3192 26.1274 40.6443 26.4526 40.6443 26.8532C40.6443 27.2538 40.3192 27.579 39.9185 27.579Z" fill="#5AC169"/>
<path d="M3.83403 11.4182C7.21483 8.28202 11.5646 6.35355 16.1357 5.91734C16.4652 6.70339 17.2411 7.25718 18.1448 7.25718C19.3452 7.25718 20.3222 6.28025 20.3222 5.07976C20.3222 3.87928 19.3452 2.90234 18.1448 2.90234C17.1635 2.90234 16.3411 3.5592 16.0704 4.45339C11.156 4.9063 6.47959 6.98573 2.84766 10.3542L3.83403 11.4182ZM18.1448 4.35396C18.5454 4.35396 18.8706 4.67912 18.8706 5.07976C18.8706 5.48041 18.5454 5.80557 18.1448 5.80557C17.7441 5.80557 17.4189 5.48041 17.4189 5.07976C17.4189 4.67912 17.7441 4.35396 18.1448 4.35396Z" fill="#5AC169"/>
</svg>
