<svg width="46" height="47" viewBox="0 0 46 47" fill="none" xmlns="http://www.w3.org/2000/svg">
<path d="M22.7484 33.2969C22.4498 33.2969 22.1578 33.3855 21.9094 33.5514C21.6611 33.7173 21.4675 33.9532 21.3532 34.2291C21.2389 34.5051 21.209 34.8087 21.2673 35.1017C21.3256 35.3946 21.4694 35.6637 21.6806 35.8749C21.8918 36.0861 22.1609 36.2299 22.4538 36.2882C22.7468 36.3465 23.0504 36.3166 23.3264 36.2023C23.6023 36.088 23.8382 35.8944 24.0041 35.6461C24.1701 35.3977 24.2586 35.1058 24.2586 34.8071C24.2582 34.4067 24.099 34.0228 23.8158 33.7397C23.5327 33.4566 23.1488 33.2973 22.7484 33.2969ZM22.7484 35.4142C22.6283 35.4142 22.511 35.3786 22.4111 35.3119C22.3113 35.2452 22.2334 35.1503 22.1875 35.0394C22.1415 34.9285 22.1295 34.8064 22.1529 34.6886C22.1764 34.5708 22.2342 34.4626 22.3191 34.3777C22.404 34.2928 22.5122 34.235 22.63 34.2116C22.7478 34.1881 22.8698 34.2002 22.9808 34.2461C23.0917 34.2921 23.1866 34.3699 23.2533 34.4697C23.32 34.5696 23.3556 34.687 23.3556 34.8071C23.3554 34.968 23.2914 35.1224 23.1776 35.2362C23.0637 35.35 22.9094 35.4141 22.7484 35.4142V35.4142Z" fill="#1E3147"/>
<path d="M6.76169 23.8789C6.18767 23.8789 5.62653 24.0491 5.14925 24.368C4.67197 24.6869 4.29997 25.1402 4.0803 25.6706C3.86063 26.2009 3.80316 26.7844 3.91514 27.3474C4.02713 27.9104 4.30355 28.4276 4.70944 28.8335C5.11534 29.2394 5.63248 29.5158 6.19548 29.6278C6.75847 29.7397 7.34203 29.6823 7.87236 29.4626C8.40268 29.2429 8.85596 28.8709 9.17487 28.3937C9.49378 27.9164 9.664 27.3552 9.664 26.7812C9.66313 26.0117 9.35707 25.274 8.81297 24.7299C8.26887 24.1858 7.53116 23.8798 6.76169 23.8789Z" fill="#EBEFF2"/>
<path d="M15.7083 26.332H11.3539C11.2341 26.332 11.1193 26.3796 11.0346 26.4643C10.9499 26.549 10.9023 26.6638 10.9023 26.7835C10.9023 26.9033 10.9499 27.0181 11.0346 27.1028C11.1193 27.1875 11.2341 27.2351 11.3539 27.2351H15.7083C15.828 27.2351 15.9429 27.1875 16.0276 27.1028C16.1122 27.0181 16.1598 26.9033 16.1598 26.7835C16.1598 26.6638 16.1122 26.549 16.0276 26.4643C15.9429 26.3796 15.828 26.332 15.7083 26.332Z" fill="#1E3147"/>
<path d="M20.0628 26.332H17.8656C17.7458 26.332 17.631 26.3796 17.5463 26.4643C17.4616 26.549 17.4141 26.6638 17.4141 26.7835C17.4141 26.9033 17.4616 27.0181 17.5463 27.1028C17.631 27.1875 17.7458 27.2351 17.8656 27.2351H20.0628C20.1826 27.2351 20.2974 27.1875 20.3821 27.1028C20.4668 27.0181 20.5143 26.9033 20.5143 26.7835C20.5143 26.6638 20.4668 26.549 20.3821 26.4643C20.2974 26.3796 20.1826 26.332 20.0628 26.332Z" fill="#1E3147"/>
<path d="M20.0628 19.4102H11.3539C11.2341 19.4102 11.1193 19.4577 11.0346 19.5424C10.9499 19.6271 10.9023 19.7419 10.9023 19.8617C10.9023 19.9814 10.9499 20.0963 11.0346 20.1809C11.1193 20.2656 11.2341 20.3132 11.3539 20.3132H20.0628C20.1826 20.3132 20.2974 20.2656 20.3821 20.1809C20.4668 20.0963 20.5143 19.9814 20.5143 19.8617C20.5143 19.7419 20.4668 19.6271 20.3821 19.5424C20.2974 19.4577 20.1826 19.4102 20.0628 19.4102Z" fill="#5AC169"/>
<path d="M20.0599 17.3711H15.7054C15.5857 17.3711 15.4708 17.4187 15.3862 17.5033C15.3015 17.588 15.2539 17.7029 15.2539 17.8226C15.2539 17.9424 15.3015 18.0572 15.3862 18.1419C15.4708 18.2265 15.5857 18.2741 15.7054 18.2741H20.0599C20.1797 18.2741 20.2945 18.2265 20.3792 18.1419C20.4639 18.0572 20.5115 17.9424 20.5115 17.8226C20.5115 17.7029 20.4639 17.588 20.3792 17.5033C20.2945 17.4187 20.1797 17.3711 20.0599 17.3711Z" fill="#5AC169"/>
<path d="M11.3539 18.2741H13.551C13.6707 18.2741 13.7856 18.2265 13.8703 18.1419C13.9549 18.0572 14.0025 17.9424 14.0025 17.8226C14.0025 17.7029 13.9549 17.588 13.8703 17.5033C13.7856 17.4187 13.6707 17.3711 13.551 17.3711H11.3539C11.2341 17.3711 11.1193 17.4187 11.0346 17.5033C10.9499 17.588 10.9023 17.7029 10.9023 17.8226C10.9023 17.9424 10.9499 18.0572 11.0346 18.1419C11.1193 18.2265 11.2341 18.2741 11.3539 18.2741Z" fill="#5AC169"/>
<path d="M25.9883 21.7538C26.5623 21.7538 27.1234 21.5836 27.6007 21.2647C28.078 20.9458 28.45 20.4925 28.6696 19.9622C28.8893 19.4319 28.9468 18.8483 28.8348 18.2853C28.7228 17.7223 28.4464 17.2052 28.0405 16.7993C27.6346 16.3934 27.1175 16.117 26.5545 16.005C25.9915 15.893 25.4079 15.9505 24.8776 16.1701C24.3473 16.3898 23.894 16.7618 23.5751 17.2391C23.2562 17.7164 23.0859 18.2775 23.0859 18.8515C23.0868 19.621 23.3929 20.3587 23.937 20.9028C24.4811 21.4469 25.2188 21.753 25.9883 21.7538Z" fill="#EBEFF2"/>
<path d="M30.8539 26.3327H39.5628C39.6826 26.3327 39.7974 26.2851 39.8821 26.2005C39.9668 26.1158 40.0143 26.0009 40.0143 25.8812C40.0143 25.7615 39.9668 25.6466 39.8821 25.5619C39.7974 25.4773 39.6826 25.4297 39.5628 25.4297H30.8539C30.7341 25.4297 30.6193 25.4773 30.5346 25.5619C30.4499 25.6466 30.4023 25.7615 30.4023 25.8812C30.4023 26.0009 30.4499 26.1158 30.5346 26.2005C30.6193 26.2851 30.7341 26.3327 30.8539 26.3327Z" fill="#5AC169"/>
<path d="M35.2084 27.4648H30.8539C30.7341 27.4648 30.6193 27.5124 30.5346 27.5971C30.4499 27.6818 30.4023 27.7966 30.4023 27.9164C30.4023 28.0361 30.4499 28.1509 30.5346 28.2356C30.6193 28.3203 30.7341 28.3679 30.8539 28.3679H35.2084C35.3281 28.3679 35.443 28.3203 35.5276 28.2356C35.6123 28.1509 35.6599 28.0361 35.6599 27.9164C35.6599 27.7966 35.6123 27.6818 35.5276 27.5971C35.443 27.5124 35.3281 27.4648 35.2084 27.4648Z" fill="#5AC169"/>
<path d="M40.0103 27.9164C40.0103 27.7966 39.9628 27.6818 39.8781 27.5971C39.7934 27.5124 39.6786 27.4648 39.5588 27.4648H37.3617C37.2419 27.4648 37.1271 27.5124 37.0424 27.5971C36.9577 27.6818 36.9102 27.7966 36.9102 27.9164C36.9102 28.0361 36.9577 28.1509 37.0424 28.2356C37.1271 28.3203 37.2419 28.3679 37.3617 28.3679H39.5588C39.6786 28.3679 39.7934 28.3203 39.8781 28.2356C39.9628 28.1509 40.0103 28.0361 40.0103 27.9164Z" fill="#5AC169"/>
<path d="M9.23917 15.9582L8.62623 16.624C8.06612 16.1544 7.34956 15.9133 6.6195 15.9487C5.88944 15.984 5.19956 16.2934 4.68748 16.8149C4.1754 17.3365 3.87878 18.0319 3.85679 18.7625C3.83479 19.4931 4.08904 20.2051 4.56881 20.7565C5.04859 21.3079 5.71861 21.6582 6.44522 21.7374C7.17183 21.8167 7.9016 21.619 8.48895 21.184C9.0763 20.749 9.47804 20.1085 9.61403 19.3903C9.75003 18.6722 9.61027 17.9292 9.22265 17.3095L9.90353 16.5699C9.94369 16.5262 9.97487 16.4751 9.99528 16.4195C10.0157 16.3638 10.0249 16.3046 10.0225 16.2454C10.02 16.1861 10.0059 16.128 9.98101 16.0742C9.95607 16.0204 9.92079 15.972 9.87716 15.9318C9.83354 15.8917 9.78243 15.8605 9.72676 15.8401C9.67108 15.8197 9.61194 15.8104 9.55269 15.8129C9.49344 15.8153 9.43526 15.8294 9.38146 15.8544C9.32766 15.8793 9.2793 15.9146 9.23914 15.9582H9.23917ZM8.76173 18.8466C8.76244 19.3007 8.60877 19.7415 8.32595 20.0968C8.04313 20.4521 7.64795 20.7007 7.20525 20.8018C6.76255 20.9029 6.29862 20.8506 5.88959 20.6533C5.48055 20.4561 5.15071 20.1257 4.95417 19.7163C4.75763 19.307 4.70607 18.8429 4.80795 18.4004C4.90983 17.9579 5.1591 17.5631 5.51486 17.2809C5.87062 16.9987 6.31174 16.8458 6.76585 16.8473C7.21995 16.8487 7.66006 17.0045 8.01397 17.2891L6.69535 18.7214L6.13864 18.1483C6.0552 18.0623 5.94106 18.0131 5.82131 18.0114C5.70157 18.0096 5.58604 18.0555 5.50013 18.139C5.41423 18.2224 5.36499 18.3365 5.36324 18.4563C5.3615 18.576 5.40739 18.6916 5.49083 18.7775L6.38031 19.6931C6.4224 19.7364 6.47275 19.7709 6.52839 19.7944C6.58402 19.8179 6.64381 19.83 6.70421 19.83C6.70625 19.83 6.70827 19.83 6.7103 19.83C6.7717 19.8292 6.83229 19.8158 6.88837 19.7908C6.94444 19.7658 6.99481 19.7295 7.03641 19.6844L8.5777 18.0102C8.69911 18.2723 8.76191 18.5577 8.76173 18.8466Z" fill="#5AC169"/>
<mask id="path-13-outside-1_532_71552" maskUnits="userSpaceOnUse" x="0" y="0" width="46" height="47" fill="black">
<rect fill="white" width="46" height="47"/>
<path d="M43.8155 7.2197L44.7694 5.47141C45.0299 4.99286 45.0898 4.43054 44.9362 3.90783C44.7825 3.38511 44.4278 2.94469 43.9498 2.6832L41.3236 1.25018C40.845 0.989808 40.2827 0.929873 39.76 1.08352C39.2373 1.23717 38.7969 1.59185 38.5354 2.06978L34.5779 9.32249H3.84672C3.09195 9.32341 2.36837 9.6237 1.83476 10.1575C1.30114 10.6913 1.00107 11.415 1.0004 12.1697V31.7366L1 31.7405L1.0004 31.7445V35.465C1.00107 36.2198 1.30114 36.9434 1.83476 37.4772C2.36837 38.011 3.09195 38.3113 3.84672 38.3122H19.3363L18.4076 45.097H16.3005C16.1808 45.097 16.0659 45.1446 15.9812 45.2292C15.8966 45.3139 15.849 45.4287 15.849 45.5485C15.849 45.6682 15.8966 45.7831 15.9812 45.8678C16.0659 45.9524 16.1808 46 16.3005 46H29.3831C29.5029 46 29.6177 45.9524 29.7024 45.8678C29.7871 45.7831 29.8346 45.6682 29.8346 45.5485C29.8346 45.4287 29.7871 45.3139 29.7024 45.2292C29.6177 45.1446 29.5029 45.097 29.3831 45.097H27.2671L26.3385 38.3122H41.6535C42.4085 38.3115 43.1322 38.0113 43.666 37.4775C44.1999 36.9437 44.5001 36.2199 44.5008 35.465V31.7443L44.5011 31.7405L44.5008 31.7368V12.1697C44.5002 11.5776 44.3152 11.0003 43.9714 10.5181C43.6277 10.0359 43.1423 9.67268 42.5828 9.47896L43.8155 7.2197ZM19.3191 45.097L20.2477 38.3123H25.427L26.3556 45.097H19.3191ZM39.328 2.50231C39.4746 2.23433 39.7215 2.03545 40.0145 1.94931C40.3076 1.86317 40.6229 1.89682 40.8911 2.04286L43.5174 3.47589C43.7853 3.62249 43.9841 3.86937 44.0703 4.16237C44.1564 4.45538 44.1228 4.77058 43.9768 5.03885L43.2391 6.39081L42.2521 5.85222C42.1471 5.79597 42.0241 5.78352 41.9099 5.81757C41.7958 5.85162 41.6997 5.92941 41.6426 6.03401C41.5855 6.1386 41.5721 6.2615 41.6053 6.37594C41.6385 6.49037 41.7155 6.58706 41.8197 6.64492L42.8067 7.18347L37.6714 16.5948L36.8162 14.871C36.7062 14.6499 36.5531 14.4529 36.3659 14.2917L41.0486 5.70986C41.077 5.65782 41.0949 5.60068 41.1012 5.54173C41.1076 5.48277 41.1022 5.42314 41.0855 5.36625C41.0688 5.30937 41.041 5.25633 41.0038 5.21017C40.9666 5.16401 40.9206 5.12564 40.8686 5.09724L38.5903 3.85421L39.328 2.50231ZM35.0134 19.3984C34.8351 18.5286 34.4526 17.9479 33.8724 17.6721C33.1952 17.3502 32.4526 17.5575 32.0294 17.7333L31.6837 16.512L32.4945 15.0259L35.0352 14.742C35.232 14.7205 35.4307 14.7598 35.6045 14.8546C35.7782 14.9494 35.9188 15.0952 36.0072 15.2724L37.1433 17.5624L36.3365 19.041L35.0134 19.3984ZM34.1401 19.6342L32.7261 20.0161C32.7137 20.0194 32.7004 20.0177 32.6891 20.0113C32.6779 20.005 32.6696 19.9944 32.666 19.982L32.2775 18.6094C32.5624 18.4743 33.095 18.3005 33.4872 18.4888C33.8071 18.6424 34.0262 19.0279 34.1401 19.6342ZM38.1578 4.64688L40.0397 5.67372L35.5608 13.882C35.3559 13.8337 35.1441 13.821 34.9348 13.8445L33.0225 14.0582L38.1578 4.64688ZM3.84672 10.2255H34.0852L32.4375 13.2452H1.90342V12.1697C1.90385 11.6544 2.1087 11.1602 2.47302 10.7958C2.83734 10.4313 3.33138 10.2262 3.84672 10.2255ZM41.6535 37.4092H3.84672C3.33138 37.4085 2.83734 37.2034 2.47302 36.839C2.1087 36.4745 1.90385 35.9803 1.90342 35.465V32.1921H37.1078C37.2276 32.1921 37.3424 32.1445 37.4271 32.0598C37.5118 31.9751 37.5593 31.8603 37.5593 31.7405C37.5593 31.6208 37.5118 31.5059 37.4271 31.4213C37.3424 31.3366 37.2276 31.289 37.1078 31.289H1.90342V14.1482H31.9448L31.8145 14.387L30.8027 16.2413C30.7461 16.345 30.7324 16.4668 30.7646 16.5805L31.7972 20.228C31.8545 20.4274 31.975 20.6027 32.1406 20.7276C32.3062 20.8526 32.508 20.9203 32.7154 20.9206C32.7985 20.9205 32.8813 20.9095 32.9616 20.8878L36.7582 19.8625C36.817 19.8466 36.8721 19.819 36.9199 19.7812C36.9678 19.7435 37.0076 19.6964 37.0368 19.6429L38.0486 17.7886L40.0349 14.1482H43.5978V31.289H39.1293C39.0096 31.289 38.8947 31.3366 38.81 31.4213C38.7254 31.5059 38.6778 31.6208 38.6778 31.7405C38.6778 31.8603 38.7254 31.9751 38.81 32.0598C38.8947 32.1445 39.0096 32.1921 39.1293 32.1921H43.5978V35.465C43.5973 35.9805 43.3923 36.4747 43.0278 36.8392C42.6633 37.2037 42.169 37.4087 41.6535 37.4092ZM43.5978 12.1697V13.2452H40.5277L42.1405 10.2895C42.5572 10.3974 42.9264 10.6405 43.1901 10.9808C43.4538 11.3211 43.5972 11.7392 43.5978 12.1697Z"/>
</mask>
<path d="M43.8155 7.2197L44.7694 5.47141C45.0299 4.99286 45.0898 4.43054 44.9362 3.90783C44.7825 3.38511 44.4278 2.94469 43.9498 2.6832L41.3236 1.25018C40.845 0.989808 40.2827 0.929873 39.76 1.08352C39.2373 1.23717 38.7969 1.59185 38.5354 2.06978L34.5779 9.32249H3.84672C3.09195 9.32341 2.36837 9.6237 1.83476 10.1575C1.30114 10.6913 1.00107 11.415 1.0004 12.1697V31.7366L1 31.7405L1.0004 31.7445V35.465C1.00107 36.2198 1.30114 36.9434 1.83476 37.4772C2.36837 38.011 3.09195 38.3113 3.84672 38.3122H19.3363L18.4076 45.097H16.3005C16.1808 45.097 16.0659 45.1446 15.9812 45.2292C15.8966 45.3139 15.849 45.4287 15.849 45.5485C15.849 45.6682 15.8966 45.7831 15.9812 45.8678C16.0659 45.9524 16.1808 46 16.3005 46H29.3831C29.5029 46 29.6177 45.9524 29.7024 45.8678C29.7871 45.7831 29.8346 45.6682 29.8346 45.5485C29.8346 45.4287 29.7871 45.3139 29.7024 45.2292C29.6177 45.1446 29.5029 45.097 29.3831 45.097H27.2671L26.3385 38.3122H41.6535C42.4085 38.3115 43.1322 38.0113 43.666 37.4775C44.1999 36.9437 44.5001 36.2199 44.5008 35.465V31.7443L44.5011 31.7405L44.5008 31.7368V12.1697C44.5002 11.5776 44.3152 11.0003 43.9714 10.5181C43.6277 10.0359 43.1423 9.67268 42.5828 9.47896L43.8155 7.2197ZM19.3191 45.097L20.2477 38.3123H25.427L26.3556 45.097H19.3191ZM39.328 2.50231C39.4746 2.23433 39.7215 2.03545 40.0145 1.94931C40.3076 1.86317 40.6229 1.89682 40.8911 2.04286L43.5174 3.47589C43.7853 3.62249 43.9841 3.86937 44.0703 4.16237C44.1564 4.45538 44.1228 4.77058 43.9768 5.03885L43.2391 6.39081L42.2521 5.85222C42.1471 5.79597 42.0241 5.78352 41.9099 5.81757C41.7958 5.85162 41.6997 5.92941 41.6426 6.03401C41.5855 6.1386 41.5721 6.2615 41.6053 6.37594C41.6385 6.49037 41.7155 6.58706 41.8197 6.64492L42.8067 7.18347L37.6714 16.5948L36.8162 14.871C36.7062 14.6499 36.5531 14.4529 36.3659 14.2917L41.0486 5.70986C41.077 5.65782 41.0949 5.60068 41.1012 5.54173C41.1076 5.48277 41.1022 5.42314 41.0855 5.36625C41.0688 5.30937 41.041 5.25633 41.0038 5.21017C40.9666 5.16401 40.9206 5.12564 40.8686 5.09724L38.5903 3.85421L39.328 2.50231ZM35.0134 19.3984C34.8351 18.5286 34.4526 17.9479 33.8724 17.6721C33.1952 17.3502 32.4526 17.5575 32.0294 17.7333L31.6837 16.512L32.4945 15.0259L35.0352 14.742C35.232 14.7205 35.4307 14.7598 35.6045 14.8546C35.7782 14.9494 35.9188 15.0952 36.0072 15.2724L37.1433 17.5624L36.3365 19.041L35.0134 19.3984ZM34.1401 19.6342L32.7261 20.0161C32.7137 20.0194 32.7004 20.0177 32.6891 20.0113C32.6779 20.005 32.6696 19.9944 32.666 19.982L32.2775 18.6094C32.5624 18.4743 33.095 18.3005 33.4872 18.4888C33.8071 18.6424 34.0262 19.0279 34.1401 19.6342ZM38.1578 4.64688L40.0397 5.67372L35.5608 13.882C35.3559 13.8337 35.1441 13.821 34.9348 13.8445L33.0225 14.0582L38.1578 4.64688ZM3.84672 10.2255H34.0852L32.4375 13.2452H1.90342V12.1697C1.90385 11.6544 2.1087 11.1602 2.47302 10.7958C2.83734 10.4313 3.33138 10.2262 3.84672 10.2255ZM41.6535 37.4092H3.84672C3.33138 37.4085 2.83734 37.2034 2.47302 36.839C2.1087 36.4745 1.90385 35.9803 1.90342 35.465V32.1921H37.1078C37.2276 32.1921 37.3424 32.1445 37.4271 32.0598C37.5118 31.9751 37.5593 31.8603 37.5593 31.7405C37.5593 31.6208 37.5118 31.5059 37.4271 31.4213C37.3424 31.3366 37.2276 31.289 37.1078 31.289H1.90342V14.1482H31.9448L31.8145 14.387L30.8027 16.2413C30.7461 16.345 30.7324 16.4668 30.7646 16.5805L31.7972 20.228C31.8545 20.4274 31.975 20.6027 32.1406 20.7276C32.3062 20.8526 32.508 20.9203 32.7154 20.9206C32.7985 20.9205 32.8813 20.9095 32.9616 20.8878L36.7582 19.8625C36.817 19.8466 36.8721 19.819 36.9199 19.7812C36.9678 19.7435 37.0076 19.6964 37.0368 19.6429L38.0486 17.7886L40.0349 14.1482H43.5978V31.289H39.1293C39.0096 31.289 38.8947 31.3366 38.81 31.4213C38.7254 31.5059 38.6778 31.6208 38.6778 31.7405C38.6778 31.8603 38.7254 31.9751 38.81 32.0598C38.8947 32.1445 39.0096 32.1921 39.1293 32.1921H43.5978V35.465C43.5973 35.9805 43.3923 36.4747 43.0278 36.8392C42.6633 37.2037 42.169 37.4087 41.6535 37.4092ZM43.5978 12.1697V13.2452H40.5277L42.1405 10.2895C42.5572 10.3974 42.9264 10.6405 43.1901 10.9808C43.4538 11.3211 43.5972 11.7392 43.5978 12.1697Z" fill="#1E3147"/>
<path d="M43.8155 7.2197L44.7694 5.47141C45.0299 4.99286 45.0898 4.43054 44.9362 3.90783C44.7825 3.38511 44.4278 2.94469 43.9498 2.6832L41.3236 1.25018C40.845 0.989808 40.2827 0.929873 39.76 1.08352C39.2373 1.23717 38.7969 1.59185 38.5354 2.06978L34.5779 9.32249H3.84672C3.09195 9.32341 2.36837 9.6237 1.83476 10.1575C1.30114 10.6913 1.00107 11.415 1.0004 12.1697V31.7366L1 31.7405L1.0004 31.7445V35.465C1.00107 36.2198 1.30114 36.9434 1.83476 37.4772C2.36837 38.011 3.09195 38.3113 3.84672 38.3122H19.3363L18.4076 45.097H16.3005C16.1808 45.097 16.0659 45.1446 15.9812 45.2292C15.8966 45.3139 15.849 45.4287 15.849 45.5485C15.849 45.6682 15.8966 45.7831 15.9812 45.8678C16.0659 45.9524 16.1808 46 16.3005 46H29.3831C29.5029 46 29.6177 45.9524 29.7024 45.8678C29.7871 45.7831 29.8346 45.6682 29.8346 45.5485C29.8346 45.4287 29.7871 45.3139 29.7024 45.2292C29.6177 45.1446 29.5029 45.097 29.3831 45.097H27.2671L26.3385 38.3122H41.6535C42.4085 38.3115 43.1322 38.0113 43.666 37.4775C44.1999 36.9437 44.5001 36.2199 44.5008 35.465V31.7443L44.5011 31.7405L44.5008 31.7368V12.1697C44.5002 11.5776 44.3152 11.0003 43.9714 10.5181C43.6277 10.0359 43.1423 9.67268 42.5828 9.47896L43.8155 7.2197ZM19.3191 45.097L20.2477 38.3123H25.427L26.3556 45.097H19.3191ZM39.328 2.50231C39.4746 2.23433 39.7215 2.03545 40.0145 1.94931C40.3076 1.86317 40.6229 1.89682 40.8911 2.04286L43.5174 3.47589C43.7853 3.62249 43.9841 3.86937 44.0703 4.16237C44.1564 4.45538 44.1228 4.77058 43.9768 5.03885L43.2391 6.39081L42.2521 5.85222C42.1471 5.79597 42.0241 5.78352 41.9099 5.81757C41.7958 5.85162 41.6997 5.92941 41.6426 6.03401C41.5855 6.1386 41.5721 6.2615 41.6053 6.37594C41.6385 6.49037 41.7155 6.58706 41.8197 6.64492L42.8067 7.18347L37.6714 16.5948L36.8162 14.871C36.7062 14.6499 36.5531 14.4529 36.3659 14.2917L41.0486 5.70986C41.077 5.65782 41.0949 5.60068 41.1012 5.54173C41.1076 5.48277 41.1022 5.42314 41.0855 5.36625C41.0688 5.30937 41.041 5.25633 41.0038 5.21017C40.9666 5.16401 40.9206 5.12564 40.8686 5.09724L38.5903 3.85421L39.328 2.50231ZM35.0134 19.3984C34.8351 18.5286 34.4526 17.9479 33.8724 17.6721C33.1952 17.3502 32.4526 17.5575 32.0294 17.7333L31.6837 16.512L32.4945 15.0259L35.0352 14.742C35.232 14.7205 35.4307 14.7598 35.6045 14.8546C35.7782 14.9494 35.9188 15.0952 36.0072 15.2724L37.1433 17.5624L36.3365 19.041L35.0134 19.3984ZM34.1401 19.6342L32.7261 20.0161C32.7137 20.0194 32.7004 20.0177 32.6891 20.0113C32.6779 20.005 32.6696 19.9944 32.666 19.982L32.2775 18.6094C32.5624 18.4743 33.095 18.3005 33.4872 18.4888C33.8071 18.6424 34.0262 19.0279 34.1401 19.6342ZM38.1578 4.64688L40.0397 5.67372L35.5608 13.882C35.3559 13.8337 35.1441 13.821 34.9348 13.8445L33.0225 14.0582L38.1578 4.64688ZM3.84672 10.2255H34.0852L32.4375 13.2452H1.90342V12.1697C1.90385 11.6544 2.1087 11.1602 2.47302 10.7958C2.83734 10.4313 3.33138 10.2262 3.84672 10.2255ZM41.6535 37.4092H3.84672C3.33138 37.4085 2.83734 37.2034 2.47302 36.839C2.1087 36.4745 1.90385 35.9803 1.90342 35.465V32.1921H37.1078C37.2276 32.1921 37.3424 32.1445 37.4271 32.0598C37.5118 31.9751 37.5593 31.8603 37.5593 31.7405C37.5593 31.6208 37.5118 31.5059 37.4271 31.4213C37.3424 31.3366 37.2276 31.289 37.1078 31.289H1.90342V14.1482H31.9448L31.8145 14.387L30.8027 16.2413C30.7461 16.345 30.7324 16.4668 30.7646 16.5805L31.7972 20.228C31.8545 20.4274 31.975 20.6027 32.1406 20.7276C32.3062 20.8526 32.508 20.9203 32.7154 20.9206C32.7985 20.9205 32.8813 20.9095 32.9616 20.8878L36.7582 19.8625C36.817 19.8466 36.8721 19.819 36.9199 19.7812C36.9678 19.7435 37.0076 19.6964 37.0368 19.6429L38.0486 17.7886L40.0349 14.1482H43.5978V31.289H39.1293C39.0096 31.289 38.8947 31.3366 38.81 31.4213C38.7254 31.5059 38.6778 31.6208 38.6778 31.7405C38.6778 31.8603 38.7254 31.9751 38.81 32.0598C38.8947 32.1445 39.0096 32.1921 39.1293 32.1921H43.5978V35.465C43.5973 35.9805 43.3923 36.4747 43.0278 36.8392C42.6633 37.2037 42.169 37.4087 41.6535 37.4092ZM43.5978 12.1697V13.2452H40.5277L42.1405 10.2895C42.5572 10.3974 42.9264 10.6405 43.1901 10.9808C43.4538 11.3211 43.5972 11.7392 43.5978 12.1697Z" stroke="#1E3147" stroke-width="0.2" mask="url(#path-13-outside-1_532_71552)"/>
<path d="M28.5301 23.7864L27.8333 24.5432C27.2685 24.0769 26.5486 23.8408 25.8173 23.8818C25.0861 23.9229 24.3972 24.2382 23.8881 24.7648C23.3791 25.2914 23.0873 25.9905 23.071 26.7228C23.0548 27.455 23.3152 28.1665 23.8003 28.7151C24.2855 29.2638 24.9597 29.6094 25.6884 29.6829C26.4172 29.7564 27.1468 29.5524 27.7318 29.1117C28.3167 28.6709 28.714 28.0258 28.8443 27.3051C28.9745 26.5844 28.8283 25.841 28.4346 25.2233L29.1945 24.398C29.2346 24.3544 29.2658 24.3033 29.2862 24.2476C29.3066 24.1919 29.3159 24.1328 29.3134 24.0735C29.311 24.0143 29.2969 23.9561 29.2719 23.9023C29.247 23.8485 29.2117 23.8001 29.1681 23.76C29.1245 23.7198 29.0734 23.6886 29.0177 23.6682C28.962 23.6478 28.9029 23.6386 28.8436 23.641C28.7844 23.6435 28.7262 23.6576 28.6724 23.6825C28.6186 23.7074 28.5702 23.7427 28.5301 23.7863V23.7864ZM27.9876 26.7821C27.9884 27.2352 27.8355 27.6752 27.5539 28.0302C27.2723 28.3852 26.8786 28.6342 26.4372 28.7365C25.9958 28.8389 25.5327 28.7885 25.1237 28.5936C24.7146 28.3988 24.3837 28.0709 24.185 27.6637C23.9863 27.2565 23.9316 26.7939 24.0298 26.3515C24.1279 25.9092 24.3732 25.5132 24.7256 25.2283C25.0779 24.9433 25.5164 24.7863 25.9695 24.7828C26.4227 24.7794 26.8636 24.9296 27.2202 25.2091L25.9862 26.5495L25.4295 25.9764C25.346 25.8905 25.2319 25.8412 25.1121 25.8395C24.9924 25.8377 24.8769 25.8836 24.791 25.9671C24.705 26.0505 24.6558 26.1647 24.6541 26.2844C24.6523 26.4041 24.6982 26.5197 24.7817 26.6056L25.6711 27.5212C25.7132 27.5646 25.7636 27.599 25.8192 27.6225C25.8748 27.646 25.9346 27.6581 25.995 27.6581C25.9971 27.6581 25.9991 27.6581 26.0011 27.6581C26.0625 27.6573 26.1231 27.644 26.1792 27.6189C26.2353 27.5939 26.2856 27.5577 26.3272 27.5125L27.7924 25.921C27.9212 26.1898 27.988 26.484 27.9876 26.7821Z" fill="#5AC169"/>
</svg>
