<svg width="52" height="45" viewBox="0 0 52 45" fill="none" xmlns="http://www.w3.org/2000/svg">
<path d="M26.1591 14.6912C27.2808 14.6912 28.355 15.0231 29.2753 15.6073V0.86419C29.2753 0.386293 28.889 0 28.4111 0H23.226C22.7481 0 22.3618 0.386293 22.3618 0.86419V15.5433C23.5155 15.0006 24.7997 14.6912 26.1591 14.6912Z" fill="#F8F9FC"/>
<path d="M32.283 17.8312H32.2994C33.8774 15.9904 36.1908 14.8074 38.7817 14.7097V5.18548C38.7817 4.70758 38.3954 4.32129 37.9175 4.32129H32.7324C32.2545 4.32129 31.8682 4.70758 31.8682 5.18548V17.6143C32.0082 17.6834 32.1508 17.7499 32.283 17.8312Z" fill="#F8F9FC"/>
<path d="M13.2008 14.6916C15.1479 14.6916 16.9653 15.6646 18.0455 17.2841C18.348 17.3593 18.6366 17.4648 18.9097 17.5953L19.5544 17.6065C19.6244 17.5304 19.7021 17.463 19.7739 17.3904V5.18548C19.7739 4.70758 19.3876 4.32129 18.9097 4.32129H13.7245C13.2466 4.32129 12.8604 4.70758 12.8604 5.18548V14.7089C12.9744 14.7045 13.0859 14.6916 13.2008 14.6916Z" fill="#F8F9FC"/>
<path d="M43.9729 17.2838C46.0047 17.792 47.4297 19.6171 47.4297 21.7111V22.469H48.2939V0.86419C48.2939 0.386293 47.9076 0 47.4297 0H42.2446C41.7667 0 41.3804 0.386293 41.3804 0.86419V15.1527C42.42 15.5891 43.3291 16.3185 43.9729 17.2838Z" fill="#F8F9FC"/>
<path d="M4.30412 22.469C4.76128 19.0727 7.11447 16.2813 10.267 15.1907V0.86419C10.267 0.386293 9.88074 0 9.40285 0H4.21771C3.73981 0 3.35352 0.386293 3.35352 0.86419V22.469H4.30412Z" fill="#F8F9FC"/>
<path d="M16.8016 24.2519C15.7363 23.8344 14.7234 23.2942 13.7833 22.6421L13.1126 22.1391C12.9512 22.017 12.7512 21.9574 12.5493 21.9713C12.3475 21.9852 12.1574 22.0716 12.0143 22.2145L11.2765 22.9523C10.7925 23.4401 10.2164 23.8269 9.5817 24.0903C8.94701 24.3537 8.26632 24.4884 7.57914 24.4866C6.98811 24.4891 6.40873 24.6513 5.90234 24.9561V23.9752C5.90457 21.8865 6.73586 19.8841 8.21359 18.4079C9.69132 16.9318 11.6946 16.1026 13.7833 16.1026C14.6318 16.1035 15.4649 16.3292 16.1979 16.7565C16.756 17.2183 17.2851 17.7139 17.7825 18.2405C17.9193 18.3931 18.0882 18.5133 18.2771 18.5926L18.4281 18.6513C18.5622 18.4501 18.7131 18.2405 18.8808 18.0309C19.0926 17.7667 19.3193 17.5147 19.5599 17.2764C19.3754 17.1925 19.1826 17.1171 18.9898 17.05C18.3886 16.2348 17.6041 15.5725 16.6997 15.1166C15.7952 14.6608 14.7962 14.4241 13.7833 14.4258C11.2491 14.428 8.81935 15.4357 7.0274 17.2276C5.23545 19.0196 4.22776 21.4494 4.22554 23.9836V27.8402C4.22693 28.618 4.49866 29.3712 4.9942 29.9708C5.48975 30.5703 6.17829 30.979 6.94196 31.1267C7.16081 32.0028 7.55432 32.8257 8.09889 33.546C8.64346 34.2664 9.32788 34.8693 10.1111 35.3187C10.0989 35.3389 10.0931 35.3623 10.0943 35.3858V35.5367L5.39092 36.4757C4.32914 36.6826 3.34519 37.1788 2.54773 37.9097C1.75026 38.6406 1.17032 39.5777 0.871937 40.6174L0.0335361 43.5351C-0.00290804 43.66 -0.00975978 43.7917 0.0135235 43.9198C0.0368068 44.0479 0.0895856 44.1687 0.16768 44.2729C0.249104 44.3817 0.355749 44.469 0.478433 44.5274C0.601116 44.5859 0.73616 44.6136 0.871937 44.6082H12.4838C12.5586 44.0444 12.6621 43.4847 12.794 42.9314H1.98701L2.54874 41.0786C2.75969 40.3389 3.17008 39.6716 3.73496 39.1496C4.29985 38.6276 4.99746 38.271 5.75143 38.119L11.1004 37.0626C11.2927 37.0234 11.465 36.9181 11.5876 36.7649C11.7102 36.6117 11.7751 36.4204 11.7712 36.2242V36.0062C12.319 36.1473 12.8822 36.2205 13.448 36.2242C14.014 36.2246 14.5776 36.1513 15.1248 36.0062V36.2242C15.1208 36.4204 15.1858 36.6117 15.3083 36.7649C15.4309 36.9181 15.6033 37.0234 15.7955 37.0626L16.2314 37.1465L16.6674 36.9369C17.29 36.6742 17.9394 36.4802 18.6041 36.3584C18.984 36.3167 19.3597 36.2438 19.7276 36.1404C19.7276 35.9979 16.7932 35.6876 16.8016 35.5535C16.8099 35.4194 16.8016 35.3858 16.8016 35.3858V35.3187C18.1655 34.5401 19.2106 33.305 19.7527 31.831C19.5012 31.5962 19.2245 31.3531 18.9143 31.11C18.6041 30.8668 18.5203 30.7914 18.3274 30.6488C17.489 32.988 15.4937 34.5474 13.448 34.5474C10.5806 34.5474 8.89543 31.4118 8.41755 29.517C8.13956 28.3994 8.13956 27.2307 8.41755 26.1131C9.03694 26.0392 9.64337 25.8812 10.2201 25.6436C11.0749 25.3235 11.844 24.8099 12.467 24.1429C12.467 24.1009 12.5844 23.9081 12.685 23.9165C12.7223 23.928 12.7548 23.9516 12.7772 23.9836C14.0711 24.7043 15.4162 25.3292 16.8016 25.8532V24.2519ZM6.74074 29.2823C6.49053 29.1338 6.28325 28.9228 6.13928 28.6699C5.99531 28.4171 5.9196 28.1312 5.9196 27.8402C5.9196 27.5493 5.99531 27.2633 6.13928 27.0105C6.28325 26.7576 6.49053 26.5466 6.74074 26.3982V29.2823Z" fill="#1E3147"/>
<path d="M35.2465 25.6772C35.6886 25.504 36.1126 25.2878 36.5124 25.0316C36.9087 24.7711 37.2793 24.4735 37.6191 24.1429L37.8371 23.9165L37.9293 23.9836C39.5833 25.2384 41.5613 25.9946 43.6305 26.1634V29.517C43.6091 30.737 43.1451 31.9076 42.3248 32.8109C41.5045 33.7142 40.3839 34.2885 39.1717 34.427C37.9594 34.5654 36.7381 34.2585 35.7353 33.5635C34.7325 32.8685 34.0165 31.8326 33.7206 30.6489C33.7189 30.2956 33.7413 29.9427 33.7876 29.5925C33.968 28.193 34.4671 26.8535 35.2465 25.6772ZM32.3121 31.831C32.8499 33.3023 33.8889 34.5371 35.2465 35.3188C35.2427 35.341 35.2427 35.3636 35.2465 35.3858V35.5368L32.3121 36.1236C32.9073 36.2494 33.3936 36.3668 33.9218 36.5093C34.5746 36.6446 35.2102 36.8527 35.8166 37.1297L36.2525 37.0459C36.4448 37.0067 36.6172 36.9013 36.7397 36.7481C36.8623 36.5949 36.9272 36.4036 36.9233 36.2075V35.9895C37.4696 36.1403 38.0333 36.2192 38.6001 36.2242C39.1658 36.2205 39.729 36.1473 40.2769 36.0063V36.2242C40.2729 36.4204 40.3379 36.6117 40.4604 36.7649C40.583 36.9181 40.7554 37.0235 40.9476 37.0626L46.3301 38.1358C47.076 38.292 47.7651 38.6485 48.3235 39.167C48.8819 39.6855 49.2884 40.3464 49.4993 41.0786L50.061 42.9315H38.9856L39.5139 44.6083C46.0618 44.6083 50.8491 44.6083 51.1761 44.6083C51.3479 44.5977 51.5147 44.5459 51.6624 44.4573C51.7305 44.4029 51.7924 44.341 51.8468 44.2729C51.9825 44.0525 52.0304 43.7892 51.9809 43.5351C51.6923 41.4633 50.8331 39.5125 49.4993 37.9011C48.693 37.185 47.7178 36.6858 46.6655 36.4506C44.8881 35.9392 41.9537 35.6122 41.9621 35.5116C41.9659 35.4695 41.9631 35.4271 41.9537 35.3858V35.3272C41.9537 35.3272 43.4041 34.1702 43.9575 33.5581C44.7959 32.594 44.2509 31.9819 45.1228 31.1268C45.8355 30.4225 46.3972 30.6824 47.0595 29.9865C47.5381 29.3718 47.8056 28.6191 47.8225 27.8402C48.1701 25.9332 48.1701 23.9791 47.8225 22.072C47.529 20.4623 47.3865 19.6574 46.7996 18.9532C46.2127 18.2489 45.6594 18.2657 44.1419 17.0584C42.9011 16.1026 42.9262 15.7505 42.0794 15.2642C41.1228 14.7145 40.0387 14.4254 38.9354 14.4258C35.1291 14.2917 32.0019 16.941 32.136 17.2848C32.136 17.3267 32.2115 17.2848 32.4714 17.4608L32.9492 17.7543C33.1632 17.8905 33.3652 18.0448 33.5529 18.2154C34.4947 17.3661 35.6148 16.7386 36.831 16.3793C37.511 16.1652 38.2232 16.0716 38.9354 16.1026C39.7896 16.0556 40.6363 16.2849 41.35 16.7566C41.8531 17.1422 42.004 17.5447 42.9346 18.2405C43.161 18.4166 43.3203 18.5172 43.4293 18.5927C44.6678 19.4489 45.6156 20.6627 46.1457 22.072C46.59 23.4135 46.4978 24.8388 46.1457 24.9561C45.9948 25.0064 45.8606 24.7801 45.3073 24.6124C45.0369 24.5233 44.7534 24.4808 44.4689 24.4866C43.1023 24.4866 39.7319 23.4973 38.9354 22.6422C38.74 22.4399 38.5136 22.2701 38.2647 22.1391C38.0976 22.0301 37.9025 21.9718 37.703 21.9714C37.5049 22.0008 37.3191 22.0851 37.1664 22.2146C36.8925 22.4308 36.6449 22.6785 36.4286 22.9524C36.1052 23.3201 35.7004 23.6072 35.2465 23.7908L32.3121 31.831ZM45.3073 26.3982C45.5575 26.5467 45.7648 26.7577 45.9087 27.0105C46.0527 27.2633 46.1284 27.5493 46.1284 27.8402C46.1284 28.1312 46.0527 28.4171 45.9087 28.67C45.7648 28.9228 45.5575 29.1338 45.3073 29.2823V26.3982Z" fill="#1E3147"/>
<path d="M12.4837 44.6088H13.4478H39.5137L38.407 40.1317C38.2159 39.6401 37.9623 39.1752 37.6525 38.7484C37.1637 38.0856 36.5373 37.5365 35.8164 37.1386C35.2107 36.8579 34.575 36.6469 33.9216 36.5098C32.8904 36.2332 31.9849 36.0487 30.2159 35.6714L29.3775 35.5037V35.2941C29.7178 35.0929 30.0404 34.8629 30.3416 34.6067C31.235 33.8284 31.9207 32.8402 32.337 31.7309L33.7204 30.6159C34.0555 30.3746 34.3596 30.093 34.6259 29.7775C34.9769 29.3114 35.1916 28.757 35.2463 28.1761V21.9133C35.2345 21.215 35.0774 20.5269 34.7852 19.8927C34.3722 19.0375 33.7383 18.3081 32.9491 17.7799C32.7227 17.6206 32.4712 17.4781 32.4712 17.4781C32.3119 17.3859 32.1777 17.3272 32.1358 17.3021L31.8927 17.1679C31.7837 17.126 31.6915 17.0841 31.5992 17.0589C31.0316 16.3164 30.3111 15.7045 29.4865 15.2647C28.5241 14.7366 27.4484 14.4489 26.3508 14.4263C25.5199 14.4054 24.6908 14.5157 23.8943 14.7533C22.2564 15.203 20.763 16.0696 19.5598 17.2685C19.0617 17.7761 18.6229 18.3386 18.2519 18.9453C17.2559 20.5327 16.7513 22.3791 16.8014 24.2524V28.0587C16.8373 28.6614 17.0405 29.2421 17.3883 29.7355C17.6455 30.0567 17.9476 30.3391 18.2854 30.5739C18.6124 30.8171 19.0567 31.186 19.6939 31.7561C20.2418 33.2558 21.2939 34.5184 22.6703 35.3277V35.5373L18.604 36.3757C17.9322 36.466 17.2786 36.6612 16.6673 36.9542C15.8531 37.3248 15.1314 37.8718 14.5545 38.5555C14.0892 39.1605 13.7319 39.8412 13.4981 40.5677C13.0062 41.8714 12.6658 43.2273 12.4837 44.6088ZM10.0942 35.3277C10.0942 35.3277 10.0942 35.3277 10.0942 35.3864V35.3277ZM19.3167 29.2828C19.0632 29.1365 18.8525 28.9264 18.7054 28.6734C18.5583 28.4204 18.48 28.1334 18.4782 27.8408C18.48 27.5481 18.5583 27.2611 18.7054 27.0081C18.8525 26.7551 19.0632 26.545 19.3167 26.3987V29.2828ZM20.9935 29.5176V26.1136C22.5264 25.9308 23.953 25.2367 25.0429 24.1434L25.2609 23.917L25.3531 23.9841C27.0071 25.2389 28.9851 25.9951 31.0543 26.164V29.5176C31.0543 30.8517 30.5243 32.1312 29.5809 33.0746C28.6375 34.018 27.358 34.548 26.0239 34.548C24.6897 34.548 23.4102 34.018 22.4668 33.0746C21.5234 32.1312 20.9935 30.8517 20.9935 29.5176ZM33.5695 27.8408C33.5677 28.1334 33.4894 28.4204 33.3423 28.6734C33.1952 28.9264 32.9845 29.1365 32.7311 29.2828V26.3987C32.9845 26.545 33.1952 26.7551 33.3423 27.0081C33.4894 27.2611 33.5677 27.5481 33.5695 27.8408ZM26.3592 16.1031C27.1511 16.1036 27.9305 16.2998 28.6283 16.6742C29.326 17.0487 29.9203 17.5898 30.3584 18.2494C30.475 18.4214 30.6513 18.5438 30.853 18.5932C31.6302 18.7879 32.3198 19.237 32.8121 19.8691C33.3044 20.5011 33.571 21.2798 33.5695 22.0809V24.9567C33.0631 24.6519 32.4837 24.4896 31.8927 24.4872C29.8979 24.4829 27.9576 23.8362 26.3592 22.6427L25.6885 22.1396C25.5262 22.0186 25.3255 21.9605 25.1236 21.9759C24.9218 21.9913 24.7323 22.0792 24.5902 22.2235L23.8524 22.9529C23.3689 23.4414 22.793 23.8287 22.1582 24.0922C21.5233 24.3556 20.8424 24.4899 20.1551 24.4872C19.564 24.4896 18.9846 24.6519 18.4782 24.9567V23.9841C18.4805 21.8946 19.3115 19.8914 20.789 18.4139C22.2665 16.9364 24.2697 16.1054 26.3592 16.1031ZM16.8014 23.9841V24.2524V23.9841ZM33.385 42.932L32.7311 40.2156C32.6709 40.0073 32.5324 39.8305 32.3447 39.7222C32.157 39.6138 31.9346 39.5824 31.7243 39.6344C31.5139 39.6865 31.3318 39.818 31.2163 40.0014C31.1007 40.1847 31.0607 40.4057 31.1046 40.618L31.6579 42.932H20.3898L20.9935 40.6264C21.0246 40.5156 21.0326 40.3996 21.017 40.2857C21.0014 40.1717 20.9625 40.0621 20.9027 39.9638C20.843 39.8655 20.7636 39.7806 20.6696 39.7142C20.5756 39.6479 20.4689 39.6017 20.3563 39.5784C20.1406 39.5252 19.9126 39.5598 19.7224 39.6745C19.5322 39.7893 19.3953 39.9748 19.3418 40.1904L18.6627 42.932H14.5629L15.1246 41.0791C15.3369 40.341 15.7479 39.6754 16.3127 39.155C16.8775 38.6345 17.5744 38.2793 18.3273 38.1279L23.6763 37.0632C23.8686 37.024 24.041 36.9186 24.1635 36.7654C24.2861 36.6122 24.351 36.4209 24.3471 36.2248V36.0068C25.446 36.2975 26.6017 36.2975 27.7007 36.0068V36.2248C27.6967 36.4209 27.7617 36.6122 27.8842 36.7654C28.0068 36.9186 28.1792 37.024 28.3714 37.0632L33.7539 38.1447C34.4987 38.3002 35.1872 38.6554 35.7455 39.1723C36.3038 39.6893 36.7109 40.3484 36.9231 41.0791L37.4848 42.932H33.385Z" fill="#5AC169"/>
</svg>
