<svg width="170" height="174" viewBox="0 0 170 174" fill="none" xmlns="http://www.w3.org/2000/svg">
<g filter="url(#filter0_f_701_116341)">
<ellipse cx="96" cy="160.676" rx="66" ry="5" fill="#D4D4D4"/>
</g>
<path d="M55.4685 1C60.476 1 65.2785 2.98925 68.8194 6.53014C72.3603 10.071 74.3495 14.8735 74.3495 19.8811V120.779H36.5874V19.8811C36.5874 14.8735 38.5767 10.071 42.1175 6.53014C45.6584 2.98925 50.4609 1 55.4685 1V1Z" fill="#4ADA85" stroke="#3FBE71" stroke-miterlimit="10"/>
<path d="M101.913 20.1113C98.9728 20.1113 96.1529 21.2794 94.0737 23.3585C91.9946 25.4377 90.8265 28.2577 90.8265 31.198V47.7515H74.3496V71.0428H97.2274C101.411 71.0428 105.422 69.381 108.38 66.4231C111.338 63.4652 113 59.4534 113 55.2702V31.198C113 28.2577 111.832 25.4377 109.753 23.3585C107.674 21.2794 104.854 20.1113 101.913 20.1113V20.1113Z" fill="#4ADA85" stroke="#3FBE71" stroke-miterlimit="10"/>
<path d="M23.1734 33.7859C23.1734 30.8455 22.0053 28.0256 19.9262 25.9464C17.847 23.8673 15.0271 22.6992 12.0867 22.6992C9.14632 22.6992 6.32637 23.8673 4.24721 25.9464C2.16806 28.0256 1 30.8455 1 33.7859V71.6553C0.999999 73.7258 1.40807 75.7761 2.20091 77.6888C2.99374 79.6016 4.15577 81.3393 5.62058 82.8027C7.0854 84.2661 8.82427 85.4264 10.7378 86.2174C12.6513 87.0084 14.702 87.4145 16.7725 87.4125H36.6796V63.524H23.1734V33.7859Z" fill="#4ADA85" stroke="#3FBE71" stroke-miterlimit="10"/>
<path d="M20.647 114.377H91.8836L84.227 162.92H28.3035L20.647 114.377Z" fill="#33A1FB"/>
<path d="M63.6611 2.99219V114.38" stroke="#3FBE71" stroke-miterlimit="10"/>
<path d="M47.0771 2.99219V114.38" stroke="#3FBE71" stroke-miterlimit="10"/>
<path d="M81.8992 114.377H91.8834L84.2268 162.92H74.2427L81.8992 114.377Z" fill="#2386D8"/>
<defs>
<filter id="filter0_f_701_116341" x="22" y="147.676" width="148" height="26" filterUnits="userSpaceOnUse" color-interpolation-filters="sRGB">
<feFlood flood-opacity="0" result="BackgroundImageFix"/>
<feBlend mode="normal" in="SourceGraphic" in2="BackgroundImageFix" result="shape"/>
<feGaussianBlur stdDeviation="4" result="effect1_foregroundBlur_701_116341"/>
</filter>
</defs>
</svg>
