<svg width="25" height="24" viewBox="0 0 25 24" fill="none" xmlns="http://www.w3.org/2000/svg">
<path d="M12.4433 22.742C15.3713 22.742 18.0222 21.5552 19.941 19.6364C21.8599 17.7175 23.0467 15.0666 23.0467 12.1386C23.0467 9.21057 21.8599 6.5597 19.941 4.64083C18.0222 2.72199 15.3713 1.53516 12.4433 1.53516C9.51525 1.53516 6.86439 2.72199 4.94552 4.64083C3.02668 6.5597 1.83984 9.21057 1.83984 12.1386C1.83984 15.0666 3.02668 17.7175 4.94552 19.6364C6.86439 21.5552 9.51525 22.742 12.4433 22.742Z" fill="#EBEFF2" stroke="#EBEFF2" stroke-width="2" stroke-linejoin="round"/>
<mask id="path-2-outside-1_701_116457" maskUnits="userSpaceOnUse" x="6.73438" y="6.42578" width="12" height="12" fill="black">
<rect fill="white" x="6.73438" y="6.42578" width="12" height="12"/>
<path fill-rule="evenodd" clip-rule="evenodd" d="M8.18318 7.42578L7.73438 7.87459L11.9985 12.1387L7.73518 16.402L8.18399 16.8508L12.4473 12.5875L16.7105 16.8508L17.1594 16.402L12.8961 12.1387L17.1602 7.87459L16.7113 7.42578L12.4473 11.6899L8.18318 7.42578Z"/>
</mask>
<path fill-rule="evenodd" clip-rule="evenodd" d="M8.18318 7.42578L7.73438 7.87459L11.9985 12.1387L7.73518 16.402L8.18399 16.8508L12.4473 12.5875L16.7105 16.8508L17.1594 16.402L12.8961 12.1387L17.1602 7.87459L16.7113 7.42578L12.4473 11.6899L8.18318 7.42578Z" fill="#92A0B0"/>
<path d="M7.73438 7.87459L7.38082 7.52104L7.02727 7.87459L7.38082 8.22814L7.73438 7.87459ZM8.18318 7.42578L8.53674 7.07223L8.18318 6.71867L7.82963 7.07223L8.18318 7.42578ZM11.9985 12.1387L12.352 12.4922L12.7056 12.1387L12.352 11.7851L11.9985 12.1387ZM7.73518 16.402L7.38163 16.0484L7.02807 16.402L7.38163 16.7555L7.73518 16.402ZM8.18399 16.8508L7.83043 17.2043L8.18399 17.5579L8.53754 17.2043L8.18399 16.8508ZM12.4473 12.5875L12.8008 12.2339L12.4473 11.8804L12.0937 12.2339L12.4473 12.5875ZM16.7105 16.8508L16.357 17.2043L16.7105 17.5579L17.0641 17.2043L16.7105 16.8508ZM17.1594 16.402L17.5129 16.7555L17.8665 16.402L17.5129 16.0484L17.1594 16.402ZM12.8961 12.1387L12.5425 11.7851L12.189 12.1387L12.5425 12.4922L12.8961 12.1387ZM17.1602 7.87459L17.5137 8.22814L17.8673 7.87459L17.5137 7.52104L17.1602 7.87459ZM16.7113 7.42578L17.0649 7.07223L16.7113 6.71867L16.3578 7.07223L16.7113 7.42578ZM12.4473 11.6899L12.0937 12.0434L12.4473 12.397L12.8008 12.0434L12.4473 11.6899ZM8.08793 8.22814L8.53674 7.77933L7.82963 7.07223L7.38082 7.52104L8.08793 8.22814ZM12.352 11.7851L8.08793 7.52104L7.38082 8.22814L11.6449 12.4922L12.352 11.7851ZM11.6449 11.7851L7.38163 16.0484L8.08873 16.7555L12.352 12.4922L11.6449 11.7851ZM7.38163 16.7555L7.83043 17.2043L8.53754 16.4972L8.08873 16.0484L7.38163 16.7555ZM8.53754 17.2043L12.8008 12.941L12.0937 12.2339L7.83043 16.4972L8.53754 17.2043ZM17.0641 16.4972L12.8008 12.2339L12.0937 12.941L16.357 17.2043L17.0641 16.4972ZM16.8058 16.0484L16.357 16.4972L17.0641 17.2043L17.5129 16.7555L16.8058 16.0484ZM12.5425 12.4922L16.8058 16.7555L17.5129 16.0484L13.2496 11.7851L12.5425 12.4922ZM13.2496 12.4922L17.5137 8.22814L16.8066 7.52104L12.5425 11.7851L13.2496 12.4922ZM17.5137 7.52104L17.0649 7.07223L16.3578 7.77933L16.8066 8.22814L17.5137 7.52104ZM16.3578 7.07223L12.0937 11.3363L12.8008 12.0434L17.0649 7.77933L16.3578 7.07223ZM7.82963 7.77933L12.0937 12.0434L12.8008 11.3363L8.53674 7.07223L7.82963 7.77933Z" fill="#92A0B0" mask="url(#path-2-outside-1_701_116457)"/>
</svg>
