<svg width="139" height="139" viewBox="0 0 139 139" fill="none" xmlns="http://www.w3.org/2000/svg">
<path d="M43.2651 112.651C67.0966 127.141 98.1615 119.567 112.651 95.7356C127.14 71.9041 119.566 40.8391 95.7347 26.35C71.9032 11.861 40.8383 19.4345 26.3492 43.266C11.8601 67.0974 19.4336 98.1624 43.2651 112.651Z" fill="#4ADA85"/>
<path d="M54.837 93.7291C51.3732 91.691 48.3314 89.0087 45.8759 85.8271C43.621 82.8706 42.0022 79.4793 41.1215 75.8668C40.2408 72.2542 40.1171 68.4985 40.7583 64.8358C41.4611 60.8766 42.918 57.0892 45.0498 53.6797C47.0957 50.2281 49.7826 47.1996 52.9658 44.7571C55.9206 42.4934 59.3132 40.8678 62.9288 39.9832C66.5444 39.0985 70.3042 38.974 73.9704 39.6176C77.9352 40.3052 81.7307 41.7492 85.1498 43.8709C88.6014 45.9168 91.6299 48.6037 94.0724 51.7869C96.3391 54.7441 97.9655 58.1407 98.848 61.7607C99.7305 65.3807 99.8499 69.1447 99.1986 72.8133C98.4952 76.7635 97.043 80.5428 94.9204 83.9476C93.319 86.6891 91.2614 89.137 88.8363 91.186C86.9221 92.8566 84.626 94.03 82.1508 94.6025C80.0275 95.0603 77.8095 94.6772 75.9629 93.5336C74.4153 92.6733 73.2695 91.2374 72.7741 89.5376C72.548 88.7162 72.5001 87.856 72.6335 87.0146C72.767 86.1733 73.0789 85.3702 73.5481 84.6591L74.6938 82.7747C73.3824 83.4576 71.9503 83.8778 70.4778 84.0119C68.9276 84.1653 67.3631 84.0889 65.8352 83.7852C64.3361 83.493 62.9002 82.9391 61.5933 82.1488C59.159 80.7325 57.1449 78.6947 55.7571 76.244C54.4654 73.9242 53.8517 71.288 53.9861 68.6362C54.1487 65.7951 55.0342 63.0425 56.5587 60.6395C57.9882 58.1796 60.0409 56.1402 62.5101 54.7268C64.8402 53.4207 67.4801 52.7691 70.1503 52.8409C73.0007 52.9432 75.7718 53.8066 78.176 55.3413C80.6396 56.7711 82.6764 58.8333 84.0754 61.3145C85.3702 63.6513 86.0068 66.2955 85.9174 68.9655C85.799 71.808 84.9332 74.5691 83.4072 76.9703L78.2665 85.4256C77.7016 86.1993 77.3964 87.1321 77.3947 88.09C77.4245 88.4502 77.5434 88.7972 77.7407 89.0999C77.9379 89.4027 78.2074 89.6516 78.5247 89.8244C79.0862 90.1435 79.7127 90.3311 80.3572 90.373C81.0016 90.4149 81.6472 90.3102 82.2452 90.0665C83.9208 89.4404 85.4401 88.4572 86.6978 87.1852C88.3909 85.5261 89.8578 83.6511 91.0608 81.6086C92.8585 78.7288 94.0847 75.5297 94.6723 72.1861C95.2137 69.0828 95.108 65.901 94.3619 62.8405C93.6157 59.7799 92.2452 56.9065 90.3363 54.4006C88.2851 51.7049 85.7352 49.4282 82.8252 47.6944C79.933 45.8844 76.719 44.6491 73.359 44.0563C70.2552 43.517 67.0738 43.6197 64.0113 44.3579C60.951 45.1021 58.0788 46.4741 55.5768 48.3869C50.2085 52.6391 46.5401 58.6729 45.2357 65.3959C44.6776 68.4928 44.7743 71.6722 45.5197 74.7294C46.265 77.7866 47.6424 80.6538 49.5631 83.1463C51.6509 85.8413 54.2295 88.1172 57.163 89.8541C58.7146 90.7793 60.3533 91.5501 62.0555 92.1554C63.6134 92.7455 65.237 93.1448 66.8909 93.3446C67.9821 93.4694 68.7178 93.8344 69.0837 94.4384C69.4497 95.0424 69.3862 95.7744 68.8648 96.6319C68.4464 97.3202 67.5596 97.6713 66.1945 97.7017C64.4844 97.6603 62.7927 97.337 61.1878 96.7449C58.9664 95.9762 56.8366 94.9648 54.837 93.7291ZM64.162 78.3915C65.8735 79.477 67.8368 80.1011 69.8609 80.203C71.7595 80.2851 73.6432 79.8339 75.2986 78.9006C77.0742 77.8783 78.5495 76.4067 79.5761 74.6336C80.664 72.9197 81.2812 70.9495 81.3658 68.9213C81.4315 67.0157 80.9715 65.1287 80.0361 63.4671C79.0275 61.7054 77.5728 60.2403 75.8182 59.2194C74.0907 58.1178 72.1037 57.4902 70.0568 57.3999C68.1573 57.3307 66.2767 57.7973 64.6299 58.7462C62.8779 59.7659 61.4216 61.2241 60.4041 62.9774C59.3021 64.7012 58.6675 66.6822 58.5626 68.7255C58.4754 70.6193 58.932 72.4985 59.8783 74.1413C60.916 75.9035 62.3916 77.3676 64.162 78.3915Z" fill="white"/>
</svg>
