<svg width="168" height="139" viewBox="0 0 168 139" fill="none" xmlns="http://www.w3.org/2000/svg">
<path d="M168 110.82H31.4948L0 139V0H168V110.82Z" fill="#4ADA85"/>
<path d="M123.561 65.7219C125.222 65.6215 126.782 64.8893 127.923 63.675C129.064 62.4606 129.699 60.8556 129.699 59.1877C129.699 57.5198 129.064 55.9149 127.923 54.7005C126.782 53.4861 125.222 52.754 123.561 52.6535H118.938C120.599 52.5531 122.16 51.8209 123.3 50.6066C124.441 49.3922 125.076 47.7872 125.076 46.1193C125.076 44.4515 124.441 42.8465 123.3 41.6321C122.16 40.4177 120.599 39.6856 118.938 39.5852H99.38L80.5566 42.0325C83.0775 34.6007 84.3395 26.7984 84.2904 18.949V18.3193C84.2904 16.5864 83.6036 14.9244 82.3809 13.699C81.1583 12.4736 79.5 11.7852 77.771 11.7852C76.0419 11.7852 74.3837 12.4736 73.161 13.699C71.9384 14.9244 71.2515 16.5864 71.2515 18.3193L68.8808 28.0493L58.5327 44.8481V91.8943H116.615C118.276 91.7939 119.836 91.0617 120.977 89.8473C122.118 88.633 122.753 87.028 122.753 85.3601C122.753 83.6922 122.118 82.0872 120.977 80.8729C119.836 79.6585 118.276 78.9264 116.615 78.8259H123.549C125.21 78.7255 126.771 77.9933 127.911 76.779C129.052 75.5646 129.687 73.9596 129.687 72.2917C129.687 70.6239 129.052 69.0189 127.911 67.8045C126.771 66.5901 125.21 65.858 123.549 65.7575L123.561 65.7219Z" fill="white"/>
<path d="M51.8471 44.8477H36.5205V91.8819H51.8471V44.8477Z" fill="white"/>
</svg>
