<svg width="179" height="51" viewBox="0 0 179 51" fill="none" xmlns="http://www.w3.org/2000/svg">
<path d="M42.1318 14.7054H44.9655C48.9479 14.7054 52.1645 11.5188 52.1645 7.57342C52.1645 3.62805 48.9479 0.441406 44.9655 0.441406H42.5913C29.5718 0.517279 19.1562 10.8359 19.1562 23.6584V43.6129C19.1562 47.4065 22.2197 50.4414 26.0489 50.4414C29.8782 50.4414 32.9416 47.4065 32.9416 43.6129V23.8101C32.9416 18.8026 37.0772 14.7054 42.1318 14.7054Z" fill="white"></path>
<path d="M7.12376 14.5537H12.0252C16.0076 14.5537 19.1476 11.3671 19.1476 7.49755C19.1476 3.55218 15.9311 0.441406 12.0252 0.441406H7.12376C3.14133 0.441406 0.00133979 3.62805 0.00133979 7.49755C-0.0752454 11.4429 3.14133 14.5537 7.12376 14.5537Z" fill="white"></path>
<path d="M104.574 29.6387C101.303 29.6387 98.6456 30.6608 96.6014 32.7049C94.5572 34.7491 93.5352 37.3043 93.5352 40.1662C93.5352 43.1303 94.5572 45.6855 96.6014 47.7297C98.6456 49.7738 101.303 50.7959 104.574 50.7959C107.742 50.7959 110.4 49.7738 112.444 47.7297C114.488 45.6855 115.51 43.1303 115.51 40.1662C115.51 37.2021 114.488 34.7491 112.444 32.7049C110.4 30.6608 107.742 29.6387 104.574 29.6387ZM109.275 44.97C107.947 46.2987 106.413 46.912 104.574 46.912C102.734 46.912 101.099 46.2987 99.7699 44.97C98.5434 43.7435 97.9301 42.1082 97.9301 40.1662C97.9301 38.2242 98.5434 36.6911 99.7699 35.3624C101.099 34.0337 102.632 33.4204 104.574 33.4204C106.413 33.4204 108.049 34.0337 109.275 35.3624C110.502 36.5889 111.115 38.2242 111.115 40.1662C111.217 42.1082 110.604 43.7435 109.275 44.97Z" fill="white"></path>
<path d="M130.126 29.6387C126.856 29.6387 124.301 30.6608 122.154 32.7049C120.11 34.7491 119.088 37.3043 119.088 40.1662C119.088 43.1303 120.11 45.6855 122.154 47.7297C124.198 49.7738 126.856 50.7959 130.126 50.7959C133.295 50.7959 135.952 49.7738 137.997 47.7297C140.041 45.6855 141.063 43.1303 141.063 40.1662C141.063 37.2021 140.041 34.7491 137.997 32.7049C135.952 30.6608 133.295 29.6387 130.126 29.6387ZM134.828 44.97C133.499 46.2987 131.966 46.912 130.126 46.912C128.287 46.912 126.651 46.2987 125.323 44.97C124.096 43.7435 123.483 42.1082 123.483 40.1662C123.483 38.2242 124.096 36.6911 125.323 35.3624C126.651 34.0337 128.184 33.4204 130.126 33.4204C131.966 33.4204 133.602 34.0337 134.828 35.3624C136.055 36.5889 136.668 38.2242 136.668 40.1662C136.77 42.1082 136.157 43.7435 134.828 44.97Z" fill="white"></path>
<path d="M176.12 31.6829C174.894 30.2519 173.156 29.6387 170.908 29.6387C169.374 29.6387 167.944 29.9453 166.615 30.6608C165.286 31.274 164.264 32.1939 163.549 33.3182C163.14 32.1939 162.322 31.3762 161.198 30.6608C160.073 30.0475 158.745 29.6387 157.212 29.6387C154.35 29.6387 152.101 30.6608 150.568 32.8071V32.3983C150.568 31.1718 149.546 30.1497 148.319 30.1497C147.093 30.1497 146.071 31.1718 146.071 32.3983V48.1385C146.071 49.365 147.093 50.3871 148.319 50.3871C149.546 50.3871 150.568 49.365 150.568 48.1385V37.0999C151.079 36.18 151.795 35.3624 152.714 34.7491C153.634 34.1359 154.656 33.8292 155.678 33.8292C158.438 33.8292 159.869 35.4646 159.869 38.8375V48.1385C159.869 49.365 160.891 50.3871 162.118 50.3871C163.344 50.3871 164.366 49.365 164.366 48.1385V37.2021C164.775 36.2823 165.491 35.4646 166.513 34.8513C167.432 34.2381 168.455 33.9314 169.579 33.9314C172.339 33.9314 173.667 35.5668 173.667 38.9397V48.2407C173.667 49.4672 174.689 50.4893 175.916 50.4893C177.142 50.4893 178.164 49.4672 178.164 48.2407V37.8154C177.96 35.0557 177.347 33.1138 176.12 31.6829Z" fill="white"></path>
<path d="M56.638 31.274C55.207 30.1497 53.4695 29.6387 51.3231 29.6387C48.2568 29.6387 45.8038 30.6608 43.8618 32.7049C41.9199 34.7491 41 37.2021 41 40.2684C41 43.4369 42.0221 45.9921 44.1685 47.9341C45.395 49.0584 46.8259 49.876 48.4613 50.3871C49.5856 50.6937 50.8121 50.8981 52.1408 50.8981C54.696 50.8981 56.9446 50.3871 58.6821 49.4672C59.1932 49.1606 59.4998 48.6495 59.602 48.0363V47.9341C59.602 46.7076 58.3755 45.8899 57.2512 46.2987C55.9225 46.8098 54.5938 47.0142 53.1629 47.0142C51.1187 47.0142 49.3811 46.5031 48.0524 45.5833C46.7237 44.6634 45.906 43.3347 45.5994 41.5971H59.4998C60.3175 41.5971 60.9307 40.9839 61.033 40.1662C60.8285 36.18 59.3976 33.216 56.638 31.274ZM45.4972 38.122C45.5994 36.7933 46.2127 35.5668 47.2347 34.6469C48.2568 33.727 49.5855 33.3182 51.1187 33.3182C52.754 33.3182 54.0827 33.8292 55.0026 34.7491C55.9225 35.669 56.4335 36.7933 56.4335 38.122H45.4972Z" fill="white"></path>
<path d="M82.1904 37.6119C85.8699 36.2832 88.3229 32.6036 87.9141 28.3108C87.4031 23.8137 83.3147 20.543 78.8175 20.543H69.3121C68.1878 20.543 67.2679 21.4628 67.2679 22.5871C67.2679 23.7114 68.1878 24.6313 69.3121 24.6313H78.4087C80.9639 24.6313 83.2125 26.5733 83.3147 29.1285C83.4169 31.786 81.3727 33.9323 78.7153 33.9323H71.5607H68.801C67.8812 33.9323 67.0635 34.6478 67.0635 35.6699V38.0207V48.0372C67.0635 49.2637 67.9834 50.1836 69.2099 50.1836C70.4364 50.1836 71.3563 49.2637 71.3563 48.0372V38.1229H77.6932L82.7014 48.9571C83.1103 49.7747 83.928 50.2858 84.7456 50.2858C86.4832 50.2858 87.6075 48.446 86.7898 47.0151C85.3589 43.8466 83.6213 40.4737 82.1904 37.6119C82.2926 37.6119 82.1904 37.6119 82.1904 37.6119Z" fill="white"></path>
</svg>
