<svg width="20" height="17" viewBox="0 0 20 17" fill="none" xmlns="http://www.w3.org/2000/svg">
<path d="M17 0.642578H3C2.20435 0.642578 1.44129 0.958649 0.87868 1.52126C0.316071 2.08387 0 2.84693 0 3.64258V13.6426C0 14.4382 0.316071 15.2013 0.87868 15.7639C1.44129 16.3265 2.20435 16.6426 3 16.6426H17C17.7956 16.6426 18.5587 16.3265 19.1213 15.7639C19.6839 15.2013 20 14.4382 20 13.6426V3.64258C20 2.84693 19.6839 2.08387 19.1213 1.52126C18.5587 0.958649 17.7956 0.642578 17 0.642578V0.642578ZM16.59 2.64258L10.71 8.52258C10.617 8.61631 10.5064 8.6907 10.3846 8.74147C10.2627 8.79224 10.132 8.81838 10 8.81838C9.86799 8.81838 9.73728 8.79224 9.61542 8.74147C9.49356 8.6907 9.38296 8.61631 9.29 8.52258L3.41 2.64258H16.59ZM18 13.6426C18 13.9078 17.8946 14.1621 17.7071 14.3497C17.5196 14.5372 17.2652 14.6426 17 14.6426H3C2.73478 14.6426 2.48043 14.5372 2.29289 14.3497C2.10536 14.1621 2 13.9078 2 13.6426V4.05258L7.88 9.93258C8.4425 10.4944 9.205 10.8099 10 10.8099C10.795 10.8099 11.5575 10.4944 12.12 9.93258L18 4.05258V13.6426Z" fill="white"></path>
</svg>
