<svg width="33" height="31" viewBox="0 0 33 31" fill="none" xmlns="http://www.w3.org/2000/svg">
<path d="M15.3647 0.640931C23.7163 0.693516 30.5153 7.42438 30.5421 15.6276C30.5421 18.2569 29.8461 20.7547 28.6148 22.8843C28.9628 23.6468 29.4178 24.383 30.0067 25.0666C30.3815 25.461 30.8097 25.8554 31.3183 26.1972C31.8002 26.539 32.3355 26.8019 32.8976 27.0386C33.085 27.1174 32.9779 27.2226 32.8709 27.2752C32.6835 27.3541 32.4961 27.4592 32.282 27.5381C31.8805 27.6959 31.4789 27.8273 31.0774 27.9325C30.3815 28.1428 29.6052 28.2217 28.8557 28.248C28.0794 28.2743 27.2764 28.1954 26.5001 28.0903C25.8042 27.9588 25.135 27.8273 24.4658 27.617C21.9228 29.51 18.7107 30.6406 15.2577 30.6406C6.82579 30.6406 0 23.936 0 15.6539C0 7.31921 6.90609 0.588346 15.3647 0.640931ZM15.338 24.3041C16.1945 24.3041 16.9173 23.5942 16.9173 22.7529C16.9173 21.8852 16.1945 21.2016 15.338 21.2016C14.4546 21.1753 13.7587 21.8589 13.7319 22.7266C13.7319 23.5942 14.4011 24.3041 15.338 24.3041ZM12.5541 15.8643C13.0895 16.3375 13.7051 16.7845 13.7586 17.5733C13.8122 18.1517 13.839 18.7301 13.839 19.3086C13.8122 19.6241 13.946 19.7293 14.2672 19.703C14.642 19.6767 15.0167 19.703 15.3647 19.703C15.7662 19.703 16.1945 19.703 16.596 19.703C16.8102 19.703 16.9173 19.6241 16.9173 19.3875C16.944 18.2569 16.9708 16.7582 16.4622 15.7328C15.8465 14.3919 14.3475 13.9712 13.491 12.8143C11.3496 9.94846 16.7299 8.02911 17.8274 11.5786C17.988 12.1044 18.0147 12.1044 18.5769 12.0256C19.2728 11.9467 19.9688 11.8415 20.6647 11.7626C20.9324 11.7363 21.0395 11.6312 21.0127 11.3683C20.5844 6.89854 14.1602 5.6102 11.0551 8.29204C10.1182 9.08081 9.50257 10.264 9.50257 11.4734C9.52934 13.4191 11.2692 14.7074 12.5541 15.8643Z" fill="#33A1FB"/>
<path d="M4 16.1406C4 21.9396 8.70101 26.6406 14.5 26.6406C20.299 26.6406 25 21.9396 25 16.1406C25 10.3416 20.299 5.64062 14.5 5.64062C8.70101 5.64062 4 10.3416 4 16.1406Z" fill="#33A1FB"/>
<path fill-rule="evenodd" clip-rule="evenodd" d="M13.4805 22.7505C13.4805 23.5574 14.1602 24.2383 14.9687 24.2383C15.8506 24.2383 16.4805 23.5574 16.4805 22.7254C16.457 21.8932 15.8008 21.2377 14.9687 21.2629C14.1602 21.2629 13.4805 21.9185 13.4805 22.7505ZM17.4326 16.2859L17.5908 16.1444L18.001 15.7727C19.1436 14.7552 20.4414 13.594 20.4648 11.9336C20.4648 10.7737 19.8848 9.6391 19.0029 8.8826C16.0762 6.31079 10.0264 7.5463 9.62206 11.8327C9.59863 12.0848 9.69823 12.1857 9.95019 12.2109C10.2812 12.249 10.6123 12.2934 10.9404 12.3378C11.2656 12.3817 11.5908 12.4255 11.916 12.463C12.4463 12.5388 12.4727 12.5388 12.6221 12.0344C13.6562 8.63046 18.7246 10.4711 16.709 13.2195C16.3574 13.7018 15.8916 14.0507 15.4287 14.3966C14.8281 14.8464 14.2363 15.2914 13.9082 16.0183C13.4307 17.0017 13.4541 18.4389 13.4805 19.5231C13.4805 19.7501 13.5801 19.8257 13.7822 19.8257H14.9424C15.2705 19.8257 15.625 19.8004 15.9766 19.8257C16.2783 19.8509 16.4043 19.7501 16.3809 19.4475C16.3809 18.8928 16.4043 18.3381 16.457 17.7834C16.501 17.1057 16.9697 16.6912 17.4326 16.2859Z" fill="white"/>
</svg>
