<svg width="521" height="212" viewBox="0 0 521 212" fill="none" xmlns="http://www.w3.org/2000/svg">
<g filter="url(#filter0_d_1_17601)">
<g clip-path="url(#clip0_1_17601)">
<rect x="31" y="32.1172" width="450" height="132" rx="4" fill="white"/>
<path d="M52.8524 75.0912C52.1451 75.0912 51.5432 74.9492 51.0469 74.6654V73.9158C51.5619 74.2305 52.1575 74.3878 52.8338 74.3878C53.3674 74.3878 53.8079 74.2521 54.1553 73.9806C54.509 73.7091 54.6858 73.3574 54.6858 72.9255C54.6858 72.5059 54.5214 72.1605 54.1926 71.889C53.8637 71.6175 53.4263 71.4818 52.8803 71.4818C52.3591 71.4818 51.8379 71.5712 51.3168 71.7501L51.7449 68.5017H54.9929V69.1865H52.3126L52.0613 70.9635C52.3529 70.8894 52.6849 70.8524 53.0571 70.8524C53.7458 70.8524 54.3166 71.0468 54.7696 71.4355C55.2225 71.8242 55.449 72.3208 55.449 72.9255C55.449 73.5734 55.2008 74.0978 54.7044 74.4989C54.2081 74.8937 53.5907 75.0912 52.8524 75.0912ZM61.356 74.1287C60.8596 74.7704 60.2144 75.0912 59.4202 75.0912C58.626 75.0912 57.9776 74.7704 57.475 74.1287C56.9787 73.4808 56.7305 72.6849 56.7305 71.7409C56.7305 70.7969 56.9787 70.0041 57.475 69.3624C57.9776 68.7145 58.626 68.3906 59.4202 68.3906C60.2144 68.3906 60.8596 68.7145 61.356 69.3624C61.8523 70.0041 62.1005 70.7969 62.1005 71.7409C62.1005 72.6849 61.8523 73.4808 61.356 74.1287ZM58.0335 73.6289C58.3934 74.1348 58.8556 74.3878 59.4202 74.3878C59.9848 74.3878 60.447 74.1348 60.8069 73.6289C61.1668 73.123 61.3467 72.4936 61.3467 71.7409C61.3467 70.9881 61.1668 70.3588 60.8069 69.8529C60.447 69.347 59.9848 69.094 59.4202 69.094C58.8556 69.094 58.3934 69.347 58.0335 69.8529C57.6736 70.3588 57.4937 70.9881 57.4937 71.7409C57.4937 72.4936 57.6736 73.123 58.0335 73.6289Z" fill="#1E3147"/>
<path d="M52.2502 56.4684V50.8044L50.7891 51.6188V50.8969L52.3247 49.99H52.9948V56.4684H52.2502ZM59.3047 55.6169C58.8084 56.2586 58.1631 56.5794 57.3689 56.5794C56.5748 56.5794 55.9264 56.2586 55.4238 55.6169C54.9275 54.9691 54.6793 54.1732 54.6793 53.2292C54.6793 52.2852 54.9275 51.4924 55.4238 50.8507C55.9264 50.2028 56.5748 49.8789 57.3689 49.8789C58.1631 49.8789 58.8084 50.2028 59.3047 50.8507C59.8011 51.4924 60.0493 52.2852 60.0493 53.2292C60.0493 54.1732 59.8011 54.9691 59.3047 55.6169ZM55.9822 55.1172C56.3421 55.6231 56.8043 55.8761 57.3689 55.8761C57.9335 55.8761 58.3958 55.6231 58.7556 55.1172C59.1155 54.6113 59.2954 53.9819 59.2954 53.2292C59.2954 52.4764 59.1155 51.8471 58.7556 51.3412C58.3958 50.8353 57.9335 50.5823 57.3689 50.5823C56.8043 50.5823 56.3421 50.8353 55.9822 51.3412C55.6224 51.8471 55.4424 52.4764 55.4424 53.2292C55.4424 53.9819 55.6224 54.6113 55.9822 55.1172ZM65.9871 55.6169C65.4907 56.2586 64.8454 56.5794 64.0512 56.5794C63.257 56.5794 62.6087 56.2586 62.1061 55.6169C61.6098 54.9691 61.3616 54.1732 61.3616 53.2292C61.3616 52.2852 61.6098 51.4924 62.1061 50.8507C62.6087 50.2028 63.257 49.8789 64.0512 49.8789C64.8454 49.8789 65.4907 50.2028 65.9871 50.8507C66.4834 51.4924 66.7316 52.2852 66.7316 53.2292C66.7316 54.1732 66.4834 54.9691 65.9871 55.6169ZM62.6645 55.1172C63.0244 55.6231 63.4867 55.8761 64.0512 55.8761C64.6158 55.8761 65.0781 55.6231 65.438 55.1172C65.7978 54.6113 65.9777 53.9819 65.9777 53.2292C65.9777 52.4764 65.7978 51.8471 65.438 51.3412C65.0781 50.8353 64.6158 50.5823 64.0512 50.5823C63.4867 50.5823 63.0244 50.8353 62.6645 51.3412C62.3047 51.8471 62.1247 52.4764 62.1247 53.2292C62.1247 53.9819 62.3047 54.6113 62.6645 55.1172Z" fill="#1E3147"/>
<path d="M54.2878 93.4918V91.7241H50.8164V91.1318L54.2971 87.0134H55.0231V91.0578H56.0933V91.7241H55.0231V93.4918H54.2878ZM51.6819 91.0578H54.2878V88.0037L51.6819 91.0578ZM61.7126 92.6404C61.2163 93.2821 60.571 93.6029 59.7768 93.6029C58.9827 93.6029 58.3343 93.2821 57.8317 92.6404C57.3354 91.9925 57.0872 91.1966 57.0872 90.2526C57.0872 89.3086 57.3354 88.5158 57.8317 87.8741C58.3343 87.2263 58.9827 86.9023 59.7768 86.9023C60.571 86.9023 61.2163 87.2263 61.7126 87.8741C62.209 88.5158 62.4572 89.3086 62.4572 90.2526C62.4572 91.1966 62.209 91.9925 61.7126 92.6404ZM58.3901 92.1406C58.75 92.6465 59.2122 92.8995 59.7768 92.8995C60.3415 92.8995 60.8037 92.6465 61.1635 92.1406C61.5234 91.6347 61.7033 91.0054 61.7033 90.2526C61.7033 89.4999 61.5234 88.8705 61.1635 88.3646C60.8037 87.8587 60.3415 87.6057 59.7768 87.6057C59.2122 87.6057 58.75 87.8587 58.3901 88.3646C58.0303 88.8705 57.8503 89.4999 57.8503 90.2526C57.8503 91.0054 58.0303 91.6347 58.3901 92.1406Z" fill="#1E3147"/>
<path d="M462.833 49.1055H89.2128C84.4828 49.1055 80.6484 51.446 80.6484 54.3332V134.056C80.6484 136.943 84.4828 139.284 89.2128 139.284H462.833C467.563 139.284 471.398 136.943 471.398 134.056V54.3332C471.398 51.446 467.563 49.1055 462.833 49.1055Z" fill="white"/>
<path d="M50.8906 112V111.444L53.0591 109.399C53.5368 108.949 53.8719 108.581 54.0642 108.298C54.2566 108.014 54.3527 107.699 54.3527 107.354C54.3527 106.977 54.2224 106.678 53.9619 106.456C53.7013 106.228 53.3507 106.114 52.9102 106.114C52.2401 106.114 51.6197 106.397 51.0488 106.965V106.132C51.5762 105.651 52.2215 105.41 52.9846 105.41C53.5865 105.41 54.0921 105.583 54.5016 105.928C54.9111 106.268 55.1159 106.712 55.1159 107.261C55.1159 107.699 55.0073 108.094 54.7902 108.446C54.573 108.791 54.2007 109.214 53.6733 109.714L51.9888 111.315H55.3486V112H50.8906ZM61.1671 111.148C60.6708 111.79 60.0255 112.111 59.2313 112.111C58.4371 112.111 57.7887 111.79 57.2862 111.148C56.7898 110.5 56.5416 109.704 56.5416 108.76C56.5416 107.816 56.7898 107.024 57.2862 106.382C57.7887 105.734 58.4371 105.41 59.2313 105.41C60.0255 105.41 60.6708 105.734 61.1671 106.382C61.6635 107.024 61.9116 107.816 61.9116 108.76C61.9116 109.704 61.6635 110.5 61.1671 111.148ZM57.8446 110.648C58.2045 111.154 58.6667 111.407 59.2313 111.407C59.7959 111.407 60.2581 111.154 60.618 110.648C60.9779 110.143 61.1578 109.513 61.1578 108.76C61.1578 108.007 60.9779 107.378 60.618 106.872C60.2581 106.367 59.7959 106.114 59.2313 106.114C58.6667 106.114 58.2045 106.367 57.8446 106.872C57.4847 107.378 57.3048 108.007 57.3048 108.76C57.3048 109.513 57.4847 110.143 57.8446 110.648Z" fill="#1E3147"/>
<path d="M80.7773 151.662L82.8807 148.71C82.3905 148.617 82.012 148.42 81.7452 148.117C81.4847 147.809 81.3544 147.423 81.3544 146.961C81.3544 146.424 81.5374 145.995 81.9035 145.674C82.2757 145.347 82.7845 145.184 83.4298 145.184H86.3614V151.662H85.6075V148.784H83.709L81.6708 151.662H80.7773ZM83.4763 148.108H85.6075V145.868H83.4763C83.042 145.868 82.7038 145.967 82.4619 146.165C82.2261 146.356 82.1082 146.631 82.1082 146.988C82.1082 147.353 82.2261 147.63 82.4619 147.821C82.7038 148.012 83.042 148.108 83.4763 148.108ZM88.1234 151.662V147.173H88.868V149.034H91.539V147.173H92.2742V151.662H91.539V149.691H88.868V151.662H88.1234ZM93.9241 151.662V147.173H96.316C96.7627 147.173 97.104 147.279 97.3397 147.488C97.5755 147.698 97.6934 147.975 97.6934 148.321C97.6934 148.802 97.5042 149.129 97.1256 149.302C97.7027 149.475 97.9912 149.857 97.9912 150.45C97.9912 150.826 97.8609 151.122 97.6003 151.338C97.3397 151.554 96.9644 151.662 96.4742 151.662H93.9241ZM94.6687 151.033H96.3253C96.9395 151.033 97.2466 150.807 97.2466 150.357C97.2466 149.894 96.9395 149.663 96.3253 149.663H94.6687V151.033ZM94.6687 149.061H96.1205C96.3874 149.061 96.5952 149.009 96.7441 148.904C96.893 148.793 96.9674 148.636 96.9674 148.432C96.9674 148.012 96.6852 147.803 96.1205 147.803H94.6687V149.061Z" fill="#1E3147"/>
<path d="M118.175 151.866V151.19C117.635 151.184 117.154 151.103 116.732 150.949C116.31 150.789 115.972 150.576 115.718 150.311C115.463 150.046 115.271 149.752 115.141 149.432C115.01 149.104 114.945 148.762 114.945 148.404C114.945 147.633 115.218 146.979 115.764 146.442C116.317 145.906 117.12 145.625 118.175 145.6V145.008H118.929V145.6C119.99 145.625 120.793 145.906 121.339 146.442C121.891 146.973 122.167 147.624 122.167 148.395C122.167 149.16 121.891 149.814 121.339 150.357C120.787 150.9 119.984 151.178 118.929 151.19V151.866H118.175ZM118.175 150.514V146.276C117.356 146.276 116.742 146.483 116.332 146.896C115.929 147.309 115.727 147.809 115.727 148.395C115.727 148.987 115.929 149.487 116.332 149.894C116.735 150.296 117.35 150.502 118.175 150.514ZM118.929 146.276V150.514C119.766 150.502 120.386 150.296 120.79 149.894C121.193 149.487 121.395 148.987 121.395 148.395C121.395 147.803 121.19 147.303 120.781 146.896C120.377 146.483 119.76 146.276 118.929 146.276ZM125.835 151.773C125.134 151.773 124.545 151.554 124.067 151.116C123.589 150.672 123.35 150.107 123.35 149.422C123.35 148.743 123.561 148.182 123.983 147.738C124.411 147.288 124.967 147.062 125.649 147.062C126.002 147.062 126.319 147.136 126.598 147.285C126.884 147.427 127.107 147.614 127.268 147.849C127.43 148.084 127.551 148.334 127.631 148.599C127.718 148.864 127.761 149.132 127.761 149.404V149.607H124.104C124.154 150.07 124.346 150.437 124.681 150.709C125.023 150.981 125.457 151.116 125.984 151.116C126.505 151.116 126.989 150.977 127.436 150.7V151.347C127.057 151.631 126.524 151.773 125.835 151.773ZM124.113 149.015H127.017C126.998 148.688 126.871 148.392 126.635 148.127C126.406 147.855 126.065 147.719 125.612 147.719C125.177 147.719 124.824 147.849 124.551 148.108C124.284 148.361 124.138 148.663 124.113 149.015ZM129.367 151.662V147.173H131.759C132.206 147.173 132.547 147.279 132.783 147.488C133.019 147.698 133.137 147.975 133.137 148.321C133.137 148.802 132.947 149.13 132.569 149.302C133.146 149.475 133.434 149.857 133.434 150.45C133.434 150.826 133.304 151.122 133.044 151.338C132.783 151.554 132.407 151.662 131.917 151.662H129.367ZM130.112 151.033H131.769C132.383 151.033 132.69 150.807 132.69 150.357C132.69 149.894 132.383 149.663 131.769 149.663H130.112V151.033ZM130.112 149.061H131.564C131.83 149.061 132.038 149.009 132.187 148.904C132.336 148.793 132.411 148.636 132.411 148.432C132.411 148.012 132.128 147.803 131.564 147.803H130.112V149.061Z" fill="#1E3147"/>
<path d="M149.117 151.662V145.184H149.862L152.17 148.275L154.478 145.184H155.213V151.662H154.469V146.322L152.402 149.08H151.946L149.862 146.322V151.662H149.117ZM158.504 151.116C158.821 151.116 159.113 151.048 159.379 150.912C159.652 150.777 159.866 150.61 160.021 150.413V149.802C159.6 149.524 159.128 149.385 158.607 149.385C158.21 149.385 157.897 149.463 157.667 149.617C157.443 149.765 157.332 149.974 157.332 150.246C157.332 150.536 157.443 150.755 157.667 150.903C157.89 151.045 158.169 151.116 158.504 151.116ZM158.3 151.773C157.822 151.773 157.415 151.64 157.08 151.375C156.752 151.11 156.587 150.746 156.587 150.283C156.587 149.82 156.761 149.459 157.108 149.2C157.462 148.935 157.903 148.802 158.43 148.802C159.044 148.802 159.575 148.941 160.021 149.219V148.812C160.021 148.084 159.537 147.719 158.57 147.719C158.042 147.719 157.552 147.868 157.099 148.164V147.47C157.552 147.198 158.095 147.062 158.728 147.062C159.336 147.062 159.826 147.204 160.198 147.488C160.57 147.772 160.757 148.188 160.757 148.737V150.505C160.757 150.894 160.896 151.088 161.175 151.088C161.287 151.088 161.374 151.066 161.436 151.023V151.597C161.324 151.671 161.166 151.708 160.961 151.708C160.484 151.708 160.196 151.474 160.096 151.005C159.637 151.517 159.038 151.773 158.3 151.773ZM163.341 153.513H162.597V147.173H163.341V147.868C163.757 147.331 164.328 147.062 165.054 147.062C165.712 147.062 166.252 147.294 166.673 147.756C167.095 148.213 167.306 148.765 167.306 149.413C167.306 150.067 167.095 150.625 166.673 151.088C166.252 151.545 165.712 151.773 165.054 151.773C164.316 151.773 163.745 151.505 163.341 150.968V153.513ZM163.341 148.691V150.153C163.472 150.437 163.674 150.668 163.946 150.848C164.219 151.027 164.53 151.116 164.877 151.116C165.361 151.116 165.761 150.953 166.077 150.625C166.394 150.298 166.552 149.894 166.552 149.413C166.552 148.932 166.394 148.531 166.077 148.21C165.761 147.883 165.361 147.719 164.877 147.719C164.548 147.719 164.241 147.812 163.955 147.997C163.676 148.182 163.472 148.414 163.341 148.691Z" fill="#1E3147"/>
<path d="M182.379 151.664L185.273 145.148H185.99L188.884 151.664H188.084L187.293 149.915H183.942L183.17 151.664H182.379ZM184.203 149.248H187.051L185.627 146.092L184.203 149.248ZM190.009 151.664V147.175H194.095V151.664H193.36V147.814H190.754V151.664H190.009ZM196.491 153.515H195.747V147.175H196.491V147.869C196.907 147.333 197.478 147.064 198.204 147.064C198.861 147.064 199.401 147.296 199.823 147.758C200.245 148.215 200.456 148.767 200.456 149.415C200.456 150.069 200.245 150.627 199.823 151.09C199.401 151.547 198.861 151.775 198.204 151.775C197.465 151.775 196.894 151.507 196.491 150.97V153.515ZM196.491 148.693V150.155C196.622 150.439 196.823 150.67 197.096 150.849C197.369 151.029 197.679 151.118 198.027 151.118C198.511 151.118 198.911 150.955 199.227 150.627C199.544 150.3 199.702 149.896 199.702 149.415C199.702 148.934 199.544 148.532 199.227 148.212C198.911 147.885 198.511 147.721 198.027 147.721C197.698 147.721 197.391 147.814 197.106 147.999C196.826 148.184 196.622 148.415 196.491 148.693Z" fill="#1E3147"/>
<path d="M216.926 151.665V145.186H217.67L219.978 148.277L222.286 145.186H223.022V151.665H222.277V146.324L220.211 149.082H219.755L217.67 146.324V151.665H216.926ZM226.313 151.119C226.629 151.119 226.921 151.05 227.188 150.915C227.461 150.779 227.675 150.613 227.83 150.415V149.804C227.408 149.527 226.937 149.388 226.415 149.388C226.018 149.388 225.705 149.465 225.475 149.619C225.252 149.767 225.14 149.977 225.14 150.249C225.14 150.539 225.252 150.758 225.475 150.906C225.699 151.048 225.978 151.119 226.313 151.119ZM226.108 151.776C225.631 151.776 225.224 151.643 224.889 151.378C224.561 151.113 224.396 150.748 224.396 150.286C224.396 149.823 224.57 149.462 224.917 149.203C225.271 148.938 225.711 148.805 226.239 148.805C226.853 148.805 227.383 148.944 227.83 149.221V148.814C227.83 148.086 227.346 147.722 226.378 147.722C225.851 147.722 225.361 147.87 224.908 148.166V147.472C225.361 147.2 225.903 147.065 226.536 147.065C227.145 147.065 227.635 147.207 228.007 147.491C228.379 147.774 228.565 148.191 228.565 148.74V150.508C228.565 150.896 228.705 151.091 228.984 151.091C229.096 151.091 229.183 151.069 229.245 151.026V151.6C229.133 151.674 228.975 151.711 228.77 151.711C228.293 151.711 228.004 151.476 227.904 151.007C227.446 151.52 226.847 151.776 226.108 151.776ZM230.405 151.665V147.176H231.15V150.591L233.942 147.176H234.631V151.665H233.886V148.259L231.094 151.665H230.405ZM232.518 146.454C232.065 146.454 231.696 146.324 231.41 146.065C231.125 145.806 230.982 145.458 230.982 145.02H231.624C231.624 145.279 231.702 145.486 231.857 145.64C232.019 145.794 232.236 145.871 232.509 145.871C232.782 145.871 232.996 145.794 233.151 145.64C233.312 145.486 233.396 145.279 233.402 145.02H234.044C234.044 145.451 233.899 145.8 233.607 146.065C233.322 146.324 232.959 146.454 232.518 146.454Z" fill="#1E3147"/>
<path d="M250.824 151.662V145.184H251.569V150.403L255.524 145.184H256.185V151.662H255.44V146.424L251.457 151.662H250.824ZM261.97 151.773C261.374 151.773 260.865 151.582 260.443 151.199C260.027 150.811 259.795 150.32 259.745 149.728H258.684V151.662H257.94V147.173H258.684V149.071H259.764C259.813 148.497 260.046 148.019 260.462 147.636C260.883 147.253 261.386 147.062 261.97 147.062C262.627 147.062 263.17 147.288 263.598 147.738C264.027 148.188 264.241 148.75 264.241 149.422C264.241 150.089 264.027 150.647 263.598 151.097C263.17 151.548 262.627 151.773 261.97 151.773ZM261.97 151.116C262.422 151.116 262.791 150.955 263.077 150.635C263.368 150.308 263.515 149.904 263.515 149.422C263.515 148.935 263.368 148.531 263.077 148.21C262.791 147.883 262.422 147.719 261.97 147.719C261.523 147.719 261.153 147.883 260.862 148.21C260.576 148.531 260.434 148.935 260.434 149.422C260.434 149.904 260.576 150.308 260.862 150.635C261.153 150.955 261.523 151.116 261.97 151.116ZM265.822 151.662V147.173H266.567V149.034H269.238V147.173H269.973V151.662H269.238V149.691H266.567V151.662H265.822Z" fill="#1E3147"/>
<path d="M284.727 151.662V145.184H285.471V150.403L289.426 145.184H290.087V151.662H289.343V146.424L285.359 151.662H284.727ZM295.872 151.773C295.276 151.773 294.767 151.582 294.346 151.199C293.93 150.811 293.697 150.32 293.648 149.728H292.587V151.662H291.842V147.173H292.587V149.071H293.666C293.716 148.497 293.948 148.019 294.364 147.636C294.786 147.253 295.288 147.062 295.872 147.062C296.53 147.062 297.073 147.288 297.501 147.738C297.929 148.188 298.143 148.75 298.143 149.422C298.143 150.089 297.929 150.647 297.501 151.097C297.073 151.548 296.53 151.773 295.872 151.773ZM295.872 151.116C296.325 151.116 296.694 150.955 296.98 150.635C297.271 150.308 297.417 149.904 297.417 149.422C297.417 148.935 297.271 148.531 296.98 148.21C296.694 147.883 296.325 147.719 295.872 147.719C295.425 147.719 295.056 147.883 294.765 148.21C294.479 148.531 294.336 148.935 294.336 149.422C294.336 149.904 294.479 150.308 294.765 150.635C295.056 150.955 295.425 151.116 295.872 151.116ZM298.729 151.662V150.996C298.76 151.008 298.822 151.014 298.915 151.014C299.101 151.014 299.26 150.955 299.39 150.838C299.526 150.715 299.629 150.539 299.697 150.311C299.765 150.083 299.815 149.836 299.846 149.57C299.883 149.299 299.905 148.981 299.911 148.617L299.948 147.173H303.373V151.662H302.638V147.812H300.656L300.628 148.636C300.621 148.913 300.609 149.154 300.591 149.358C300.572 149.561 300.541 149.793 300.498 150.052C300.46 150.305 300.401 150.52 300.321 150.7C300.246 150.872 300.15 151.039 300.032 151.199C299.914 151.353 299.762 151.471 299.576 151.551C299.396 151.631 299.188 151.671 298.953 151.671C298.853 151.671 298.778 151.668 298.729 151.662Z" fill="#1E3147"/>
<path d="M317.988 151.664L320.883 145.148H321.599L324.494 151.664H323.693L322.902 149.915H319.552L318.779 151.664H317.988ZM319.812 149.248H322.66L321.236 146.092L319.812 149.248ZM325.618 151.664V147.175H328.01C328.457 147.175 328.799 147.28 329.034 147.49C329.27 147.699 329.388 147.977 329.388 148.323C329.388 148.804 329.199 149.131 328.82 149.304C329.397 149.476 329.686 149.859 329.686 150.451C329.686 150.828 329.555 151.124 329.295 151.34C329.034 151.556 328.659 151.664 328.169 151.664H325.618ZM326.363 151.035H328.02C328.634 151.035 328.941 150.809 328.941 150.359C328.941 149.896 328.634 149.665 328.02 149.665H326.363V151.035ZM326.363 149.063H327.815C328.082 149.063 328.29 149.011 328.438 148.906C328.587 148.795 328.662 148.638 328.662 148.434C328.662 148.014 328.38 147.805 327.815 147.805H326.363V149.063ZM331.092 151.664V147.175H334.508V147.814H331.837V151.664H331.092Z" fill="#1E3147"/>
<path d="M355.625 151.775C354.67 151.775 353.87 151.46 353.224 150.831C352.585 150.201 352.266 149.4 352.266 148.424C352.266 147.456 352.585 146.657 353.224 146.027C353.863 145.392 354.663 145.074 355.625 145.074C356.327 145.074 356.932 145.232 357.44 145.546V146.314C356.894 145.957 356.292 145.778 355.635 145.778C354.903 145.778 354.285 146.031 353.783 146.536C353.286 147.036 353.038 147.666 353.038 148.424C353.038 149.196 353.286 149.831 353.783 150.331C354.285 150.825 354.912 151.071 355.663 151.071C356.407 151.071 357.046 150.862 357.58 150.442V151.21C357.053 151.586 356.401 151.775 355.625 151.775ZM361.074 151.775C360.373 151.775 359.783 151.556 359.306 151.118C358.828 150.673 358.589 150.109 358.589 149.424C358.589 148.745 358.8 148.184 359.222 147.74C359.65 147.289 360.206 147.064 360.888 147.064C361.241 147.064 361.558 147.138 361.837 147.286C362.123 147.428 362.346 147.616 362.507 147.851C362.669 148.085 362.79 148.335 362.87 148.6C362.957 148.865 363 149.134 363 149.406V149.609H359.343C359.393 150.072 359.585 150.439 359.92 150.71C360.261 150.982 360.696 151.118 361.223 151.118C361.744 151.118 362.228 150.979 362.675 150.701V151.349C362.296 151.633 361.762 151.775 361.074 151.775ZM359.352 149.017H362.256C362.237 148.69 362.11 148.393 361.874 148.128C361.645 147.857 361.304 147.721 360.85 147.721C360.416 147.721 360.063 147.851 359.789 148.11C359.523 148.363 359.377 148.665 359.352 149.017ZM364.606 151.664V147.175H365.351V149.035H368.022V147.175H368.757V151.664H368.022V149.692H365.351V151.664H364.606Z" fill="#1E3147"/>
<path d="M387.112 146.037C387.739 145.395 388.521 145.074 389.457 145.074C390.394 145.074 391.176 145.395 391.802 146.037C392.435 146.672 392.752 147.468 392.752 148.424C392.752 149.381 392.435 150.18 391.802 150.822C391.176 151.457 390.394 151.775 389.457 151.775C388.521 151.775 387.739 151.457 387.112 150.822C386.485 150.18 386.172 149.381 386.172 148.424C386.172 147.468 386.485 146.672 387.112 146.037ZM389.457 151.071C390.17 151.071 390.769 150.818 391.253 150.312C391.737 149.807 391.979 149.177 391.979 148.424C391.979 147.672 391.737 147.042 391.253 146.536C390.769 146.031 390.17 145.778 389.457 145.778C388.75 145.778 388.154 146.031 387.67 146.536C387.186 147.042 386.944 147.672 386.944 148.424C386.944 149.177 387.186 149.807 387.67 150.312C388.154 150.818 388.75 151.071 389.457 151.071ZM395.002 147.175V148.998L397.068 147.175H398.055L395.728 149.202L398.39 151.664H397.347L395.002 149.489V151.664H394.257V147.175H395.002ZM400.392 151.664V147.814H398.782V147.175H402.737V147.814H401.127V151.664H400.392Z" fill="#1E3147"/>
<path d="M420.344 151.662V145.184H421.098V147.849H424.876V145.184H425.63V151.662H424.876V148.534H421.098V151.662H420.344ZM427.749 147.756C428.209 147.294 428.795 147.062 429.508 147.062C430.222 147.062 430.809 147.294 431.267 147.756C431.727 148.219 431.956 148.774 431.956 149.422C431.956 150.07 431.727 150.625 431.267 151.088C430.809 151.545 430.222 151.773 429.508 151.773C428.795 151.773 428.209 151.545 427.749 151.088C427.291 150.625 427.061 150.07 427.061 149.422C427.061 148.774 427.291 148.219 427.749 147.756ZM428.298 150.635C428.621 150.955 429.024 151.116 429.508 151.116C429.992 151.116 430.396 150.955 430.718 150.635C431.041 150.308 431.202 149.904 431.202 149.422C431.202 148.941 431.041 148.537 430.718 148.21C430.396 147.883 429.992 147.719 429.508 147.719C429.024 147.719 428.621 147.883 428.298 148.21C427.976 148.537 427.814 148.941 427.814 149.422C427.814 149.904 427.976 150.308 428.298 150.635ZM432.907 151.662L434.237 149.876C433.493 149.734 433.121 149.293 433.121 148.552C433.121 148.151 433.26 147.821 433.539 147.562C433.819 147.303 434.225 147.173 434.759 147.173H437.085V151.662H436.35V150.015H434.973L433.744 151.662H432.907ZM434.861 149.385H436.35V147.803H434.861C434.545 147.803 434.299 147.871 434.126 148.006C433.958 148.142 433.874 148.34 433.874 148.599C433.874 149.123 434.203 149.385 434.861 149.385Z" fill="#1E3147"/>
<path d="M453.488 153.097V150.977H454.112C454.497 150.428 454.776 149.787 454.949 149.052C455.13 148.312 455.219 147.29 455.219 145.989V145.184H459.296V150.977H460.273V153.097H459.566V151.662H454.196V153.097H453.488ZM454.949 150.977H458.542V145.868H455.955C455.955 147.109 455.88 148.133 455.731 148.941C455.588 149.743 455.328 150.422 454.949 150.977ZM463.535 151.773C462.834 151.773 462.245 151.554 461.767 151.116C461.289 150.672 461.05 150.107 461.05 149.422C461.05 148.743 461.261 148.182 461.683 147.738C462.111 147.288 462.666 147.062 463.349 147.062C463.702 147.062 464.019 147.136 464.298 147.284C464.583 147.427 464.807 147.614 464.968 147.849C465.13 148.084 465.251 148.334 465.331 148.599C465.418 148.864 465.461 149.132 465.461 149.404V149.607H461.804C461.854 150.07 462.046 150.437 462.381 150.709C462.722 150.98 463.157 151.116 463.684 151.116C464.205 151.116 464.689 150.977 465.136 150.7V151.347C464.757 151.631 464.224 151.773 463.535 151.773ZM461.813 149.015H464.717C464.698 148.688 464.571 148.392 464.335 148.127C464.106 147.855 463.764 147.719 463.312 147.719C462.877 147.719 462.524 147.849 462.251 148.108C461.984 148.361 461.838 148.663 461.813 149.015ZM467.812 147.173V148.997L469.878 147.173H470.865L468.538 149.2L471.2 151.662H470.157L467.812 149.487V151.662H467.067V147.173H467.812Z" fill="#1E3147"/>
<path d="M52.2502 130.507V124.843L50.7891 125.658V124.936L52.3247 124.029H52.9948V130.507H52.2502ZM59.3047 129.656C58.8084 130.298 58.1631 130.619 57.3689 130.619C56.5748 130.619 55.9264 130.298 55.4238 129.656C54.9275 129.008 54.6793 128.212 54.6793 127.268C54.6793 126.324 54.9275 125.532 55.4238 124.89C55.9264 124.242 56.5748 123.918 57.3689 123.918C58.1631 123.918 58.8084 124.242 59.3047 124.89C59.8011 125.532 60.0493 126.324 60.0493 127.268C60.0493 128.212 59.8011 129.008 59.3047 129.656ZM55.9822 129.156C56.3421 129.662 56.8043 129.915 57.3689 129.915C57.9335 129.915 58.3958 129.662 58.7556 129.156C59.1155 128.651 59.2954 128.021 59.2954 127.268C59.2954 126.515 59.1155 125.886 58.7556 125.38C58.3958 124.875 57.9335 124.621 57.3689 124.621C56.8043 124.621 56.3421 124.875 55.9822 125.38C55.6224 125.886 55.4424 126.515 55.4424 127.268C55.4424 128.021 55.6224 128.651 55.9822 129.156Z" fill="#1E3147"/>
<mask id="mask0_1_17601" style="mask-type:alpha" maskUnits="userSpaceOnUse" x="80" y="48" width="392" height="92">
<path d="M466.082 48.5391H85.7259C82.7879 48.5391 80.4062 50.9068 80.4062 53.8276V134.477C80.4062 137.398 82.7879 139.766 85.7259 139.766H466.082C469.02 139.766 471.401 137.398 471.401 134.477V53.8276C471.401 50.9068 469.02 48.5391 466.082 48.5391Z" fill="white"/>
</mask>
<g mask="url(#mask0_1_17601)">
<path d="M79.3359 135.364L83.6624 131.754C87.989 129.045 95.5604 121.824 104.213 121.824C111.785 121.824 120.438 129.045 129.091 123.629C136.663 119.116 145.316 101.965 152.887 101.965C161.54 101.965 170.193 119.116 177.764 120.922C186.417 121.824 193.989 109.187 202.642 103.771C211.295 99.2573 218.867 101.965 227.52 95.6466C235.091 89.3278 243.744 72.1769 252.397 69.4689C259.968 65.8582 268.621 75.7876 277.275 85.7171C284.846 95.6466 293.499 105.576 301.071 109.187C309.724 111.895 318.377 109.187 325.948 105.576C334.601 101.965 342.173 99.2573 350.825 103.771C359.479 109.187 367.05 121.824 375.703 125.435C383.275 129.045 391.928 121.824 400.581 121.824C408.152 121.824 416.805 129.045 424.377 121.824C433.029 115.506 441.683 95.6466 449.254 92.0359C457.907 89.3278 465.479 101.965 469.805 109.187L474.132 115.506" stroke="url(#paint0_linear_1_17601)" stroke-width="2"/>
<path d="M279.941 156.29V92.8281" stroke="#33A1FB"/>
<path d="M279.941 93.1596C281.41 93.1596 282.601 91.9757 282.601 90.5153C282.601 89.055 281.41 87.8711 279.941 87.8711C278.472 87.8711 277.281 89.055 277.281 90.5153C277.281 91.9757 278.472 93.1596 279.941 93.1596Z" fill="#33A1FB" stroke="white"/>
</g>
<path d="M309.482 41.2656H250.318C247.381 41.2656 245 43.6334 245 46.5541V68.3692C245 71.29 247.381 73.6577 250.318 73.6577H309.482C312.42 73.6577 314.801 71.29 314.801 68.3692V46.5541C314.801 43.6334 312.42 41.2656 309.482 41.2656Z" fill="#1E3147" fill-opacity="0.95"/>
<path d="M256.495 55.8066C256.681 55.3994 256.867 54.9922 257.053 54.585C257.243 54.1746 257.427 53.7705 257.607 53.3726L258.468 51.4985C258.577 51.2702 258.682 51.0419 258.784 50.8136C258.89 50.5822 258.996 50.3524 259.101 50.1241L259.301 50.337H258.035C257.66 50.337 257.283 50.337 256.904 50.337C256.529 50.337 256.152 50.337 255.773 50.337V49.4531H260.185V50.1472C260.017 50.5174 259.853 50.8815 259.692 51.2393C259.531 51.5941 259.363 51.9627 259.189 52.3453L258.621 53.6039C258.457 53.968 258.291 54.3336 258.123 54.7006C257.959 55.0677 257.793 55.4364 257.625 55.8066H256.495ZM262.973 55.8066C262.973 55.4703 262.973 55.1449 262.973 54.8302C262.973 54.5156 262.973 54.1685 262.973 53.789V53.3263C262.973 53.0425 262.973 52.7818 262.973 52.5443C262.973 52.3067 262.973 52.08 262.973 51.864C262.973 51.6481 262.973 51.429 262.973 51.2069H266.984C266.984 51.429 266.984 51.6481 266.984 51.864C266.984 52.08 266.984 52.3067 266.984 52.5443C266.984 52.7818 266.984 53.0425 266.984 53.3263V53.789C266.984 54.1685 266.984 54.5156 266.984 54.8302C266.984 55.1449 266.984 55.4703 266.984 55.8066H265.993C265.993 55.4703 265.993 55.1449 265.993 54.8302C265.993 54.5156 265.993 54.1685 265.993 53.789V53.3263C265.993 53.0579 265.993 52.8158 265.993 52.5998C265.993 52.3838 265.993 52.1772 265.993 51.9797C265.993 51.7823 265.993 51.5771 265.993 51.3643L266.412 51.9982H263.545L263.969 51.3643C263.969 51.5771 263.969 51.7823 263.969 51.9797C263.969 52.1772 263.969 52.3838 263.969 52.5998C263.969 52.8158 263.969 53.0579 263.969 53.3263V53.789C263.969 54.1685 263.969 54.5156 263.969 54.8302C263.969 55.1449 263.969 55.4703 263.969 55.8066H262.973ZM268.308 57.6159C268.308 57.2797 268.308 56.9481 268.308 56.621C268.308 56.2971 268.308 55.9454 268.308 55.566V53.3263C268.308 52.9839 268.308 52.6353 268.308 52.2805C268.308 51.9227 268.308 51.5648 268.308 51.2069L269.201 51.1514L269.229 51.7622H269.322C269.412 51.6327 269.527 51.517 269.666 51.4152C269.806 51.3134 269.964 51.2347 270.141 51.1792C270.321 51.1205 270.517 51.0912 270.727 51.0912C271.146 51.0912 271.5 51.1962 271.788 51.4059C272.08 51.6157 272.3 51.9026 272.449 52.2666C272.601 52.6307 272.677 53.0394 272.677 53.4929C272.677 53.9217 272.606 54.3212 272.463 54.6914C272.324 55.0585 272.111 55.3546 271.826 55.5799C271.54 55.8051 271.181 55.9177 270.746 55.9177C270.545 55.9177 270.36 55.8914 270.192 55.839C270.028 55.7866 269.878 55.711 269.741 55.6123C269.608 55.5136 269.487 55.3948 269.378 55.2559H269.303V55.6169C269.303 55.9717 269.303 56.3033 269.303 56.6118C269.303 56.9233 269.303 57.2473 269.303 57.5835L268.308 57.6159ZM270.406 55.0523C270.695 55.0523 270.932 54.9798 271.118 54.8348C271.304 54.6868 271.441 54.4955 271.528 54.261C271.615 54.0235 271.658 53.7705 271.658 53.5021C271.658 53.2214 271.612 52.9654 271.518 52.734C271.429 52.4995 271.29 52.3129 271.104 52.1741C270.918 52.0352 270.681 51.9658 270.392 51.9658C270.25 51.9658 270.11 51.9874 269.974 52.0306C269.841 52.0707 269.716 52.1324 269.601 52.2157C269.487 52.2959 269.387 52.3977 269.303 52.5211V54.3906C269.385 54.5263 269.478 54.6436 269.583 54.7423C269.688 54.841 269.809 54.9181 269.946 54.9737C270.083 55.0261 270.236 55.0523 270.406 55.0523ZM275.901 55.9177C275.504 55.9177 275.157 55.8514 274.859 55.7187C274.561 55.586 274.312 55.4071 274.11 55.1819C273.912 54.9536 273.763 54.6945 273.663 54.4045C273.564 54.1114 273.514 53.8044 273.514 53.4836C273.514 53.024 273.607 52.6152 273.793 52.2574C273.979 51.8964 274.249 51.6126 274.603 51.4059C274.957 51.1962 275.383 51.0912 275.883 51.0912C276.264 51.0912 276.603 51.1514 276.897 51.2717C277.192 51.392 277.439 51.5617 277.637 51.7807C277.839 51.9967 277.991 52.2496 278.093 52.5396C278.195 52.8296 278.247 53.1443 278.247 53.4836C278.247 53.9433 278.154 54.3567 277.967 54.7238C277.781 55.0909 277.511 55.3824 277.158 55.5984C276.807 55.8112 276.389 55.9177 275.901 55.9177ZM275.897 55.0847C276.194 55.0847 276.443 55.0092 276.641 54.858C276.84 54.7038 276.988 54.5048 277.083 54.261C277.183 54.0173 277.232 53.7582 277.232 53.4836C277.232 53.1659 277.176 52.8913 277.065 52.6599C276.956 52.4255 276.801 52.245 276.599 52.1185C276.401 51.989 276.165 51.9242 275.892 51.9242C275.597 51.9242 275.348 51.9936 275.143 52.1324C274.941 52.2681 274.788 52.4548 274.682 52.6923C274.58 52.9268 274.529 53.1906 274.529 53.4836C274.529 53.7582 274.578 54.0173 274.677 54.261C274.78 54.5048 274.932 54.7038 275.133 54.858C275.338 55.0092 275.593 55.0847 275.897 55.0847ZM281.552 55.913C280.984 55.913 280.517 55.8081 280.151 55.5984C279.786 55.3886 279.514 55.1017 279.337 54.7377C279.163 54.3736 279.076 53.9556 279.076 53.4836C279.076 53.0178 279.16 52.6044 279.327 52.2435C279.498 51.8825 279.746 51.6018 280.072 51.4013C280.398 51.1977 280.792 51.0959 281.254 51.0959C281.654 51.0959 281.999 51.1714 282.287 51.3226C282.576 51.4707 282.798 51.6928 282.952 51.989C283.108 52.2851 283.185 52.6522 283.185 53.0903C283.185 53.2075 283.182 53.3139 283.176 53.4096C283.173 53.5021 283.164 53.5947 283.148 53.6872L282.278 53.3078C282.284 53.2615 282.289 53.2168 282.292 53.1736C282.295 53.1273 282.296 53.0841 282.296 53.044C282.296 52.6646 282.201 52.3715 282.008 52.1648C281.819 51.9551 281.57 51.8501 281.263 51.8501C281.025 51.8501 280.817 51.9149 280.64 52.0445C280.463 52.1741 280.325 52.3514 280.226 52.5767C280.13 52.8019 280.081 53.061 280.081 53.3541V53.5021C280.081 53.8292 280.137 54.1099 280.249 54.3443C280.364 54.5788 280.537 54.7593 280.77 54.8857C281.006 55.0122 281.303 55.0755 281.659 55.0755C281.796 55.0755 281.945 55.0647 282.106 55.0431C282.27 55.0184 282.435 54.9814 282.599 54.932C282.764 54.8826 282.919 54.8194 283.064 54.7423L283.101 55.603C282.984 55.6647 282.845 55.7187 282.687 55.765C282.529 55.8112 282.354 55.8467 282.161 55.8714C281.973 55.8992 281.769 55.913 281.552 55.913ZM279.476 53.6872V53.0116L282.552 52.9746L283.148 53.2199V53.6872H279.476ZM284.231 55.8066C284.231 55.4703 284.231 55.1449 284.231 54.8302C284.231 54.5156 284.231 54.1685 284.231 53.789V53.2893C284.231 53.0055 284.231 52.7479 284.231 52.5165C284.231 52.2851 284.231 52.0645 284.231 51.8548C284.231 51.645 284.231 51.429 284.231 51.2069L285.227 51.1699C285.227 51.5062 285.227 51.8363 285.227 52.1602C285.227 52.4841 285.227 52.8234 285.227 53.1782V53.9649C285.227 54.2981 285.227 54.6096 285.227 54.8996C285.227 55.1896 285.227 55.4919 285.227 55.8066H284.231ZM287.26 55.8066C287.077 55.603 286.893 55.4009 286.706 55.2004C286.524 54.9968 286.341 54.7963 286.157 54.5988L285.459 53.8353H285.124V53.1505H285.497L286.092 52.4656C286.276 52.2558 286.458 52.046 286.641 51.8363C286.825 51.6234 287.006 51.4136 287.186 51.2069H288.377C288.126 51.4784 287.876 51.7499 287.628 52.0214C287.38 52.2929 287.133 52.5643 286.888 52.8358L286.148 53.6363L286.111 53.1782L286.986 54.1639C287.24 54.4384 287.496 54.713 287.753 54.9876C288.011 55.2621 288.265 55.5351 288.517 55.8066H287.26ZM290.381 55.8066C290.381 55.4703 290.381 55.1449 290.381 54.8302C290.381 54.5156 290.381 54.1685 290.381 53.789V53.3263C290.381 53.0579 290.381 52.8158 290.381 52.5998C290.381 52.3838 290.381 52.1772 290.381 51.9797C290.381 51.7823 290.381 51.5771 290.381 51.3643L290.702 51.9982H290.512C290.248 51.9982 289.975 51.9982 289.693 51.9982C289.413 51.9982 289.137 51.9982 288.864 51.9982V51.2069H292.889V51.9982C292.617 51.9982 292.339 51.9982 292.056 51.9982C291.777 51.9982 291.506 51.9982 291.242 51.9982H291.051L291.372 51.3643C291.372 51.5771 291.372 51.7823 291.372 51.9797C291.372 52.1772 291.372 52.3838 291.372 52.5998C291.372 52.8158 291.372 53.0579 291.372 53.3263V53.789C291.372 54.1685 291.372 54.5156 291.372 54.8302C291.372 55.1449 291.372 55.4703 291.372 55.8066H290.381ZM295.833 55.9177C295.435 55.9177 295.088 55.8514 294.791 55.7187C294.493 55.586 294.243 55.4071 294.041 55.1819C293.843 54.9536 293.694 54.6945 293.595 54.4045C293.495 54.1114 293.446 53.8044 293.446 53.4836C293.446 53.024 293.539 52.6152 293.725 52.2574C293.911 51.8964 294.181 51.6126 294.535 51.4059C294.888 51.1962 295.314 51.0912 295.814 51.0912C296.196 51.0912 296.534 51.1514 296.829 51.2717C297.123 51.392 297.37 51.5617 297.569 51.7807C297.77 51.9967 297.922 52.2496 298.025 52.5396C298.127 52.8296 298.178 53.1443 298.178 53.4836C298.178 53.9433 298.085 54.3567 297.899 54.7238C297.713 55.0909 297.443 55.3824 297.089 55.5984C296.738 55.8112 296.32 55.9177 295.833 55.9177ZM295.828 55.0847C296.126 55.0847 296.374 55.0092 296.573 54.858C296.771 54.7038 296.919 54.5048 297.015 54.261C297.114 54.0173 297.164 53.7582 297.164 53.4836C297.164 53.1659 297.108 52.8913 296.996 52.6599C296.887 52.4255 296.732 52.245 296.531 52.1185C296.332 51.989 296.096 51.9242 295.824 51.9242C295.529 51.9242 295.279 51.9936 295.075 52.1324C294.872 52.2681 294.719 52.4548 294.614 52.6923C294.511 52.9268 294.46 53.1906 294.46 53.4836C294.46 53.7582 294.509 54.0173 294.609 54.261C294.712 54.5048 294.863 54.7038 295.065 54.858C295.27 55.0092 295.524 55.0847 295.828 55.0847ZM299.255 55.8066C299.255 55.4673 299.255 55.1403 299.255 54.8256C299.255 54.5109 299.255 54.1623 299.255 53.7798V53.317C299.255 53.0332 299.255 52.7741 299.255 52.5396C299.255 52.3052 299.255 52.08 299.255 51.864C299.255 51.6481 299.255 51.429 299.255 51.2069C299.552 51.2069 299.906 51.2069 300.316 51.2069C300.728 51.2069 301.129 51.2069 301.516 51.2069C301.901 51.2069 302.208 51.2532 302.437 51.3458C302.667 51.4352 302.832 51.5617 302.931 51.7252C303.03 51.8856 303.08 52.0738 303.08 52.2897C303.08 52.5798 303.005 52.8127 302.856 52.9885C302.707 53.1612 302.526 53.2785 302.312 53.3402V53.4142C302.457 53.4451 302.597 53.5006 302.731 53.5808C302.867 53.661 302.979 53.7767 303.066 53.9279C303.155 54.0791 303.201 54.2796 303.201 54.5294C303.201 54.7762 303.145 54.9968 303.033 55.1912C302.921 55.3824 302.726 55.5336 302.447 55.6446C302.171 55.7526 301.78 55.8066 301.274 55.8066C300.868 55.8066 300.492 55.8066 300.148 55.8066C299.804 55.8066 299.506 55.8066 299.255 55.8066ZM300.222 55.0338H301.167C301.424 55.0338 301.628 55.0122 301.777 54.969C301.929 54.9228 302.036 54.8549 302.098 54.7654C302.163 54.6729 302.196 54.5587 302.196 54.423C302.196 54.207 302.115 54.0528 301.954 53.9603C301.795 53.8646 301.558 53.8168 301.242 53.8168H299.948V53.1273H301.162C301.386 53.1273 301.563 53.1027 301.693 53.0533C301.827 53.0009 301.921 52.9299 301.977 52.8404C302.036 52.7479 302.065 52.6414 302.065 52.5211C302.065 52.3268 301.997 52.1879 301.86 52.1047C301.727 52.0214 301.535 51.9797 301.283 51.9797H300.222C300.222 52.208 300.222 52.4271 300.222 52.6368C300.222 52.8435 300.222 53.0703 300.222 53.317V53.7798C300.222 54.0081 300.222 54.2209 300.222 54.4184C300.222 54.6158 300.222 54.821 300.222 55.0338Z" fill="white"/>
<path fill-rule="evenodd" clip-rule="evenodd" d="M279.586 84.2372C279.95 78.3285 284.404 73.6602 289.844 73.6602H269.28C274.721 73.6602 279.174 78.3285 279.538 84.2372H279.586ZM268.926 73.6668C269.043 73.6625 269.162 73.6602 269.28 73.6602H268.926V73.6668ZM290.198 73.6668C290.081 73.6625 289.962 73.6602 289.844 73.6602H290.198V73.6668Z" fill="#1E3147" fill-opacity="0.95"/>
<path d="M259.545 66.1172H256.206V65.7322L257.858 64.1572C258.222 63.8119 258.476 63.5342 258.621 63.3242C258.77 63.1049 258.845 62.8599 258.845 62.5892C258.845 62.2999 258.742 62.0665 258.537 61.8892C258.331 61.7072 258.063 61.6162 257.732 61.6162C257.214 61.6162 256.742 61.8355 256.318 62.2742V61.6932C256.733 61.3199 257.221 61.1332 257.781 61.1332C258.233 61.1332 258.609 61.2615 258.908 61.5182C259.211 61.7795 259.363 62.1155 259.363 62.5262C259.363 62.8529 259.281 63.1515 259.118 63.4222C258.954 63.6882 258.674 64.0079 258.278 64.3812L256.962 65.6482H259.545V66.1172ZM262.278 66.2012C261.704 66.2012 261.251 66.0005 260.92 65.5992C260.588 65.1885 260.423 64.6239 260.423 63.9052C260.409 63.1212 260.598 62.4632 260.99 61.9312C261.382 61.3945 261.902 61.1285 262.551 61.1332C262.957 61.1332 263.302 61.2335 263.587 61.4342V61.9312C263.279 61.7212 262.947 61.6162 262.593 61.6162C262.224 61.6162 261.911 61.7212 261.655 61.9312C261.398 62.1412 261.214 62.3979 261.102 62.7012C260.994 63.0045 260.936 63.3405 260.927 63.7092C261.057 63.4852 261.246 63.3079 261.494 63.1772C261.746 63.0465 262.035 62.9812 262.362 62.9812C262.81 62.9812 263.183 63.1282 263.482 63.4222C263.79 63.7069 263.944 64.0802 263.944 64.5422C263.944 65.0229 263.783 65.4195 263.461 65.7322C263.148 66.0449 262.754 66.2012 262.278 66.2012ZM262.25 65.7182C262.581 65.7182 262.861 65.6085 263.09 65.3892C263.318 65.1652 263.433 64.8829 263.433 64.5422C263.433 64.2062 263.318 63.9379 263.09 63.7372C262.861 63.5365 262.576 63.4362 262.236 63.4362C261.946 63.4362 261.68 63.5272 261.438 63.7092C261.2 63.8865 261.034 64.1129 260.941 64.3882C260.983 64.8129 261.116 65.1419 261.34 65.3752C261.568 65.6039 261.872 65.7182 262.25 65.7182ZM267.46 66.1172H266.991V62.7362H267.495V65.3752L269.658 62.7362H270.127V66.1172H269.623V63.4852L267.46 66.1172ZM274.384 66.2012C273.936 66.2012 273.558 66.0542 273.25 65.7602C272.942 65.4662 272.767 65.0929 272.725 64.6402H271.892V66.1172H271.388V62.7362H271.892V64.1852H272.732C272.774 63.7372 272.949 63.3709 273.257 63.0862C273.57 62.7969 273.945 62.6522 274.384 62.6522C274.879 62.6522 275.282 62.8225 275.595 63.1632C275.917 63.5085 276.078 63.9309 276.078 64.4302C276.078 64.9295 275.917 65.3495 275.595 65.6902C275.282 66.0309 274.879 66.2012 274.384 66.2012ZM274.384 65.7462C274.734 65.7462 275.021 65.6202 275.245 65.3682C275.469 65.1162 275.581 64.8035 275.581 64.4302C275.581 64.0522 275.469 63.7372 275.245 63.4852C275.021 63.2332 274.734 63.1072 274.384 63.1072C274.039 63.1072 273.754 63.2332 273.53 63.4852C273.306 63.7372 273.194 64.0522 273.194 64.4302C273.194 64.8035 273.306 65.1162 273.53 65.3682C273.754 65.6202 274.039 65.7462 274.384 65.7462ZM277.588 66.1172H277.084V62.7362H277.588V64.1572H279.667V62.7362H280.171V66.1172H279.667V64.6122H277.588V66.1172ZM281.741 66.1172H281.167L282.175 64.7662C281.9 64.7195 281.688 64.6099 281.538 64.4372C281.394 64.2599 281.321 64.0359 281.321 63.7652C281.321 63.4525 281.426 63.2029 281.636 63.0162C281.851 62.8295 282.15 62.7362 282.532 62.7362H284.275V66.1172H283.771V64.8572H282.686L281.741 66.1172ZM282.609 64.4162H283.771V63.1772H282.609C282.362 63.1772 282.171 63.2309 282.035 63.3382C281.905 63.4455 281.839 63.5995 281.839 63.8002C281.839 64.0009 281.905 64.1549 282.035 64.2622C282.171 64.3649 282.362 64.4162 282.609 64.4162ZM290.504 66.1172H287.165V65.7322L288.817 64.1572C289.181 63.8119 289.435 63.5342 289.58 63.3242C289.729 63.1049 289.804 62.8599 289.804 62.5892C289.804 62.2999 289.701 62.0665 289.496 61.8892C289.291 61.7072 289.022 61.6162 288.691 61.6162C288.173 61.6162 287.702 61.8355 287.277 62.2742V61.6932C287.692 61.3199 288.18 61.1332 288.74 61.1332C289.193 61.1332 289.568 61.2615 289.867 61.5182C290.17 61.7795 290.322 62.1155 290.322 62.5262C290.322 62.8529 290.24 63.1515 290.077 63.4222C289.914 63.6882 289.634 64.0079 289.237 64.3812L287.921 65.6482H290.504V66.1172ZM291.422 63.6672C291.422 62.9485 291.607 62.3489 291.975 61.8682C292.349 61.3782 292.834 61.1332 293.431 61.1332C294.024 61.1332 294.507 61.3759 294.88 61.8612C295.249 62.3419 295.433 62.9439 295.433 63.6672C295.433 64.3905 295.249 64.9925 294.88 65.4732C294.507 65.9585 294.024 66.2012 293.431 66.2012C292.834 66.2012 292.349 65.9585 291.975 65.4732C291.607 64.9925 291.422 64.3905 291.422 63.6672ZM294.922 63.6672C294.922 63.0839 294.782 62.5962 294.502 62.2042C294.222 61.8122 293.865 61.6162 293.431 61.6162C292.997 61.6162 292.64 61.8122 292.36 62.2042C292.08 62.5962 291.94 63.0839 291.94 63.6672C291.94 64.2505 292.078 64.7405 292.353 65.1372C292.633 65.5245 292.993 65.7182 293.431 65.7182C293.87 65.7182 294.227 65.5245 294.502 65.1372C294.782 64.7452 294.922 64.2552 294.922 63.6672ZM299.627 66.1172H296.288V65.7322L297.94 64.1572C298.304 63.8119 298.558 63.5342 298.703 63.3242C298.852 63.1049 298.927 62.8599 298.927 62.5892C298.927 62.2999 298.824 62.0665 298.619 61.8892C298.413 61.7072 298.145 61.6162 297.814 61.6162C297.296 61.6162 296.824 61.8355 296.4 62.2742V61.6932C296.815 61.3199 297.303 61.1332 297.863 61.1332C298.315 61.1332 298.691 61.2615 298.99 61.5182C299.293 61.7795 299.445 62.1155 299.445 62.5262C299.445 62.8529 299.363 63.1515 299.2 63.4222C299.036 63.6882 298.756 64.0079 298.36 64.3812L297.044 65.6482H299.627V66.1172ZM303.723 66.1172H300.384V65.7322L302.036 64.1572C302.4 63.8119 302.654 63.5342 302.799 63.3242C302.948 63.1049 303.023 62.8599 303.023 62.5892C303.023 62.2999 302.92 62.0665 302.715 61.8892C302.51 61.7072 302.241 61.6162 301.91 61.6162C301.392 61.6162 300.921 61.8355 300.496 62.2742V61.6932C300.911 61.3199 301.399 61.1332 301.959 61.1332C302.412 61.1332 302.787 61.2615 303.086 61.5182C303.389 61.7795 303.541 62.1155 303.541 62.5262C303.541 62.8529 303.459 63.1515 303.296 63.4222C303.133 63.6882 302.853 64.0079 302.456 64.3812L301.14 65.6482H303.723V66.1172Z" fill="white"/>
</g>
</g>
<defs>
<filter id="filter0_d_1_17601" x="0" y="0" width="521" height="212" filterUnits="userSpaceOnUse" color-interpolation-filters="sRGB">
<feFlood flood-opacity="0" result="BackgroundImageFix"/>
<feColorMatrix in="SourceAlpha" type="matrix" values="0 0 0 0 0 0 0 0 0 0 0 0 0 0 0 0 0 0 127 0" result="hardAlpha"/>
<feOffset dy="8"/>
<feGaussianBlur stdDeviation="20"/>
<feComposite in2="hardAlpha" operator="out"/>
<feColorMatrix type="matrix" values="0 0 0 0 0 0 0 0 0 0 0 0 0 0 0 0 0 0 0.07 0"/>
<feBlend mode="normal" in2="BackgroundImageFix" result="effect1_dropShadow_1_17601"/>
<feBlend mode="normal" in="SourceGraphic" in2="effect1_dropShadow_1_17601" result="shape"/>
</filter>
<linearGradient id="paint0_linear_1_17601" x1="474.132" y1="102.482" x2="70.1956" y2="126.665" gradientUnits="userSpaceOnUse">
<stop stop-color="#33A1FB"/>
<stop offset="1" stop-color="#1E3147"/>
</linearGradient>
<clipPath id="clip0_1_17601">
<rect x="40" y="32" width="441" height="132" rx="4" fill="white"/>
</clipPath>
</defs>
</svg>
