<svg width="64" height="64" viewBox="0 0 64 64" fill="none" xmlns="http://www.w3.org/2000/svg">
<path d="M20.6584 42.6583C23.2438 40.4145 26.1218 36.0242 25.9267 31.8291L25.7804 29.7316C24.2194 29.5365 22.8048 28.8047 21.7316 27.634C20.0243 25.7804 22.6097 21.2438 24.8535 18.1219C25.5365 17.1463 26.2194 16.2682 26.6584 15.6829C26.9023 15.3902 27.1462 15.0975 27.3901 14.8536C27.1462 15.0975 26.9023 15.3414 26.6584 15.6829C26.1706 16.2682 25.5365 17.1463 24.8535 18.1219C24.0731 17.2438 22.9023 15.2926 24.7072 13.0487C27.1462 9.87801 30.8535 11.6829 31.2925 12.0243C34.7072 11.5365 40.4145 12.2682 41.8779 20.6097C43.39 28.9511 48.3169 34.3169 51.4876 36.6584C54.3168 38.7071 53.8778 43.8291 50.6095 46.512C51.4876 47.4388 52.3656 48.512 53.1949 49.6827C53.8778 50.6583 54.5119 51.6827 55.0485 52.8046C60.0241 47.2925 63.0485 40.0242 63.0485 32.0242C63.0485 14.9024 49.1461 1 32.0242 1C14.9024 1 1 14.8048 1 31.9267C1 40.2681 4.31706 47.8291 9.63411 53.39C14.9512 47.0486 20.6584 42.6583 20.6584 42.6583Z" fill="#4ADA85" stroke="black" stroke-miterlimit="10"/>
<path d="M30.658 13.6828C30.8043 14.9023 31.4872 17.7803 34.1701 18.1705C33.5848 19.8778 33.2433 20.4632 33.8775 21.0974C33.8775 21.0974 33.8775 21.0974 33.9262 21.0974C33.975 21.0974 33.975 21.0486 34.0238 21.0486H34.0726C34.1214 21.0486 34.1214 20.9998 34.1701 20.9998C34.9018 20.7559 36.1701 21.1461 36.3653 22.5608C36.4628 23.2925 36.2677 23.829 35.8774 24.1705C35.3409 24.6583 34.5116 24.9022 33.536 24.951C32.7555 26.8046 32.1214 29.2437 33.3409 30.5119C33.6336 32.5607 34.5604 36.0729 37.2921 38.5607C37.4872 38.6095 44.3652 39.6826 50.6579 46.4631C53.9261 43.7802 54.3164 38.6582 51.5359 36.6095C48.3652 34.268 43.4384 28.951 41.9262 20.5608C40.3652 12.2193 34.7067 11.4389 31.2921 11.9754C30.8531 11.634 27.1458 9.82911 24.7068 12.9998C22.9507 15.2925 24.0726 17.1949 24.8531 18.073C25.536 17.0974 26.219 16.2193 26.658 15.634C26.9019 15.3413 27.2559 15.7439 27.4998 15.5C29.2071 13.939 30.658 13.6828 30.658 13.6828Z" fill="black"/>
<path d="M53.1946 49.6345C52.3653 48.4637 51.4873 47.3906 50.6093 46.4637C44.2678 39.7321 37.3898 38.6101 37.2435 38.5613C36.5605 38.5126 35.8288 38.415 35.1459 38.3662L25.4874 41.0979C23.8777 41.6345 22.2679 42.1223 20.6582 42.6589C20.6582 42.6589 14.9509 47.0491 9.68262 53.4393C11.0485 54.9027 12.6094 56.2198 14.2192 57.3417C16.9509 59.2442 20.024 60.7564 23.2923 61.732C26.0728 62.5612 28.9996 63.0002 32.024 63.0002C37.4386 63.0002 42.5605 61.5856 46.9995 59.1466C48.2678 58.4637 49.4385 57.6832 50.5605 56.8539C52.1702 55.6344 53.6824 54.2686 55.0483 52.7564C54.5117 51.6344 53.8775 50.5613 53.1946 49.6345Z" fill="#33A1FB" stroke="#000201" stroke-miterlimit="10"/>
</svg>
