<svg width="180" height="60" viewBox="0 0 180 60" fill="none" xmlns="http://www.w3.org/2000/svg">
<path fill-rule="evenodd" clip-rule="evenodd" d="M7.1968 19.2577H12.1492C16.1726 19.2577 19.3446 16.0382 19.3446 12.1288C19.3446 8.14283 16.0952 5 12.1492 5H7.1968C3.17335 5 0.00135633 8.21948 0.00135633 12.1288C-0.0760936 16.1149 3.17335 19.2577 7.1968 19.2577ZM42.5658 19.411H45.4285C49.4519 19.411 52.7019 16.1915 52.7019 12.2055C52.7019 8.21948 49.4519 5 45.4285 5H43.03C29.8763 5.07665 19.3535 15.5016 19.3535 28.4562V48.6162C19.3535 52.449 22.4485 55.5151 26.3171 55.5151C30.1856 55.5151 33.2807 52.449 33.2807 48.6162V28.6095C33.2807 23.5503 37.459 19.411 42.5658 19.411ZM97.5967 37.5969C99.6617 35.5317 102.347 34.4991 105.651 34.4991C108.852 34.4991 111.537 35.5317 113.602 37.5969C115.667 39.6622 116.7 42.1405 116.7 45.1351C116.7 48.1296 115.667 50.7112 113.602 52.7765C111.537 54.8416 108.852 55.8743 105.651 55.8743C102.347 55.8743 99.6617 54.8416 97.5967 52.7765C95.5312 50.7112 94.4987 48.1296 94.4987 45.1351C94.4987 42.2437 95.5312 39.6622 97.5967 37.5969ZM105.651 51.9503C107.51 51.9503 109.059 51.3307 110.401 49.9884C111.743 48.7492 112.363 47.097 112.26 45.1351C112.26 43.1731 111.64 41.5209 110.401 40.2817C109.162 38.9393 107.51 38.3198 105.651 38.3198C103.689 38.3198 102.14 38.9393 100.798 40.2817C99.5586 41.6241 98.939 43.1731 98.939 45.1351C98.939 47.097 99.5586 48.7492 100.798 49.9884C102.14 51.3307 103.792 51.9503 105.651 51.9503ZM131.466 34.4991C128.162 34.4991 125.581 35.5317 123.412 37.5969C121.347 39.6622 120.315 42.2437 120.315 45.1351C120.315 48.1296 121.347 50.7112 123.412 52.7765C125.478 54.8416 128.162 55.8743 131.466 55.8743C134.668 55.8743 137.353 54.8416 139.418 52.7765C141.483 50.7112 142.516 48.1296 142.516 45.1351C142.516 42.1405 141.483 39.6622 139.418 37.5969C137.353 35.5317 134.668 34.4991 131.466 34.4991ZM136.217 49.9884C134.874 51.3307 133.325 51.9503 131.466 51.9503C129.608 51.9503 127.956 51.3307 126.613 49.9884C125.374 48.7492 124.754 47.097 124.754 45.1351C124.754 43.1731 125.374 41.6241 126.613 40.2817C127.956 38.9393 129.505 38.3198 131.466 38.3198C133.325 38.3198 134.978 38.9393 136.217 40.2817C137.456 41.5209 138.075 43.1731 138.075 45.1351C138.179 47.097 137.559 48.7492 136.217 49.9884ZM172.668 34.4991C174.94 34.4991 176.695 35.1187 177.935 36.5643C179.174 38.01 179.793 39.9719 180 42.76V53.2928C180 54.5319 178.967 55.5645 177.728 55.5645C176.489 55.5645 175.456 54.5319 175.456 53.2928V43.8959C175.456 40.4882 174.114 38.8361 171.326 38.8361C170.19 38.8361 169.157 39.1459 168.228 39.7654C167.196 40.385 166.472 41.2111 166.059 42.1405V53.1895C166.059 54.4286 165.027 55.4612 163.788 55.4612C162.549 55.4612 161.516 54.4286 161.516 53.1895V43.7926C161.516 40.385 160.07 38.7328 157.282 38.7328C156.249 38.7328 155.217 39.0426 154.288 39.6622C153.358 40.2817 152.635 41.1078 152.119 42.0372V53.1895C152.119 54.4286 151.086 55.4612 149.847 55.4612C148.608 55.4612 147.576 54.4286 147.576 53.1895V37.2871C147.576 36.048 148.608 35.0154 149.847 35.0154C151.086 35.0154 152.119 36.048 152.119 37.2871V37.7002C153.668 35.5317 155.94 34.4991 158.831 34.4991C160.38 34.4991 161.722 34.9121 162.858 35.5317C163.994 36.2545 164.82 37.0806 165.233 38.2165C165.956 37.0806 166.989 36.1512 168.331 35.5317C169.673 34.8089 171.119 34.4991 172.668 34.4991ZM57.2216 36.1512C55.7757 35.0154 54.0205 34.4991 51.8519 34.4991C48.7539 34.4991 46.2755 35.5317 44.3136 37.5969C42.3517 39.6622 41.4223 42.1405 41.4223 45.2383C41.4223 48.4394 42.4548 51.021 44.6234 52.983C45.8626 54.1188 47.308 54.9449 48.9606 55.4612C50.0962 55.771 51.3354 55.9776 52.6777 55.9776C55.2592 55.9776 57.5314 55.4612 59.2866 54.5319C59.8031 54.2221 60.1129 53.7058 60.216 53.0862V52.983C60.216 51.7438 58.9768 50.9177 57.8407 51.3307C56.4984 51.8471 55.1561 52.0536 53.7107 52.0536C51.6452 52.0536 49.89 51.5373 48.5472 50.6079C47.2049 49.6786 46.3791 48.3362 46.0693 46.5807H60.1129C60.9387 46.5807 61.5583 45.9612 61.6614 45.1351C61.4552 41.1078 60.0093 38.1132 57.2216 36.1512ZM45.9657 43.0698C46.0693 41.7274 46.6889 40.4882 47.7214 39.5589C48.7539 38.6296 50.0962 38.2165 51.6452 38.2165C53.2973 38.2165 54.6396 38.7328 55.569 39.6622C56.4984 40.5915 57.0149 41.7274 57.0149 43.0698H45.9657ZM88.8197 33.1576C89.2326 37.4946 86.7542 41.212 83.0371 42.5544C84.4825 45.4457 86.2382 48.8534 87.6836 52.0545C88.5099 53.5001 87.3738 55.3589 85.6186 55.3589C84.7923 55.3589 83.9665 54.8426 83.5531 54.0165L78.4932 43.0707H72.091V53.0871C72.091 54.3263 71.1616 55.2557 69.9229 55.2557C68.6837 55.2557 67.7543 54.3263 67.7543 53.0871V42.9674V40.5924C67.7543 39.5598 68.5801 38.8369 69.5095 38.8369H72.2977H79.5262C82.2108 38.8369 84.2763 36.6685 84.1727 33.9837C84.0696 31.4021 81.7979 29.4401 79.2164 29.4401H70.026C68.8899 29.4401 67.9605 28.5107 67.9605 27.3749C67.9605 26.239 68.8899 25.3096 70.026 25.3096H79.6293C84.1727 25.3096 88.3032 28.614 88.8197 33.1576Z" fill="#33A1FB"/>
</svg>
