<svg width="78" height="78" viewBox="0 0 78 78" fill="none" xmlns="http://www.w3.org/2000/svg">
<path d="M34.7143 48.6191C35.1429 46.5715 35.0001 44.0477 34.8572 42.762C32.9524 44.381 30.0477 45.8572 28.4762 44.4286C26.2381 42.4286 22.0953 34.3334 22.4286 30.1429C22.7619 26 24.5238 22.5238 27.381 20.9048C30.2381 19.2857 40.8572 16.8572 41.8572 13.381C42.3334 11.4762 44.6191 12.8095 45.7144 15.2381C46.8096 17.6667 48.762 18.5238 47.0001 20.2857C46.5715 20.7143 45.762 21.2381 44.8096 21.7143C46.5715 24.7619 53.381 37.2382 49.0953 40.6191C48.2382 41.1429 47.1429 41.381 46.1429 41.5239C46.3334 42.8572 48.1429 47.9048 48.1429 47.9048C48.1429 47.9048 48.2858 48.0477 48.381 48.2382C50.1906 48.6667 52.2858 49.3334 54.5239 50.381C59.7144 53.0001 63.3811 57.2382 66.0477 62.0953H66.143C66.3811 62.4763 66.762 63.3334 67.2858 64.3334C73.3335 57.6191 77.0001 48.7144 77.0001 39.0001C77.0001 18.0476 60.0001 1 39.0001 1C18.0476 1 1 18 1 39.0001C1 53.3334 8.95239 65.8096 20.6667 72.2858C21.4286 67.0001 22.6667 62.2858 24.4762 59.0477C28.2381 52.4286 31.9524 49.7144 34.7143 48.6191Z" fill="#FDD101" stroke="black" stroke-miterlimit="10"/>
<path d="M48.1427 47.9532C48.1427 47.9532 46.3332 42.9056 46.1427 41.5723C44.4284 41.7627 42.9523 41.5723 42.9523 41.5723H46.1427C47.1427 41.477 48.1904 41.1913 49.0951 40.6675C53.3808 37.2389 46.5713 24.8103 44.8094 21.7627C42.0951 23.1913 38.0475 24.5722 37.1903 24.8103C37.1427 24.8103 37.1427 24.8579 37.0951 24.8579C37.2856 28.8579 39.7618 32.3341 39.3332 32.4294C38.9523 32.5246 37.857 33.2389 37.3332 32.2389C37.3332 32.2389 31.9046 27.2865 31.2856 32.7627C30.6665 38.2389 35.0475 36.5246 36.5713 36.3818C36.5713 36.3818 37.3808 39.0484 36.5713 40.8103C36.3332 41.3342 35.7142 42.0484 34.9046 42.7627C35.0475 44.0484 35.238 46.5246 34.7618 48.6199C35.7618 48.5246 36.8094 48.4294 37.857 48.2865C38.3332 48.2389 38.8094 48.1437 39.238 48.0484C39.238 48.0484 42.6665 46.9532 48.3808 48.3342C48.2856 48.0961 48.1427 47.9532 48.1427 47.9532Z" fill="white" stroke="black" stroke-miterlimit="10"/>
<path d="M66.0001 62.1435C63.3335 57.2864 59.6192 53.0483 54.4763 50.4292C51.8096 49.0483 49.4763 48.5245 48.3334 48.2864C48.3334 48.2864 44.0953 47.334 39.5715 47.7149C38.762 47.7626 37.9525 47.9054 37.9525 47.9054C37.9525 47.9054 36.1906 48.1435 34.7144 48.5721C32.9049 49.0959 28.2382 52.4292 24.5239 59.0483C22.7144 62.2864 21.4763 67.0007 20.7144 72.2864C26.1429 75.2864 32.381 77.0007 39.0001 77.0007C42.1906 77.0007 45.2858 76.6198 48.2382 75.8578C55.6668 74.0007 62.2382 69.9531 67.1906 64.4293C66.8097 63.715 66.4287 62.9054 66.0001 62.1435Z" fill="#48DA85" stroke="black" stroke-miterlimit="10"/>
<path d="M45.6668 15.2385C44.5715 12.81 42.2858 11.4766 41.8096 13.3814C40.8572 16.9052 30.2382 19.3338 27.381 20.9528C24.5239 22.5719 22.762 26.0005 22.4286 30.191C22.0953 34.3338 26.2382 42.4291 28.4763 44.4767C30.0477 45.9053 32.9525 44.4291 34.8572 42.81C35.6667 42.0957 36.2858 41.3814 36.5239 40.8576C37.3334 39.0957 36.5239 36.4291 36.5239 36.4291C34.9525 36.5243 30.5715 38.2862 31.2382 32.81C31.8572 27.3338 37.2858 32.2862 37.2858 32.2862C37.8096 33.2862 38.9048 32.5719 39.2858 32.4767C39.6667 32.3814 37.2382 28.9052 37.0477 24.9052C37.0477 24.9052 37.0953 24.9052 37.1429 24.9052C38.0001 24.6671 42.0477 23.2862 44.762 21.8576C45.7144 21.3814 46.5239 20.8576 46.9525 20.429C48.7144 18.5243 46.762 17.6671 45.6668 15.2385Z" fill="#000201"/>
</svg>
