<svg width="27" height="22" viewBox="0 0 27 22" fill="none" xmlns="http://www.w3.org/2000/svg">
<path fill-rule="evenodd" clip-rule="evenodd" d="M15.5865 3.71387V2.24147H10.9212V3.71387H15.5865ZM8.20312 3.71387V2.2295C8.20312 0.99944 9.41622 -0.000976562 10.9067 -0.000976562H15.601C17.092 -0.000976562 18.3046 0.999826 18.3046 2.2295V3.71387H21.9985C24.5725 3.71387 26.6665 5.44144 26.6665 7.56501V17.7656C26.6665 19.8892 24.5725 21.6168 21.9985 21.6168H4.66805C2.09403 21.6168 0 19.8892 0 17.7656V10.6632V7.56501C0 5.44144 2.09403 3.71387 4.66805 3.71387H8.20312ZM2.71812 7.56501V9.54199H8.04277H18.6678H23.9484V7.56501C23.9484 6.67806 23.0736 5.95631 21.9985 5.95631H4.66805C3.59297 5.95631 2.71812 6.67806 2.71812 7.56501ZM6.68371 11.7844V12.6671C6.68371 13.2862 7.29236 13.7884 8.04277 13.7884C8.79318 13.7884 9.40183 13.2862 9.40183 12.6667V11.7844H17.3087V12.6671C17.3087 13.2862 17.9174 13.7884 18.6678 13.7884C19.4182 13.7884 20.0268 13.2862 20.0268 12.6667V11.7844H23.9484V17.7656C23.9484 18.6526 23.0736 19.3743 21.9985 19.3743H4.66805C3.59297 19.3743 2.71812 18.6526 2.71812 17.7656V11.7844H6.68371Z" fill="#1E3147"/>
</svg>
