<svg width="25" height="25" viewBox="0 0 25 25" fill="none" xmlns="http://www.w3.org/2000/svg">
<path d="M7.98047 14.9062V17.5986H10.6728L18.1728 10.0986L15.3843 7.40625L7.98047 14.9062Z" stroke="#1E3147" stroke-width="2" stroke-linecap="round" stroke-linejoin="round"/>
<path d="M14.1641 10.0039L15.8307 11.6706" stroke="#1E3147" stroke-width="2" stroke-linecap="round" stroke-linejoin="round"/>
<path d="M7.98047 14.9062L10.6728 17.5986" stroke="#1E3147" stroke-width="2" stroke-linecap="round" stroke-linejoin="round"/>
<path d="M12.5 25C5.57692 25 0 19.4231 0 12.5C0 5.57692 5.57692 0 12.5 0C19.4231 0 25 5.57692 25 12.5C25 19.4231 19.4231 25 12.5 25ZM12.5 1.92308C6.63462 1.92308 1.92308 6.63462 1.92308 12.5C1.92308 18.3654 6.63462 23.0769 12.5 23.0769C18.3654 23.0769 23.0769 18.3654 23.0769 12.5C23.0769 6.63462 18.3654 1.92308 12.5 1.92308Z" fill="#1E3147"/>
</svg>
