<svg width="25" height="25" viewBox="0 0 25 25" fill="none" xmlns="http://www.w3.org/2000/svg">
<path d="M12.5 25C5.57692 25 0 19.4231 0 12.5C0 5.57692 5.57692 0 12.5 0C19.4231 0 25 5.57692 25 12.5C25 19.4231 19.4231 25 12.5 25ZM12.5 1.92308C6.63462 1.92308 1.92308 6.63462 1.92308 12.5C1.92308 18.3654 6.63462 23.0769 12.5 23.0769C18.3654 23.0769 23.0769 18.3654 23.0769 12.5C23.0769 6.63462 18.3654 1.92308 12.5 1.92308Z" fill="#1E3147"/>
<path d="M12.9449 19.4615C12.3498 19.4615 11.9531 19.0769 11.9531 18.5V6.96154C11.9531 6.38462 12.3498 6 12.9449 6C13.5399 6 13.9366 6.38462 13.9366 6.96154V18.5C13.9366 19.0769 13.5399 19.4615 12.9449 19.4615Z" fill="#1E3147"/>
<path d="M18.8926 13.6887H6.99174C6.39669 13.6887 6 13.3041 6 12.7272C6 12.1502 6.39669 11.7656 6.99174 11.7656H18.8926C19.4876 11.7656 19.8843 12.1502 19.8843 12.7272C19.8843 13.3041 19.4876 13.6887 18.8926 13.6887Z" fill="#1E3147"/>
</svg>
