<svg width="560" height="560" viewBox="0 0 560 560" fill="none" xmlns="http://www.w3.org/2000/svg">
<path d="M468.22 501.475H72.5031C72.3232 501.475 72.1506 501.403 72.0234 501.276C71.8962 501.149 71.8247 500.976 71.8247 500.796V209.662C71.8246 209.556 71.8503 209.452 71.8995 209.358C71.9488 209.264 72.0201 209.184 72.1074 209.124L269.966 69.0123C270.086 68.9428 270.223 68.9062 270.362 68.9063C270.501 68.9062 270.637 68.9428 270.757 69.0123L468.616 208.983C468.707 209.039 468.782 209.118 468.831 209.213C468.881 209.307 468.904 209.414 468.899 209.52V500.655C468.92 500.755 468.919 500.859 468.894 500.958C468.87 501.058 468.823 501.15 468.758 501.229C468.693 501.308 468.611 501.371 468.517 501.414C468.424 501.456 468.323 501.477 468.22 501.475ZM73.1532 500.062H467.57V209.859L270.362 70.3973L73.1532 209.859V500.062Z" fill="#8C7BFF"/>
<path d="M222.084 409.302H215.922C215.835 409.306 215.747 409.292 215.665 409.261C215.583 409.23 215.508 409.183 215.444 409.122C215.381 409.061 215.33 408.988 215.296 408.908C215.262 408.827 215.244 408.74 215.244 408.652V406.136H143.534C143.445 406.136 143.357 406.119 143.275 406.085C143.192 406.051 143.118 406.001 143.055 405.938C142.992 405.875 142.942 405.8 142.908 405.718C142.874 405.635 142.856 405.547 142.856 405.458V215.231C142.856 215.142 142.874 215.054 142.908 214.972C142.942 214.889 142.992 214.814 143.055 214.751C143.118 214.688 143.192 214.638 143.275 214.604C143.357 214.57 143.445 214.553 143.534 214.553H293.568C293.748 214.553 293.92 214.624 294.047 214.751C294.175 214.879 294.246 215.051 294.246 215.231V405.373C294.246 405.553 294.175 405.726 294.047 405.853C293.92 405.98 293.748 406.052 293.568 406.052H222.904V408.567C222.923 408.676 222.913 408.787 222.877 408.891C222.841 408.995 222.779 409.088 222.697 409.161C222.615 409.235 222.516 409.286 222.409 409.311C222.302 409.335 222.19 409.332 222.084 409.302ZM216.601 407.974H221.406V405.373C221.406 405.193 221.477 405.021 221.605 404.894C221.732 404.766 221.904 404.695 222.084 404.695H292.748V215.994H144.1V404.865H215.922C216.102 404.865 216.275 404.936 216.402 405.063C216.529 405.19 216.601 405.363 216.601 405.543V407.974ZM286.586 394.604H222.084C221.995 394.604 221.907 394.587 221.825 394.553C221.742 394.518 221.668 394.468 221.605 394.405C221.542 394.342 221.492 394.268 221.457 394.185C221.423 394.103 221.406 394.015 221.406 393.926V341.239C221.406 341.059 221.477 340.886 221.605 340.759C221.732 340.632 221.904 340.56 222.084 340.56H286.586C286.766 340.56 286.939 340.632 287.066 340.759C287.193 340.886 287.265 341.059 287.265 341.239V394.067C287.232 394.222 287.146 394.36 287.022 394.458C286.898 394.556 286.744 394.608 286.586 394.604ZM222.763 393.247H285.908V341.917H222.763V393.247ZM215.922 394.604H150.516C150.344 394.629 150.169 394.588 150.027 394.488C149.885 394.388 149.787 394.237 149.753 394.067V341.239C149.753 341.059 149.824 340.886 149.951 340.759C150.079 340.632 150.251 340.56 150.431 340.56H215.922C216.102 340.56 216.275 340.632 216.402 340.759C216.529 340.886 216.601 341.059 216.601 341.239V394.067C216.568 394.222 216.482 394.36 216.358 394.458C216.234 394.556 216.08 394.608 215.922 394.604ZM151.166 393.247H215.244V341.917H151.166V393.247ZM286.586 335.755H222.084C221.904 335.755 221.732 335.684 221.605 335.557C221.477 335.429 221.406 335.257 221.406 335.077V280.553C221.406 280.373 221.477 280.2 221.605 280.073C221.732 279.946 221.904 279.874 222.084 279.874H286.586C286.766 279.874 286.939 279.946 287.066 280.073C287.193 280.2 287.265 280.373 287.265 280.553V335.077C287.265 335.166 287.247 335.254 287.213 335.337C287.179 335.419 287.129 335.494 287.066 335.557C287.003 335.62 286.928 335.67 286.846 335.704C286.763 335.738 286.675 335.755 286.586 335.755ZM222.763 334.399H285.908V281.231H222.763V334.399ZM215.922 335.755H150.516C150.336 335.755 150.163 335.684 150.036 335.557C149.909 335.429 149.838 335.257 149.838 335.077V280.553C149.838 280.373 149.909 280.2 150.036 280.073C150.163 279.946 150.336 279.874 150.516 279.874H215.922C216.102 279.874 216.275 279.946 216.402 280.073C216.529 280.2 216.601 280.373 216.601 280.553V335.077C216.601 335.257 216.529 335.429 216.402 335.557C216.275 335.684 216.102 335.755 215.922 335.755ZM151.166 334.399H215.244V281.231H151.166V334.399ZM286.586 275.041H222.084C221.904 275.041 221.732 274.969 221.605 274.842C221.477 274.715 221.406 274.543 221.406 274.363V221.393C221.406 221.213 221.477 221.041 221.605 220.913C221.732 220.786 221.904 220.715 222.084 220.715H286.586C286.766 220.715 286.939 220.786 287.066 220.913C287.193 221.041 287.265 221.213 287.265 221.393V274.391C287.265 274.571 287.193 274.743 287.066 274.871C286.939 274.998 286.766 275.069 286.586 275.069V275.041ZM222.763 273.684H285.908V222.071H222.763V273.684ZM215.922 275.041H150.516C150.336 275.041 150.163 274.969 150.036 274.842C149.909 274.715 149.838 274.543 149.838 274.363V221.393C149.838 221.213 149.909 221.041 150.036 220.913C150.163 220.786 150.336 220.715 150.516 220.715H215.922C216.102 220.715 216.275 220.786 216.402 220.913C216.529 221.041 216.601 221.213 216.601 221.393V274.391C216.601 274.571 216.529 274.743 216.402 274.871C216.275 274.998 216.102 275.069 215.922 275.069V275.041ZM151.166 273.712H215.244V222.071H151.166V273.712Z" fill="#8C7BFF"/>
<path d="M211.202 208.248C209.605 208.245 208.028 207.882 206.59 207.187C205.151 206.493 203.888 205.483 202.892 204.234C201.9 205.488 200.637 206.5 199.197 207.196C197.758 207.893 196.18 208.254 194.582 208.254C192.983 208.254 191.405 207.893 189.966 207.196C188.527 206.5 187.264 205.488 186.272 204.234C185.279 205.488 184.016 206.5 182.577 207.196C181.138 207.893 179.56 208.254 177.962 208.254C176.363 208.254 174.785 207.893 173.346 207.196C171.907 206.5 170.644 205.488 169.652 204.234C168.659 205.488 167.396 206.5 165.957 207.196C164.518 207.893 162.94 208.254 161.342 208.254C159.743 208.254 158.165 207.893 156.726 207.196C155.287 206.5 154.024 205.488 153.031 204.234C152.067 205.446 150.85 206.433 149.464 207.125C148.079 207.817 146.559 208.198 145.01 208.241C143.462 208.284 141.923 207.989 140.501 207.375C139.079 206.761 137.809 205.843 136.779 204.687V348.841C175.968 313.753 203.065 267.177 214.198 215.767L216.092 207.061C214.581 207.843 212.904 208.251 211.202 208.248Z" fill="#FED101"/>
<path d="M141.556 337.249C141.402 337.259 141.25 337.209 141.132 337.108C141.069 337.045 141.019 336.97 140.984 336.888C140.95 336.805 140.933 336.717 140.933 336.628C140.933 336.538 140.95 336.45 140.984 336.367C141.019 336.285 141.069 336.21 141.132 336.147C170.367 301.02 189.359 258.518 196.024 213.305C196.024 213.208 196.046 213.112 196.087 213.024C196.128 212.936 196.187 212.857 196.261 212.794C196.335 212.731 196.421 212.684 196.514 212.657C196.608 212.63 196.706 212.624 196.802 212.638C196.898 212.653 196.99 212.687 197.072 212.74C197.153 212.793 197.222 212.863 197.275 212.945C197.327 213.027 197.361 213.119 197.374 213.216C197.387 213.312 197.38 213.41 197.352 213.503C190.632 258.977 171.502 301.717 142.065 337.023C142.002 337.096 141.924 337.154 141.836 337.194C141.748 337.233 141.652 337.252 141.556 337.249Z" fill="black"/>
<path d="M148 325.072C147.888 325.097 147.773 325.097 147.661 325.072C147.585 325.025 147.519 324.964 147.466 324.892C147.413 324.82 147.376 324.739 147.355 324.652C147.334 324.566 147.33 324.476 147.344 324.388C147.357 324.299 147.388 324.215 147.435 324.139C165.375 294.172 176.762 260.744 180.845 226.058C180.873 225.88 180.967 225.72 181.109 225.61C181.251 225.5 181.429 225.447 181.608 225.464C181.696 225.474 181.782 225.502 181.859 225.547C181.936 225.591 182.003 225.651 182.056 225.723C182.109 225.794 182.147 225.876 182.167 225.963C182.187 226.05 182.189 226.14 182.173 226.227C178.109 261.068 166.703 294.651 148.707 324.761C148.629 324.873 148.522 324.962 148.398 325.016C148.273 325.071 148.135 325.09 148 325.072Z" fill="black"/>
<path d="M140.793 326.881H140.595C140.507 326.86 140.425 326.82 140.355 326.763C140.284 326.707 140.227 326.636 140.187 326.555C140.146 326.475 140.124 326.386 140.121 326.296C140.119 326.206 140.136 326.116 140.171 326.033C151.006 292.042 157.419 256.797 159.25 221.168C159.25 221.078 159.268 220.988 159.304 220.906C159.341 220.823 159.394 220.748 159.46 220.687C159.527 220.626 159.605 220.579 159.691 220.55C159.776 220.521 159.867 220.51 159.957 220.518C160.132 220.533 160.294 220.614 160.41 220.746C160.526 220.878 160.587 221.049 160.579 221.225C158.768 256.981 152.336 292.353 141.443 326.457C141.388 326.584 141.297 326.691 141.181 326.767C141.066 326.842 140.931 326.882 140.793 326.881Z" fill="black"/>
<path d="M256.031 483.069H253.12L237.206 453.418H248.088L256.031 483.069Z" fill="black"/>
<path d="M54.4131 483.069H57.3527L73.2379 453.418H62.3557L54.4131 483.069Z" fill="black"/>
<path d="M267.931 461.336H42.5417C33.9365 461.335 25.6018 458.33 18.9759 452.839C12.35 447.348 7.84868 439.717 6.24879 431.262L0.934868 403.279C0.432426 400.61 0.524164 397.863 1.20356 395.234C1.88296 392.605 3.13332 390.157 4.86574 388.066C6.59815 385.975 8.77007 384.291 11.227 383.134C13.684 381.977 16.3657 381.376 19.0813 381.373H291.363C294.079 381.376 296.76 381.977 299.217 383.134C301.674 384.291 303.846 385.975 305.579 388.066C307.311 390.157 308.562 392.605 309.241 395.234C309.92 397.863 310.012 400.61 309.51 403.279L304.224 431.262C302.624 439.717 298.123 447.348 291.497 452.839C284.871 458.33 276.536 461.335 267.931 461.336Z" fill="#8C7BFF"/>
<path d="M267.931 461.898H42.5415C33.7982 461.887 25.3311 458.835 18.5912 453.266C11.8512 447.696 7.25792 439.956 5.59847 431.372L0.312821 403.417C-0.191769 400.659 -0.0848801 397.823 0.625946 395.111C1.33677 392.398 2.63421 389.875 4.42673 387.718C6.21924 385.562 8.46314 383.825 11.0001 382.631C13.5371 381.436 16.3053 380.813 19.1094 380.805H291.363C294.169 380.809 296.941 381.429 299.481 382.622C302.022 383.814 304.269 385.551 306.065 387.707C307.86 389.864 309.16 392.389 309.873 395.104C310.585 397.818 310.693 400.656 310.188 403.417L304.874 431.372C303.219 439.959 298.628 447.702 291.887 453.272C285.145 458.842 276.676 461.892 267.931 461.898ZM19.1942 381.935C16.578 381.94 13.9948 382.52 11.6285 383.636C9.26217 384.752 7.17079 386.376 5.5031 388.391C3.83541 390.407 2.63238 392.766 1.97957 395.299C1.32677 397.833 1.24022 400.479 1.7261 403.05L7.01175 431.004C8.58474 439.307 13.0059 446.801 19.5126 452.193C26.0194 457.586 34.2039 460.538 42.6546 460.542H267.931C276.378 460.537 284.559 457.583 291.061 452.191C297.563 446.798 301.978 439.305 303.545 431.004L308.859 403.05C309.346 400.477 309.258 397.828 308.604 395.292C307.95 392.757 306.744 390.397 305.073 388.381C303.402 386.364 301.308 384.741 298.938 383.627C296.568 382.513 293.982 381.936 291.363 381.935H19.1942Z" fill="black"/>
<path d="M133.613 321.535H176.859C201.283 321.535 224.706 331.237 241.976 348.507C259.246 365.777 268.948 389.201 268.948 413.624H41.4956C41.4956 401.529 43.8785 389.551 48.5082 378.377C53.1379 367.202 59.9236 357.049 68.4779 348.497C77.0321 339.946 87.1873 333.163 98.3633 328.537C109.539 323.911 121.517 321.531 133.613 321.535Z" fill="#8C7BFF"/>
<path d="M268.948 414.301H41.4958C41.4104 414.301 41.3259 414.284 41.247 414.251C41.1681 414.218 41.0965 414.17 41.0361 414.11C40.9757 414.05 40.9279 413.978 40.8952 413.899C40.8625 413.82 40.8457 413.736 40.8457 413.65V337.899C40.8457 333.401 42.6325 329.087 45.813 325.907C48.9935 322.726 53.3071 320.939 57.805 320.939H252.583C257.081 320.939 261.394 322.726 264.575 325.907C267.755 329.087 269.542 333.401 269.542 337.899V413.65C269.543 413.813 269.482 413.971 269.372 414.091C269.262 414.212 269.111 414.286 268.948 414.301ZM42.1742 412.972H268.298V337.899C268.291 333.741 266.636 329.755 263.695 326.814C260.755 323.874 256.769 322.219 252.611 322.211H57.8615C53.7033 322.219 49.7175 323.874 46.7772 326.814C43.8368 329.755 42.1817 333.741 42.1742 337.899V412.972Z" fill="black"/>
<path d="M262.165 427.73H48.2795C44.9101 427.573 41.7306 426.125 39.4015 423.685C37.0725 421.245 35.7729 418.002 35.7729 414.629C35.7729 411.256 37.0725 408.013 39.4015 405.573C41.7306 403.133 44.9101 401.684 48.2795 401.528H262.165C263.936 401.445 265.706 401.723 267.367 402.345C269.029 402.966 270.547 403.918 271.829 405.142C273.112 406.367 274.134 407.839 274.831 409.47C275.529 411.1 275.889 412.855 275.889 414.629C275.889 416.402 275.529 418.158 274.831 419.788C274.134 421.419 273.112 422.891 271.829 424.116C270.547 425.34 269.029 426.292 267.367 426.913C265.706 427.534 263.936 427.812 262.165 427.73Z" fill="black"/>
<path d="M291.327 402.121C298.117 386.638 291.07 368.583 275.587 361.793C260.104 355.003 242.048 362.049 235.258 377.532C228.468 393.015 235.515 411.071 250.998 417.861C266.481 424.651 284.537 417.604 291.327 402.121Z" fill="#FED101"/>
<path d="M59.279 417.944C74.8031 411.249 81.9601 393.236 75.2648 377.712C68.5694 362.188 50.5571 355.031 35.0331 361.727C19.509 368.422 12.352 386.434 19.0473 401.958C25.7426 417.482 43.755 424.639 59.279 417.944Z" fill="#FED101"/>
<path d="M55.9392 269.699C59.1644 265.945 61.245 261.345 61.934 256.444C62.623 251.543 61.8915 246.548 59.8263 242.051C57.7611 237.553 54.4489 233.743 50.2828 231.072C46.1168 228.4 41.2718 226.98 36.3229 226.98C31.3741 226.98 26.5291 228.4 22.363 231.072C18.197 233.743 14.8848 237.553 12.8196 242.051C10.7544 246.548 10.0229 251.543 10.7119 256.444C11.4009 261.345 13.4814 265.945 16.7067 269.699H55.9392Z" fill="#FED101"/>
<path d="M56.9286 249.344C56.7699 249.346 56.6162 249.289 56.4965 249.185C56.3767 249.081 56.2992 248.936 56.2785 248.779C55.8046 245.693 54.6477 242.751 52.8922 240.17C51.1367 237.588 48.8268 235.43 46.1312 233.855C46.056 233.811 45.9904 233.753 45.9381 233.683C45.8859 233.614 45.8481 233.535 45.827 233.45C45.8059 233.366 45.802 233.278 45.8154 233.192C45.8288 233.106 45.8593 233.024 45.9051 232.95C45.9463 232.873 46.0028 232.804 46.0712 232.749C46.1396 232.694 46.2184 232.654 46.303 232.63C46.3875 232.606 46.4759 232.6 46.563 232.611C46.6501 232.622 46.734 232.651 46.8096 232.696C49.6831 234.367 52.1449 236.662 54.0137 239.411C55.8824 242.161 57.1103 245.294 57.607 248.581C57.6314 248.757 57.5859 248.935 57.4802 249.078C57.3745 249.221 57.217 249.316 57.0417 249.344H56.9286Z" fill="white"/>
<path d="M56.2218 259.041H56.024C55.9385 259.015 55.859 258.973 55.79 258.916C55.721 258.86 55.6638 258.79 55.6218 258.711C55.5798 258.632 55.5537 258.546 55.5451 258.457C55.5365 258.368 55.5456 258.279 55.5717 258.193C56.0732 256.597 56.3769 254.945 56.4762 253.275C56.4558 253.176 56.4575 253.074 56.4814 252.977C56.5053 252.879 56.5507 252.787 56.6143 252.709C56.6779 252.631 56.7582 252.568 56.8492 252.525C56.9402 252.481 57.0397 252.459 57.1405 252.459C57.2412 252.459 57.3407 252.481 57.4318 252.525C57.5228 252.568 57.603 252.631 57.6666 252.709C57.7302 252.787 57.7756 252.879 57.7995 252.977C57.8234 253.074 57.8252 253.176 57.8047 253.275C57.7078 255.04 57.3946 256.787 56.8719 258.476C56.8411 258.629 56.7606 258.767 56.643 258.869C56.5254 258.971 56.3774 259.032 56.2218 259.041Z" fill="white"/>
<path d="M36.3227 214.781L28.7192 227.981H43.9261L36.3227 214.781Z" fill="black"/>
<path d="M36.3229 221.139C36.143 221.139 35.9704 221.067 35.8432 220.94C35.716 220.813 35.6445 220.64 35.6445 220.46V155.223C35.6445 155.043 35.716 154.871 35.8432 154.744C35.9704 154.616 36.143 154.545 36.3229 154.545C36.5028 154.545 36.6754 154.616 36.8026 154.744C36.9298 154.871 37.0013 155.043 37.0013 155.223V220.46C37.0013 220.549 36.9837 220.637 36.9496 220.72C36.9155 220.802 36.8656 220.877 36.8026 220.94C36.7396 221.003 36.6648 221.053 36.5825 221.087C36.5002 221.121 36.412 221.139 36.3229 221.139Z" fill="black"/>
<path d="M111.425 284.931C113.745 282.247 115.245 278.954 115.747 275.442C116.249 271.93 115.731 268.348 114.256 265.122C112.78 261.896 110.409 259.162 107.424 257.245C104.439 255.328 100.967 254.309 97.4192 254.309C93.8718 254.309 90.399 255.328 87.4142 257.245C84.4294 259.162 82.0582 261.896 80.5827 265.122C79.1072 268.348 78.5896 271.93 79.0915 275.442C79.5934 278.954 81.0936 282.247 83.4136 284.931H111.425Z" fill="#FED101"/>
<path d="M112.16 270.66C111.998 270.662 111.841 270.606 111.716 270.503C111.592 270.399 111.508 270.254 111.482 270.095C111.157 267.917 110.345 265.841 109.107 264.02C107.869 262.2 106.236 260.682 104.33 259.58C104.254 259.534 104.188 259.473 104.135 259.401C104.083 259.329 104.045 259.247 104.024 259.16C104.003 259.074 103.999 258.984 104.013 258.896C104.027 258.808 104.058 258.723 104.104 258.647C104.198 258.494 104.347 258.383 104.52 258.335C104.694 258.288 104.878 258.309 105.037 258.393C107.112 259.605 108.888 261.268 110.234 263.259C111.579 265.251 112.46 267.519 112.81 269.897C112.834 270.073 112.789 270.251 112.683 270.394C112.577 270.537 112.42 270.632 112.245 270.66H112.16Z" fill="white"/>
<path d="M111.651 277.585H111.453C111.368 277.559 111.288 277.516 111.219 277.46C111.15 277.403 111.093 277.333 111.051 277.255C111.009 277.176 110.983 277.09 110.974 277.001C110.966 276.912 110.975 276.822 111.001 276.737C111.35 275.618 111.559 274.459 111.623 273.288C111.63 273.199 111.655 273.112 111.695 273.033C111.736 272.953 111.792 272.882 111.861 272.825C111.929 272.767 112.008 272.723 112.093 272.696C112.179 272.669 112.269 272.659 112.358 272.667C112.533 272.681 112.695 272.763 112.811 272.895C112.927 273.026 112.987 273.198 112.98 273.373C112.896 274.648 112.668 275.909 112.301 277.133C112.247 277.262 112.157 277.374 112.042 277.454C111.927 277.534 111.791 277.579 111.651 277.585Z" fill="white"/>
<path d="M97.4333 245.756L91.978 255.197H102.86L97.4333 245.756Z" fill="black"/>
<path d="M97.4337 250.505C97.3446 250.505 97.2564 250.488 97.1741 250.454C97.0918 250.42 97.017 250.37 96.954 250.307C96.891 250.244 96.8411 250.169 96.807 250.087C96.7729 250.004 96.7553 249.916 96.7553 249.827V157.144C96.7349 157.046 96.7367 156.944 96.7606 156.846C96.7844 156.748 96.8298 156.656 96.8934 156.578C96.9571 156.5 97.0373 156.437 97.1283 156.394C97.2193 156.351 97.3188 156.328 97.4196 156.328C97.5204 156.328 97.6199 156.351 97.7109 156.394C97.8019 156.437 97.8821 156.5 97.9457 156.578C98.0093 156.656 98.0547 156.748 98.0786 156.846C98.1025 156.944 98.1043 157.046 98.0838 157.144V249.912C98.0696 250.074 97.9949 250.225 97.8745 250.335C97.7541 250.445 97.5968 250.506 97.4337 250.505Z" fill="black"/>
<path d="M154.473 533.836C214.153 533.836 262.532 523.876 262.532 511.591C262.532 499.305 214.153 489.346 154.473 489.346C94.7938 489.346 46.4141 499.305 46.4141 511.591C46.4141 523.876 94.7938 533.836 154.473 533.836Z" fill="#8C7BFF"/>
<path d="M154.473 525.496C117.05 525.496 62.9214 519.843 62.9214 509.582C62.9214 499.322 117.05 493.641 154.473 493.641C191.897 493.641 245.997 499.294 245.997 509.582C245.997 519.871 191.869 525.496 154.473 525.496ZM154.473 494.969C108.118 494.969 64.2781 502.064 64.2781 509.582C64.2781 517.101 108.118 524.083 154.473 524.083C200.829 524.083 244.669 516.988 244.669 509.498C244.669 502.007 200.829 494.969 154.473 494.969Z" fill="#FED101"/>
<path d="M154.473 517.836C140.877 517.836 121.883 516.847 107.185 515.349C78.7212 512.522 78.7212 509.385 78.7212 508.226C78.7212 507.067 78.7212 503.986 107.213 501.414C121.628 500.114 140.199 499.266 154.473 499.266C168.747 499.266 187.289 500.114 201.733 501.414C230.196 503.986 230.196 507.067 230.196 508.226C230.196 509.385 230.196 512.466 201.733 515.349C187.063 516.847 168.04 517.836 154.473 517.836ZM154.473 500.622C140.34 500.622 121.713 501.47 107.326 502.771C80.8411 505.145 80.0779 507.915 80.0779 508.226C80.0779 508.537 80.3889 511.278 107.326 514.02C121.967 515.49 140.905 516.479 154.473 516.479C168.04 516.479 186.95 515.49 201.591 514.02C228.557 511.194 228.868 508.367 228.868 508.226C228.868 508.084 228.104 505.145 201.62 502.771C187.204 501.47 168.719 500.622 154.473 500.622Z" fill="#FED101"/>
<path d="M67.2177 405.627C62.7596 410.243 57.8015 414.348 52.4348 417.866C45.2554 422.36 41.2982 422.106 40.3372 420.353C39.3761 418.601 41.2699 415.124 48.8168 411.506C54.7184 408.883 60.8885 406.912 67.2177 405.627Z" fill="#1EC15F"/>
<path d="M32.6208 503.625C32.4408 503.625 32.2683 503.553 32.1411 503.426C32.0139 503.299 31.9424 503.126 31.9424 502.946L34.5711 411.027C34.6028 410.874 34.6861 410.737 34.8071 410.639C34.9281 410.54 35.0793 410.486 35.2353 410.486C35.3913 410.486 35.5425 410.54 35.6635 410.639C35.7845 410.737 35.8679 410.874 35.8996 411.027L33.2991 503.003C33.2955 503.088 33.2751 503.172 33.239 503.25C33.2029 503.327 33.1519 503.397 33.0889 503.455C33.0259 503.512 32.9521 503.557 32.8718 503.586C32.7915 503.616 32.7061 503.629 32.6208 503.625Z" fill="#955B50"/>
<path d="M40.4508 503.624C40.2709 503.624 40.0984 503.552 39.9712 503.425C39.8439 503.298 39.7725 503.125 39.7725 502.946V411.026C39.7725 410.846 39.8439 410.674 39.9712 410.546C40.0984 410.419 40.2709 410.348 40.4508 410.348C40.6307 410.348 40.8033 410.419 40.9305 410.546C41.0577 410.674 41.1292 410.846 41.1292 411.026V502.974C41.1219 503.149 41.0472 503.314 40.9208 503.435C40.7944 503.556 40.626 503.624 40.4508 503.624Z" fill="#955B50"/>
<path d="M48.2515 503.625C48.079 503.625 47.9137 503.556 47.7918 503.434C47.6698 503.312 47.6014 503.147 47.6014 502.974L44.9727 411.027C44.9727 410.847 45.0441 410.674 45.1713 410.547C45.2986 410.42 45.4711 410.348 45.651 410.348C45.7387 410.344 45.8263 410.358 45.9085 410.389C45.9907 410.42 46.0657 410.468 46.1291 410.528C46.1925 410.589 46.2429 410.662 46.2774 410.743C46.3118 410.824 46.3295 410.911 46.3294 410.998L48.9298 502.974C48.9336 503.062 48.9197 503.15 48.8887 503.232C48.8577 503.314 48.8105 503.389 48.7497 503.453C48.689 503.516 48.616 503.566 48.5352 503.601C48.4544 503.635 48.3675 503.653 48.2797 503.653L48.2515 503.625Z" fill="#955B50"/>
<path d="M82.3679 416.682C74.5254 417.737 66.5885 417.898 58.7097 417.162C48.3645 416.004 44.7465 412.725 45.1422 410.294C45.5379 407.863 50.0887 405.969 60.236 408.372C67.8899 410.341 75.3098 413.127 82.3679 416.682Z" fill="#4ADA85"/>
<path d="M63.7407 455.942C57.0071 451.75 50.7763 446.799 45.1703 441.188C37.9343 433.697 37.2277 428.864 39.0932 427.253C40.9587 425.642 45.6508 427.083 51.954 435.393C56.5963 441.808 60.5471 448.696 63.7407 455.942Z" fill="#4ADA85"/>
<path d="M9.78223 426.404C14.3918 423.25 19.341 420.624 24.5368 418.574C31.4619 416.002 34.7972 416.907 35.306 418.574C35.8148 420.242 33.5535 422.871 26.4024 424.595C20.9444 425.799 15.3715 426.406 9.78223 426.404Z" fill="#4ADA85"/>
<path d="M21.8799 429.541C24.7836 425.326 28.1597 421.457 31.9424 418.009C37.0019 413.543 40.1677 413.232 41.1287 414.504C42.0897 415.776 41.1287 418.744 35.4756 422.56C31.2056 425.365 26.6477 427.705 21.8799 429.541Z" fill="#1EC15F"/>
<path d="M17.5269 446.923C20.4326 442.71 23.8085 438.841 27.5894 435.391C32.6772 430.925 35.8147 430.614 36.8039 431.858C37.7932 433.101 36.8039 436.126 31.1508 439.942C26.8719 442.749 22.3045 445.089 17.5269 446.923Z" fill="#1EC15F"/>
<path d="M55.2053 385.588C53.7913 391.849 51.667 397.927 48.8738 403.706C45.0862 411.281 41.553 413.119 39.8289 412.186C38.1047 411.253 37.9351 407.211 42.6554 400.173C46.3072 394.878 50.5144 389.989 55.2053 385.588Z" fill="#1EC15F"/>
<path d="M14.7285 390.082C20.3245 393.246 25.5403 397.039 30.2746 401.388C36.4364 407.183 37.1996 411.083 35.7298 412.44C34.26 413.797 30.4159 412.836 25.0172 406.335C21.0197 401.298 17.5706 395.85 14.7285 390.082Z" fill="#1EC15F"/>
<path d="M34.995 535.933H45.9055C47.3003 535.938 48.6809 535.652 49.9591 535.094C51.2374 534.536 52.3853 533.718 53.3295 532.691C54.2737 531.664 54.9934 530.452 55.4429 529.132C55.8923 527.811 56.0615 526.412 55.9397 525.022L52.5196 484.518H28.3808L24.9607 525.022C24.8389 526.412 25.0081 527.811 25.4575 529.132C25.907 530.452 26.6268 531.664 27.571 532.691C28.5152 533.718 29.663 534.536 30.9413 535.094C32.2196 535.652 33.6002 535.938 34.995 535.933Z" fill="#FED101"/>
<path d="M55.9397 525.022L52.5196 484.518H48.1667L47.2622 524.457C47.2622 524.796 47.2622 525.163 47.2622 525.531C47.3039 526.878 47.0744 528.22 46.5874 529.477C46.1004 530.734 45.3658 531.88 44.4272 532.848C43.4886 533.816 42.3652 534.585 41.1237 535.11C39.8821 535.635 38.5477 535.905 37.1997 535.904H45.8772C47.2718 535.913 48.6529 535.631 49.9325 535.077C51.212 534.522 52.3619 533.707 53.3087 532.683C54.2556 531.659 54.9785 530.449 55.4315 529.13C55.8846 527.811 56.0576 526.412 55.9397 525.022Z" fill="black"/>
<path d="M346.565 533.668H390.179L374.661 440.477H331.047L346.565 533.668Z" fill="#FDDCC4"/>
<path d="M339.329 490.139L386.504 511.677L374.661 440.477H331.047L339.329 490.139Z" fill="black"/>
<path d="M270.813 549.19H395.662L390.235 511.682H340.94L307.219 522.507L300.237 523.073C283.561 524.345 270.813 535.651 270.813 549.19Z" fill="white"/>
<path d="M395.662 549.867H270.813C270.633 549.867 270.461 549.796 270.333 549.668C270.206 549.541 270.135 549.369 270.135 549.189C270.135 535.226 283.052 523.75 300.181 522.393L307.106 521.856L340.742 511.059H340.94H390.178C390.34 511.064 390.494 511.127 390.613 511.236C390.732 511.344 390.808 511.492 390.829 511.652L396.256 549.132C396.27 549.227 396.264 549.323 396.24 549.415C396.216 549.508 396.173 549.594 396.114 549.669C395.994 549.79 395.832 549.86 395.662 549.867ZM271.548 548.51H394.814L389.585 512.359H341.053L307.445 523.156H307.276L300.266 523.693C284.154 524.965 271.916 535.565 271.492 548.51H271.548Z" fill="black"/>
<path d="M267.336 558.404H399.874V549.189H268.1L267.336 558.404Z" fill="white"/>
<path d="M399.874 559.081H267.337C267.241 559.08 267.147 559.059 267.059 559.02C266.972 558.981 266.893 558.925 266.828 558.855C266.714 558.71 266.654 558.53 266.658 558.346L267.45 549.132C267.457 548.964 267.529 548.806 267.65 548.69C267.771 548.574 267.932 548.51 268.1 548.51H399.874C399.962 548.51 400.049 548.527 400.129 548.562C400.21 548.596 400.283 548.647 400.344 548.71C400.405 548.773 400.452 548.849 400.483 548.931C400.514 549.013 400.528 549.1 400.524 549.188V558.403C400.528 558.49 400.514 558.578 400.483 558.66C400.452 558.742 400.405 558.817 400.344 558.881C400.283 558.944 400.21 558.995 400.129 559.029C400.049 559.063 399.962 559.081 399.874 559.081ZM268.072 557.724H399.195V549.866H268.722L268.072 557.724Z" fill="black"/>
<path d="M315.163 519.961L323.19 529.373L315.163 519.961Z" fill="white"/>
<path d="M323.19 530.024C323.094 530.028 322.997 530.01 322.909 529.971C322.821 529.931 322.743 529.872 322.681 529.797L314.626 520.413C314.568 520.345 314.525 520.265 314.498 520.18C314.471 520.094 314.461 520.004 314.469 519.915C314.477 519.826 314.502 519.739 314.544 519.66C314.585 519.58 314.642 519.51 314.71 519.452C314.779 519.395 314.858 519.351 314.944 519.324C315.029 519.298 315.119 519.288 315.208 519.296C315.298 519.303 315.385 519.329 315.464 519.37C315.543 519.412 315.614 519.468 315.671 519.537L323.699 528.921C323.762 528.984 323.812 529.059 323.846 529.142C323.881 529.224 323.898 529.312 323.898 529.402C323.898 529.491 323.881 529.579 323.846 529.662C323.812 529.744 323.762 529.819 323.699 529.882C323.628 529.939 323.546 529.98 323.459 530.004C323.371 530.029 323.28 530.035 323.19 530.024Z" fill="black"/>
<path d="M322.907 517.645L330.935 526.916L322.907 517.645Z" fill="white"/>
<path d="M330.935 527.704C330.743 527.696 330.561 527.615 330.426 527.478L322.398 518.094C322.325 518.03 322.266 517.951 322.226 517.863C322.186 517.774 322.165 517.678 322.166 517.581C322.166 517.483 322.187 517.387 322.228 517.299C322.268 517.211 322.328 517.132 322.401 517.069C322.475 517.005 322.561 516.958 322.655 516.931C322.748 516.904 322.846 516.897 322.943 516.912C323.039 516.926 323.131 516.96 323.213 517.013C323.294 517.066 323.364 517.136 323.416 517.218L331.472 526.602C331.591 526.728 331.657 526.895 331.657 527.068C331.657 527.242 331.591 527.409 331.472 527.535C331.398 527.598 331.313 527.646 331.221 527.676C331.128 527.705 331.031 527.715 330.935 527.704Z" fill="black"/>
<path d="M330.651 515.326L338.707 524.71L330.651 515.326Z" fill="white"/>
<path d="M338.707 525.389C338.611 525.391 338.515 525.372 338.427 525.333C338.339 525.294 338.261 525.236 338.198 525.163L330.143 515.75C330.055 515.613 330.02 515.448 330.043 515.287C330.067 515.125 330.148 514.978 330.272 514.871C330.395 514.765 330.553 514.707 330.716 514.707C330.88 514.707 331.037 514.767 331.16 514.874L339.216 524.286C339.335 524.412 339.401 524.579 339.401 524.753C339.401 524.926 339.335 525.093 339.216 525.219C339.149 525.283 339.069 525.332 338.981 525.362C338.893 525.391 338.799 525.4 338.707 525.389Z" fill="black"/>
<path d="M463.613 533.668H507.227L491.709 440.477H448.096L463.613 533.668Z" fill="#FDDCC4"/>
<path d="M456.377 490.139L503.553 511.677L491.709 440.477H448.096L456.377 490.139Z" fill="black"/>
<path d="M387.183 549.19H511.947L506.52 511.682H457.225L423.504 522.507L416.494 523.073C399.818 524.345 387.183 535.651 387.183 549.19Z" fill="white"/>
<path d="M511.863 549.867H387.183C387.003 549.867 386.831 549.796 386.704 549.668C386.576 549.541 386.505 549.369 386.505 549.189C386.505 535.226 399.422 523.75 416.523 522.393L423.448 521.856L457.084 511.059H457.31H506.52C506.685 511.063 506.843 511.125 506.966 511.233C507.09 511.342 507.172 511.49 507.199 511.652L512.626 549.132C512.642 549.229 512.635 549.328 512.605 549.421C512.576 549.514 512.525 549.599 512.456 549.669C512.385 549.754 512.292 549.818 512.187 549.853C512.083 549.888 511.97 549.893 511.863 549.867ZM387.777 548.51H511.099L505.898 512.359H457.31L423.702 523.156L416.692 523.693C400.412 524.965 388.173 535.565 387.777 548.51Z" fill="black"/>
<path d="M383.622 558.404H516.13V549.189H384.385L383.622 558.404Z" fill="white"/>
<path d="M516.131 559.081H383.622C383.526 559.083 383.43 559.064 383.342 559.025C383.254 558.986 383.176 558.928 383.113 558.855C383.045 558.791 382.994 558.711 382.964 558.622C382.934 558.533 382.927 558.438 382.943 558.346L383.707 549.132C383.721 548.962 383.799 548.803 383.924 548.688C384.05 548.573 384.214 548.509 384.385 548.51H516.131C516.22 548.51 516.308 548.527 516.39 548.561C516.472 548.595 516.547 548.645 516.61 548.708C516.673 548.771 516.723 548.846 516.757 548.929C516.791 549.011 516.809 549.099 516.809 549.188V558.403C516.809 558.492 516.791 558.58 516.757 558.662C516.723 558.745 516.673 558.819 516.61 558.882C516.547 558.945 516.472 558.995 516.39 559.029C516.308 559.064 516.22 559.081 516.131 559.081ZM384.357 557.724H515.48V549.867H385.007L384.357 557.724Z" fill="black"/>
<path d="M431.418 519.963L439.474 529.375L431.418 519.963Z" fill="white"/>
<path d="M439.475 530.025C439.378 530.031 439.281 530.014 439.192 529.975C439.103 529.936 439.026 529.875 438.966 529.799L430.91 520.414C430.789 520.284 430.722 520.112 430.722 519.934C430.722 519.756 430.789 519.584 430.91 519.453C431.036 519.334 431.203 519.268 431.377 519.268C431.55 519.268 431.717 519.334 431.843 519.453L439.899 528.837C440.02 528.968 440.087 529.14 440.087 529.318C440.087 529.496 440.02 529.668 439.899 529.799C439.848 529.864 439.784 529.917 439.711 529.956C439.638 529.995 439.557 530.019 439.475 530.025Z" fill="black"/>
<path d="M439.163 517.645L447.218 527.029L439.163 517.645Z" fill="white"/>
<path d="M447.219 527.708C447.123 527.707 447.029 527.686 446.941 527.647C446.854 527.609 446.775 527.552 446.71 527.482L438.654 518.098C438.533 517.967 438.466 517.796 438.466 517.618C438.466 517.439 438.533 517.268 438.654 517.137C438.717 517.074 438.792 517.024 438.875 516.989C438.957 516.955 439.046 516.938 439.135 516.938C439.224 516.938 439.313 516.955 439.395 516.989C439.477 517.024 439.552 517.074 439.615 517.137L447.643 526.521C447.705 526.582 447.755 526.654 447.789 526.734C447.822 526.814 447.84 526.901 447.84 526.988C447.84 527.075 447.822 527.161 447.789 527.241C447.755 527.321 447.705 527.393 447.643 527.454C447.537 527.587 447.386 527.677 447.219 527.708Z" fill="black"/>
<path d="M446.936 515.326L454.963 524.71L446.936 515.326Z" fill="white"/>
<path d="M455.02 525.39C454.828 525.381 454.646 525.301 454.511 525.164L446.54 515.751C446.478 515.691 446.428 515.618 446.395 515.538C446.361 515.458 446.343 515.372 446.343 515.285C446.343 515.198 446.361 515.112 446.395 515.032C446.428 514.952 446.478 514.879 446.54 514.819C446.603 514.755 446.678 514.705 446.761 514.671C446.843 514.637 446.932 514.619 447.021 514.619C447.11 514.619 447.199 514.637 447.281 514.671C447.364 514.705 447.438 514.755 447.501 514.819L455.529 524.231C455.591 524.292 455.641 524.364 455.675 524.444C455.709 524.524 455.726 524.61 455.726 524.697C455.726 524.784 455.709 524.871 455.675 524.951C455.641 525.031 455.591 525.103 455.529 525.164C455.464 525.234 455.385 525.29 455.298 525.329C455.21 525.368 455.116 525.389 455.02 525.39Z" fill="black"/>
<path d="M325.479 490.168H401.315L397.952 347.879L448.067 186.766H371.467C371.467 186.766 320.985 305.198 322.144 346.918L325.479 490.168Z" fill="#FED101"/>
<path d="M383.621 349.547L416.522 265.23L419.886 277.554L398.037 347.851L401.4 490.139H383.169L383.621 349.547Z" fill="black"/>
<path d="M440.632 490.142H517.543L479.413 186.684H408.438L440.632 490.142Z" fill="#FED101"/>
<path d="M517.543 490.819H440.632C440.469 490.82 440.312 490.759 440.191 490.649C440.071 490.539 439.996 490.388 439.982 490.226L415.9 266.052C415.884 265.876 415.937 265.701 416.048 265.564C416.159 265.427 416.318 265.338 416.493 265.317C416.581 265.305 416.67 265.311 416.755 265.335C416.841 265.359 416.92 265.4 416.989 265.456C417.057 265.511 417.114 265.58 417.155 265.658C417.197 265.737 417.221 265.822 417.228 265.911L441.254 489.463H516.78L478.819 187.361H410.501C410.321 187.361 410.149 187.289 410.021 187.162C409.894 187.035 409.823 186.862 409.823 186.682C409.823 186.502 409.894 186.33 410.021 186.203C410.149 186.075 410.321 186.004 410.501 186.004H479.413C479.579 186.003 479.739 186.062 479.865 186.172C479.99 186.281 480.07 186.433 480.091 186.598L518.221 490.169C518.225 490.362 518.166 490.551 518.051 490.706C517.902 490.807 517.72 490.848 517.543 490.819Z" fill="black"/>
<path d="M483.399 218.226L412.679 256.102L400.157 220.827L383.169 252.371L357.419 221.533L362.451 207.712L479.244 199.006L483.399 218.226Z" fill="black"/>
<path d="M483.399 218.227L414.488 238.719L401.542 213.93L385.148 236.656L357.419 221.534L363.836 200.815L480.629 192.109L483.399 218.227Z" fill="white"/>
<path d="M552.734 168.651L507.509 107.965C502.549 101.325 496.109 95.9331 488.699 92.2186C481.29 88.5042 473.116 86.5695 464.828 86.5684H379.014C367.431 86.554 356.159 90.3148 346.904 97.281L248.456 171.789L279.265 186.487C285.974 189.69 293.435 190.988 300.832 190.24C308.229 189.493 315.278 186.728 321.211 182.247L361.15 152.06V209.354H491.454V173.881L524.553 218.229H527.889C533.632 218.201 539.255 216.582 544.134 213.553C549.013 210.524 552.958 206.202 555.531 201.068C558.104 195.933 559.205 190.186 558.711 184.464C558.217 178.743 556.149 173.269 552.734 168.651Z" fill="#8C7BFF"/>
<path d="M527.889 218.819H524.553C524.45 218.824 524.346 218.804 524.252 218.76C524.159 218.715 524.077 218.648 524.016 218.564L492.133 175.912V209.35C492.133 209.53 492.061 209.702 491.934 209.829C491.807 209.957 491.634 210.028 491.454 210.028H361.15C360.97 210.028 360.798 209.957 360.671 209.829C360.543 209.702 360.472 209.53 360.472 209.35V153.412L321.607 182.78C315.585 187.349 308.42 190.168 300.899 190.926C293.378 191.684 285.794 190.352 278.982 187.076L248.173 172.378C248.066 172.334 247.974 172.26 247.909 172.165C247.844 172.069 247.808 171.957 247.805 171.841C247.789 171.729 247.805 171.614 247.85 171.509C247.894 171.404 247.967 171.314 248.06 171.248L346.509 96.7964C355.889 89.769 367.294 85.9707 379.014 85.9707H464.772C473.162 85.9915 481.433 87.9606 488.933 91.7227C496.433 95.4849 502.956 100.937 507.99 107.65L553.215 168.336C556.737 173.05 558.877 178.652 559.395 184.513C559.913 190.375 558.788 196.265 556.147 201.523C553.506 206.782 549.453 211.201 544.442 214.286C539.431 217.37 533.66 218.999 527.776 218.988L527.889 218.819ZM524.892 217.462H527.889C533.517 217.457 539.033 215.887 543.82 212.928C548.608 209.969 552.478 205.738 555 200.706C557.522 195.675 558.595 190.041 558.1 184.435C557.605 178.828 555.561 173.47 552.197 168.958L506.972 108.272C502.06 101.732 495.697 96.4208 488.384 92.757C481.071 89.0931 473.008 87.1765 464.828 87.1579H379.014C367.582 87.1884 356.467 90.9167 347.328 97.7857L249.756 171.644L279.548 185.776C286.139 188.942 293.476 190.229 300.751 189.496C308.027 188.763 314.959 186.038 320.787 181.621L360.755 151.434C360.86 151.366 360.982 151.329 361.108 151.329C361.233 151.329 361.356 151.366 361.461 151.434C361.571 151.497 361.662 151.587 361.727 151.696C361.791 151.805 361.826 151.929 361.829 152.056V208.587H490.776V173.876C490.777 173.735 490.825 173.597 490.912 173.485C490.998 173.372 491.12 173.292 491.257 173.255C491.387 173.204 491.53 173.2 491.663 173.241C491.796 173.282 491.912 173.366 491.991 173.481L524.892 217.462Z" fill="black"/>
<path d="M446.371 101.66H399.648L409.993 82.8633H438.089L446.371 101.66Z" fill="white"/>
<path d="M485.434 166.668C485.335 166.667 485.238 166.643 485.15 166.599C485.062 166.555 484.985 166.492 484.925 166.414L471.103 149.454C471.04 149.391 470.99 149.316 470.956 149.234C470.921 149.151 470.904 149.063 470.904 148.974C470.904 148.884 470.921 148.796 470.956 148.714C470.99 148.631 471.04 148.556 471.103 148.493C471.234 148.372 471.406 148.305 471.584 148.305C471.762 148.305 471.934 148.372 472.064 148.493L485.886 165.453C486.005 165.579 486.072 165.745 486.072 165.919C486.072 166.092 486.005 166.259 485.886 166.385C485.778 166.535 485.616 166.636 485.434 166.668Z" fill="black"/>
<path d="M155.858 145.332L169.991 137.926C171.878 136.939 173.945 136.343 176.068 136.174L197.154 134.562L197.804 142.222L178.414 143.692C175.879 143.88 173.413 144.603 171.178 145.812L159.363 152.059C158.917 152.3 158.424 152.442 157.918 152.474C157.412 152.506 156.905 152.428 156.432 152.245C155.959 152.063 155.532 151.78 155.179 151.416C154.826 151.051 154.556 150.615 154.388 150.137L154.19 149.571C153.917 148.782 153.936 147.921 154.241 147.144C154.547 146.366 155.12 145.724 155.858 145.332Z" fill="#955B50"/>
<path d="M153.965 137.642L167.815 130.378C169.697 129.378 171.766 128.781 173.892 128.625L189.042 127.354L195.571 134.731L175.785 136.229C173.598 136.401 171.471 137.027 169.539 138.066L157.696 144.398C156.8 144.874 155.751 144.974 154.781 144.677C153.811 144.381 152.999 143.711 152.523 142.815C152.047 141.919 151.946 140.871 152.243 139.901C152.54 138.931 153.21 138.118 154.106 137.642H153.965Z" fill="#955B50"/>
<path d="M154.191 132.384C153.901 131.557 153.919 130.654 154.241 129.839C154.563 129.024 155.167 128.352 155.944 127.946L165.865 122.717C167.762 121.73 169.838 121.134 171.97 120.965L193.028 119.354L193.621 127.07L173.836 128.596C171.647 128.741 169.516 129.358 167.589 130.405L159.59 134.702C159.127 134.953 158.616 135.1 158.091 135.135C157.566 135.17 157.04 135.09 156.548 134.902C156.057 134.714 155.612 134.422 155.244 134.046C154.876 133.67 154.594 133.219 154.417 132.723L154.191 132.384Z" fill="#955B50"/>
<path d="M155.632 118.561C155.632 117.68 155.954 116.829 156.537 116.168C157.12 115.507 157.924 115.082 158.798 114.972L169.906 113.417C172.025 113.128 174.181 113.282 176.238 113.869L196.589 119.522L194.497 126.956L175.192 121.614C173.088 121.022 170.883 120.878 168.719 121.19L159.731 122.518C159.21 122.591 158.679 122.551 158.175 122.401C157.67 122.252 157.204 121.995 156.808 121.649C156.411 121.304 156.093 120.877 155.876 120.398C155.658 119.919 155.546 119.398 155.547 118.872L155.632 118.561Z" fill="#955B50"/>
<path d="M159.363 152.058L171.065 145.811C173.3 144.602 175.766 143.879 178.301 143.691L194.978 142.504C195.808 142.572 196.612 142.833 197.324 143.267L198.963 144.257L183.954 152.114C183.464 152.367 183.03 152.715 182.678 153.139C182.326 153.562 182.063 154.053 181.905 154.58C181.746 155.108 181.696 155.662 181.757 156.21C181.817 156.758 181.988 157.287 182.258 157.767L182.428 158.107C182.68 158.596 183.028 159.03 183.452 159.383C183.876 159.735 184.366 159.998 184.894 160.156C185.422 160.314 185.976 160.365 186.523 160.304C187.071 160.243 187.601 160.073 188.081 159.803L203.457 151.549C206.171 150.074 208.625 148.165 210.721 145.896L217.59 138.575L240.202 149.881L252.554 122.266L223.695 112.967C218.233 111.172 212.459 110.527 206.736 111.073L176.153 113.899C174.096 113.312 171.94 113.158 169.821 113.447L158.713 115.002C157.839 115.112 157.035 115.537 156.452 116.198C155.869 116.859 155.547 117.71 155.547 118.591V118.902C155.546 119.428 155.658 119.949 155.876 120.428C156.093 120.907 156.411 121.334 156.807 121.679C157.204 122.025 157.67 122.282 158.174 122.432C158.679 122.582 159.209 122.621 159.73 122.549L168.719 121.22C169.467 121.102 170.224 121.055 170.98 121.079C169.192 121.324 167.461 121.878 165.864 122.718L155.943 127.976C155.166 128.381 154.562 129.053 154.24 129.868C153.918 130.683 153.901 131.586 154.19 132.413V132.724C154.367 133.22 154.649 133.671 155.017 134.047C155.385 134.423 155.83 134.715 156.322 134.903C156.813 135.091 157.339 135.171 157.864 135.136C158.389 135.102 158.901 134.954 159.363 134.703L167.362 130.406C169.289 129.359 171.42 128.742 173.609 128.597L176.944 128.371L173.863 128.626C171.738 128.782 169.668 129.378 167.786 130.378L153.936 137.642C153.029 138.1 152.341 138.899 152.023 139.863C151.705 140.828 151.783 141.88 152.24 142.787C152.697 143.694 153.496 144.382 154.461 144.7C155.426 145.018 156.477 144.94 157.384 144.483L155.858 145.274C155.108 145.668 154.525 146.32 154.219 147.11C153.912 147.9 153.902 148.774 154.19 149.57L154.388 150.136C154.556 150.614 154.826 151.05 155.179 151.414C155.532 151.779 155.959 152.062 156.432 152.244C156.905 152.427 157.412 152.505 157.918 152.473C158.424 152.441 158.917 152.299 159.363 152.058ZM169.397 137.925C170.387 137.395 171.429 136.969 172.506 136.653C171.621 136.94 170.761 137.299 169.934 137.727L158.628 143.635L169.397 137.925Z" fill="#FDDCC4"/>
<path d="M229.773 114.943L225.561 142.531L240.372 150.021L252.724 122.405L229.773 114.943Z" fill="black"/>
<path d="M157.696 153.158C157.184 153.148 156.677 153.053 156.198 152.875C155.631 152.656 155.119 152.318 154.695 151.884C154.27 151.45 153.944 150.93 153.738 150.359L153.541 149.794C153.213 148.842 153.235 147.804 153.603 146.867C153.971 145.929 154.66 145.154 155.547 144.678L169.68 137.272C171.651 136.228 173.816 135.602 176.04 135.435L185.311 134.729C185.491 134.729 185.663 134.8 185.791 134.927C185.918 135.054 185.989 135.227 185.989 135.407C185.989 135.587 185.918 135.759 185.791 135.887C185.663 136.014 185.491 136.085 185.311 136.085L176.068 136.848C174.032 136.989 172.048 137.557 170.245 138.516L156.113 145.922C155.503 146.237 155.029 146.764 154.779 147.404C154.529 148.044 154.521 148.753 154.756 149.398L154.954 149.964C155.088 150.354 155.306 150.71 155.592 151.007C155.879 151.304 156.227 151.535 156.612 151.683C156.998 151.832 157.411 151.894 157.822 151.865C158.234 151.836 158.635 151.718 158.996 151.518L170.754 145.328C173.064 144.065 175.619 143.313 178.245 143.123L192.999 142.021C195.059 141.861 197.116 142.356 198.878 143.434L199.218 143.632C199.294 143.679 199.36 143.739 199.412 143.811C199.465 143.883 199.503 143.965 199.524 144.052C199.545 144.138 199.549 144.228 199.535 144.316C199.521 144.404 199.49 144.489 199.444 144.565C199.397 144.641 199.336 144.707 199.264 144.76C199.192 144.812 199.111 144.85 199.024 144.871C198.938 144.892 198.848 144.896 198.76 144.882C198.672 144.868 198.587 144.837 198.511 144.791L198.172 144.593C196.645 143.663 194.868 143.228 193.084 143.349L178.358 144.48C175.913 144.657 173.533 145.351 171.376 146.515L159.674 152.762C159.058 153.056 158.378 153.191 157.696 153.158Z" fill="black"/>
<path d="M155.745 145.528C155.154 145.528 154.568 145.412 154.021 145.189C153.229 144.863 152.547 144.318 152.055 143.618C151.563 142.917 151.281 142.091 151.242 141.236C151.204 140.381 151.41 139.532 151.837 138.791C152.264 138.049 152.895 137.444 153.654 137.049L167.504 129.784C169.474 128.74 171.639 128.114 173.863 127.947L181.806 127.353C181.894 127.341 181.985 127.348 182.07 127.374C182.156 127.4 182.235 127.444 182.302 127.503C182.369 127.562 182.422 127.634 182.459 127.716C182.495 127.798 182.513 127.886 182.513 127.975C182.52 128.061 182.511 128.147 182.485 128.229C182.46 128.311 182.418 128.387 182.363 128.452C182.308 128.518 182.24 128.572 182.164 128.611C182.088 128.651 182.005 128.675 181.919 128.682L173.948 129.304C171.912 129.444 169.928 130.013 168.125 130.971L154.275 138.264C153.61 138.615 153.092 139.193 152.817 139.893C152.542 140.594 152.528 141.37 152.777 142.08C152.92 142.499 153.151 142.883 153.455 143.205C153.758 143.528 154.127 143.782 154.536 143.95C154.945 144.119 155.386 144.198 155.829 144.183C156.271 144.167 156.705 144.057 157.102 143.861C157.264 143.793 157.445 143.791 157.608 143.854C157.772 143.917 157.904 144.041 157.978 144.2C158.021 144.277 158.046 144.362 158.053 144.449C158.06 144.537 158.049 144.625 158.02 144.708C157.99 144.79 157.944 144.866 157.883 144.93C157.822 144.993 157.749 145.043 157.667 145.076C157.072 145.378 156.413 145.533 155.745 145.528Z" fill="black"/>
<path d="M186.075 160.875C185.596 160.879 185.12 160.812 184.661 160.677C184.058 160.494 183.497 160.192 183.012 159.789C182.527 159.386 182.127 158.891 181.835 158.331L181.665 158.021C181.073 156.895 180.949 155.581 181.319 154.364C181.69 153.147 182.525 152.125 183.644 151.519L202.893 141.316C202.968 141.271 203.052 141.242 203.139 141.231C203.226 141.219 203.315 141.226 203.399 141.25C203.484 141.273 203.563 141.314 203.631 141.369C203.699 141.424 203.756 141.492 203.797 141.57C203.839 141.653 203.864 141.744 203.87 141.837C203.876 141.93 203.862 142.023 203.83 142.11C203.799 142.198 203.749 142.278 203.685 142.345C203.621 142.413 203.544 142.466 203.458 142.503L184.237 152.707C183.433 153.139 182.83 153.87 182.56 154.743C182.291 155.616 182.375 156.56 182.796 157.37L182.965 157.71C183.177 158.109 183.465 158.462 183.815 158.749C184.164 159.035 184.567 159.249 185.001 159.377C185.433 159.518 185.889 159.568 186.341 159.524C186.794 159.48 187.232 159.344 187.629 159.123L203.091 150.982C205.724 149.579 208.111 147.755 210.157 145.584L217.195 138.122C217.313 138.046 217.45 138.006 217.591 138.006C217.731 138.006 217.868 138.046 217.986 138.122L240.062 149.428L251.82 122.717L221.944 113.107C217.607 111.699 213.031 111.18 208.489 111.58L176.295 114.407H176.069C174.077 113.927 172.007 113.869 169.992 114.237L158.883 115.764C158.19 115.856 157.552 116.191 157.082 116.708C156.611 117.225 156.338 117.891 156.311 118.59V118.901C156.311 119.333 156.401 119.759 156.577 120.154C156.752 120.548 157.008 120.901 157.329 121.191C157.65 121.48 158.034 121.692 158.451 121.809C158.868 121.927 159.306 121.947 159.731 121.869L170.218 120.512C170.307 120.5 170.398 120.506 170.484 120.53C170.571 120.553 170.653 120.594 170.724 120.649C170.795 120.704 170.854 120.773 170.898 120.852C170.942 120.93 170.97 121.016 170.981 121.106C170.993 121.193 170.986 121.283 170.963 121.368C170.939 121.453 170.898 121.532 170.842 121.601C170.787 121.67 170.718 121.727 170.64 121.768C170.561 121.809 170.475 121.834 170.387 121.841L159.901 123.197C159.289 123.293 158.663 123.253 158.068 123.083C157.472 122.912 156.921 122.613 156.452 122.208C155.981 121.796 155.603 121.288 155.345 120.717C155.086 120.147 154.953 119.527 154.954 118.901V118.59C154.944 117.536 155.316 116.513 156.002 115.713C156.688 114.912 157.642 114.388 158.685 114.237L169.822 112.711C171.984 112.404 174.186 112.538 176.295 113.107L208.376 110.28C213.144 109.827 217.954 110.356 222.509 111.835L253.092 121.784C253.268 121.849 253.41 121.982 253.488 122.152C253.531 122.24 253.553 122.336 253.553 122.434C253.553 122.532 253.531 122.629 253.488 122.717L241.136 150.332C241.058 150.502 240.916 150.634 240.74 150.7C240.566 150.756 240.378 150.756 240.203 150.7L217.958 139.394L211.288 146.46C209.137 148.74 206.625 150.65 203.854 152.113L188.308 160.31C187.627 160.694 186.856 160.889 186.075 160.875Z" fill="black"/>
<path d="M157.752 135.805C156.869 135.796 156.008 135.521 155.282 135.017C154.557 134.513 153.999 133.803 153.682 132.978V132.667C153.343 131.685 153.364 130.613 153.742 129.645C154.12 128.677 154.83 127.875 155.745 127.382L165.666 122.152C167.637 121.108 169.802 120.482 172.026 120.315L178.867 119.891C178.954 119.883 179.042 119.894 179.126 119.921C179.21 119.948 179.287 119.993 179.353 120.051C179.419 120.109 179.473 120.18 179.51 120.259C179.548 120.339 179.57 120.425 179.573 120.513C179.585 120.602 179.578 120.692 179.553 120.777C179.527 120.863 179.483 120.942 179.424 121.009C179.365 121.076 179.292 121.129 179.211 121.166C179.129 121.202 179.041 121.22 178.951 121.22L171.998 121.587C169.962 121.732 167.979 122.3 166.175 123.255L156.254 128.54C155.601 128.849 155.09 129.395 154.828 130.068C154.565 130.741 154.569 131.489 154.841 132.158V132.469C154.983 132.873 155.21 133.241 155.508 133.548C155.806 133.856 156.166 134.095 156.565 134.25C156.965 134.414 157.397 134.484 157.828 134.454C158.26 134.425 158.678 134.297 159.052 134.08L159.646 133.77C159.724 133.724 159.81 133.695 159.899 133.683C159.988 133.672 160.079 133.678 160.166 133.701C160.252 133.725 160.334 133.766 160.405 133.821C160.475 133.877 160.535 133.945 160.579 134.024C160.66 134.186 160.677 134.373 160.624 134.547C160.571 134.72 160.454 134.867 160.296 134.957L159.702 135.268C159.102 135.593 158.435 135.776 157.752 135.805Z" fill="black"/>
<path d="M280.255 186.967L302.98 139.905L243.029 111.809L220.501 158.955L280.255 186.967Z" fill="#8C7BFF"/>
<path d="M280.255 187.731C280.163 187.756 280.065 187.756 279.972 187.731L220.219 159.465C220.139 159.425 220.068 159.369 220.01 159.301C219.952 159.233 219.908 159.155 219.88 159.07C219.846 158.989 219.828 158.903 219.828 158.815C219.828 158.728 219.846 158.641 219.88 158.561L242.492 111.414C242.572 111.253 242.711 111.13 242.881 111.072C243.05 111.014 243.236 111.025 243.397 111.103L312.676 143.552C312.836 143.631 312.959 143.771 313.018 143.94C313.076 144.109 313.065 144.295 312.987 144.456C312.951 144.539 312.898 144.613 312.832 144.674C312.766 144.734 312.688 144.781 312.603 144.81C312.518 144.839 312.427 144.851 312.338 144.843C312.248 144.836 312.161 144.81 312.082 144.767L243.34 112.714L221.406 158.646L280.538 186.346C280.699 186.425 280.823 186.563 280.886 186.731C280.949 186.899 280.946 187.085 280.877 187.25C280.836 187.385 280.754 187.504 280.643 187.59C280.531 187.676 280.396 187.725 280.255 187.731Z" fill="black"/>
<path d="M384.837 160.506H397.302C402.932 160.504 408.489 161.779 413.555 164.237L437.637 175.967H384.837C382.828 175.967 380.901 175.169 379.48 173.748C378.06 172.328 377.262 170.401 377.262 168.392V168.081C377.262 166.072 378.06 164.145 379.48 162.725C380.901 161.304 382.828 160.506 384.837 160.506Z" fill="#FDDCC4"/>
<path d="M440.577 176.618H384.837C383.754 176.622 382.682 176.412 381.681 176C380.679 175.588 379.769 174.983 379.003 174.219C378.236 173.455 377.627 172.547 377.212 171.547C376.797 170.547 376.583 169.475 376.583 168.393V168.082C376.583 165.893 377.453 163.793 379.001 162.246C380.549 160.698 382.648 159.828 384.837 159.828H397.302C403.031 159.838 408.684 161.142 413.837 163.644L440.577 176.618ZM384.837 161.185C383.008 161.185 381.254 161.911 379.96 163.205C378.667 164.498 377.94 166.253 377.94 168.082V168.393C377.94 170.222 378.667 171.976 379.96 173.269C381.254 174.563 383.008 175.289 384.837 175.289H434.726L413.244 164.859C408.274 162.452 402.825 161.196 397.302 161.185H384.837Z" fill="black"/>
<path d="M420.82 230.012H339.584L309.849 135.492H391.056L420.82 230.012Z" fill="#4ADA85"/>
<path d="M421.752 230.689H339.132V230.237L308.916 134.812H391.564V135.293L421.752 230.689ZM340.093 229.361H419.915L390.575 136.084H310.866L340.093 229.361Z" fill="black"/>
<path d="M379.269 142.703L374.322 126.959H319.516L324.462 142.703H379.269Z" fill="white"/>
<path d="M380.201 143.38H323.981L318.583 126.279H374.803L380.201 143.38ZM324.999 142.023H378.392L373.842 127.636H320.42L324.999 142.023Z" fill="black"/>
<path d="M389.756 165.597L374.577 159.718C373.945 159.481 373.266 159.4 372.596 159.483C371.926 159.565 371.287 159.808 370.731 160.191C370.176 160.574 369.722 161.086 369.407 161.683C369.092 162.28 368.926 162.944 368.924 163.619V164.043C368.925 164.888 369.182 165.713 369.661 166.409C370.141 167.106 370.82 167.64 371.609 167.943L385.516 173.342C387.15 173.961 388.884 174.277 390.632 174.275H406.63V165.597H389.756Z" fill="#FDDCC4"/>
<path d="M383 181.65L371.044 177.014C370.41 176.783 369.729 176.708 369.06 176.795C368.391 176.882 367.753 177.128 367.199 177.513C366.644 177.898 366.191 178.411 365.876 179.008C365.562 179.605 365.395 180.268 365.391 180.943V181.339C365.392 182.184 365.649 183.009 366.128 183.706C366.608 184.402 367.287 184.937 368.076 185.239L381.926 190.553C383.559 191.182 385.292 191.507 387.042 191.514H415.308V182.893H389.727C387.427 182.901 385.146 182.479 383 181.65Z" fill="#FDDCC4"/>
<path d="M385.347 173.255L369.433 167.122C368.799 166.891 368.119 166.815 367.45 166.902C366.781 166.989 366.142 167.235 365.588 167.62C365.034 168.006 364.581 168.518 364.266 169.115C363.951 169.712 363.785 170.376 363.78 171.051V171.39C363.78 172.239 364.036 173.069 364.515 173.77C364.994 174.471 365.674 175.011 366.465 175.319L383.142 181.791C385.118 182.547 387.217 182.93 389.332 182.922H415.337V174.245H390.576C388.786 174.244 387.013 173.909 385.347 173.255Z" fill="#FDDCC4"/>
<path d="M387.184 191.569C385.415 191.576 383.66 191.25 382.011 190.608L373.984 187.499C373.352 187.262 372.672 187.181 372.003 187.264C371.333 187.346 370.693 187.589 370.138 187.973C369.583 188.356 369.128 188.868 368.814 189.464C368.499 190.061 368.333 190.725 368.331 191.4V191.824C368.342 192.686 368.62 193.524 369.126 194.222C369.632 194.92 370.341 195.445 371.157 195.724L381.163 199.597C382.305 200.05 383.524 200.28 384.753 200.275H415.591V191.569H387.184Z" fill="#FDDCC4"/>
<path d="M416.071 189.34L388.031 178.486V198.668L409.824 207.148C413.946 208.732 418.325 209.546 422.741 209.55H433.03V189.34H416.071Z" fill="#FDDCC4"/>
<path d="M407.394 165.568H397.699L420.622 209.521H435.235V174.868L422.968 169.073C418.099 166.77 412.78 165.573 407.394 165.568Z" fill="#FDDCC4"/>
<path d="M466.553 174.865H428.96V209.519H466.553V174.865Z" fill="#FDDCC4"/>
<path d="M440.521 209.519H466.581V174.865H443.262L440.521 209.519Z" fill="black"/>
<path d="M405.387 183.601H389.248C387.045 183.604 384.86 183.201 382.803 182.414L366.155 175.969C365.231 175.611 364.438 174.982 363.878 174.165C363.318 173.347 363.018 172.381 363.017 171.39V171.051C363.015 170.256 363.207 169.472 363.577 168.767C363.946 168.063 364.482 167.459 365.137 167.009C365.798 166.563 366.556 166.282 367.347 166.189C368.139 166.095 368.941 166.192 369.688 166.472L385.573 172.634C387.168 173.253 388.865 173.569 390.576 173.567H405.387C405.475 173.566 405.562 173.584 405.643 173.619C405.723 173.653 405.796 173.703 405.857 173.767C405.918 173.83 405.965 173.905 405.996 173.987C406.027 174.07 406.041 174.157 406.037 174.245C406.041 174.333 406.027 174.42 405.996 174.502C405.965 174.585 405.918 174.66 405.857 174.723C405.796 174.786 405.723 174.837 405.643 174.871C405.562 174.906 405.475 174.923 405.387 174.923H390.576C388.699 174.918 386.84 174.563 385.092 173.877L369.207 167.744C368.667 167.536 368.084 167.461 367.509 167.525C366.934 167.589 366.382 167.79 365.9 168.111C365.435 168.425 365.052 168.845 364.782 169.337C364.511 169.828 364.362 170.377 364.346 170.938V171.277C364.353 171.994 364.576 172.692 364.984 173.281C365.392 173.871 365.967 174.324 366.635 174.584L383.312 181.029C385.203 181.77 387.216 182.153 389.248 182.159H405.387C405.56 182.159 405.725 182.228 405.847 182.35C405.969 182.472 406.037 182.637 406.037 182.809C406.059 182.906 406.058 183.006 406.035 183.102C406.012 183.198 405.968 183.287 405.905 183.364C405.842 183.44 405.763 183.501 405.673 183.542C405.584 183.583 405.486 183.603 405.387 183.601Z" fill="black"/>
<path d="M405.386 200.956H384.357C383.041 200.953 381.737 200.704 380.513 200.221L370.507 196.349C369.598 195.989 368.816 195.367 368.263 194.561C367.709 193.756 367.408 192.804 367.397 191.826V191.402C367.399 190.613 367.593 189.837 367.962 189.14C368.331 188.443 368.864 187.846 369.515 187.401C370.166 186.956 370.916 186.676 371.699 186.585C372.482 186.494 373.276 186.595 374.012 186.88L382.067 189.989C383.639 190.585 385.305 190.891 386.985 190.893H405.33C405.51 190.893 405.682 190.965 405.809 191.092C405.937 191.219 406.008 191.392 406.008 191.572C406.008 191.752 405.937 191.924 405.809 192.051C405.682 192.179 405.51 192.25 405.33 192.25H387.183C385.336 192.255 383.504 191.909 381.785 191.232L373.729 188.123C373.197 187.923 372.624 187.854 372.059 187.923C371.494 187.991 370.955 188.195 370.486 188.517C370.017 188.839 369.632 189.27 369.365 189.772C369.098 190.274 368.957 190.833 368.952 191.402V191.826C368.959 192.536 369.179 193.227 369.582 193.811C369.984 194.395 370.553 194.846 371.213 195.105L381.05 199.034C382.122 199.452 383.263 199.663 384.413 199.656H405.386C405.566 199.656 405.739 199.727 405.866 199.854C405.993 199.981 406.065 200.154 406.065 200.334C406.065 200.514 405.993 200.686 405.866 200.814C405.739 200.941 405.566 201.012 405.386 201.012V200.956Z" fill="black"/>
<path d="M467.232 210.34H420.226C416.597 210.064 413.027 209.264 409.627 207.966L392.102 201.182H384.357C383.041 201.179 381.737 200.93 380.513 200.447L370.507 196.575C369.598 196.215 368.817 195.593 368.263 194.787C367.709 193.982 367.408 193.029 367.398 192.052V191.402C367.4 190.628 367.585 189.866 367.939 189.178C368.293 188.491 368.805 187.896 369.433 187.445C369.737 187.239 370.059 187.059 370.394 186.908L367.567 185.89C366.654 185.529 365.87 184.902 365.316 184.091C364.761 183.28 364.463 182.322 364.458 181.339V180.944C364.454 180.24 364.604 179.544 364.897 178.905C365.19 178.265 365.619 177.698 366.154 177.241C366.508 176.934 366.909 176.685 367.341 176.506L365.956 175.969C365.033 175.61 364.24 174.981 363.68 174.164C363.12 173.347 362.82 172.38 362.819 171.39V171.051C362.818 170.344 362.971 169.645 363.267 169.003C363.562 168.361 363.994 167.79 364.531 167.331C365.068 166.871 365.699 166.534 366.379 166.342C367.06 166.149 367.774 166.107 368.472 166.217C368.126 165.544 367.942 164.798 367.935 164.041V163.617C367.937 162.828 368.131 162.052 368.5 161.355C368.869 160.658 369.401 160.061 370.052 159.616C370.703 159.171 371.453 158.891 372.236 158.8C373.02 158.709 373.813 158.81 374.549 159.094L390.01 164.917H405.528C405.708 164.917 405.88 164.989 406.008 165.116C406.135 165.243 406.206 165.416 406.206 165.595C406.206 165.775 406.135 165.948 406.008 166.075C405.88 166.202 405.708 166.274 405.528 166.274H389.756L374.464 160.338C373.933 160.127 373.356 160.053 372.789 160.122C372.221 160.191 371.679 160.401 371.214 160.734C370.751 161.047 370.37 161.468 370.105 161.96C369.839 162.452 369.696 163.001 369.687 163.56V163.984C369.69 164.662 369.889 165.324 370.26 165.891C370.631 166.458 371.159 166.905 371.779 167.178L371.27 168.422L369.348 167.687C368.808 167.479 368.225 167.404 367.65 167.468C367.074 167.532 366.523 167.733 366.041 168.055C365.576 168.368 365.193 168.789 364.922 169.28C364.652 169.772 364.503 170.32 364.487 170.881V171.22C364.494 171.937 364.717 172.635 365.125 173.225C365.533 173.814 366.108 174.268 366.776 174.527L376.669 178.372L370.224 177.467C369.721 177.38 369.204 177.404 368.711 177.54C368.218 177.675 367.761 177.917 367.372 178.249C366.984 178.581 366.673 178.995 366.462 179.46C366.252 179.926 366.147 180.433 366.154 180.944V181.339C366.155 182.047 366.369 182.737 366.767 183.322C367.165 183.906 367.73 184.358 368.387 184.618L374.04 186.823L373.588 188.095C373.06 187.91 372.495 187.854 371.94 187.932C371.386 188.01 370.858 188.22 370.402 188.544C369.945 188.867 369.573 189.296 369.316 189.793C369.059 190.29 368.924 190.842 368.924 191.402V191.826C368.932 192.536 369.151 193.227 369.554 193.811C369.956 194.395 370.525 194.846 371.185 195.105L381.05 199.034C382.122 199.452 383.263 199.663 384.414 199.655H392.3L410.051 206.524C413.431 207.845 416.999 208.627 420.622 208.842H465.847V175.545H435.235L416.297 166.274C416.15 166.187 416.041 166.048 415.992 165.885C415.943 165.721 415.957 165.545 416.032 165.392C416.107 165.238 416.237 165.119 416.396 165.057C416.555 164.995 416.732 164.996 416.891 165.058L435.546 174.216H467.345L467.232 210.34Z" fill="black"/>
<path d="M447.84 165.996V218.23H527.21V165.996H447.84Z" fill="#8C7BFF"/>
<path d="M527.21 218.821H447.84C447.661 218.821 447.488 218.75 447.361 218.622C447.234 218.495 447.162 218.323 447.162 218.143V165.993C447.162 165.813 447.234 165.64 447.361 165.513C447.488 165.386 447.661 165.314 447.84 165.314H527.21C527.39 165.314 527.563 165.386 527.69 165.513C527.817 165.64 527.888 165.813 527.888 165.993C527.888 166.173 527.817 166.345 527.69 166.473C527.563 166.6 527.39 166.671 527.21 166.671H448.519V217.549H527.21C527.39 217.549 527.563 217.621 527.69 217.748C527.817 217.875 527.888 218.048 527.888 218.228C527.888 218.407 527.817 218.58 527.69 218.707C527.563 218.834 527.39 218.906 527.21 218.906V218.821Z" fill="black"/>
<path d="M394.617 18.1328V39.8973C394.625 43.7081 396.144 47.3603 398.841 50.0523C401.538 52.7443 405.194 54.2562 409.004 54.2562H415.449L435.546 58.1851V51.5144C435.543 48.0314 434.595 44.6145 432.803 41.6279C431.011 38.6413 428.442 36.1968 425.37 34.5551L394.617 18.1328Z" fill="black"/>
<path d="M432.719 86.5638L414.035 101.658V64.0645H432.719V86.5638Z" fill="#FDDCC4"/>
<path d="M432.719 71.1591V64.0645H414.035V79.7236C417.645 80.4528 421.394 80.026 424.748 78.5038C428.102 76.9816 430.891 74.4414 432.719 71.2439V71.1591Z" fill="black"/>
<path d="M420.763 75.3447C428.958 75.3447 435.602 68.0048 435.602 58.9507C435.602 49.8965 428.958 42.5566 420.763 42.5566C412.567 42.5566 405.923 49.8965 405.923 58.9507C405.923 68.0048 412.567 75.3447 420.763 75.3447Z" fill="#FDDCC4"/>
<path d="M420.763 75.9948C416.464 75.7822 412.422 73.8816 409.517 70.706C406.611 67.5304 405.076 63.3365 405.245 59.0355C405.083 54.7365 406.621 50.5467 409.525 47.3727C412.429 44.1988 416.466 42.296 420.763 42.0762C423.541 42.1544 426.246 42.9843 428.59 44.4774C430.935 45.9706 432.83 48.0712 434.076 50.5558C434.156 50.7137 434.171 50.8966 434.119 51.0656C434.066 51.2346 433.949 51.3763 433.793 51.4603C433.716 51.504 433.63 51.5313 433.542 51.5406C433.454 51.55 433.365 51.5411 433.28 51.5147C433.195 51.4882 433.117 51.4446 433.049 51.3866C432.982 51.3287 432.927 51.2576 432.889 51.1777C431.749 48.9283 430.018 47.0319 427.882 45.6922C425.745 44.3526 423.284 43.6204 420.763 43.5742C416.811 43.8006 413.108 45.5792 410.461 48.5226C407.814 51.4661 406.437 55.336 406.63 59.2899C406.445 63.2419 407.824 67.1077 410.47 70.0494C413.115 72.9912 416.813 74.7719 420.763 75.0055C422.814 75.1922 424.88 74.8664 426.775 74.0573C428.669 73.2482 430.333 71.9811 431.617 70.37C431.68 70.3067 431.755 70.2565 431.837 70.2223C431.92 70.1881 432.008 70.1704 432.097 70.1704C432.187 70.1704 432.275 70.1881 432.357 70.2223C432.44 70.2565 432.515 70.3067 432.578 70.37C432.697 70.496 432.764 70.6629 432.764 70.8363C432.764 71.0098 432.697 71.1767 432.578 71.3027C431.137 72.9845 429.308 74.2905 427.25 75.1079C425.191 75.9253 422.965 76.2297 420.763 75.9948Z" fill="black"/>
<path d="M420.762 42.5566C424.894 42.7833 428.769 44.6334 431.544 47.704C434.318 50.7746 435.766 54.817 435.574 58.9506C435.57 59.7535 435.522 60.5555 435.432 61.3532L425.822 54.2586H406.545C407.296 51.015 409.097 48.1099 411.667 45.9941C414.238 43.8783 417.435 42.67 420.762 42.5566Z" fill="black"/>
<path d="M425.455 66.3246C424.446 67.2585 423.213 67.9146 421.874 68.2288C420.536 68.543 419.139 68.5045 417.821 68.1171C416.502 67.7297 415.306 67.0066 414.35 66.0186C413.394 65.0306 412.712 63.8115 412.368 62.4805L425.455 66.3246Z" fill="white"/>
<path d="M53.6503 147.081C52.1968 147.081 50.7759 146.65 49.5674 145.842C48.3589 145.035 47.4169 143.887 46.8607 142.544C46.3045 141.201 46.1589 139.724 46.4425 138.298C46.726 136.873 47.426 135.563 48.4538 134.535C49.4815 133.508 50.791 132.808 52.2166 132.524C53.6422 132.24 55.1198 132.386 56.4627 132.942C57.8055 133.498 58.9533 134.44 59.7608 135.649C60.5683 136.857 60.9993 138.278 60.9993 139.732C60.9993 141.681 60.2251 143.55 58.8469 144.928C57.4687 146.307 55.5994 147.081 53.6503 147.081ZM53.6503 133.74C52.4503 133.712 51.2694 134.043 50.2591 134.691C49.2487 135.339 48.4552 136.274 47.9803 137.376C47.5054 138.479 47.3708 139.698 47.5939 140.877C47.8169 142.057 48.3874 143.142 49.2321 143.995C50.0767 144.848 51.157 145.429 52.3342 145.663C53.5114 145.898 54.7318 145.775 55.8386 145.31C56.9454 144.846 57.8882 144.061 58.5459 143.057C59.2036 142.053 59.5461 140.875 59.5295 139.675C59.5151 138.115 58.8928 136.622 57.7949 135.514C56.697 134.405 55.2101 133.769 53.6503 133.74Z" fill="#4ADA85"/>
<path d="M21.5122 105.444C25.5398 105.444 28.8047 99.0284 28.8047 91.1138C28.8047 83.1992 25.5398 76.7832 21.5122 76.7832C17.4847 76.7832 14.2197 83.1992 14.2197 91.1138C14.2197 99.0284 17.4847 105.444 21.5122 105.444Z" fill="#FED101"/>
<path d="M136.779 61.4347C140.807 61.4347 144.072 55.0186 144.072 47.1041C144.072 39.1895 140.807 32.7734 136.779 32.7734C132.752 32.7734 129.487 39.1895 129.487 47.1041C129.487 55.0186 132.752 61.4347 136.779 61.4347Z" fill="#4ADA85"/>
<path d="M193.055 38.0326C198.332 38.0326 202.609 29.6171 202.609 19.236C202.609 8.85497 198.332 0.439453 193.055 0.439453C187.779 0.439453 183.501 8.85497 183.501 19.236C183.501 29.6171 187.779 38.0326 193.055 38.0326Z" fill="#FDDCC4"/>
<path d="M293.568 42.0457C292.114 42.0457 290.693 41.6147 289.485 40.8072C288.276 39.9997 287.334 38.8519 286.778 37.509C286.222 36.1662 286.076 34.6885 286.36 33.263C286.644 31.8374 287.343 30.5279 288.371 29.5001C289.399 28.4724 290.708 27.7724 292.134 27.4889C293.56 27.2053 295.037 27.3508 296.38 27.9071C297.723 28.4633 298.871 29.4052 299.678 30.6138C300.486 31.8223 300.917 33.2432 300.917 34.6967C300.917 36.6458 300.143 38.515 298.764 39.8933C297.386 41.2715 295.517 42.0457 293.568 42.0457ZM293.568 28.6761C292.376 28.6705 291.209 29.0189 290.215 29.677C289.222 30.3352 288.445 31.2735 287.985 32.3731C287.525 33.4727 287.402 34.6841 287.631 35.8538C287.86 37.0236 288.431 38.099 289.272 38.9438C290.113 39.7886 291.186 40.3648 292.355 40.5994C293.523 40.834 294.735 40.7165 295.837 40.2616C296.939 39.8068 297.881 39.0351 298.543 38.0445C299.206 37.0538 299.56 35.8886 299.56 34.6967C299.553 33.1071 298.92 31.5843 297.799 30.4576C296.677 29.3309 295.157 28.691 293.568 28.6761Z" fill="#FDDCC4"/>
</svg>
