<svg width="119" height="257" viewBox="0 0 119 257" fill="none" xmlns="http://www.w3.org/2000/svg">
<path fill-rule="evenodd" clip-rule="evenodd" d="M317.928 256.409L313.085 241.029C308.976 226.328 299.968 194.834 278.792 177.965C257.615 161.097 222.801 157.496 193.474 149.435C163.469 142.109 137.483 128.966 121.74 106.225C105.996 83.4843 99.7052 49.0543 81.245 29.2497C62.7848 9.44516 31.3662 2.1738 15.7118 -0.04874L0.00250846 -3.68442L50.2582 -58.0017L60.5344 -48.4939C70.0766 -39.6652 90.6291 -20.6496 110.448 -2.31304C130.266 16.0235 150.819 35.0391 170.637 53.3757C190.456 71.7122 211.008 90.7278 230.827 109.064C250.645 127.401 271.197 146.417 291.016 164.753C310.834 183.09 331.387 202.105 340.929 210.934L351.205 220.442L317.928 256.409Z" fill="#4ADA85"/>
</svg>
